<?xml version="1.0" encoding="UTF-8" standalone="no"?>
<!-- Created with Inkscape (http://www.inkscape.org/) -->

<svg
   xmlns:dc="http://purl.org/dc/elements/1.1/"
   xmlns:cc="http://creativecommons.org/ns#"
   xmlns:rdf="http://www.w3.org/1999/02/22-rdf-syntax-ns#"
   xmlns:svg="http://www.w3.org/2000/svg"
   xmlns="http://www.w3.org/2000/svg"
   xmlns:sodipodi="http://sodipodi.sourceforge.net/DTD/sodipodi-0.dtd"
   xmlns:inkscape="http://www.inkscape.org/namespaces/inkscape"
   width="100.0mm"
   height="100.0mm"
   viewBox="0 0 100.0 100.0"
   version="1.1"
   id="svg8"
   inkscape:version="0.92.4 (5da689c313, 2019-01-14)"
   sodipodi:docname="color-swatches.svg">
  <defs
     id="defs2" />
  <sodipodi:namedview
     id="base"
     pagecolor="#ffffff"
     bordercolor="#666666"
     borderopacity="1.0"
     inkscape:pageopacity="0.0"
     inkscape:pageshadow="2"
     inkscape:zoom="1.979899"
     inkscape:cx="4.5627721"
     inkscape:cy="214.35066"
     inkscape:document-units="mm"
     inkscape:current-layer="g824"
     showgrid="true"
     inkscape:window-width="1920"
     inkscape:window-height="1017"
     inkscape:window-x="1672"
     inkscape:window-y="-8"
     inkscape:window-maximized="1"
     borderlayer="true"
     inkscape:snap-global="false">
    <inkscape:grid
       id="grid816"
       units="mm"
       type="xygrid"
       empspacing="1"
       spacingy="2.54"
       spacingx="2.54" />
  </sodipodi:namedview>
  <metadata
     id="metadata5">
    <rdf:RDF>
      <cc:Work
         rdf:about="">
        <dc:format>image/svg+xml</dc:format>
        <dc:type
           rdf:resource="http://purl.org/dc/dcmitype/StillImage" />
        <dc:title />
      </cc:Work>
    </rdf:RDF>
  </metadata>
  <g
     id="g822"
     inkscape:groupmode="layer"
     inkscape:label="[fixed] BG" />
  <g
     id="g824"
     inkscape:groupmode="layer"
     inkscape:label="Edge.Cuts"
     style="display:inline">
    <path
       inkscape:connector-curvature="0"
       style="display:inline;opacity:1;fill:none;fill-opacity:1;stroke:#000000;stroke-width:0.41100001;stroke-linecap:butt;stroke-linejoin:round;stroke-miterlimit:11.89999962;stroke-dasharray:none;stroke-dashoffset:0;stroke-opacity:1;paint-order:normal"
       d="M 5.4790261,3.2117918 H 95.067686 l 1e-6,7e-7 V 97.800834 h -1e-6 -89.5886599 -7e-7 V 3.2117925 l 7e-7,-7e-7 v 0"
       id="rect905" />
  </g>
  <g
     id="g826"
     inkscape:groupmode="layer"
     inkscape:label="B.Cu"
     style="display:inline">
    <path
       style="display:inline;opacity:1;fill:#000000;fill-opacity:1;stroke:#000000;stroke-width:1.49110973;stroke-linecap:butt;stroke-linejoin:round;stroke-miterlimit:11.89999962;stroke-dasharray:none;stroke-dashoffset:0;stroke-opacity:1;paint-order:normal"
       d="M 27.496094 19.304688 L 27.496094 226.87109 L 352.52344 226.87109 L 352.52344 19.304688 L 27.496094 19.304688 z M 27.496094 297.44531 L 27.496094 362.47461 L 352.52344 362.47461 L 352.52344 297.44531 L 27.496094 297.44531 z "
       transform="scale(0.26458333)"
       id="path839" />
  </g>
  <g
     id="g828"
     inkscape:groupmode="layer"
     inkscape:label="B.Mask"
     style="display:none">
    <rect
       ry="4.7470451e-07"
       y="60.02636"
       x="5.7869253"
       height="18.672863"
       width="88.972862"
       id="rect869"
       style="display:inline;opacity:1;fill:#000000;fill-opacity:1;stroke:#000000;stroke-width:0.32713738;stroke-linecap:round;stroke-linejoin:round;stroke-miterlimit:11.89999962;stroke-dasharray:none;stroke-dashoffset:0;stroke-opacity:1;paint-order:markers fill stroke" />
    <path
       d="m 46.070169,40.780001 c 0.05691,-0.05471 0.103479,-0.489036 0.103479,-0.965202 0,-0.688137 0.04539,-0.848958 0.221279,-0.784098 0.129048,0.0476 0.327023,-0.07352 0.474979,-0.290572 0.37197,-0.545689 0.684141,-0.607844 0.857068,-0.170589 0.231227,0.584623 0.534691,0.435716 0.84203,-0.413177 0.369588,-1.020782 1.304543,-2.350056 1.652968,-2.350056 0.167397,0 0.782561,-0.672051 1.604801,-1.753217 0.733326,-0.964269 1.587436,-2.044223 1.897977,-2.399855 l 0.564619,-0.646639 -0.08967,-1.330393 c -0.08762,-1.300038 -0.08182,-1.330393 0.254278,-1.330393 0.232513,0 0.396355,-0.132937 0.505733,-0.410328 0.108699,-0.275712 0.79459,-0.835948 2.090742,-1.707707 4.115176,-2.767797 4.421884,-3.000799 5.078667,-3.858195 1.012047,-1.321489 1.329185,-2.123352 1.224701,-3.096481 -0.166267,-1.548566 -1.055654,-2.01079 -3.908585,-2.031213 -1.739407,-0.01245 -2.095496,-0.09119 -2.095496,-0.463409 0,-0.237081 -0.461843,-0.510718 -1.028782,-0.609523 -0.209365,-0.0365 -0.739778,0.03616 -1.178716,0.161464 -1.083643,0.309345 -2.100784,0.288008 -2.759604,-0.05789 -1.392147,-0.730942 -1.543731,-0.770669 -2.026034,-0.530907 -0.24658,0.122576 -0.526251,0.36278 -0.621422,0.533798 -0.109431,0.196561 -0.268146,0.280235 -0.431463,0.227471 -2.100201,-0.678532 -3.013585,-0.817531 -5.032586,-0.765867 -2.980406,0.07626 -4.780302,0.492113 -5.937724,1.371753 -1.055218,0.80205 -1.41703,1.855518 -0.974405,2.836947 0.360435,0.799159 1.658837,2.509338 2.246692,2.959299 2.191976,1.677633 3.204508,2.179678 4.588845,2.275173 0.961745,0.06636 1.047748,0.09993 1.047748,0.40898 0,0.185173 -0.242025,0.662957 -0.537844,1.061721 -0.29581,0.398773 -0.747054,1.06424 -1.002734,1.47881 -0.255689,0.414571 -0.779408,0.970891 -1.163873,1.236298 -0.834658,0.576183 -1.074912,0.880618 -0.455916,0.577769 0.244169,-0.11948 0.601097,-0.263841 0.793184,-0.320802 0.32988,-0.09782 0.348497,-0.0637 0.335677,0.615258 -0.0075,0.395341 -0.09799,1.289547 -0.201173,1.987103 -0.150982,1.020736 -0.14812,1.397352 0.01464,1.929565 0.111231,0.363704 0.247186,1.320508 0.302115,2.126241 0.05494,0.805734 0.145259,1.464962 0.200726,1.464962 0.05546,0 0.184666,-0.08057 0.287112,-0.179052 0.144876,-0.139264 0.187824,-0.0315 0.193266,0.484933 0.009,0.853201 0.226503,1.299758 1.043965,2.1434 0.659984,0.681144 0.821754,0.77398 1.018692,0.58467 z m -1.025435,-1.08802 c -0.744095,-0.795569 -0.9827,-1.537609 -0.798326,-2.482527 0.109247,-0.559771 -0.01612,-0.646732 -0.355788,-0.246738 -0.195279,0.229956 -0.212256,0.12757 -0.14229,-0.857957 0.07128,-1.004043 0.05769,-1.080746 -0.132147,-0.746049 -0.198277,0.349542 -0.211087,0.317994 -0.203501,-0.501206 0.0051,-0.554455 -0.06421,-0.917175 -0.189569,-0.991687 -0.244572,-0.145297 -0.08842,-1.742119 0.245483,-2.510317 0.256203,-0.589426 0.292166,-1.129566 0.06627,-0.99537 -0.09374,0.05569 -0.155222,-0.147662 -0.155222,-0.513422 0,-0.472996 0.0595,-0.608124 0.271639,-0.617076 0.351311,-0.01476 0.594306,-0.06105 1.777582,-0.338572 0.537698,-0.12611 1.113571,-0.250034 1.279707,-0.275376 0.166156,-0.02535 0.534594,-0.260297 0.818699,-0.522095 0.628843,-0.579447 1.015976,-0.712151 1.440362,-0.493838 0.431265,0.221866 0.91775,0.05382 1.087621,-0.375711 0.112812,-0.285233 0.240579,-0.345127 0.688894,-0.322955 0.302727,0.01497 0.550747,0.07758 0.551087,0.139128 3.44e-4,0.06155 0.15786,0.106606 0.349947,0.10013 0.192088,-0.0065 0.261937,-0.04565 0.155222,-0.08704 -0.106715,-0.04139 -0.194027,-0.177565 -0.194027,-0.302602 0,-0.148656 -0.0874,-0.195106 -0.252507,-0.134201 -0.13888,0.05123 -0.342211,0.02158 -0.451846,-0.06589 -0.138618,-0.110588 -0.229981,-0.111372 -0.299933,-0.0026 -0.132778,0.206516 -0.750595,0.200398 -0.969021,-0.0096 -0.195939,-0.18835 -0.562825,-0.03646 -0.425997,0.176362 0.04912,0.07639 0.224883,0.1389 0.390587,0.1389 0.378703,0 0.390621,0.241963 0.02128,0.431967 -0.171104,0.08803 -0.367304,0.09096 -0.504472,0.0075 -0.390484,-0.237477 -0.883988,-0.153332 -1.360327,0.231942 -0.253647,0.205163 -0.52984,0.373025 -0.613805,0.373025 -0.08397,0 -0.242438,0.104041 -0.352227,0.2312 -0.265032,0.306977 -1.376965,0.233374 -1.597962,-0.10578 -0.12439,-0.190868 -0.06914,-0.363835 0.241085,-0.754816 0.389228,-0.490528 1.785245,-1.310343 2.231314,-1.310343 0.120182,0 0.218509,-0.05676 0.218509,-0.126143 0,-0.171181 -1.242357,0.144225 -1.714814,0.435343 -0.209384,0.12903 -0.452642,0.274929 -0.540561,0.324229 -0.105643,0.05924 -0.149808,-0.370936 -0.130212,-1.268377 0.02427,-1.111474 0.07433,-1.364293 0.275772,-1.392736 0.187401,-0.02644 0.223709,0.0511 0.15219,0.325026 -0.15217,0.582806 0.0538,1.053237 0.547206,1.24968 0.853817,0.339975 1.477713,-0.157192 1.439005,-1.146771 -0.01052,-0.269054 0.04859,-0.489176 0.13136,-0.489176 0.08277,0 0.155222,-0.117503 0.160999,-0.261117 0.0084,-0.207891 0.04484,-0.192686 0.178943,0.0746 0.09264,0.184648 0.298792,0.335723 0.458117,0.335723 0.231485,0 0.270115,0.07494 0.192287,0.373025 -0.158405,0.606678 0.04611,1.064799 0.568161,1.272666 0.643927,0.25639 1.593497,0.04177 1.669945,-0.377402 0.05411,-0.296793 0.05314,-0.296811 -0.177287,-0.0034 -0.214289,0.272872 -0.226077,0.244854 -0.156989,-0.373025 0.113021,-1.010711 -0.145356,-1.248607 -1.312061,-1.208135 -0.833931,0.02893 -0.951801,-0.0028 -1.04348,-0.280341 -0.129149,-0.39114 0.14965,-0.727903 0.828402,-1.000631 0.363829,-0.146189 0.576019,-0.161902 0.71276,-0.05279 0.107112,0.08545 0.240704,0.111185 0.296881,0.05719 0.05618,-0.05398 0.102136,0.01375 0.102136,0.150521 0,0.219987 0.51422,0.322312 1.185604,0.235937 0.05448,-0.007 0.15546,0.07498 0.224392,0.18219 0.06893,0.107213 0.17105,0.150988 0.226926,0.09728 0.200342,-0.192584 -0.11324,-0.41679 -0.711596,-0.50876 -0.334979,-0.05149 -0.688749,-0.185956 -0.786199,-0.298811 -0.391489,-0.453449 -1.987181,-0.09659 -2.226902,0.498035 -0.09569,0.237324 -0.127621,0.241277 -0.290449,0.03597 -0.488561,-0.616003 -1.6974,-0.997327 -1.841756,-0.580985 -0.03018,0.08702 -0.280472,0.164383 -0.556228,0.171918 -0.275743,0.0075 -0.501368,0.07063 -0.501368,0.140206 0,0.06958 -0.157162,0.127421 -0.349249,0.128539 -0.651156,0.0038 -0.979643,0.163824 -1.165716,0.567931 -0.22742,0.493885 -0.05768,1.268471 0.239236,1.09175 0.14,-0.08333 0.157711,-0.225353 0.05982,-0.47971 -0.109378,-0.284203 -0.07221,-0.417074 0.174119,-0.622439 0.172248,-0.143615 0.459657,-0.271342 0.638691,-0.283843 0.179023,-0.0125 0.403344,-0.0303 0.498504,-0.03955 0.09515,-0.0093 0.286326,-0.10724 0.424847,-0.217749 0.147137,-0.117381 0.408704,-0.163081 0.629085,-0.109915 0.230069,0.05551 0.401328,0.02151 0.439007,-0.08715 0.09815,-0.283061 1.205687,0.4448 1.205687,0.79235 0,0.160015 -0.09206,0.324892 -0.204578,0.366395 -0.176531,0.06512 -2.078615,0.189796 -3.184184,0.208718 -0.220246,0.0038 -0.335149,0.07896 -0.29349,0.192047 0.03766,0.102218 0.246648,0.174033 0.464428,0.159598 0.305738,-0.02027 0.418546,0.06024 0.495062,0.353329 0.05451,0.208773 0.06803,0.409451 0.03006,0.44596 -0.03798,0.0365 -0.511359,-0.01072 -1.05192,-0.10495 -2.981571,-0.519726 -6.562977,-3.581747 -6.767191,-5.785624 -0.0557,-0.60113 -0.0063,-0.760925 0.344923,-1.116697 0.654115,-0.662493 1.466653,-1.104107 2.716335,-1.476246 1.032856,-0.307597 1.470533,-0.346382 3.880548,-0.343887 2.57096,0.0027 2.786961,0.02559 4.034654,0.428265 2.278221,0.735279 4.094415,1.869834 6.447047,4.027363 1.001327,0.918294 1.330591,1.135208 1.724467,1.136001 0.455639,8.73e-4 0.49249,-0.03969 0.575145,-0.633163 0.04856,-0.348778 0.133593,-1.275233 0.188954,-2.05877 l 0.100657,-1.42463 1.962975,0.0147 c 2.931657,0.02196 3.70146,0.465567 3.562537,2.05299 -0.119065,1.360375 -1.709576,3.359088 -3.572578,4.489493 -0.971156,0.589287 -1.132393,0.682496 -1.364255,0.788947 -0.128058,0.05878 -0.267758,0.146897 -0.310444,0.195811 -0.04269,0.04891 -0.26704,0.204763 -0.498554,0.346325 l -0.420957,0.257392 -0.161086,-0.559258 c -0.260977,-0.906031 -0.360678,-0.985857 -1.110613,-0.889197 -0.724062,0.09335 -2.06353,-0.340599 -2.416176,-0.782792 -0.139743,-0.175221 -0.227322,-0.188752 -0.36677,-0.05667 -0.256494,0.242941 -0.0636,0.471923 0.519169,0.616283 0.341664,0.08465 0.512331,0.225185 0.546431,0.449993 0.02728,0.179799 -0.02072,0.326902 -0.106657,0.326902 -0.09284,0 -0.119303,0.218914 -0.0652,0.539347 0.08438,0.499806 0.06659,0.531886 -0.242592,0.437576 -0.24451,-0.0746 -0.333646,-0.03931 -0.333646,0.132074 0,0.128628 -0.104775,0.233868 -0.232833,0.233868 -0.161853,0 -0.232833,0.156521 -0.232833,0.513422 0,0.282384 -0.07004,0.555061 -0.155644,0.605885 -0.103504,0.06149 -0.10167,0.189404 0.0055,0.381833 0.25535,0.458644 0.381866,0.341066 0.397587,-0.369481 0.01446,-0.654006 0.379179,-1.238116 0.666485,-1.067457 0.170385,0.101225 0.327896,-0.258035 0.327896,-0.747868 0,-0.198453 0.07858,-0.360821 0.174625,-0.360821 0.109824,0 0.141281,-0.160252 0.08477,-0.431862 -0.0778,-0.373909 -0.04916,-0.421629 0.21343,-0.355623 0.361356,0.09084 0.393347,0.380673 0.07045,0.638292 -0.128058,0.102163 -0.232833,0.376477 -0.232833,0.609569 0,0.233094 -0.1397,0.764515 -0.310444,1.180951 -0.173058,0.422049 -0.302314,1.068296 -0.292079,1.460299 0.0159,0.608916 0.03266,0.643188 0.124944,0.255592 0.08211,-0.344843 0.133995,-0.162835 0.225979,0.792631 0.09889,1.02717 0.07625,1.303582 -0.131764,1.608763 -0.138138,0.202664 -0.317143,0.329278 -0.39779,0.281368 -0.08065,-0.04791 -0.10525,0.01653 -0.05469,0.143194 0.05476,0.13718 -0.01176,0.26856 -0.164506,0.324905 -0.141043,0.05203 -0.340377,0.283471 -0.442964,0.514308 -0.253444,0.570309 -2.501838,3.304487 -2.566595,3.121146 -0.0719,-0.203574 -0.336312,-0.184195 -0.336312,0.02465 0,0.09413 -0.246415,0.46022 -0.547594,0.813521 -0.301175,0.35331 -0.709559,1.056546 -0.907515,1.562787 -0.256189,0.655079 -0.389175,0.847187 -0.461349,0.666363 -0.190617,-0.477519 -0.106409,-0.853155 0.209041,-0.932422 0.2009,-0.0505 0.310443,-0.203528 0.310443,-0.433661 0,-0.51594 -0.172732,-0.428726 -0.698498,0.352588 -0.562534,0.835949 -0.809483,0.941235 -0.896892,0.382407 -0.05566,-0.355903 -0.06906,-0.336557 -0.08881,0.128157 -0.01279,0.301036 -0.06645,0.655498 -0.119225,0.787735 -0.08619,0.215912 -0.116523,0.21338 -0.297754,-0.02486 -0.305894,-0.402135 -0.460001,-0.112099 -0.460001,0.865791 0,0.485538 -0.04592,0.88281 -0.102029,0.88281 -0.05612,0 -0.413438,-0.332944 -0.794057,-0.739895 z m 1.500365,-2.629546 c 0.05182,-0.129808 0.092,-0.348027 0.08928,-0.484932 -0.0043,-0.214718 -0.03624,-0.209127 -0.232833,0.04072 -0.254423,0.323348 -0.301266,0.680211 -0.08928,0.680211 0.07624,0 0.181013,-0.106209 0.232833,-0.236017 z M 45.08708,35.535411 c 0,-0.322848 0.04081,-0.813613 0.09068,-1.090584 0.07162,-0.397747 0.05333,-0.456545 -0.08703,-0.279769 -0.139312,0.175457 -0.155372,0.110984 -0.07433,-0.29842 0.07915,-0.399845 0.0603,-0.482741 -0.08044,-0.353791 -0.240201,0.220104 -0.425463,1.481748 -0.197719,1.34648 0.109306,-0.06494 0.137178,0.09532 0.0835,0.480037 -0.04816,0.345122 -0.01097,0.618894 0.09238,0.680304 0.115936,0.06888 0.172961,-0.09077 0.172961,-0.484233 z m 4.031211,-0.832498 c 0.106429,-0.36541 0.162386,-0.753417 0.124347,-0.862247 -0.03804,-0.10882 -0.158278,0.158275 -0.267195,0.593529 -0.242612,0.969585 -0.125473,1.189903 0.142848,0.268686 z m 2.547822,-2.479263 c 0.151089,-0.329185 0.32894,-0.566298 0.395229,-0.526897 0.215923,0.128278 0.476856,-0.662539 0.455625,-1.380845 l -0.02074,-0.701707 -0.106065,0.736958 c -0.05833,0.405319 -0.190171,0.763908 -0.292971,0.796827 -0.188765,0.06049 -0.529016,0.61288 -0.800849,1.300179 -0.243062,0.614558 0.07266,0.422888 0.369783,-0.224478 z m -7.683485,-0.61232 c 0.0099,-0.13255 0.158937,-0.413218 0.33118,-0.623698 0.172248,-0.210493 0.248656,-0.421051 0.169794,-0.467913 -0.07886,-0.04685 -0.104013,-0.229904 -0.05589,-0.406788 0.05994,-0.220327 0.03091,-0.287989 -0.09218,-0.214862 -0.09882,0.05871 -0.179674,0.275054 -0.179674,0.480782 0,0.205714 -0.07426,0.507407 -0.165035,0.670466 -0.09077,0.163035 -0.133797,0.410411 -0.09562,0.549745 0.06005,0.21912 0.07185,0.220779 0.08742,0.01231 z m 9.173616,-1.885268 c -0.0018,-0.319747 -0.0356,-0.36092 -0.152846,-0.186512 -0.196263,0.291934 -0.196263,0.59684 0,0.59684 0.08537,0 0.15415,-0.184648 0.152846,-0.410328 z m -4.0348,0.274076 c 0.529403,-0.0665 0.71111,-0.158219 0.755203,-0.381236 0.04835,-0.24442 0.01952,-0.262899 -0.171908,-0.110178 -0.142252,0.113484 -0.608034,0.168603 -1.220869,0.144459 -0.797987,-0.03144 -1.027569,-0.09712 -1.179396,-0.337453 -0.186989,-0.295986 -0.188575,-0.295883 -0.194027,0.01209 -0.0093,0.523121 0.866914,0.816038 2.010997,0.672331 z m 1.320793,-1.141503 c 0.341488,-0.121196 0.848676,-0.323221 1.127056,-0.448949 0.278405,-0.125728 0.584314,-0.182176 0.679824,-0.125439 0.104862,0.0623 0.144317,0.02106 0.09961,-0.104121 -0.05629,-0.157612 -0.349386,-0.196365 -1.223101,-0.161734 -0.631995,0.02505 -1.638028,0.05862 -2.235632,0.07461 -1.18638,0.03173 -1.840641,0.351142 -1.508126,0.736258 0.244397,0.283074 2.290154,0.302709 3.060345,0.02937 z m -1.319387,0.02167 c 0,-0.03432 -0.04436,-0.17354 -0.09859,-0.309378 -0.08151,-0.204189 -0.0096,-0.238615 0.414908,-0.198715 0.565542,0.05315 0.794155,0.355866 0.351971,0.466053 -0.393585,0.09807 -0.668279,0.115358 -0.668279,0.04205 z m -1.453119,-0.310622 c 0.04914,-0.123099 0.186649,-0.223815 0.305573,-0.223815 0.118925,0 0.216225,0.100716 0.216225,0.223815 0,0.123154 -0.137435,0.223815 -0.305574,0.223815 -0.207847,0 -0.276999,-0.07158 -0.216224,-0.223815 z m 4.64356,-1.132084 c 0.05736,-0.08922 0.02656,-0.236936 -0.06845,-0.328262 -0.126841,-0.121928 -0.172743,-0.07883 -0.172743,0.16221 0,0.360267 0.08063,0.415783 0.241191,0.166052 z m -0.678659,-1.495876 c 0.107603,-0.06393 0.150536,-0.15958 0.09542,-0.212569 -0.124726,-0.119894 -0.744483,0.05868 -0.744483,0.214513 0,0.148338 0.398139,0.147149 0.64907,-0.002 z m -3.287843,-0.500785 c 0,-0.13311 -0.09105,-0.185549 -0.23194,-0.133576 -0.127568,0.04706 -0.193295,0.145665 -0.146059,0.219134 0.13545,0.210674 0.378004,0.155774 0.378004,-0.08556 z m 4.031744,-1.419781 c 0.200639,-0.119199 0.200595,-0.144187 -3.44e-4,-0.207327 -0.125672,-0.03948 -0.438037,-0.05842 -0.694133,-0.04209 -0.256117,0.01634 -0.552978,-0.03034 -0.659694,-0.103715 -0.120597,-0.08293 -0.194027,-0.07337 -0.194027,0.02525 0,0.08727 0.06796,0.19905 0.151021,0.248398 0.27907,0.16579 1.166881,0.216297 1.397192,0.07948 z m 0.366188,-0.549466 c 0.210762,-0.2026 0.108369,-0.638992 -0.129353,-0.551331 -0.128058,0.04724 -0.232833,0.212993 -0.232833,0.368343 0,0.283442 0.168906,0.368777 0.362186,0.182983 z M 41.598817,20.67988 c 0.258347,-0.256269 0.675167,-0.617031 0.926238,-0.801678 0.399435,-0.293756 0.416951,-0.335723 0.140127,-0.335723 -0.324234,0 -1.768899,1.216574 -1.768899,1.489582 0,0.245478 0.202239,0.144095 0.702573,-0.352196 z M 41.01266,20.429445 c 0.50583,-0.455684 0.639369,-0.737751 0.34925,-0.737751 -0.08537,0 -0.155222,0.07497 -0.155222,0.166602 0,0.09725 -0.161533,0.136924 -0.388055,0.0953 -0.21343,-0.03922 -0.388055,-0.01348 -0.388055,0.05721 0,0.07068 0.06985,0.128517 0.155222,0.128517 0.08537,0 0.155222,0.07497 0.155222,0.166611 0,0.09473 -0.137847,0.131962 -0.319481,0.0863 -0.233817,-0.05878 -0.306655,-0.01675 -0.271638,0.156745 0.07944,0.393607 0.331976,0.358617 0.862743,-0.11954 z m 2.522356,8.500303 c 0,-0.08924 0.347188,-0.670606 0.77155,-1.291972 0.802158,-1.174562 1.120121,-1.224547 0.715379,-0.112481 -0.158976,0.436775 -0.171612,0.649903 -0.04713,0.794729 0.205412,0.238955 -0.09352,0.467774 -0.615697,0.471271 -0.187048,0.0013 -0.383258,0.06943 -0.436024,0.151494 -0.128087,0.199224 -0.388054,0.190481 -0.388054,-0.01305 z m 10.372221,-1.300039 c 0.02744,-0.188764 0.183065,-0.625189 0.34584,-0.969864 0.162779,-0.344661 0.297492,-0.806713 0.299364,-1.026844 0.0033,-0.38781 0.476779,-0.837348 1.113669,-1.057385 0.408641,-0.141182 0.766069,0.224775 0.857165,0.877633 0.08173,0.585742 0.06134,0.619035 -0.702234,1.146352 -0.432526,0.298704 -0.898153,0.750853 -1.034748,1.004743 -0.181658,0.33768 -0.339727,0.449154 -0.588631,0.415102 -0.255965,-0.03502 -0.327925,-0.131599 -0.290405,-0.38976 z m 1.259917,-0.839352 c 0.104426,-0.120949 0.167213,-0.42744 0.139535,-0.681097 -0.05196,-0.476166 0.219406,-0.781066 0.577571,-0.648922 0.105823,0.03904 0.238513,-7.41e-4 0.294873,-0.08841 0.161829,-0.251699 -0.65363,-0.190406 -1.085486,0.0816 -0.43028,0.271011 -0.499669,0.505074 -0.14976,0.505074 0.275043,0 0.29644,0.203793 0.06503,0.619408 -0.206377,0.370684 -0.100826,0.51235 0.158195,0.212344 z m -5.888732,-1.593796 c 0,-0.07328 0.100651,-0.133243 0.223674,-0.133243 0.293758,0 0.40706,-0.190895 0.254307,-0.428475 -0.09589,-0.14914 -0.177777,-0.137204 -0.37781,0.05509 -0.308562,0.29661 -0.353862,-0.0131 -0.05642,-0.385754 0.286831,-0.359368 0.610362,-0.41513 1.081606,-0.186415 0.459427,0.22298 0.582809,0.78587 0.232833,1.062189 -0.383384,0.302677 -1.358192,0.314594 -1.358192,0.0166 z m -2.709739,0.02627 c -0.04912,-0.07639 -0.02137,-0.179261 0.06167,-0.228593 0.208526,-0.123887 0.02476,-0.527783 -0.240128,-0.527783 -0.118925,0 -0.22174,0.08393 -0.228482,0.186512 -0.0092,0.140313 -0.03239,0.138177 -0.09354,-0.0086 -0.04471,-0.107328 0.03755,-0.321371 0.182789,-0.475654 0.214802,-0.22816 0.340857,-0.252435 0.675603,-0.130088 0.226352,0.08273 0.443935,0.13664 0.483521,0.119808 0.03959,-0.01683 0.141136,0.0748 0.225664,0.20361 0.227172,0.346196 -0.181489,0.999707 -0.625157,0.999707 -0.193964,0 -0.392852,-0.06251 -0.441965,-0.138901 z M 55.281485,20.56613 C 53.6908,19.044329 52.331297,18.022566 50.932748,17.297685 L 49.71542,16.66676 50.111037,16.314131 c 0.522904,-0.466072 0.917507,-0.44479 1.837003,0.09907 0.980663,0.580053 1.809888,0.685386 3.018388,0.383432 1.948617,-0.486844 2.228308,-0.27187 2.228308,1.712745 0,0.70828 -0.04487,1.700526 -0.09973,2.204949 -0.133888,1.231355 -0.39373,1.21014 -1.813525,-0.148213 z M 40.973903,30.655519 c 0.607354,-0.503211 0.645044,-0.66156 0.08939,-0.375702 -0.227333,0.116953 -0.897862,0.91489 -0.752681,0.895726 0.02331,-0.0031 0.321785,-0.237085 0.663283,-0.519996 z"
       id="path12"
       inkscape:connector-curvature="0"
       style="display:inline;stroke-width:0.15218624" />
    <path
       style="display:inline;opacity:1;fill:none;fill-opacity:1;stroke:#000000;stroke-width:0.41100001;stroke-linecap:butt;stroke-linejoin:round;stroke-miterlimit:11.89999962;stroke-dasharray:none;stroke-dashoffset:0;stroke-opacity:1;paint-order:normal"
       d="M 95.067686,3.2117918 H 5.4790264 l -1e-6,7e-7 V 97.800834 h 1e-6 89.5886596 1e-6 V 3.2117925 l -1e-6,-7e-7 v 0"
       id="path872"
       inkscape:connector-curvature="0" />
  </g>
  <g
     id="g830"
     inkscape:groupmode="layer"
     inkscape:label="B.Silk"
     style="display:inline">
    <text
       xml:space="preserve"
       style="font-style:normal;font-variant:normal;font-weight:normal;font-stretch:normal;font-size:4.93888855px;line-height:1.25;font-family:'Franklin Gothic Medium';-inkscape-font-specification:'Franklin Gothic Medium, ';letter-spacing:0px;word-spacing:0px;fill:#000000;fill-opacity:1;stroke:none;stroke-width:0.26458332"
       x="-83.96656"
       y="10.865615"
       id="text837"
       transform="scale(-1,1)"><tspan
         sodipodi:role="line"
         id="tspan835"
         x="-83.96656"
         y="10.865615"
         style="stroke-width:0.26458332">Badgepirates color swatches v1</tspan></text>
  </g>
  <g
     id="g832"
     inkscape:groupmode="layer"
     inkscape:label="F.Cu"
     style="display:none">
    <rect
       style="opacity:1;fill:#000000;fill-opacity:1;stroke:#000000;stroke-width:0.32713738;stroke-linecap:round;stroke-linejoin:round;stroke-miterlimit:11.89999962;stroke-dasharray:none;stroke-dashoffset:0;stroke-opacity:1;paint-order:markers fill stroke"
       id="rect856"
       width="88.972862"
       height="18.672863"
       x="5.7869253"
       y="3.2117918"
       ry="4.7470451e-07" />
    <rect
       style="opacity:1;fill:#000000;fill-opacity:1;stroke:#000000;stroke-width:0.32713738;stroke-linecap:round;stroke-linejoin:round;stroke-miterlimit:11.89999962;stroke-dasharray:none;stroke-dashoffset:0;stroke-opacity:1;paint-order:markers fill stroke"
       id="rect861"
       width="88.972862"
       height="18.672863"
       x="5.7869253"
       y="41.083359"
       ry="4.7470451e-07" />
    <rect
       style="opacity:1;fill:#000000;fill-opacity:1;stroke:#000000;stroke-width:0.66064531;stroke-linecap:round;stroke-linejoin:round;stroke-miterlimit:11.89999962;stroke-dasharray:none;stroke-dashoffset:0;stroke-opacity:1;paint-order:markers fill stroke"
       id="rect873"
       width="43.989357"
       height="18.139355"
       x="5.603848"
       y="79.292107"
       ry="6.1957331e-07" />
  </g>
  <g
     id="g834"
     inkscape:groupmode="layer"
     inkscape:label="F.Mask"
     style="display:none">
    <rect
       ry="4.7470451e-07"
       y="41.083359"
       x="5.7201076"
       height="18.672863"
       width="88.972862"
       id="rect863"
       style="display:inline;opacity:1;fill:#000000;fill-opacity:1;stroke:#000000;stroke-width:0.32713738;stroke-linecap:round;stroke-linejoin:round;stroke-miterlimit:11.89999962;stroke-dasharray:none;stroke-dashoffset:0;stroke-opacity:1;paint-order:markers fill stroke" />
    <rect
       style="display:inline;opacity:1;fill:#000000;fill-opacity:1;stroke:#000000;stroke-width:0.32713738;stroke-linecap:round;stroke-linejoin:round;stroke-miterlimit:11.89999962;stroke-dasharray:none;stroke-dashoffset:0;stroke-opacity:1;paint-order:markers fill stroke"
       id="rect866"
       width="88.972862"
       height="18.672863"
       x="5.7869248"
       y="60.02636"
       ry="4.7470451e-07" />
  </g>
  <g
     id="g836"
     inkscape:groupmode="layer"
     inkscape:label="F.Silk"
     style="display:inline">
    <text
       id="text886"
       y="86.63652"
       x="72.59565"
       style="font-style:normal;font-variant:normal;font-weight:normal;font-stretch:normal;font-size:4.93888855px;line-height:1.25;font-family:'Franklin Gothic Medium';-inkscape-font-specification:'Franklin Gothic Medium, ';letter-spacing:0px;word-spacing:0px;display:inline;fill:#000000;fill-opacity:1;stroke:none;stroke-width:0.26458332"
       xml:space="preserve"><tspan
         style="font-style:normal;font-variant:normal;font-weight:normal;font-stretch:normal;font-size:4.93888903px;font-family:'Franklin Gothic Medium';-inkscape-font-specification:'Franklin Gothic Medium, Normal';font-variant-ligatures:normal;font-variant-caps:normal;font-variant-numeric:normal;font-feature-settings:normal;text-align:center;writing-mode:lr-tb;text-anchor:middle;stroke-width:0.26458332"
         y="86.63652"
         x="73.213013"
         id="tspan884"
         sodipodi:role="line">Silk without </tspan><tspan
         style="font-style:normal;font-variant:normal;font-weight:normal;font-stretch:normal;font-size:4.93888903px;font-family:'Franklin Gothic Medium';-inkscape-font-specification:'Franklin Gothic Medium, Normal';font-variant-ligatures:normal;font-variant-caps:normal;font-variant-numeric:normal;font-feature-settings:normal;text-align:center;writing-mode:lr-tb;text-anchor:middle;stroke-width:0.26458332"
         y="92.810135"
         x="72.59565"
         sodipodi:role="line"
         id="tspan888">Copper</tspan></text>
    <text
       xml:space="preserve"
       style="font-style:normal;font-variant:normal;font-weight:normal;font-stretch:normal;font-size:4.93888903px;line-height:1.25;font-family:'Franklin Gothic Medium';-inkscape-font-specification:'Franklin Gothic Medium, Normal';font-variant-ligatures:normal;font-variant-caps:normal;font-variant-numeric:normal;font-feature-settings:normal;text-align:center;letter-spacing:0px;word-spacing:0px;writing-mode:lr-tb;text-anchor:middle;display:inline;fill:#000000;fill-opacity:1;stroke:none;stroke-width:0.26458332"
       x="27.895582"
       y="86.63652"
       id="text900"><tspan
         sodipodi:role="line"
         id="tspan896"
         x="28.512943"
         y="86.63652"
         style="font-style:normal;font-variant:normal;font-weight:normal;font-stretch:normal;font-size:4.93888903px;font-family:'Franklin Gothic Medium';-inkscape-font-specification:'Franklin Gothic Medium, Normal';font-variant-ligatures:normal;font-variant-caps:normal;font-variant-numeric:normal;font-feature-settings:normal;text-align:center;writing-mode:lr-tb;text-anchor:middle;fill:#000000;stroke-width:0.26458332">Silk with </tspan><tspan
         id="tspan898"
         sodipodi:role="line"
         x="27.895582"
         y="92.810135"
         style="font-style:normal;font-variant:normal;font-weight:normal;font-stretch:normal;font-size:4.93888903px;font-family:'Franklin Gothic Medium';-inkscape-font-specification:'Franklin Gothic Medium, Normal';font-variant-ligatures:normal;font-variant-caps:normal;font-variant-numeric:normal;font-feature-settings:normal;text-align:center;writing-mode:lr-tb;text-anchor:middle;fill:#000000;stroke-width:0.26458332">copper</tspan></text>
  </g>
  <g
     id="g838"
     inkscape:groupmode="layer"
     inkscape:label="Drill"
     style="display:inline" />
</svg>
