G04 #@! TF.GenerationSoftware,KiCad,Pcbnew,(5.1.2)-1*
G04 #@! TF.CreationDate,2019-05-30T21:03:25-05:00*
G04 #@! TF.ProjectId,color-swatches,636f6c6f-722d-4737-9761-74636865732e,rev?*
G04 #@! TF.SameCoordinates,Original*
G04 #@! TF.FileFunction,Legend,Top*
G04 #@! TF.FilePolarity,Positive*
%FSLAX46Y46*%
G04 Gerber Fmt 4.6, Leading zero omitted, Abs format (unit mm)*
G04 Created by KiCad (PCBNEW (5.1.2)-1) date 2019-05-30 21:03:25*
%MOMM*%
%LPD*%
G04 APERTURE LIST*
%ADD10C,0.010000*%
G04 APERTURE END LIST*
D10*
G36*
X45275500Y46859752D02*
G01*
X45275500Y-47882257D01*
X45213628Y-47944128D01*
X45151757Y-48006000D01*
X-44594918Y-48006000D01*
X-44725166Y-47896404D01*
X-44725166Y46566666D01*
X-44301833Y46566666D01*
X-44301833Y-47582667D01*
X44852167Y-47582667D01*
X44852167Y46566666D01*
X-44301833Y46566666D01*
X-44725166Y46566666D01*
X-44725166Y46799500D01*
X-44534666Y46799500D01*
X-44534666Y46990000D01*
X45165904Y46990000D01*
X45275500Y46859752D01*
X45275500Y46859752D01*
G37*
X45275500Y46859752D02*
X45275500Y-47882257D01*
X45213628Y-47944128D01*
X45151757Y-48006000D01*
X-44594918Y-48006000D01*
X-44725166Y-47896404D01*
X-44725166Y46566666D01*
X-44301833Y46566666D01*
X-44301833Y-47582667D01*
X44852167Y-47582667D01*
X44852167Y46566666D01*
X-44301833Y46566666D01*
X-44725166Y46566666D01*
X-44725166Y46799500D01*
X-44534666Y46799500D01*
X-44534666Y46990000D01*
X45165904Y46990000D01*
X45275500Y46859752D01*
G36*
X-22589147Y-40344596D02*
G01*
X-22458814Y-40396087D01*
X-22361689Y-40461188D01*
X-22261706Y-40555487D01*
X-22168910Y-40667859D01*
X-22093346Y-40787182D01*
X-22077700Y-40818101D01*
X-22028008Y-40929575D01*
X-21991422Y-41032405D01*
X-21966100Y-41136608D01*
X-21950203Y-41252200D01*
X-21941890Y-41389198D01*
X-21939321Y-41557617D01*
X-21939309Y-41571334D01*
X-21940044Y-41709834D01*
X-21942917Y-41815804D01*
X-21948848Y-41899027D01*
X-21958758Y-41969288D01*
X-21973566Y-42036371D01*
X-21988000Y-42088963D01*
X-22064608Y-42302249D01*
X-22161189Y-42484326D01*
X-22275978Y-42632737D01*
X-22407209Y-42745025D01*
X-22495503Y-42795167D01*
X-22554721Y-42820878D01*
X-22608517Y-42837458D01*
X-22669049Y-42846858D01*
X-22748474Y-42851026D01*
X-22849416Y-42851917D01*
X-22956641Y-42850905D01*
X-23033854Y-42846517D01*
X-23093359Y-42836726D01*
X-23147456Y-42819505D01*
X-23208447Y-42792827D01*
X-23208703Y-42792707D01*
X-23303553Y-42737611D01*
X-23393626Y-42667587D01*
X-23425661Y-42636310D01*
X-23516166Y-42539123D01*
X-23516166Y-43645667D01*
X-24108833Y-43645667D01*
X-24108833Y-41613667D01*
X-23505583Y-41613667D01*
X-23505286Y-41752923D01*
X-23503909Y-41857037D01*
X-23500719Y-41933201D01*
X-23494984Y-41988603D01*
X-23485975Y-42030434D01*
X-23472959Y-42065885D01*
X-23456062Y-42100500D01*
X-23369555Y-42232191D01*
X-23264121Y-42327891D01*
X-23135479Y-42391327D01*
X-23114137Y-42398223D01*
X-23060566Y-42411942D01*
X-23014123Y-42414358D01*
X-22956557Y-42405049D01*
X-22908348Y-42393475D01*
X-22802052Y-42345838D01*
X-22708552Y-42263044D01*
X-22634582Y-42151831D01*
X-22609489Y-42094384D01*
X-22562589Y-41930637D01*
X-22536653Y-41753110D01*
X-22530899Y-41570182D01*
X-22544545Y-41390237D01*
X-22576808Y-41221656D01*
X-22626908Y-41072820D01*
X-22694062Y-40952110D01*
X-22718964Y-40920862D01*
X-22814593Y-40839727D01*
X-22921764Y-40795843D01*
X-23035003Y-40787701D01*
X-23148837Y-40813787D01*
X-23257791Y-40872591D01*
X-23356393Y-40962601D01*
X-23439168Y-41082306D01*
X-23461013Y-41125758D01*
X-23476967Y-41163840D01*
X-23488619Y-41203710D01*
X-23496631Y-41252625D01*
X-23501666Y-41317840D01*
X-23504387Y-41406612D01*
X-23505458Y-41526197D01*
X-23505583Y-41613667D01*
X-24108833Y-41613667D01*
X-24108833Y-40364834D01*
X-23558500Y-40364834D01*
X-23558500Y-40753091D01*
X-23493282Y-40654631D01*
X-23384319Y-40526833D01*
X-23249265Y-40427136D01*
X-23095170Y-40357302D01*
X-22929084Y-40319092D01*
X-22758060Y-40314269D01*
X-22589147Y-40344596D01*
X-22589147Y-40344596D01*
G37*
X-22589147Y-40344596D02*
X-22458814Y-40396087D01*
X-22361689Y-40461188D01*
X-22261706Y-40555487D01*
X-22168910Y-40667859D01*
X-22093346Y-40787182D01*
X-22077700Y-40818101D01*
X-22028008Y-40929575D01*
X-21991422Y-41032405D01*
X-21966100Y-41136608D01*
X-21950203Y-41252200D01*
X-21941890Y-41389198D01*
X-21939321Y-41557617D01*
X-21939309Y-41571334D01*
X-21940044Y-41709834D01*
X-21942917Y-41815804D01*
X-21948848Y-41899027D01*
X-21958758Y-41969288D01*
X-21973566Y-42036371D01*
X-21988000Y-42088963D01*
X-22064608Y-42302249D01*
X-22161189Y-42484326D01*
X-22275978Y-42632737D01*
X-22407209Y-42745025D01*
X-22495503Y-42795167D01*
X-22554721Y-42820878D01*
X-22608517Y-42837458D01*
X-22669049Y-42846858D01*
X-22748474Y-42851026D01*
X-22849416Y-42851917D01*
X-22956641Y-42850905D01*
X-23033854Y-42846517D01*
X-23093359Y-42836726D01*
X-23147456Y-42819505D01*
X-23208447Y-42792827D01*
X-23208703Y-42792707D01*
X-23303553Y-42737611D01*
X-23393626Y-42667587D01*
X-23425661Y-42636310D01*
X-23516166Y-42539123D01*
X-23516166Y-43645667D01*
X-24108833Y-43645667D01*
X-24108833Y-41613667D01*
X-23505583Y-41613667D01*
X-23505286Y-41752923D01*
X-23503909Y-41857037D01*
X-23500719Y-41933201D01*
X-23494984Y-41988603D01*
X-23485975Y-42030434D01*
X-23472959Y-42065885D01*
X-23456062Y-42100500D01*
X-23369555Y-42232191D01*
X-23264121Y-42327891D01*
X-23135479Y-42391327D01*
X-23114137Y-42398223D01*
X-23060566Y-42411942D01*
X-23014123Y-42414358D01*
X-22956557Y-42405049D01*
X-22908348Y-42393475D01*
X-22802052Y-42345838D01*
X-22708552Y-42263044D01*
X-22634582Y-42151831D01*
X-22609489Y-42094384D01*
X-22562589Y-41930637D01*
X-22536653Y-41753110D01*
X-22530899Y-41570182D01*
X-22544545Y-41390237D01*
X-22576808Y-41221656D01*
X-22626908Y-41072820D01*
X-22694062Y-40952110D01*
X-22718964Y-40920862D01*
X-22814593Y-40839727D01*
X-22921764Y-40795843D01*
X-23035003Y-40787701D01*
X-23148837Y-40813787D01*
X-23257791Y-40872591D01*
X-23356393Y-40962601D01*
X-23439168Y-41082306D01*
X-23461013Y-41125758D01*
X-23476967Y-41163840D01*
X-23488619Y-41203710D01*
X-23496631Y-41252625D01*
X-23501666Y-41317840D01*
X-23504387Y-41406612D01*
X-23505458Y-41526197D01*
X-23505583Y-41613667D01*
X-24108833Y-41613667D01*
X-24108833Y-40364834D01*
X-23558500Y-40364834D01*
X-23558500Y-40753091D01*
X-23493282Y-40654631D01*
X-23384319Y-40526833D01*
X-23249265Y-40427136D01*
X-23095170Y-40357302D01*
X-22929084Y-40319092D01*
X-22758060Y-40314269D01*
X-22589147Y-40344596D01*
G36*
X-19968884Y-40338462D02*
G01*
X-19804859Y-40397620D01*
X-19659385Y-40494073D01*
X-19533259Y-40627077D01*
X-19427273Y-40795886D01*
X-19342223Y-40999756D01*
X-19310196Y-41105667D01*
X-19288283Y-41221239D01*
X-19274944Y-41366005D01*
X-19270032Y-41527733D01*
X-19273397Y-41694192D01*
X-19284891Y-41853150D01*
X-19304367Y-41992375D01*
X-19321870Y-42068750D01*
X-19397864Y-42284792D01*
X-19493993Y-42470669D01*
X-19608326Y-42623681D01*
X-19738932Y-42741131D01*
X-19849025Y-42805475D01*
X-19902926Y-42827133D01*
X-19959266Y-42840981D01*
X-20029518Y-42848616D01*
X-20125154Y-42851637D01*
X-20182416Y-42851917D01*
X-20356824Y-42843194D01*
X-20499407Y-42814957D01*
X-20617362Y-42764101D01*
X-20717888Y-42687520D01*
X-20808182Y-42582112D01*
X-20808280Y-42581977D01*
X-20870333Y-42496315D01*
X-20870333Y-43645667D01*
X-21441833Y-43645667D01*
X-21441833Y-41609657D01*
X-20865580Y-41609657D01*
X-20861667Y-41759946D01*
X-20853510Y-41848003D01*
X-20826330Y-41998136D01*
X-20783239Y-42117285D01*
X-20719519Y-42215293D01*
X-20639512Y-42294502D01*
X-20520806Y-42371867D01*
X-20399436Y-42407025D01*
X-20275697Y-42399947D01*
X-20149882Y-42350604D01*
X-20138211Y-42343939D01*
X-20073785Y-42296049D01*
X-20021563Y-42230446D01*
X-19984405Y-42163461D01*
X-19936388Y-42054380D01*
X-19903846Y-41945515D01*
X-19885044Y-41826224D01*
X-19878247Y-41685867D01*
X-19881058Y-41530094D01*
X-19894421Y-41346308D01*
X-19920051Y-41196590D01*
X-19959896Y-41073951D01*
X-20015904Y-40971403D01*
X-20049075Y-40927297D01*
X-20141594Y-40843880D01*
X-20246801Y-40797303D01*
X-20359106Y-40786222D01*
X-20472916Y-40809294D01*
X-20582640Y-40865175D01*
X-20682687Y-40952520D01*
X-20767465Y-41069987D01*
X-20785842Y-41104348D01*
X-20818130Y-41194811D01*
X-20842834Y-41316346D01*
X-20858976Y-41458209D01*
X-20865580Y-41609657D01*
X-21441833Y-41609657D01*
X-21441833Y-40364834D01*
X-20893148Y-40364834D01*
X-20887032Y-40546629D01*
X-20880916Y-40728425D01*
X-20813315Y-40632365D01*
X-20697414Y-40502971D01*
X-20556207Y-40406770D01*
X-20391973Y-40344848D01*
X-20206996Y-40318288D01*
X-20150666Y-40317346D01*
X-19968884Y-40338462D01*
X-19968884Y-40338462D01*
G37*
X-19968884Y-40338462D02*
X-19804859Y-40397620D01*
X-19659385Y-40494073D01*
X-19533259Y-40627077D01*
X-19427273Y-40795886D01*
X-19342223Y-40999756D01*
X-19310196Y-41105667D01*
X-19288283Y-41221239D01*
X-19274944Y-41366005D01*
X-19270032Y-41527733D01*
X-19273397Y-41694192D01*
X-19284891Y-41853150D01*
X-19304367Y-41992375D01*
X-19321870Y-42068750D01*
X-19397864Y-42284792D01*
X-19493993Y-42470669D01*
X-19608326Y-42623681D01*
X-19738932Y-42741131D01*
X-19849025Y-42805475D01*
X-19902926Y-42827133D01*
X-19959266Y-42840981D01*
X-20029518Y-42848616D01*
X-20125154Y-42851637D01*
X-20182416Y-42851917D01*
X-20356824Y-42843194D01*
X-20499407Y-42814957D01*
X-20617362Y-42764101D01*
X-20717888Y-42687520D01*
X-20808182Y-42582112D01*
X-20808280Y-42581977D01*
X-20870333Y-42496315D01*
X-20870333Y-43645667D01*
X-21441833Y-43645667D01*
X-21441833Y-41609657D01*
X-20865580Y-41609657D01*
X-20861667Y-41759946D01*
X-20853510Y-41848003D01*
X-20826330Y-41998136D01*
X-20783239Y-42117285D01*
X-20719519Y-42215293D01*
X-20639512Y-42294502D01*
X-20520806Y-42371867D01*
X-20399436Y-42407025D01*
X-20275697Y-42399947D01*
X-20149882Y-42350604D01*
X-20138211Y-42343939D01*
X-20073785Y-42296049D01*
X-20021563Y-42230446D01*
X-19984405Y-42163461D01*
X-19936388Y-42054380D01*
X-19903846Y-41945515D01*
X-19885044Y-41826224D01*
X-19878247Y-41685867D01*
X-19881058Y-41530094D01*
X-19894421Y-41346308D01*
X-19920051Y-41196590D01*
X-19959896Y-41073951D01*
X-20015904Y-40971403D01*
X-20049075Y-40927297D01*
X-20141594Y-40843880D01*
X-20246801Y-40797303D01*
X-20359106Y-40786222D01*
X-20472916Y-40809294D01*
X-20582640Y-40865175D01*
X-20682687Y-40952520D01*
X-20767465Y-41069987D01*
X-20785842Y-41104348D01*
X-20818130Y-41194811D01*
X-20842834Y-41316346D01*
X-20858976Y-41458209D01*
X-20865580Y-41609657D01*
X-21441833Y-41609657D01*
X-21441833Y-40364834D01*
X-20893148Y-40364834D01*
X-20887032Y-40546629D01*
X-20880916Y-40728425D01*
X-20813315Y-40632365D01*
X-20697414Y-40502971D01*
X-20556207Y-40406770D01*
X-20391973Y-40344848D01*
X-20206996Y-40318288D01*
X-20150666Y-40317346D01*
X-19968884Y-40338462D01*
G36*
X22270307Y-40323457D02*
G01*
X22427517Y-40358752D01*
X22526482Y-40401429D01*
X22651737Y-40491367D01*
X22767100Y-40616673D01*
X22868067Y-40770724D01*
X22950139Y-40946899D01*
X22998054Y-41095084D01*
X23013488Y-41171359D01*
X23027917Y-41274054D01*
X23039318Y-41387265D01*
X23044022Y-41456574D01*
X23043743Y-41705004D01*
X23017082Y-41939176D01*
X22965671Y-42155215D01*
X22891147Y-42349247D01*
X22795143Y-42517396D01*
X22679295Y-42655788D01*
X22545236Y-42760549D01*
X22479000Y-42795874D01*
X22353391Y-42836960D01*
X22205726Y-42858661D01*
X22052054Y-42860034D01*
X21908424Y-42840133D01*
X21874914Y-42831418D01*
X21732410Y-42773846D01*
X21606578Y-42691844D01*
X21517751Y-42603292D01*
X21463470Y-42534417D01*
X21463000Y-43645667D01*
X20870334Y-43645667D01*
X20870334Y-41610690D01*
X21463000Y-41610690D01*
X21464809Y-41771451D01*
X21471625Y-41897543D01*
X21485529Y-41996529D01*
X21508604Y-42075971D01*
X21542932Y-42143433D01*
X21590595Y-42206478D01*
X21642086Y-42261181D01*
X21756115Y-42351937D01*
X21875038Y-42400698D01*
X21999494Y-42407587D01*
X22130125Y-42372726D01*
X22157723Y-42360435D01*
X22239537Y-42299511D01*
X22309828Y-42203132D01*
X22366903Y-42077018D01*
X22409069Y-41926890D01*
X22434630Y-41758469D01*
X22441894Y-41577475D01*
X22433537Y-41428913D01*
X22402001Y-41234638D01*
X22349892Y-41073906D01*
X22278013Y-40947816D01*
X22187168Y-40857466D01*
X22078160Y-40803955D01*
X21964865Y-40788200D01*
X21840583Y-40808524D01*
X21725136Y-40866645D01*
X21623987Y-40958159D01*
X21542594Y-41078665D01*
X21507890Y-41156608D01*
X21490277Y-41209012D01*
X21477885Y-41262449D01*
X21469841Y-41325759D01*
X21465271Y-41407782D01*
X21463301Y-41517355D01*
X21463000Y-41610690D01*
X20870334Y-41610690D01*
X20870334Y-40364834D01*
X21420667Y-40364834D01*
X21421777Y-40550042D01*
X21422694Y-40637833D01*
X21425200Y-40689099D01*
X21430876Y-40709649D01*
X21441299Y-40705293D01*
X21457721Y-40682334D01*
X21520978Y-40603097D01*
X21604864Y-40520305D01*
X21695208Y-40446581D01*
X21777839Y-40394546D01*
X21784379Y-40391374D01*
X21936612Y-40339604D01*
X22102630Y-40317019D01*
X22270307Y-40323457D01*
X22270307Y-40323457D01*
G37*
X22270307Y-40323457D02*
X22427517Y-40358752D01*
X22526482Y-40401429D01*
X22651737Y-40491367D01*
X22767100Y-40616673D01*
X22868067Y-40770724D01*
X22950139Y-40946899D01*
X22998054Y-41095084D01*
X23013488Y-41171359D01*
X23027917Y-41274054D01*
X23039318Y-41387265D01*
X23044022Y-41456574D01*
X23043743Y-41705004D01*
X23017082Y-41939176D01*
X22965671Y-42155215D01*
X22891147Y-42349247D01*
X22795143Y-42517396D01*
X22679295Y-42655788D01*
X22545236Y-42760549D01*
X22479000Y-42795874D01*
X22353391Y-42836960D01*
X22205726Y-42858661D01*
X22052054Y-42860034D01*
X21908424Y-42840133D01*
X21874914Y-42831418D01*
X21732410Y-42773846D01*
X21606578Y-42691844D01*
X21517751Y-42603292D01*
X21463470Y-42534417D01*
X21463000Y-43645667D01*
X20870334Y-43645667D01*
X20870334Y-41610690D01*
X21463000Y-41610690D01*
X21464809Y-41771451D01*
X21471625Y-41897543D01*
X21485529Y-41996529D01*
X21508604Y-42075971D01*
X21542932Y-42143433D01*
X21590595Y-42206478D01*
X21642086Y-42261181D01*
X21756115Y-42351937D01*
X21875038Y-42400698D01*
X21999494Y-42407587D01*
X22130125Y-42372726D01*
X22157723Y-42360435D01*
X22239537Y-42299511D01*
X22309828Y-42203132D01*
X22366903Y-42077018D01*
X22409069Y-41926890D01*
X22434630Y-41758469D01*
X22441894Y-41577475D01*
X22433537Y-41428913D01*
X22402001Y-41234638D01*
X22349892Y-41073906D01*
X22278013Y-40947816D01*
X22187168Y-40857466D01*
X22078160Y-40803955D01*
X21964865Y-40788200D01*
X21840583Y-40808524D01*
X21725136Y-40866645D01*
X21623987Y-40958159D01*
X21542594Y-41078665D01*
X21507890Y-41156608D01*
X21490277Y-41209012D01*
X21477885Y-41262449D01*
X21469841Y-41325759D01*
X21465271Y-41407782D01*
X21463301Y-41517355D01*
X21463000Y-41610690D01*
X20870334Y-41610690D01*
X20870334Y-40364834D01*
X21420667Y-40364834D01*
X21421777Y-40550042D01*
X21422694Y-40637833D01*
X21425200Y-40689099D01*
X21430876Y-40709649D01*
X21441299Y-40705293D01*
X21457721Y-40682334D01*
X21520978Y-40603097D01*
X21604864Y-40520305D01*
X21695208Y-40446581D01*
X21777839Y-40394546D01*
X21784379Y-40391374D01*
X21936612Y-40339604D01*
X22102630Y-40317019D01*
X22270307Y-40323457D01*
G36*
X24962305Y-40327994D02*
G01*
X25105045Y-40362818D01*
X25114094Y-40366147D01*
X25249665Y-40438954D01*
X25374608Y-40548599D01*
X25485298Y-40690168D01*
X25578113Y-40858749D01*
X25649431Y-41049430D01*
X25667746Y-41116835D01*
X25687911Y-41231638D01*
X25700668Y-41374473D01*
X25706034Y-41532694D01*
X25704026Y-41693657D01*
X25694661Y-41844716D01*
X25677956Y-41973228D01*
X25666512Y-42026417D01*
X25598022Y-42237112D01*
X25509099Y-42423423D01*
X25402610Y-42581101D01*
X25281426Y-42705896D01*
X25148636Y-42793451D01*
X25092752Y-42819164D01*
X25042738Y-42836024D01*
X24987184Y-42845871D01*
X24914683Y-42850545D01*
X24813829Y-42851886D01*
X24786167Y-42851917D01*
X24677539Y-42851085D01*
X24599787Y-42847348D01*
X24541464Y-42838843D01*
X24491127Y-42823705D01*
X24437330Y-42800073D01*
X24422045Y-42792642D01*
X24326591Y-42733664D01*
X24234182Y-42656393D01*
X24205087Y-42626312D01*
X24108834Y-42519255D01*
X24108834Y-43645667D01*
X23537334Y-43645667D01*
X23537334Y-41624250D01*
X24119571Y-41624250D01*
X24120132Y-41754540D01*
X24122290Y-41850858D01*
X24126958Y-41921562D01*
X24135050Y-41975008D01*
X24147481Y-42019552D01*
X24165164Y-42063552D01*
X24168426Y-42070842D01*
X24234475Y-42182018D01*
X24322158Y-42279180D01*
X24422601Y-42355314D01*
X24526930Y-42403403D01*
X24606250Y-42416953D01*
X24654402Y-42411898D01*
X24717865Y-42398419D01*
X24728537Y-42395561D01*
X24842517Y-42342576D01*
X24936928Y-42253349D01*
X25010965Y-42129585D01*
X25063822Y-41972992D01*
X25094692Y-41785274D01*
X25103041Y-41603084D01*
X25092034Y-41399701D01*
X25059954Y-41218823D01*
X25008216Y-41064751D01*
X24938236Y-40941786D01*
X24858489Y-40859472D01*
X24790518Y-40818936D01*
X24710988Y-40797769D01*
X24659081Y-40792259D01*
X24525723Y-40802377D01*
X24405726Y-40852271D01*
X24300893Y-40940993D01*
X24248822Y-41008262D01*
X24203226Y-41080341D01*
X24169666Y-41146757D01*
X24146351Y-41216048D01*
X24131491Y-41296746D01*
X24123294Y-41397389D01*
X24119970Y-41526509D01*
X24119571Y-41624250D01*
X23537334Y-41624250D01*
X23537334Y-40364834D01*
X24087667Y-40364834D01*
X24087667Y-40731018D01*
X24148372Y-40647218D01*
X24257673Y-40524388D01*
X24387381Y-40424367D01*
X24509321Y-40362874D01*
X24647566Y-40327930D01*
X24804187Y-40316334D01*
X24962305Y-40327994D01*
X24962305Y-40327994D01*
G37*
X24962305Y-40327994D02*
X25105045Y-40362818D01*
X25114094Y-40366147D01*
X25249665Y-40438954D01*
X25374608Y-40548599D01*
X25485298Y-40690168D01*
X25578113Y-40858749D01*
X25649431Y-41049430D01*
X25667746Y-41116835D01*
X25687911Y-41231638D01*
X25700668Y-41374473D01*
X25706034Y-41532694D01*
X25704026Y-41693657D01*
X25694661Y-41844716D01*
X25677956Y-41973228D01*
X25666512Y-42026417D01*
X25598022Y-42237112D01*
X25509099Y-42423423D01*
X25402610Y-42581101D01*
X25281426Y-42705896D01*
X25148636Y-42793451D01*
X25092752Y-42819164D01*
X25042738Y-42836024D01*
X24987184Y-42845871D01*
X24914683Y-42850545D01*
X24813829Y-42851886D01*
X24786167Y-42851917D01*
X24677539Y-42851085D01*
X24599787Y-42847348D01*
X24541464Y-42838843D01*
X24491127Y-42823705D01*
X24437330Y-42800073D01*
X24422045Y-42792642D01*
X24326591Y-42733664D01*
X24234182Y-42656393D01*
X24205087Y-42626312D01*
X24108834Y-42519255D01*
X24108834Y-43645667D01*
X23537334Y-43645667D01*
X23537334Y-41624250D01*
X24119571Y-41624250D01*
X24120132Y-41754540D01*
X24122290Y-41850858D01*
X24126958Y-41921562D01*
X24135050Y-41975008D01*
X24147481Y-42019552D01*
X24165164Y-42063552D01*
X24168426Y-42070842D01*
X24234475Y-42182018D01*
X24322158Y-42279180D01*
X24422601Y-42355314D01*
X24526930Y-42403403D01*
X24606250Y-42416953D01*
X24654402Y-42411898D01*
X24717865Y-42398419D01*
X24728537Y-42395561D01*
X24842517Y-42342576D01*
X24936928Y-42253349D01*
X25010965Y-42129585D01*
X25063822Y-41972992D01*
X25094692Y-41785274D01*
X25103041Y-41603084D01*
X25092034Y-41399701D01*
X25059954Y-41218823D01*
X25008216Y-41064751D01*
X24938236Y-40941786D01*
X24858489Y-40859472D01*
X24790518Y-40818936D01*
X24710988Y-40797769D01*
X24659081Y-40792259D01*
X24525723Y-40802377D01*
X24405726Y-40852271D01*
X24300893Y-40940993D01*
X24248822Y-41008262D01*
X24203226Y-41080341D01*
X24169666Y-41146757D01*
X24146351Y-41216048D01*
X24131491Y-41296746D01*
X24123294Y-41397389D01*
X24119970Y-41526509D01*
X24119571Y-41624250D01*
X23537334Y-41624250D01*
X23537334Y-40364834D01*
X24087667Y-40364834D01*
X24087667Y-40731018D01*
X24148372Y-40647218D01*
X24257673Y-40524388D01*
X24387381Y-40424367D01*
X24509321Y-40362874D01*
X24647566Y-40327930D01*
X24804187Y-40316334D01*
X24962305Y-40327994D01*
G36*
X-27927655Y-40322731D02*
G01*
X-27732465Y-40362977D01*
X-27567376Y-40431712D01*
X-27429625Y-40530742D01*
X-27316450Y-40661872D01*
X-27256952Y-40760958D01*
X-27224165Y-40830379D01*
X-27190957Y-40911923D01*
X-27160670Y-40995662D01*
X-27136647Y-41071673D01*
X-27122233Y-41130027D01*
X-27120768Y-41160801D01*
X-27121770Y-41162326D01*
X-27143741Y-41167668D01*
X-27197171Y-41177146D01*
X-27271574Y-41189180D01*
X-27356463Y-41202188D01*
X-27441353Y-41214589D01*
X-27515755Y-41224802D01*
X-27569186Y-41231245D01*
X-27588255Y-41232667D01*
X-27612027Y-41213434D01*
X-27630611Y-41163429D01*
X-27632495Y-41154276D01*
X-27674297Y-41025730D01*
X-27744802Y-40916091D01*
X-27804762Y-40859026D01*
X-27864791Y-40821706D01*
X-27932168Y-40801094D01*
X-28013709Y-40792020D01*
X-28156002Y-40799411D01*
X-28275035Y-40841731D01*
X-28372473Y-40919694D01*
X-28404430Y-40959152D01*
X-28475373Y-41087403D01*
X-28527171Y-41244001D01*
X-28559118Y-41419187D01*
X-28570507Y-41603202D01*
X-28560632Y-41786285D01*
X-28528787Y-41958677D01*
X-28485889Y-42084972D01*
X-28417394Y-42197194D01*
X-28324162Y-42282854D01*
X-28213881Y-42338991D01*
X-28094238Y-42362643D01*
X-27972919Y-42350849D01*
X-27884760Y-42316587D01*
X-27816973Y-42264507D01*
X-27748200Y-42185817D01*
X-27689225Y-42094571D01*
X-27654432Y-42016383D01*
X-27617549Y-41905337D01*
X-27418189Y-41920284D01*
X-27324888Y-41928330D01*
X-27242943Y-41937290D01*
X-27184863Y-41945714D01*
X-27169377Y-41949074D01*
X-27141908Y-41958755D01*
X-27130285Y-41975085D01*
X-27132826Y-42009184D01*
X-27147849Y-42072172D01*
X-27149678Y-42079334D01*
X-27221545Y-42288164D01*
X-27321773Y-42466855D01*
X-27448613Y-42614006D01*
X-27600319Y-42728221D01*
X-27775142Y-42808101D01*
X-27971334Y-42852247D01*
X-28127094Y-42861107D01*
X-28229289Y-42856600D01*
X-28331960Y-42845955D01*
X-28415401Y-42831317D01*
X-28426320Y-42828568D01*
X-28602176Y-42760051D01*
X-28757391Y-42654627D01*
X-28891803Y-42512438D01*
X-29005251Y-42333626D01*
X-29020235Y-42304093D01*
X-29084050Y-42156517D01*
X-29128023Y-42008375D01*
X-29154556Y-41847831D01*
X-29166056Y-41663048D01*
X-29166986Y-41581917D01*
X-29160879Y-41391740D01*
X-29140933Y-41230373D01*
X-29104840Y-41085895D01*
X-29050295Y-40946386D01*
X-29039674Y-40923670D01*
X-28928139Y-40734195D01*
X-28791477Y-40578241D01*
X-28631886Y-40456995D01*
X-28451567Y-40371647D01*
X-28252719Y-40323385D01*
X-28037541Y-40313398D01*
X-27927655Y-40322731D01*
X-27927655Y-40322731D01*
G37*
X-27927655Y-40322731D02*
X-27732465Y-40362977D01*
X-27567376Y-40431712D01*
X-27429625Y-40530742D01*
X-27316450Y-40661872D01*
X-27256952Y-40760958D01*
X-27224165Y-40830379D01*
X-27190957Y-40911923D01*
X-27160670Y-40995662D01*
X-27136647Y-41071673D01*
X-27122233Y-41130027D01*
X-27120768Y-41160801D01*
X-27121770Y-41162326D01*
X-27143741Y-41167668D01*
X-27197171Y-41177146D01*
X-27271574Y-41189180D01*
X-27356463Y-41202188D01*
X-27441353Y-41214589D01*
X-27515755Y-41224802D01*
X-27569186Y-41231245D01*
X-27588255Y-41232667D01*
X-27612027Y-41213434D01*
X-27630611Y-41163429D01*
X-27632495Y-41154276D01*
X-27674297Y-41025730D01*
X-27744802Y-40916091D01*
X-27804762Y-40859026D01*
X-27864791Y-40821706D01*
X-27932168Y-40801094D01*
X-28013709Y-40792020D01*
X-28156002Y-40799411D01*
X-28275035Y-40841731D01*
X-28372473Y-40919694D01*
X-28404430Y-40959152D01*
X-28475373Y-41087403D01*
X-28527171Y-41244001D01*
X-28559118Y-41419187D01*
X-28570507Y-41603202D01*
X-28560632Y-41786285D01*
X-28528787Y-41958677D01*
X-28485889Y-42084972D01*
X-28417394Y-42197194D01*
X-28324162Y-42282854D01*
X-28213881Y-42338991D01*
X-28094238Y-42362643D01*
X-27972919Y-42350849D01*
X-27884760Y-42316587D01*
X-27816973Y-42264507D01*
X-27748200Y-42185817D01*
X-27689225Y-42094571D01*
X-27654432Y-42016383D01*
X-27617549Y-41905337D01*
X-27418189Y-41920284D01*
X-27324888Y-41928330D01*
X-27242943Y-41937290D01*
X-27184863Y-41945714D01*
X-27169377Y-41949074D01*
X-27141908Y-41958755D01*
X-27130285Y-41975085D01*
X-27132826Y-42009184D01*
X-27147849Y-42072172D01*
X-27149678Y-42079334D01*
X-27221545Y-42288164D01*
X-27321773Y-42466855D01*
X-27448613Y-42614006D01*
X-27600319Y-42728221D01*
X-27775142Y-42808101D01*
X-27971334Y-42852247D01*
X-28127094Y-42861107D01*
X-28229289Y-42856600D01*
X-28331960Y-42845955D01*
X-28415401Y-42831317D01*
X-28426320Y-42828568D01*
X-28602176Y-42760051D01*
X-28757391Y-42654627D01*
X-28891803Y-42512438D01*
X-29005251Y-42333626D01*
X-29020235Y-42304093D01*
X-29084050Y-42156517D01*
X-29128023Y-42008375D01*
X-29154556Y-41847831D01*
X-29166056Y-41663048D01*
X-29166986Y-41581917D01*
X-29160879Y-41391740D01*
X-29140933Y-41230373D01*
X-29104840Y-41085895D01*
X-29050295Y-40946386D01*
X-29039674Y-40923670D01*
X-28928139Y-40734195D01*
X-28791477Y-40578241D01*
X-28631886Y-40456995D01*
X-28451567Y-40371647D01*
X-28252719Y-40323385D01*
X-28037541Y-40313398D01*
X-27927655Y-40322731D01*
G36*
X-25431585Y-40347011D02*
G01*
X-25237961Y-40416049D01*
X-25062977Y-40522803D01*
X-24947987Y-40623911D01*
X-24812788Y-40785431D01*
X-24711411Y-40963905D01*
X-24642467Y-41163108D01*
X-24604569Y-41386815D01*
X-24595666Y-41581917D01*
X-24609633Y-41824909D01*
X-24652637Y-42040043D01*
X-24726335Y-42231749D01*
X-24832383Y-42404455D01*
X-24956602Y-42547055D01*
X-25111088Y-42677762D01*
X-25277572Y-42771923D01*
X-25461401Y-42831602D01*
X-25667917Y-42858864D01*
X-25769572Y-42861107D01*
X-25872620Y-42856852D01*
X-25975326Y-42846802D01*
X-26059072Y-42832914D01*
X-26075118Y-42829004D01*
X-26255966Y-42758955D01*
X-26417263Y-42651665D01*
X-26558204Y-42507846D01*
X-26677985Y-42328212D01*
X-26711203Y-42264329D01*
X-26775323Y-42122657D01*
X-26819324Y-41995429D01*
X-26846443Y-41868103D01*
X-26859915Y-41726134D01*
X-26863055Y-41581917D01*
X-26861203Y-41515478D01*
X-26263335Y-41515478D01*
X-26262751Y-41696439D01*
X-26241957Y-41870117D01*
X-26200887Y-42025979D01*
X-26151336Y-42134296D01*
X-26062345Y-42248714D01*
X-25952310Y-42330579D01*
X-25827893Y-42378129D01*
X-25695754Y-42389604D01*
X-25562557Y-42363245D01*
X-25463500Y-42316079D01*
X-25373338Y-42237113D01*
X-25299353Y-42123662D01*
X-25243260Y-41981029D01*
X-25206778Y-41814518D01*
X-25191623Y-41629431D01*
X-25194946Y-41486667D01*
X-25220936Y-41281304D01*
X-25269465Y-41111696D01*
X-25340509Y-40977874D01*
X-25434044Y-40879865D01*
X-25550045Y-40817701D01*
X-25688487Y-40791411D01*
X-25769061Y-40791910D01*
X-25902650Y-40816926D01*
X-26012559Y-40875173D01*
X-26103217Y-40969509D01*
X-26144482Y-41034240D01*
X-26204135Y-41173845D01*
X-26243774Y-41337769D01*
X-26263335Y-41515478D01*
X-26861203Y-41515478D01*
X-26858309Y-41411671D01*
X-26842123Y-41269151D01*
X-26811577Y-41140614D01*
X-26763749Y-41012320D01*
X-26723586Y-40925750D01*
X-26609946Y-40737778D01*
X-26470591Y-40583250D01*
X-26306614Y-40462940D01*
X-26119111Y-40377622D01*
X-25909176Y-40328068D01*
X-25871193Y-40323241D01*
X-25642959Y-40315978D01*
X-25431585Y-40347011D01*
X-25431585Y-40347011D01*
G37*
X-25431585Y-40347011D02*
X-25237961Y-40416049D01*
X-25062977Y-40522803D01*
X-24947987Y-40623911D01*
X-24812788Y-40785431D01*
X-24711411Y-40963905D01*
X-24642467Y-41163108D01*
X-24604569Y-41386815D01*
X-24595666Y-41581917D01*
X-24609633Y-41824909D01*
X-24652637Y-42040043D01*
X-24726335Y-42231749D01*
X-24832383Y-42404455D01*
X-24956602Y-42547055D01*
X-25111088Y-42677762D01*
X-25277572Y-42771923D01*
X-25461401Y-42831602D01*
X-25667917Y-42858864D01*
X-25769572Y-42861107D01*
X-25872620Y-42856852D01*
X-25975326Y-42846802D01*
X-26059072Y-42832914D01*
X-26075118Y-42829004D01*
X-26255966Y-42758955D01*
X-26417263Y-42651665D01*
X-26558204Y-42507846D01*
X-26677985Y-42328212D01*
X-26711203Y-42264329D01*
X-26775323Y-42122657D01*
X-26819324Y-41995429D01*
X-26846443Y-41868103D01*
X-26859915Y-41726134D01*
X-26863055Y-41581917D01*
X-26861203Y-41515478D01*
X-26263335Y-41515478D01*
X-26262751Y-41696439D01*
X-26241957Y-41870117D01*
X-26200887Y-42025979D01*
X-26151336Y-42134296D01*
X-26062345Y-42248714D01*
X-25952310Y-42330579D01*
X-25827893Y-42378129D01*
X-25695754Y-42389604D01*
X-25562557Y-42363245D01*
X-25463500Y-42316079D01*
X-25373338Y-42237113D01*
X-25299353Y-42123662D01*
X-25243260Y-41981029D01*
X-25206778Y-41814518D01*
X-25191623Y-41629431D01*
X-25194946Y-41486667D01*
X-25220936Y-41281304D01*
X-25269465Y-41111696D01*
X-25340509Y-40977874D01*
X-25434044Y-40879865D01*
X-25550045Y-40817701D01*
X-25688487Y-40791411D01*
X-25769061Y-40791910D01*
X-25902650Y-40816926D01*
X-26012559Y-40875173D01*
X-26103217Y-40969509D01*
X-26144482Y-41034240D01*
X-26204135Y-41173845D01*
X-26243774Y-41337769D01*
X-26263335Y-41515478D01*
X-26861203Y-41515478D01*
X-26858309Y-41411671D01*
X-26842123Y-41269151D01*
X-26811577Y-41140614D01*
X-26763749Y-41012320D01*
X-26723586Y-40925750D01*
X-26609946Y-40737778D01*
X-26470591Y-40583250D01*
X-26306614Y-40462940D01*
X-26119111Y-40377622D01*
X-25909176Y-40328068D01*
X-25871193Y-40323241D01*
X-25642959Y-40315978D01*
X-25431585Y-40347011D01*
G36*
X-17573169Y-40327959D02*
G01*
X-17413195Y-40360106D01*
X-17267883Y-40417206D01*
X-17149693Y-40486086D01*
X-17020524Y-40595288D01*
X-16907029Y-40737606D01*
X-16812685Y-40905618D01*
X-16740970Y-41091902D01*
X-16695360Y-41289034D01*
X-16679333Y-41489594D01*
X-16679333Y-41656000D01*
X-18347485Y-41656000D01*
X-18337120Y-41788292D01*
X-18318971Y-41937687D01*
X-18288421Y-42055546D01*
X-18241708Y-42151774D01*
X-18175074Y-42236276D01*
X-18162008Y-42249675D01*
X-18045899Y-42338955D01*
X-17916591Y-42393148D01*
X-17780896Y-42413497D01*
X-17645629Y-42401247D01*
X-17517603Y-42357640D01*
X-17403633Y-42283921D01*
X-17310531Y-42181331D01*
X-17257865Y-42084681D01*
X-17233141Y-42037207D01*
X-17205055Y-42020942D01*
X-17170554Y-42023879D01*
X-17124179Y-42031476D01*
X-17048965Y-42042415D01*
X-16958082Y-42054810D01*
X-16917458Y-42060119D01*
X-16817623Y-42074235D01*
X-16755604Y-42090326D01*
X-16727189Y-42115444D01*
X-16728165Y-42156641D01*
X-16754322Y-42220969D01*
X-16784747Y-42282328D01*
X-16897202Y-42460409D01*
X-17039831Y-42608877D01*
X-17212106Y-42727262D01*
X-17367250Y-42798619D01*
X-17469735Y-42826401D01*
X-17599955Y-42845909D01*
X-17744015Y-42856543D01*
X-17888018Y-42857701D01*
X-18018067Y-42848782D01*
X-18114310Y-42830919D01*
X-18316327Y-42753413D01*
X-18493004Y-42642390D01*
X-18642879Y-42499292D01*
X-18764489Y-42325558D01*
X-18856371Y-42122629D01*
X-18867802Y-42088827D01*
X-18900654Y-41949184D01*
X-18920317Y-41782693D01*
X-18926796Y-41602731D01*
X-18920098Y-41422674D01*
X-18900228Y-41255898D01*
X-18897304Y-41243477D01*
X-18330333Y-41243477D01*
X-18330333Y-41296167D01*
X-17272000Y-41296167D01*
X-17272000Y-41236437D01*
X-17290959Y-41118709D01*
X-17342885Y-40999766D01*
X-17420355Y-40891064D01*
X-17515941Y-40804059D01*
X-17575073Y-40768861D01*
X-17695471Y-40731698D01*
X-17826361Y-40726567D01*
X-17956818Y-40751060D01*
X-18075918Y-40802767D01*
X-18172737Y-40879281D01*
X-18194900Y-40905521D01*
X-18240028Y-40977634D01*
X-18281743Y-41066170D01*
X-18313715Y-41155329D01*
X-18329612Y-41229313D01*
X-18330333Y-41243477D01*
X-18897304Y-41243477D01*
X-18867345Y-41116250D01*
X-18779635Y-40909927D01*
X-18657758Y-40723095D01*
X-18573750Y-40627419D01*
X-18431318Y-40503342D01*
X-18277364Y-40412807D01*
X-18105722Y-40353469D01*
X-17910227Y-40322979D01*
X-17759518Y-40317530D01*
X-17573169Y-40327959D01*
X-17573169Y-40327959D01*
G37*
X-17573169Y-40327959D02*
X-17413195Y-40360106D01*
X-17267883Y-40417206D01*
X-17149693Y-40486086D01*
X-17020524Y-40595288D01*
X-16907029Y-40737606D01*
X-16812685Y-40905618D01*
X-16740970Y-41091902D01*
X-16695360Y-41289034D01*
X-16679333Y-41489594D01*
X-16679333Y-41656000D01*
X-18347485Y-41656000D01*
X-18337120Y-41788292D01*
X-18318971Y-41937687D01*
X-18288421Y-42055546D01*
X-18241708Y-42151774D01*
X-18175074Y-42236276D01*
X-18162008Y-42249675D01*
X-18045899Y-42338955D01*
X-17916591Y-42393148D01*
X-17780896Y-42413497D01*
X-17645629Y-42401247D01*
X-17517603Y-42357640D01*
X-17403633Y-42283921D01*
X-17310531Y-42181331D01*
X-17257865Y-42084681D01*
X-17233141Y-42037207D01*
X-17205055Y-42020942D01*
X-17170554Y-42023879D01*
X-17124179Y-42031476D01*
X-17048965Y-42042415D01*
X-16958082Y-42054810D01*
X-16917458Y-42060119D01*
X-16817623Y-42074235D01*
X-16755604Y-42090326D01*
X-16727189Y-42115444D01*
X-16728165Y-42156641D01*
X-16754322Y-42220969D01*
X-16784747Y-42282328D01*
X-16897202Y-42460409D01*
X-17039831Y-42608877D01*
X-17212106Y-42727262D01*
X-17367250Y-42798619D01*
X-17469735Y-42826401D01*
X-17599955Y-42845909D01*
X-17744015Y-42856543D01*
X-17888018Y-42857701D01*
X-18018067Y-42848782D01*
X-18114310Y-42830919D01*
X-18316327Y-42753413D01*
X-18493004Y-42642390D01*
X-18642879Y-42499292D01*
X-18764489Y-42325558D01*
X-18856371Y-42122629D01*
X-18867802Y-42088827D01*
X-18900654Y-41949184D01*
X-18920317Y-41782693D01*
X-18926796Y-41602731D01*
X-18920098Y-41422674D01*
X-18900228Y-41255898D01*
X-18897304Y-41243477D01*
X-18330333Y-41243477D01*
X-18330333Y-41296167D01*
X-17272000Y-41296167D01*
X-17272000Y-41236437D01*
X-17290959Y-41118709D01*
X-17342885Y-40999766D01*
X-17420355Y-40891064D01*
X-17515941Y-40804059D01*
X-17575073Y-40768861D01*
X-17695471Y-40731698D01*
X-17826361Y-40726567D01*
X-17956818Y-40751060D01*
X-18075918Y-40802767D01*
X-18172737Y-40879281D01*
X-18194900Y-40905521D01*
X-18240028Y-40977634D01*
X-18281743Y-41066170D01*
X-18313715Y-41155329D01*
X-18329612Y-41229313D01*
X-18330333Y-41243477D01*
X-18897304Y-41243477D01*
X-18867345Y-41116250D01*
X-18779635Y-40909927D01*
X-18657758Y-40723095D01*
X-18573750Y-40627419D01*
X-18431318Y-40503342D01*
X-18277364Y-40412807D01*
X-18105722Y-40353469D01*
X-17910227Y-40322979D01*
X-17759518Y-40317530D01*
X-17573169Y-40327959D01*
G36*
X16739919Y-39468715D02*
G01*
X16833541Y-39474439D01*
X16908512Y-39485246D01*
X16976645Y-39502577D01*
X17015599Y-39515453D01*
X17217806Y-39607643D01*
X17393569Y-39732642D01*
X17542234Y-39889686D01*
X17663146Y-40078011D01*
X17755650Y-40296854D01*
X17791727Y-40420166D01*
X17813119Y-40506991D01*
X17829111Y-40576761D01*
X17837721Y-40620520D01*
X17838373Y-40630824D01*
X17816360Y-40635240D01*
X17762092Y-40642724D01*
X17685440Y-40652146D01*
X17596274Y-40662377D01*
X17504465Y-40672285D01*
X17419882Y-40680741D01*
X17352396Y-40686615D01*
X17348715Y-40686889D01*
X17266680Y-40692917D01*
X17236693Y-40576500D01*
X17179991Y-40408928D01*
X17102804Y-40259391D01*
X17009769Y-40134568D01*
X16905522Y-40041139D01*
X16838084Y-40002270D01*
X16736709Y-39972673D01*
X16616115Y-39962186D01*
X16494132Y-39970666D01*
X16388591Y-39997969D01*
X16370241Y-40006053D01*
X16247699Y-40088438D01*
X16141116Y-40207983D01*
X16052334Y-40361940D01*
X15983196Y-40547559D01*
X15966750Y-40608250D01*
X15949518Y-40705288D01*
X15937077Y-40832665D01*
X15929433Y-40980245D01*
X15926592Y-41137892D01*
X15928561Y-41295472D01*
X15935344Y-41442849D01*
X15946948Y-41569888D01*
X15963379Y-41666453D01*
X15966120Y-41677167D01*
X16014413Y-41825279D01*
X16074886Y-41964535D01*
X16141708Y-42082709D01*
X16190829Y-42148279D01*
X16300134Y-42242164D01*
X16431639Y-42306013D01*
X16575459Y-42337404D01*
X16721709Y-42333920D01*
X16831772Y-42305182D01*
X16922088Y-42254369D01*
X17013752Y-42175085D01*
X17099569Y-42076933D01*
X17172348Y-41969519D01*
X17224893Y-41862449D01*
X17250013Y-41765328D01*
X17251158Y-41745164D01*
X17254720Y-41706016D01*
X17269061Y-41680645D01*
X17300915Y-41667333D01*
X17357014Y-41664362D01*
X17444090Y-41670012D01*
X17517472Y-41677183D01*
X17640857Y-41689903D01*
X17728123Y-41700039D01*
X17785199Y-41709906D01*
X17818015Y-41721818D01*
X17832499Y-41738091D01*
X17834582Y-41761040D01*
X17830193Y-41792980D01*
X17829306Y-41798942D01*
X17805294Y-41907601D01*
X17764697Y-42034868D01*
X17713807Y-42164220D01*
X17658918Y-42279136D01*
X17623625Y-42338943D01*
X17484720Y-42512814D01*
X17322132Y-42651606D01*
X17135920Y-42755292D01*
X16926144Y-42823841D01*
X16692861Y-42857224D01*
X16564823Y-42860700D01*
X16459766Y-42857243D01*
X16357598Y-42849495D01*
X16274208Y-42838832D01*
X16245417Y-42833057D01*
X16046012Y-42763217D01*
X15866173Y-42656176D01*
X15706424Y-42512546D01*
X15567292Y-42332938D01*
X15449305Y-42117961D01*
X15352987Y-41868228D01*
X15321231Y-41760885D01*
X15304311Y-41695089D01*
X15291810Y-41633915D01*
X15283099Y-41569282D01*
X15277549Y-41493108D01*
X15274528Y-41397314D01*
X15273409Y-41273816D01*
X15273462Y-41148000D01*
X15275733Y-40958383D01*
X15282608Y-40802214D01*
X15295798Y-40670710D01*
X15317015Y-40555083D01*
X15347967Y-40446550D01*
X15390367Y-40336323D01*
X15445926Y-40215619D01*
X15461011Y-40184917D01*
X15573932Y-39986519D01*
X15699250Y-39824822D01*
X15841544Y-39694917D01*
X16005397Y-39591900D01*
X16023167Y-39582876D01*
X16130989Y-39533909D01*
X16232075Y-39500191D01*
X16338614Y-39479333D01*
X16462794Y-39468945D01*
X16615834Y-39466629D01*
X16739919Y-39468715D01*
X16739919Y-39468715D01*
G37*
X16739919Y-39468715D02*
X16833541Y-39474439D01*
X16908512Y-39485246D01*
X16976645Y-39502577D01*
X17015599Y-39515453D01*
X17217806Y-39607643D01*
X17393569Y-39732642D01*
X17542234Y-39889686D01*
X17663146Y-40078011D01*
X17755650Y-40296854D01*
X17791727Y-40420166D01*
X17813119Y-40506991D01*
X17829111Y-40576761D01*
X17837721Y-40620520D01*
X17838373Y-40630824D01*
X17816360Y-40635240D01*
X17762092Y-40642724D01*
X17685440Y-40652146D01*
X17596274Y-40662377D01*
X17504465Y-40672285D01*
X17419882Y-40680741D01*
X17352396Y-40686615D01*
X17348715Y-40686889D01*
X17266680Y-40692917D01*
X17236693Y-40576500D01*
X17179991Y-40408928D01*
X17102804Y-40259391D01*
X17009769Y-40134568D01*
X16905522Y-40041139D01*
X16838084Y-40002270D01*
X16736709Y-39972673D01*
X16616115Y-39962186D01*
X16494132Y-39970666D01*
X16388591Y-39997969D01*
X16370241Y-40006053D01*
X16247699Y-40088438D01*
X16141116Y-40207983D01*
X16052334Y-40361940D01*
X15983196Y-40547559D01*
X15966750Y-40608250D01*
X15949518Y-40705288D01*
X15937077Y-40832665D01*
X15929433Y-40980245D01*
X15926592Y-41137892D01*
X15928561Y-41295472D01*
X15935344Y-41442849D01*
X15946948Y-41569888D01*
X15963379Y-41666453D01*
X15966120Y-41677167D01*
X16014413Y-41825279D01*
X16074886Y-41964535D01*
X16141708Y-42082709D01*
X16190829Y-42148279D01*
X16300134Y-42242164D01*
X16431639Y-42306013D01*
X16575459Y-42337404D01*
X16721709Y-42333920D01*
X16831772Y-42305182D01*
X16922088Y-42254369D01*
X17013752Y-42175085D01*
X17099569Y-42076933D01*
X17172348Y-41969519D01*
X17224893Y-41862449D01*
X17250013Y-41765328D01*
X17251158Y-41745164D01*
X17254720Y-41706016D01*
X17269061Y-41680645D01*
X17300915Y-41667333D01*
X17357014Y-41664362D01*
X17444090Y-41670012D01*
X17517472Y-41677183D01*
X17640857Y-41689903D01*
X17728123Y-41700039D01*
X17785199Y-41709906D01*
X17818015Y-41721818D01*
X17832499Y-41738091D01*
X17834582Y-41761040D01*
X17830193Y-41792980D01*
X17829306Y-41798942D01*
X17805294Y-41907601D01*
X17764697Y-42034868D01*
X17713807Y-42164220D01*
X17658918Y-42279136D01*
X17623625Y-42338943D01*
X17484720Y-42512814D01*
X17322132Y-42651606D01*
X17135920Y-42755292D01*
X16926144Y-42823841D01*
X16692861Y-42857224D01*
X16564823Y-42860700D01*
X16459766Y-42857243D01*
X16357598Y-42849495D01*
X16274208Y-42838832D01*
X16245417Y-42833057D01*
X16046012Y-42763217D01*
X15866173Y-42656176D01*
X15706424Y-42512546D01*
X15567292Y-42332938D01*
X15449305Y-42117961D01*
X15352987Y-41868228D01*
X15321231Y-41760885D01*
X15304311Y-41695089D01*
X15291810Y-41633915D01*
X15283099Y-41569282D01*
X15277549Y-41493108D01*
X15274528Y-41397314D01*
X15273409Y-41273816D01*
X15273462Y-41148000D01*
X15275733Y-40958383D01*
X15282608Y-40802214D01*
X15295798Y-40670710D01*
X15317015Y-40555083D01*
X15347967Y-40446550D01*
X15390367Y-40336323D01*
X15445926Y-40215619D01*
X15461011Y-40184917D01*
X15573932Y-39986519D01*
X15699250Y-39824822D01*
X15841544Y-39694917D01*
X16005397Y-39591900D01*
X16023167Y-39582876D01*
X16130989Y-39533909D01*
X16232075Y-39500191D01*
X16338614Y-39479333D01*
X16462794Y-39468945D01*
X16615834Y-39466629D01*
X16739919Y-39468715D01*
G36*
X19347415Y-40320813D02*
G01*
X19477136Y-40332214D01*
X19581297Y-40352704D01*
X19581629Y-40352800D01*
X19765922Y-40427827D01*
X19933713Y-40538602D01*
X20080803Y-40680366D01*
X20202992Y-40848360D01*
X20296082Y-41037826D01*
X20352202Y-41226008D01*
X20373957Y-41378564D01*
X20381806Y-41553109D01*
X20375800Y-41731668D01*
X20355990Y-41896264D01*
X20350205Y-41926768D01*
X20286251Y-42144252D01*
X20189205Y-42338888D01*
X20061743Y-42507757D01*
X19906540Y-42647936D01*
X19726271Y-42756506D01*
X19523611Y-42830547D01*
X19521949Y-42830981D01*
X19411476Y-42850111D01*
X19276854Y-42859183D01*
X19134814Y-42858250D01*
X19002088Y-42847365D01*
X18904048Y-42829004D01*
X18729120Y-42760537D01*
X18568902Y-42655143D01*
X18426750Y-42516676D01*
X18306020Y-42348991D01*
X18210069Y-42155944D01*
X18146482Y-41958923D01*
X18125179Y-41836761D01*
X18113321Y-41690301D01*
X18110905Y-41534048D01*
X18113359Y-41481091D01*
X18715831Y-41481091D01*
X18716467Y-41660215D01*
X18717237Y-41677167D01*
X18734818Y-41858411D01*
X18769877Y-42007077D01*
X18824791Y-42130132D01*
X18901937Y-42234547D01*
X18910406Y-42243642D01*
X19017609Y-42332718D01*
X19134119Y-42381776D01*
X19263457Y-42391682D01*
X19403321Y-42365057D01*
X19519132Y-42309151D01*
X19616638Y-42217776D01*
X19691898Y-42095284D01*
X19724079Y-42010805D01*
X19763897Y-41840051D01*
X19782424Y-41661815D01*
X19780711Y-41483581D01*
X19759812Y-41312830D01*
X19720777Y-41157046D01*
X19664661Y-41023711D01*
X19592514Y-40920308D01*
X19567253Y-40895671D01*
X19470185Y-40830962D01*
X19357521Y-40797017D01*
X19220560Y-40791334D01*
X19207092Y-40792101D01*
X19081160Y-40813759D01*
X18978997Y-40863946D01*
X18894154Y-40947224D01*
X18822155Y-41064224D01*
X18766758Y-41194294D01*
X18731956Y-41329517D01*
X18715831Y-41481091D01*
X18113359Y-41481091D01*
X18117928Y-41382505D01*
X18134384Y-41250176D01*
X18146687Y-41193706D01*
X18220949Y-40985133D01*
X18325655Y-40797952D01*
X18457073Y-40636050D01*
X18611474Y-40503313D01*
X18785128Y-40403627D01*
X18962647Y-40343516D01*
X19074394Y-40326228D01*
X19207908Y-40318739D01*
X19347415Y-40320813D01*
X19347415Y-40320813D01*
G37*
X19347415Y-40320813D02*
X19477136Y-40332214D01*
X19581297Y-40352704D01*
X19581629Y-40352800D01*
X19765922Y-40427827D01*
X19933713Y-40538602D01*
X20080803Y-40680366D01*
X20202992Y-40848360D01*
X20296082Y-41037826D01*
X20352202Y-41226008D01*
X20373957Y-41378564D01*
X20381806Y-41553109D01*
X20375800Y-41731668D01*
X20355990Y-41896264D01*
X20350205Y-41926768D01*
X20286251Y-42144252D01*
X20189205Y-42338888D01*
X20061743Y-42507757D01*
X19906540Y-42647936D01*
X19726271Y-42756506D01*
X19523611Y-42830547D01*
X19521949Y-42830981D01*
X19411476Y-42850111D01*
X19276854Y-42859183D01*
X19134814Y-42858250D01*
X19002088Y-42847365D01*
X18904048Y-42829004D01*
X18729120Y-42760537D01*
X18568902Y-42655143D01*
X18426750Y-42516676D01*
X18306020Y-42348991D01*
X18210069Y-42155944D01*
X18146482Y-41958923D01*
X18125179Y-41836761D01*
X18113321Y-41690301D01*
X18110905Y-41534048D01*
X18113359Y-41481091D01*
X18715831Y-41481091D01*
X18716467Y-41660215D01*
X18717237Y-41677167D01*
X18734818Y-41858411D01*
X18769877Y-42007077D01*
X18824791Y-42130132D01*
X18901937Y-42234547D01*
X18910406Y-42243642D01*
X19017609Y-42332718D01*
X19134119Y-42381776D01*
X19263457Y-42391682D01*
X19403321Y-42365057D01*
X19519132Y-42309151D01*
X19616638Y-42217776D01*
X19691898Y-42095284D01*
X19724079Y-42010805D01*
X19763897Y-41840051D01*
X19782424Y-41661815D01*
X19780711Y-41483581D01*
X19759812Y-41312830D01*
X19720777Y-41157046D01*
X19664661Y-41023711D01*
X19592514Y-40920308D01*
X19567253Y-40895671D01*
X19470185Y-40830962D01*
X19357521Y-40797017D01*
X19220560Y-40791334D01*
X19207092Y-40792101D01*
X19081160Y-40813759D01*
X18978997Y-40863946D01*
X18894154Y-40947224D01*
X18822155Y-41064224D01*
X18766758Y-41194294D01*
X18731956Y-41329517D01*
X18715831Y-41481091D01*
X18113359Y-41481091D01*
X18117928Y-41382505D01*
X18134384Y-41250176D01*
X18146687Y-41193706D01*
X18220949Y-40985133D01*
X18325655Y-40797952D01*
X18457073Y-40636050D01*
X18611474Y-40503313D01*
X18785128Y-40403627D01*
X18962647Y-40343516D01*
X19074394Y-40326228D01*
X19207908Y-40318739D01*
X19347415Y-40320813D01*
G36*
X27487461Y-40343903D02*
G01*
X27679309Y-40408916D01*
X27848986Y-40509070D01*
X27994760Y-40643150D01*
X28114900Y-40809943D01*
X28207675Y-41008236D01*
X28257686Y-41174517D01*
X28278436Y-41281271D01*
X28293456Y-41397042D01*
X28299661Y-41497727D01*
X28299685Y-41502542D01*
X28299834Y-41656000D01*
X27463750Y-41656000D01*
X27253322Y-41656098D01*
X27081371Y-41656504D01*
X26944043Y-41657391D01*
X26837483Y-41658929D01*
X26757834Y-41661288D01*
X26701242Y-41664640D01*
X26663851Y-41669156D01*
X26641807Y-41675007D01*
X26631254Y-41682364D01*
X26628336Y-41691396D01*
X26628320Y-41693042D01*
X26636295Y-41802441D01*
X26654603Y-41917789D01*
X26680204Y-42024807D01*
X26710055Y-42109215D01*
X26721918Y-42132455D01*
X26813488Y-42249770D01*
X26930960Y-42339809D01*
X27065766Y-42397557D01*
X27209341Y-42418000D01*
X27209750Y-42418000D01*
X27313271Y-42404871D01*
X27424566Y-42370130D01*
X27524452Y-42320743D01*
X27571241Y-42286705D01*
X27626146Y-42227145D01*
X27679352Y-42151662D01*
X27699291Y-42116324D01*
X27733282Y-42055484D01*
X27760418Y-42026354D01*
X27788998Y-42021116D01*
X27798473Y-42022885D01*
X27839036Y-42030157D01*
X27909771Y-42040635D01*
X27998805Y-42052614D01*
X28051125Y-42059205D01*
X28151046Y-42073057D01*
X28214727Y-42086226D01*
X28248196Y-42100384D01*
X28257500Y-42116391D01*
X28248576Y-42150290D01*
X28225110Y-42209340D01*
X28192067Y-42281122D01*
X28190007Y-42285320D01*
X28087294Y-42447837D01*
X27951841Y-42590555D01*
X27790782Y-42707895D01*
X27611249Y-42794280D01*
X27493530Y-42829908D01*
X27371612Y-42849676D01*
X27229280Y-42858878D01*
X27082724Y-42857542D01*
X26948137Y-42845696D01*
X26860500Y-42828814D01*
X26665269Y-42755902D01*
X26491601Y-42648016D01*
X26342282Y-42508121D01*
X26220099Y-42339185D01*
X26127838Y-42144175D01*
X26084746Y-42002852D01*
X26063621Y-41881146D01*
X26051445Y-41734712D01*
X26048228Y-41577637D01*
X26053981Y-41424013D01*
X26067822Y-41296167D01*
X26633132Y-41296167D01*
X27712921Y-41296167D01*
X27699557Y-41198667D01*
X27660752Y-41055618D01*
X27589440Y-40932002D01*
X27491145Y-40832839D01*
X27371393Y-40763151D01*
X27235709Y-40727960D01*
X27178000Y-40724667D01*
X27036381Y-40744549D01*
X26909312Y-40801417D01*
X26801422Y-40891102D01*
X26717341Y-41009436D01*
X26661696Y-41152249D01*
X26651283Y-41199010D01*
X26633132Y-41296167D01*
X26067822Y-41296167D01*
X26068715Y-41287926D01*
X26084154Y-41211500D01*
X26152341Y-41012959D01*
X26247024Y-40830281D01*
X26363495Y-40670052D01*
X26497044Y-40538860D01*
X26627738Y-40451170D01*
X26726753Y-40401464D01*
X26811830Y-40367936D01*
X26900171Y-40345341D01*
X27008977Y-40328432D01*
X27044180Y-40324150D01*
X27275174Y-40315243D01*
X27487461Y-40343903D01*
X27487461Y-40343903D01*
G37*
X27487461Y-40343903D02*
X27679309Y-40408916D01*
X27848986Y-40509070D01*
X27994760Y-40643150D01*
X28114900Y-40809943D01*
X28207675Y-41008236D01*
X28257686Y-41174517D01*
X28278436Y-41281271D01*
X28293456Y-41397042D01*
X28299661Y-41497727D01*
X28299685Y-41502542D01*
X28299834Y-41656000D01*
X27463750Y-41656000D01*
X27253322Y-41656098D01*
X27081371Y-41656504D01*
X26944043Y-41657391D01*
X26837483Y-41658929D01*
X26757834Y-41661288D01*
X26701242Y-41664640D01*
X26663851Y-41669156D01*
X26641807Y-41675007D01*
X26631254Y-41682364D01*
X26628336Y-41691396D01*
X26628320Y-41693042D01*
X26636295Y-41802441D01*
X26654603Y-41917789D01*
X26680204Y-42024807D01*
X26710055Y-42109215D01*
X26721918Y-42132455D01*
X26813488Y-42249770D01*
X26930960Y-42339809D01*
X27065766Y-42397557D01*
X27209341Y-42418000D01*
X27209750Y-42418000D01*
X27313271Y-42404871D01*
X27424566Y-42370130D01*
X27524452Y-42320743D01*
X27571241Y-42286705D01*
X27626146Y-42227145D01*
X27679352Y-42151662D01*
X27699291Y-42116324D01*
X27733282Y-42055484D01*
X27760418Y-42026354D01*
X27788998Y-42021116D01*
X27798473Y-42022885D01*
X27839036Y-42030157D01*
X27909771Y-42040635D01*
X27998805Y-42052614D01*
X28051125Y-42059205D01*
X28151046Y-42073057D01*
X28214727Y-42086226D01*
X28248196Y-42100384D01*
X28257500Y-42116391D01*
X28248576Y-42150290D01*
X28225110Y-42209340D01*
X28192067Y-42281122D01*
X28190007Y-42285320D01*
X28087294Y-42447837D01*
X27951841Y-42590555D01*
X27790782Y-42707895D01*
X27611249Y-42794280D01*
X27493530Y-42829908D01*
X27371612Y-42849676D01*
X27229280Y-42858878D01*
X27082724Y-42857542D01*
X26948137Y-42845696D01*
X26860500Y-42828814D01*
X26665269Y-42755902D01*
X26491601Y-42648016D01*
X26342282Y-42508121D01*
X26220099Y-42339185D01*
X26127838Y-42144175D01*
X26084746Y-42002852D01*
X26063621Y-41881146D01*
X26051445Y-41734712D01*
X26048228Y-41577637D01*
X26053981Y-41424013D01*
X26067822Y-41296167D01*
X26633132Y-41296167D01*
X27712921Y-41296167D01*
X27699557Y-41198667D01*
X27660752Y-41055618D01*
X27589440Y-40932002D01*
X27491145Y-40832839D01*
X27371393Y-40763151D01*
X27235709Y-40727960D01*
X27178000Y-40724667D01*
X27036381Y-40744549D01*
X26909312Y-40801417D01*
X26801422Y-40891102D01*
X26717341Y-41009436D01*
X26661696Y-41152249D01*
X26651283Y-41199010D01*
X26633132Y-41296167D01*
X26067822Y-41296167D01*
X26068715Y-41287926D01*
X26084154Y-41211500D01*
X26152341Y-41012959D01*
X26247024Y-40830281D01*
X26363495Y-40670052D01*
X26497044Y-40538860D01*
X26627738Y-40451170D01*
X26726753Y-40401464D01*
X26811830Y-40367936D01*
X26900171Y-40345341D01*
X27008977Y-40328432D01*
X27044180Y-40324150D01*
X27275174Y-40315243D01*
X27487461Y-40343903D01*
G36*
X-14922500Y-40892082D02*
G01*
X-15001875Y-40905051D01*
X-15100230Y-40921887D01*
X-15168575Y-40936156D01*
X-15218843Y-40951012D01*
X-15262969Y-40969610D01*
X-15282333Y-40979190D01*
X-15363608Y-41031512D01*
X-15428697Y-41101514D01*
X-15486751Y-41199799D01*
X-15504090Y-41236226D01*
X-15536265Y-41311661D01*
X-15562041Y-41386324D01*
X-15582101Y-41466033D01*
X-15597124Y-41556606D01*
X-15607790Y-41663862D01*
X-15614781Y-41793618D01*
X-15618776Y-41951692D01*
X-15620456Y-42143904D01*
X-15620632Y-42232792D01*
X-15621000Y-42820167D01*
X-16192500Y-42820167D01*
X-16192500Y-40364834D01*
X-15663333Y-40364834D01*
X-15663333Y-40857355D01*
X-15589035Y-40708842D01*
X-15490065Y-40551163D01*
X-15369106Y-40429001D01*
X-15227168Y-40343119D01*
X-15065257Y-40294276D01*
X-15033625Y-40289417D01*
X-14922500Y-40274713D01*
X-14922500Y-40892082D01*
X-14922500Y-40892082D01*
G37*
X-14922500Y-40892082D02*
X-15001875Y-40905051D01*
X-15100230Y-40921887D01*
X-15168575Y-40936156D01*
X-15218843Y-40951012D01*
X-15262969Y-40969610D01*
X-15282333Y-40979190D01*
X-15363608Y-41031512D01*
X-15428697Y-41101514D01*
X-15486751Y-41199799D01*
X-15504090Y-41236226D01*
X-15536265Y-41311661D01*
X-15562041Y-41386324D01*
X-15582101Y-41466033D01*
X-15597124Y-41556606D01*
X-15607790Y-41663862D01*
X-15614781Y-41793618D01*
X-15618776Y-41951692D01*
X-15620456Y-42143904D01*
X-15620632Y-42232792D01*
X-15621000Y-42820167D01*
X-16192500Y-42820167D01*
X-16192500Y-40364834D01*
X-15663333Y-40364834D01*
X-15663333Y-40857355D01*
X-15589035Y-40708842D01*
X-15490065Y-40551163D01*
X-15369106Y-40429001D01*
X-15227168Y-40343119D01*
X-15065257Y-40294276D01*
X-15033625Y-40289417D01*
X-14922500Y-40274713D01*
X-14922500Y-40892082D01*
G36*
X30051944Y-40590418D02*
G01*
X30057805Y-40890087D01*
X29967278Y-40903417D01*
X29809470Y-40936435D01*
X29685489Y-40986257D01*
X29588714Y-41057197D01*
X29512524Y-41153568D01*
X29474365Y-41224484D01*
X29442716Y-41296332D01*
X29417298Y-41367751D01*
X29397455Y-41444410D01*
X29382527Y-41531977D01*
X29371857Y-41636121D01*
X29364787Y-41762511D01*
X29360658Y-41916815D01*
X29358813Y-42104701D01*
X29358534Y-42222209D01*
X29358167Y-42820167D01*
X28786667Y-42820167D01*
X28786667Y-40364834D01*
X29315834Y-40364834D01*
X29316314Y-40602959D01*
X29316795Y-40841084D01*
X29390504Y-40704284D01*
X29491487Y-40550380D01*
X29608948Y-40430653D01*
X29739832Y-40347369D01*
X29881083Y-40302798D01*
X29940250Y-40296294D01*
X30046084Y-40290750D01*
X30051944Y-40590418D01*
X30051944Y-40590418D01*
G37*
X30051944Y-40590418D02*
X30057805Y-40890087D01*
X29967278Y-40903417D01*
X29809470Y-40936435D01*
X29685489Y-40986257D01*
X29588714Y-41057197D01*
X29512524Y-41153568D01*
X29474365Y-41224484D01*
X29442716Y-41296332D01*
X29417298Y-41367751D01*
X29397455Y-41444410D01*
X29382527Y-41531977D01*
X29371857Y-41636121D01*
X29364787Y-41762511D01*
X29360658Y-41916815D01*
X29358813Y-42104701D01*
X29358534Y-42222209D01*
X29358167Y-42820167D01*
X28786667Y-42820167D01*
X28786667Y-40364834D01*
X29315834Y-40364834D01*
X29316314Y-40602959D01*
X29316795Y-40841084D01*
X29390504Y-40704284D01*
X29491487Y-40550380D01*
X29608948Y-40430653D01*
X29739832Y-40347369D01*
X29881083Y-40302798D01*
X29940250Y-40296294D01*
X30046084Y-40290750D01*
X30051944Y-40590418D01*
G36*
X-29525861Y-33300178D02*
G01*
X-29380539Y-33322402D01*
X-29333962Y-33333482D01*
X-29118712Y-33408282D01*
X-28932359Y-33508571D01*
X-28794528Y-33617113D01*
X-28724922Y-33692721D01*
X-28661704Y-33778790D01*
X-28611535Y-33864441D01*
X-28581075Y-33938796D01*
X-28575000Y-33975661D01*
X-28576744Y-33991417D01*
X-28585830Y-34004663D01*
X-28608041Y-34017490D01*
X-28649158Y-34031989D01*
X-28714962Y-34050251D01*
X-28811237Y-34074367D01*
X-28922165Y-34101229D01*
X-29016962Y-34123632D01*
X-29078964Y-34136215D01*
X-29116452Y-34139385D01*
X-29137712Y-34133551D01*
X-29151025Y-34119118D01*
X-29154999Y-34112685D01*
X-29248237Y-33981255D01*
X-29352277Y-33887132D01*
X-29474513Y-33825855D01*
X-29622338Y-33792962D01*
X-29695697Y-33786429D01*
X-29868910Y-33790738D01*
X-30017137Y-33824283D01*
X-30137934Y-33885882D01*
X-30228855Y-33974352D01*
X-30280684Y-34069433D01*
X-30302154Y-34178149D01*
X-30282030Y-34280366D01*
X-30220862Y-34373631D01*
X-30210424Y-34384470D01*
X-30169054Y-34421498D01*
X-30120917Y-34454329D01*
X-30060465Y-34485090D01*
X-29982147Y-34515908D01*
X-29880416Y-34548912D01*
X-29749722Y-34586229D01*
X-29584517Y-34629986D01*
X-29540517Y-34641323D01*
X-29330329Y-34697692D01*
X-29156773Y-34750037D01*
X-29014600Y-34800515D01*
X-28898563Y-34851280D01*
X-28803412Y-34904490D01*
X-28723900Y-34962298D01*
X-28692774Y-34989508D01*
X-28587716Y-35113817D01*
X-28508881Y-35264366D01*
X-28457504Y-35433222D01*
X-28434823Y-35612450D01*
X-28442075Y-35794117D01*
X-28480496Y-35970289D01*
X-28522999Y-36078581D01*
X-28622038Y-36239184D01*
X-28755576Y-36377812D01*
X-28921074Y-36492992D01*
X-29115993Y-36583249D01*
X-29337793Y-36647109D01*
X-29560590Y-36681013D01*
X-29655001Y-36689627D01*
X-29732867Y-36696095D01*
X-29785155Y-36699705D01*
X-29802666Y-36700022D01*
X-29827385Y-36696679D01*
X-29883035Y-36690538D01*
X-29958404Y-36682826D01*
X-29972000Y-36681483D01*
X-30211166Y-36642658D01*
X-30430214Y-36576212D01*
X-30624216Y-36484226D01*
X-30788240Y-36368776D01*
X-30848890Y-36311858D01*
X-30914964Y-36231773D01*
X-30982695Y-36129898D01*
X-31042704Y-36022058D01*
X-31085610Y-35924080D01*
X-31093857Y-35898585D01*
X-31101501Y-35873053D01*
X-31103611Y-35854206D01*
X-31094527Y-35839491D01*
X-31068589Y-35826358D01*
X-31020136Y-35812254D01*
X-30943509Y-35794627D01*
X-30833047Y-35770927D01*
X-30790515Y-35761833D01*
X-30676061Y-35737400D01*
X-30596629Y-35721268D01*
X-30545827Y-35712972D01*
X-30517259Y-35712046D01*
X-30504534Y-35718025D01*
X-30501257Y-35730444D01*
X-30501166Y-35740760D01*
X-30485922Y-35801217D01*
X-30445173Y-35876516D01*
X-30386399Y-35954960D01*
X-30322620Y-36020039D01*
X-30234910Y-36085777D01*
X-30138624Y-36132796D01*
X-30025477Y-36163382D01*
X-29887186Y-36179821D01*
X-29727087Y-36184417D01*
X-29617086Y-36183804D01*
X-29538586Y-36180756D01*
X-29480756Y-36173457D01*
X-29432768Y-36160093D01*
X-29383793Y-36138850D01*
X-29348166Y-36120917D01*
X-29270276Y-36073108D01*
X-29197928Y-36015913D01*
X-29159163Y-35976077D01*
X-29119455Y-35919874D01*
X-29099891Y-35866746D01*
X-29093935Y-35796582D01*
X-29093804Y-35774994D01*
X-29109565Y-35642956D01*
X-29156931Y-35538252D01*
X-29236832Y-35459038D01*
X-29261432Y-35443335D01*
X-29315119Y-35418506D01*
X-29399156Y-35387400D01*
X-29502748Y-35353706D01*
X-29615099Y-35321112D01*
X-29634386Y-35315921D01*
X-29879813Y-35249451D01*
X-30085396Y-35191085D01*
X-30252738Y-35140323D01*
X-30383444Y-35096661D01*
X-30479117Y-35059598D01*
X-30528522Y-35036006D01*
X-30659495Y-34941346D01*
X-30767527Y-34815313D01*
X-30850197Y-34663563D01*
X-30905083Y-34491749D01*
X-30929764Y-34305526D01*
X-30922491Y-34115940D01*
X-30880015Y-33936601D01*
X-30799962Y-33772637D01*
X-30685215Y-33626972D01*
X-30538657Y-33502532D01*
X-30363173Y-33402241D01*
X-30161645Y-33329024D01*
X-30141333Y-33323604D01*
X-30011726Y-33300539D01*
X-29856149Y-33289066D01*
X-29689296Y-33289006D01*
X-29525861Y-33300178D01*
X-29525861Y-33300178D01*
G37*
X-29525861Y-33300178D02*
X-29380539Y-33322402D01*
X-29333962Y-33333482D01*
X-29118712Y-33408282D01*
X-28932359Y-33508571D01*
X-28794528Y-33617113D01*
X-28724922Y-33692721D01*
X-28661704Y-33778790D01*
X-28611535Y-33864441D01*
X-28581075Y-33938796D01*
X-28575000Y-33975661D01*
X-28576744Y-33991417D01*
X-28585830Y-34004663D01*
X-28608041Y-34017490D01*
X-28649158Y-34031989D01*
X-28714962Y-34050251D01*
X-28811237Y-34074367D01*
X-28922165Y-34101229D01*
X-29016962Y-34123632D01*
X-29078964Y-34136215D01*
X-29116452Y-34139385D01*
X-29137712Y-34133551D01*
X-29151025Y-34119118D01*
X-29154999Y-34112685D01*
X-29248237Y-33981255D01*
X-29352277Y-33887132D01*
X-29474513Y-33825855D01*
X-29622338Y-33792962D01*
X-29695697Y-33786429D01*
X-29868910Y-33790738D01*
X-30017137Y-33824283D01*
X-30137934Y-33885882D01*
X-30228855Y-33974352D01*
X-30280684Y-34069433D01*
X-30302154Y-34178149D01*
X-30282030Y-34280366D01*
X-30220862Y-34373631D01*
X-30210424Y-34384470D01*
X-30169054Y-34421498D01*
X-30120917Y-34454329D01*
X-30060465Y-34485090D01*
X-29982147Y-34515908D01*
X-29880416Y-34548912D01*
X-29749722Y-34586229D01*
X-29584517Y-34629986D01*
X-29540517Y-34641323D01*
X-29330329Y-34697692D01*
X-29156773Y-34750037D01*
X-29014600Y-34800515D01*
X-28898563Y-34851280D01*
X-28803412Y-34904490D01*
X-28723900Y-34962298D01*
X-28692774Y-34989508D01*
X-28587716Y-35113817D01*
X-28508881Y-35264366D01*
X-28457504Y-35433222D01*
X-28434823Y-35612450D01*
X-28442075Y-35794117D01*
X-28480496Y-35970289D01*
X-28522999Y-36078581D01*
X-28622038Y-36239184D01*
X-28755576Y-36377812D01*
X-28921074Y-36492992D01*
X-29115993Y-36583249D01*
X-29337793Y-36647109D01*
X-29560590Y-36681013D01*
X-29655001Y-36689627D01*
X-29732867Y-36696095D01*
X-29785155Y-36699705D01*
X-29802666Y-36700022D01*
X-29827385Y-36696679D01*
X-29883035Y-36690538D01*
X-29958404Y-36682826D01*
X-29972000Y-36681483D01*
X-30211166Y-36642658D01*
X-30430214Y-36576212D01*
X-30624216Y-36484226D01*
X-30788240Y-36368776D01*
X-30848890Y-36311858D01*
X-30914964Y-36231773D01*
X-30982695Y-36129898D01*
X-31042704Y-36022058D01*
X-31085610Y-35924080D01*
X-31093857Y-35898585D01*
X-31101501Y-35873053D01*
X-31103611Y-35854206D01*
X-31094527Y-35839491D01*
X-31068589Y-35826358D01*
X-31020136Y-35812254D01*
X-30943509Y-35794627D01*
X-30833047Y-35770927D01*
X-30790515Y-35761833D01*
X-30676061Y-35737400D01*
X-30596629Y-35721268D01*
X-30545827Y-35712972D01*
X-30517259Y-35712046D01*
X-30504534Y-35718025D01*
X-30501257Y-35730444D01*
X-30501166Y-35740760D01*
X-30485922Y-35801217D01*
X-30445173Y-35876516D01*
X-30386399Y-35954960D01*
X-30322620Y-36020039D01*
X-30234910Y-36085777D01*
X-30138624Y-36132796D01*
X-30025477Y-36163382D01*
X-29887186Y-36179821D01*
X-29727087Y-36184417D01*
X-29617086Y-36183804D01*
X-29538586Y-36180756D01*
X-29480756Y-36173457D01*
X-29432768Y-36160093D01*
X-29383793Y-36138850D01*
X-29348166Y-36120917D01*
X-29270276Y-36073108D01*
X-29197928Y-36015913D01*
X-29159163Y-35976077D01*
X-29119455Y-35919874D01*
X-29099891Y-35866746D01*
X-29093935Y-35796582D01*
X-29093804Y-35774994D01*
X-29109565Y-35642956D01*
X-29156931Y-35538252D01*
X-29236832Y-35459038D01*
X-29261432Y-35443335D01*
X-29315119Y-35418506D01*
X-29399156Y-35387400D01*
X-29502748Y-35353706D01*
X-29615099Y-35321112D01*
X-29634386Y-35315921D01*
X-29879813Y-35249451D01*
X-30085396Y-35191085D01*
X-30252738Y-35140323D01*
X-30383444Y-35096661D01*
X-30479117Y-35059598D01*
X-30528522Y-35036006D01*
X-30659495Y-34941346D01*
X-30767527Y-34815313D01*
X-30850197Y-34663563D01*
X-30905083Y-34491749D01*
X-30929764Y-34305526D01*
X-30922491Y-34115940D01*
X-30880015Y-33936601D01*
X-30799962Y-33772637D01*
X-30685215Y-33626972D01*
X-30538657Y-33502532D01*
X-30363173Y-33402241D01*
X-30161645Y-33329024D01*
X-30141333Y-33323604D01*
X-30011726Y-33300539D01*
X-29856149Y-33289066D01*
X-29689296Y-33289006D01*
X-29525861Y-33300178D01*
G36*
X-16425333Y-34184167D02*
G01*
X-15938500Y-34184167D01*
X-15938500Y-34628667D01*
X-16425333Y-34628667D01*
X-16424138Y-35290125D01*
X-16423000Y-35510189D01*
X-16420419Y-35689505D01*
X-16416337Y-35829638D01*
X-16410699Y-35932151D01*
X-16403448Y-35998609D01*
X-16397680Y-36023684D01*
X-16363439Y-36092432D01*
X-16312347Y-36140076D01*
X-16237178Y-36170369D01*
X-16130707Y-36187065D01*
X-16075882Y-36190876D01*
X-15894789Y-36200381D01*
X-15900769Y-36425232D01*
X-15906750Y-36650084D01*
X-16065500Y-36675213D01*
X-16179097Y-36691202D01*
X-16268049Y-36697720D01*
X-16348916Y-36695018D01*
X-16438254Y-36683345D01*
X-16452183Y-36681043D01*
X-16588828Y-36641454D01*
X-16715234Y-36573886D01*
X-16822678Y-36485061D01*
X-16902436Y-36381701D01*
X-16935820Y-36308341D01*
X-16943783Y-36269026D01*
X-16950607Y-36201463D01*
X-16956388Y-36103190D01*
X-16961223Y-35971741D01*
X-16965208Y-35804655D01*
X-16968439Y-35599468D01*
X-16970344Y-35427709D01*
X-16978002Y-34628667D01*
X-17293166Y-34628667D01*
X-17293166Y-34184167D01*
X-17123833Y-34184167D01*
X-17044887Y-34183556D01*
X-16985070Y-34181934D01*
X-16954548Y-34179613D01*
X-16952634Y-34178875D01*
X-16950377Y-34157063D01*
X-16945423Y-34100629D01*
X-16938417Y-34017151D01*
X-16930000Y-33914209D01*
X-16926176Y-33866714D01*
X-16901583Y-33559844D01*
X-16785166Y-33546389D01*
X-16692024Y-33536126D01*
X-16589610Y-33525559D01*
X-16547041Y-33521414D01*
X-16425333Y-33509892D01*
X-16425333Y-34184167D01*
X-16425333Y-34184167D01*
G37*
X-16425333Y-34184167D02*
X-15938500Y-34184167D01*
X-15938500Y-34628667D01*
X-16425333Y-34628667D01*
X-16424138Y-35290125D01*
X-16423000Y-35510189D01*
X-16420419Y-35689505D01*
X-16416337Y-35829638D01*
X-16410699Y-35932151D01*
X-16403448Y-35998609D01*
X-16397680Y-36023684D01*
X-16363439Y-36092432D01*
X-16312347Y-36140076D01*
X-16237178Y-36170369D01*
X-16130707Y-36187065D01*
X-16075882Y-36190876D01*
X-15894789Y-36200381D01*
X-15900769Y-36425232D01*
X-15906750Y-36650084D01*
X-16065500Y-36675213D01*
X-16179097Y-36691202D01*
X-16268049Y-36697720D01*
X-16348916Y-36695018D01*
X-16438254Y-36683345D01*
X-16452183Y-36681043D01*
X-16588828Y-36641454D01*
X-16715234Y-36573886D01*
X-16822678Y-36485061D01*
X-16902436Y-36381701D01*
X-16935820Y-36308341D01*
X-16943783Y-36269026D01*
X-16950607Y-36201463D01*
X-16956388Y-36103190D01*
X-16961223Y-35971741D01*
X-16965208Y-35804655D01*
X-16968439Y-35599468D01*
X-16970344Y-35427709D01*
X-16978002Y-34628667D01*
X-17293166Y-34628667D01*
X-17293166Y-34184167D01*
X-17123833Y-34184167D01*
X-17044887Y-34183556D01*
X-16985070Y-34181934D01*
X-16954548Y-34179613D01*
X-16952634Y-34178875D01*
X-16950377Y-34157063D01*
X-16945423Y-34100629D01*
X-16938417Y-34017151D01*
X-16930000Y-33914209D01*
X-16926176Y-33866714D01*
X-16901583Y-33559844D01*
X-16785166Y-33546389D01*
X-16692024Y-33536126D01*
X-16589610Y-33525559D01*
X-16547041Y-33521414D01*
X-16425333Y-33509892D01*
X-16425333Y-34184167D01*
G36*
X11752400Y-33301340D02*
G01*
X11959989Y-33344872D01*
X12152557Y-33412329D01*
X12323866Y-33502091D01*
X12467675Y-33612537D01*
X12553106Y-33707142D01*
X12593914Y-33767908D01*
X12633651Y-33838100D01*
X12667363Y-33907266D01*
X12690095Y-33964956D01*
X12696892Y-34000720D01*
X12694780Y-34005942D01*
X12672314Y-34013775D01*
X12618087Y-34028855D01*
X12541568Y-34048841D01*
X12452230Y-34071393D01*
X12359543Y-34094167D01*
X12272979Y-34114823D01*
X12202009Y-34131019D01*
X12156103Y-34140413D01*
X12145135Y-34141834D01*
X12118207Y-34124736D01*
X12085452Y-34082078D01*
X12075861Y-34065517D01*
X11990904Y-33950639D01*
X11876574Y-33865073D01*
X11734902Y-33809746D01*
X11567922Y-33785584D01*
X11462809Y-33786079D01*
X11299639Y-33808344D01*
X11167163Y-33855708D01*
X11066949Y-33927050D01*
X11000562Y-34021249D01*
X10969569Y-34137184D01*
X10969368Y-34139221D01*
X10975068Y-34250771D01*
X11017418Y-34344707D01*
X11099038Y-34426822D01*
X11099681Y-34427313D01*
X11149947Y-34460650D01*
X11212929Y-34492084D01*
X11294401Y-34523629D01*
X11400139Y-34557298D01*
X11535919Y-34595106D01*
X11705872Y-34638655D01*
X11925957Y-34696076D01*
X12108701Y-34750005D01*
X12258707Y-34802664D01*
X12380582Y-34856271D01*
X12478930Y-34913047D01*
X12558355Y-34975211D01*
X12623462Y-35044983D01*
X12663486Y-35100302D01*
X12727790Y-35206639D01*
X12771792Y-35303920D01*
X12798934Y-35404904D01*
X12812661Y-35522351D01*
X12816417Y-35666932D01*
X12815884Y-35773225D01*
X12812699Y-35849330D01*
X12804481Y-35907389D01*
X12788850Y-35959548D01*
X12763425Y-36017948D01*
X12736988Y-36072160D01*
X12630736Y-36240537D01*
X12492117Y-36383806D01*
X12323578Y-36500942D01*
X12127566Y-36590924D01*
X11906528Y-36652729D01*
X11662909Y-36685333D01*
X11399157Y-36687713D01*
X11284157Y-36679565D01*
X11039713Y-36639904D01*
X10817274Y-36569403D01*
X10620413Y-36469577D01*
X10452700Y-36341945D01*
X10423845Y-36314095D01*
X10335941Y-36213844D01*
X10261600Y-36106045D01*
X10206849Y-36001020D01*
X10177712Y-35909089D01*
X10175026Y-35887943D01*
X10170584Y-35828204D01*
X10435167Y-35769332D01*
X10536816Y-35747003D01*
X10624078Y-35728375D01*
X10688326Y-35715252D01*
X10720938Y-35709435D01*
X10722314Y-35709313D01*
X10741771Y-35726686D01*
X10769294Y-35772931D01*
X10793182Y-35824712D01*
X10867757Y-35950358D01*
X10977243Y-36052667D01*
X11120648Y-36130728D01*
X11131987Y-36135283D01*
X11191823Y-36156004D01*
X11253329Y-36169790D01*
X11327457Y-36178007D01*
X11425163Y-36182025D01*
X11514667Y-36183077D01*
X11630272Y-36182780D01*
X11713865Y-36179642D01*
X11775743Y-36172344D01*
X11826201Y-36159570D01*
X11875532Y-36140001D01*
X11885084Y-36135657D01*
X12014829Y-36060008D01*
X12105097Y-35970332D01*
X12156717Y-35865543D01*
X12170834Y-35761291D01*
X12151622Y-35635897D01*
X12095319Y-35529524D01*
X12003924Y-35444943D01*
X11906250Y-35394583D01*
X11867266Y-35381957D01*
X11794371Y-35360661D01*
X11694629Y-35332669D01*
X11575103Y-35299955D01*
X11442857Y-35264491D01*
X11398250Y-35252684D01*
X11184773Y-35193846D01*
X11008709Y-35139379D01*
X10865597Y-35087428D01*
X10750976Y-35036139D01*
X10660386Y-34983658D01*
X10589367Y-34928131D01*
X10568411Y-34907740D01*
X10480153Y-34793448D01*
X10406148Y-34651611D01*
X10353689Y-34496442D01*
X10350413Y-34482906D01*
X10333957Y-34358143D01*
X10334596Y-34213060D01*
X10351033Y-34065463D01*
X10381973Y-33933160D01*
X10392676Y-33902290D01*
X10465226Y-33765033D01*
X10572722Y-33635341D01*
X10707810Y-33519144D01*
X10863134Y-33422373D01*
X11031340Y-33350956D01*
X11101917Y-33330482D01*
X11317124Y-33292525D01*
X11536032Y-33283350D01*
X11752400Y-33301340D01*
X11752400Y-33301340D01*
G37*
X11752400Y-33301340D02*
X11959989Y-33344872D01*
X12152557Y-33412329D01*
X12323866Y-33502091D01*
X12467675Y-33612537D01*
X12553106Y-33707142D01*
X12593914Y-33767908D01*
X12633651Y-33838100D01*
X12667363Y-33907266D01*
X12690095Y-33964956D01*
X12696892Y-34000720D01*
X12694780Y-34005942D01*
X12672314Y-34013775D01*
X12618087Y-34028855D01*
X12541568Y-34048841D01*
X12452230Y-34071393D01*
X12359543Y-34094167D01*
X12272979Y-34114823D01*
X12202009Y-34131019D01*
X12156103Y-34140413D01*
X12145135Y-34141834D01*
X12118207Y-34124736D01*
X12085452Y-34082078D01*
X12075861Y-34065517D01*
X11990904Y-33950639D01*
X11876574Y-33865073D01*
X11734902Y-33809746D01*
X11567922Y-33785584D01*
X11462809Y-33786079D01*
X11299639Y-33808344D01*
X11167163Y-33855708D01*
X11066949Y-33927050D01*
X11000562Y-34021249D01*
X10969569Y-34137184D01*
X10969368Y-34139221D01*
X10975068Y-34250771D01*
X11017418Y-34344707D01*
X11099038Y-34426822D01*
X11099681Y-34427313D01*
X11149947Y-34460650D01*
X11212929Y-34492084D01*
X11294401Y-34523629D01*
X11400139Y-34557298D01*
X11535919Y-34595106D01*
X11705872Y-34638655D01*
X11925957Y-34696076D01*
X12108701Y-34750005D01*
X12258707Y-34802664D01*
X12380582Y-34856271D01*
X12478930Y-34913047D01*
X12558355Y-34975211D01*
X12623462Y-35044983D01*
X12663486Y-35100302D01*
X12727790Y-35206639D01*
X12771792Y-35303920D01*
X12798934Y-35404904D01*
X12812661Y-35522351D01*
X12816417Y-35666932D01*
X12815884Y-35773225D01*
X12812699Y-35849330D01*
X12804481Y-35907389D01*
X12788850Y-35959548D01*
X12763425Y-36017948D01*
X12736988Y-36072160D01*
X12630736Y-36240537D01*
X12492117Y-36383806D01*
X12323578Y-36500942D01*
X12127566Y-36590924D01*
X11906528Y-36652729D01*
X11662909Y-36685333D01*
X11399157Y-36687713D01*
X11284157Y-36679565D01*
X11039713Y-36639904D01*
X10817274Y-36569403D01*
X10620413Y-36469577D01*
X10452700Y-36341945D01*
X10423845Y-36314095D01*
X10335941Y-36213844D01*
X10261600Y-36106045D01*
X10206849Y-36001020D01*
X10177712Y-35909089D01*
X10175026Y-35887943D01*
X10170584Y-35828204D01*
X10435167Y-35769332D01*
X10536816Y-35747003D01*
X10624078Y-35728375D01*
X10688326Y-35715252D01*
X10720938Y-35709435D01*
X10722314Y-35709313D01*
X10741771Y-35726686D01*
X10769294Y-35772931D01*
X10793182Y-35824712D01*
X10867757Y-35950358D01*
X10977243Y-36052667D01*
X11120648Y-36130728D01*
X11131987Y-36135283D01*
X11191823Y-36156004D01*
X11253329Y-36169790D01*
X11327457Y-36178007D01*
X11425163Y-36182025D01*
X11514667Y-36183077D01*
X11630272Y-36182780D01*
X11713865Y-36179642D01*
X11775743Y-36172344D01*
X11826201Y-36159570D01*
X11875532Y-36140001D01*
X11885084Y-36135657D01*
X12014829Y-36060008D01*
X12105097Y-35970332D01*
X12156717Y-35865543D01*
X12170834Y-35761291D01*
X12151622Y-35635897D01*
X12095319Y-35529524D01*
X12003924Y-35444943D01*
X11906250Y-35394583D01*
X11867266Y-35381957D01*
X11794371Y-35360661D01*
X11694629Y-35332669D01*
X11575103Y-35299955D01*
X11442857Y-35264491D01*
X11398250Y-35252684D01*
X11184773Y-35193846D01*
X11008709Y-35139379D01*
X10865597Y-35087428D01*
X10750976Y-35036139D01*
X10660386Y-34983658D01*
X10589367Y-34928131D01*
X10568411Y-34907740D01*
X10480153Y-34793448D01*
X10406148Y-34651611D01*
X10353689Y-34496442D01*
X10350413Y-34482906D01*
X10333957Y-34358143D01*
X10334596Y-34213060D01*
X10351033Y-34065463D01*
X10381973Y-33933160D01*
X10392676Y-33902290D01*
X10465226Y-33765033D01*
X10572722Y-33635341D01*
X10707810Y-33519144D01*
X10863134Y-33422373D01*
X11031340Y-33350956D01*
X11101917Y-33330482D01*
X11317124Y-33292525D01*
X11536032Y-33283350D01*
X11752400Y-33301340D01*
G36*
X24828500Y-34184167D02*
G01*
X25315334Y-34184167D01*
X25315334Y-34628667D01*
X24825812Y-34628667D01*
X24832448Y-35300709D01*
X24834731Y-35505616D01*
X24837676Y-35672494D01*
X24842101Y-35805646D01*
X24848824Y-35909375D01*
X24858663Y-35987985D01*
X24872436Y-36045779D01*
X24890962Y-36087060D01*
X24915059Y-36116133D01*
X24945544Y-36137300D01*
X24983237Y-36154865D01*
X24995812Y-36159972D01*
X25076652Y-36181477D01*
X25179710Y-36193475D01*
X25231095Y-36195000D01*
X25378834Y-36195000D01*
X25378834Y-36415824D01*
X25379051Y-36517416D01*
X25375140Y-36584927D01*
X25360256Y-36626523D01*
X25327554Y-36650367D01*
X25270189Y-36664626D01*
X25181318Y-36677464D01*
X25156584Y-36680948D01*
X25054952Y-36693995D01*
X24977189Y-36698932D01*
X24905616Y-36695764D01*
X24822555Y-36684496D01*
X24801650Y-36681043D01*
X24646734Y-36635550D01*
X24513841Y-36556833D01*
X24407595Y-36448581D01*
X24332619Y-36314480D01*
X24328451Y-36303657D01*
X24318715Y-36273101D01*
X24310682Y-36235478D01*
X24304122Y-36186342D01*
X24298810Y-36121244D01*
X24294519Y-36035736D01*
X24291020Y-35925370D01*
X24288088Y-35785697D01*
X24285495Y-35612269D01*
X24283192Y-35417125D01*
X24274614Y-34628667D01*
X23981834Y-34628667D01*
X23981834Y-34184167D01*
X24314426Y-34184167D01*
X24328403Y-33988375D01*
X24336356Y-33883726D01*
X24345135Y-33778680D01*
X24353164Y-33691868D01*
X24355117Y-33672856D01*
X24367853Y-33553129D01*
X24539968Y-33539457D01*
X24629152Y-33531577D01*
X24708735Y-33523148D01*
X24763818Y-33515777D01*
X24770292Y-33514628D01*
X24828500Y-33503470D01*
X24828500Y-34184167D01*
X24828500Y-34184167D01*
G37*
X24828500Y-34184167D02*
X25315334Y-34184167D01*
X25315334Y-34628667D01*
X24825812Y-34628667D01*
X24832448Y-35300709D01*
X24834731Y-35505616D01*
X24837676Y-35672494D01*
X24842101Y-35805646D01*
X24848824Y-35909375D01*
X24858663Y-35987985D01*
X24872436Y-36045779D01*
X24890962Y-36087060D01*
X24915059Y-36116133D01*
X24945544Y-36137300D01*
X24983237Y-36154865D01*
X24995812Y-36159972D01*
X25076652Y-36181477D01*
X25179710Y-36193475D01*
X25231095Y-36195000D01*
X25378834Y-36195000D01*
X25378834Y-36415824D01*
X25379051Y-36517416D01*
X25375140Y-36584927D01*
X25360256Y-36626523D01*
X25327554Y-36650367D01*
X25270189Y-36664626D01*
X25181318Y-36677464D01*
X25156584Y-36680948D01*
X25054952Y-36693995D01*
X24977189Y-36698932D01*
X24905616Y-36695764D01*
X24822555Y-36684496D01*
X24801650Y-36681043D01*
X24646734Y-36635550D01*
X24513841Y-36556833D01*
X24407595Y-36448581D01*
X24332619Y-36314480D01*
X24328451Y-36303657D01*
X24318715Y-36273101D01*
X24310682Y-36235478D01*
X24304122Y-36186342D01*
X24298810Y-36121244D01*
X24294519Y-36035736D01*
X24291020Y-35925370D01*
X24288088Y-35785697D01*
X24285495Y-35612269D01*
X24283192Y-35417125D01*
X24274614Y-34628667D01*
X23981834Y-34628667D01*
X23981834Y-34184167D01*
X24314426Y-34184167D01*
X24328403Y-33988375D01*
X24336356Y-33883726D01*
X24345135Y-33778680D01*
X24353164Y-33691868D01*
X24355117Y-33672856D01*
X24367853Y-33553129D01*
X24539968Y-33539457D01*
X24629152Y-33531577D01*
X24708735Y-33523148D01*
X24763818Y-33515777D01*
X24770292Y-33514628D01*
X24828500Y-33503470D01*
X24828500Y-34184167D01*
G36*
X29704503Y-34157033D02*
G01*
X29888878Y-34204332D01*
X30056379Y-34286783D01*
X30213661Y-34407123D01*
X30268334Y-34459512D01*
X30398159Y-34612220D01*
X30495691Y-34778259D01*
X30562892Y-34962969D01*
X30601722Y-35171691D01*
X30614132Y-35401250D01*
X30600141Y-35649759D01*
X30555974Y-35870625D01*
X30480495Y-36067012D01*
X30372568Y-36242080D01*
X30268611Y-36362345D01*
X30108211Y-36499265D01*
X29932369Y-36598835D01*
X29738822Y-36661777D01*
X29525307Y-36688809D01*
X29289560Y-36680653D01*
X29273500Y-36678931D01*
X29086569Y-36637759D01*
X28914998Y-36559607D01*
X28761228Y-36447808D01*
X28627702Y-36305696D01*
X28516860Y-36136605D01*
X28431143Y-35943867D01*
X28372993Y-35730818D01*
X28344850Y-35500789D01*
X28342902Y-35422417D01*
X28947393Y-35422417D01*
X28960139Y-35633947D01*
X28998006Y-35815055D01*
X29060438Y-35964491D01*
X29146880Y-36081007D01*
X29256776Y-36163354D01*
X29282902Y-36176244D01*
X29391475Y-36207075D01*
X29514786Y-36213547D01*
X29633261Y-36195636D01*
X29686432Y-36176691D01*
X29792861Y-36105765D01*
X29883487Y-35998665D01*
X29953155Y-35863360D01*
X29972266Y-35811118D01*
X29985696Y-35760647D01*
X29994422Y-35702945D01*
X29999421Y-35629008D01*
X30001670Y-35529836D01*
X30002149Y-35411834D01*
X30001540Y-35282350D01*
X29999061Y-35186183D01*
X29993732Y-35114327D01*
X29984575Y-35057773D01*
X29970612Y-35007514D01*
X29953058Y-34960048D01*
X29879474Y-34820319D01*
X29784478Y-34714815D01*
X29670660Y-34645259D01*
X29540612Y-34613377D01*
X29434851Y-34615123D01*
X29296102Y-34650780D01*
X29179756Y-34721805D01*
X29086343Y-34827318D01*
X29016392Y-34966441D01*
X28970436Y-35138296D01*
X28949003Y-35342004D01*
X28947393Y-35422417D01*
X28342902Y-35422417D01*
X28342534Y-35407655D01*
X28360222Y-35156346D01*
X28412599Y-34928696D01*
X28500111Y-34723473D01*
X28623207Y-34539447D01*
X28681812Y-34472240D01*
X28834067Y-34336908D01*
X29004721Y-34237840D01*
X29196202Y-34174052D01*
X29410938Y-34144562D01*
X29496595Y-34142146D01*
X29704503Y-34157033D01*
X29704503Y-34157033D01*
G37*
X29704503Y-34157033D02*
X29888878Y-34204332D01*
X30056379Y-34286783D01*
X30213661Y-34407123D01*
X30268334Y-34459512D01*
X30398159Y-34612220D01*
X30495691Y-34778259D01*
X30562892Y-34962969D01*
X30601722Y-35171691D01*
X30614132Y-35401250D01*
X30600141Y-35649759D01*
X30555974Y-35870625D01*
X30480495Y-36067012D01*
X30372568Y-36242080D01*
X30268611Y-36362345D01*
X30108211Y-36499265D01*
X29932369Y-36598835D01*
X29738822Y-36661777D01*
X29525307Y-36688809D01*
X29289560Y-36680653D01*
X29273500Y-36678931D01*
X29086569Y-36637759D01*
X28914998Y-36559607D01*
X28761228Y-36447808D01*
X28627702Y-36305696D01*
X28516860Y-36136605D01*
X28431143Y-35943867D01*
X28372993Y-35730818D01*
X28344850Y-35500789D01*
X28342902Y-35422417D01*
X28947393Y-35422417D01*
X28960139Y-35633947D01*
X28998006Y-35815055D01*
X29060438Y-35964491D01*
X29146880Y-36081007D01*
X29256776Y-36163354D01*
X29282902Y-36176244D01*
X29391475Y-36207075D01*
X29514786Y-36213547D01*
X29633261Y-36195636D01*
X29686432Y-36176691D01*
X29792861Y-36105765D01*
X29883487Y-35998665D01*
X29953155Y-35863360D01*
X29972266Y-35811118D01*
X29985696Y-35760647D01*
X29994422Y-35702945D01*
X29999421Y-35629008D01*
X30001670Y-35529836D01*
X30002149Y-35411834D01*
X30001540Y-35282350D01*
X29999061Y-35186183D01*
X29993732Y-35114327D01*
X29984575Y-35057773D01*
X29970612Y-35007514D01*
X29953058Y-34960048D01*
X29879474Y-34820319D01*
X29784478Y-34714815D01*
X29670660Y-34645259D01*
X29540612Y-34613377D01*
X29434851Y-34615123D01*
X29296102Y-34650780D01*
X29179756Y-34721805D01*
X29086343Y-34827318D01*
X29016392Y-34966441D01*
X28970436Y-35138296D01*
X28949003Y-35342004D01*
X28947393Y-35422417D01*
X28342902Y-35422417D01*
X28342534Y-35407655D01*
X28360222Y-35156346D01*
X28412599Y-34928696D01*
X28500111Y-34723473D01*
X28623207Y-34539447D01*
X28681812Y-34472240D01*
X28834067Y-34336908D01*
X29004721Y-34237840D01*
X29196202Y-34174052D01*
X29410938Y-34144562D01*
X29496595Y-34142146D01*
X29704503Y-34157033D01*
G36*
X31686500Y-35021460D02*
G01*
X31687161Y-35273007D01*
X31689127Y-35487130D01*
X31692373Y-35662867D01*
X31696876Y-35799256D01*
X31702610Y-35895334D01*
X31709552Y-35950138D01*
X31710184Y-35952811D01*
X31755810Y-36054127D01*
X31831564Y-36130718D01*
X31930606Y-36178478D01*
X32046092Y-36193303D01*
X32102260Y-36188029D01*
X32185948Y-36160579D01*
X32278999Y-36109035D01*
X32366017Y-36043639D01*
X32431605Y-35974634D01*
X32439071Y-35963958D01*
X32467819Y-35915802D01*
X32491426Y-35863782D01*
X32510381Y-35803361D01*
X32525175Y-35730000D01*
X32536296Y-35639161D01*
X32544234Y-35526308D01*
X32549480Y-35386903D01*
X32552521Y-35216407D01*
X32553849Y-35010284D01*
X32554021Y-34898542D01*
X32554334Y-34184167D01*
X33125834Y-34184167D01*
X33125834Y-36639500D01*
X32596667Y-36639500D01*
X32596373Y-36411959D01*
X32596080Y-36184417D01*
X32548748Y-36278533D01*
X32481227Y-36383256D01*
X32390252Y-36483930D01*
X32287823Y-36569284D01*
X32185940Y-36628048D01*
X32169737Y-36634509D01*
X32018457Y-36674085D01*
X31852164Y-36690573D01*
X31692961Y-36681857D01*
X31536044Y-36637914D01*
X31394437Y-36557369D01*
X31274346Y-36444963D01*
X31181978Y-36305438D01*
X31171322Y-36283385D01*
X31160713Y-36259254D01*
X31151852Y-36234210D01*
X31144554Y-36204335D01*
X31138634Y-36165709D01*
X31133907Y-36114413D01*
X31130186Y-36046528D01*
X31127286Y-35958134D01*
X31125023Y-35845313D01*
X31123210Y-35704144D01*
X31121663Y-35530709D01*
X31120195Y-35321089D01*
X31119325Y-35184292D01*
X31113067Y-34184167D01*
X31686500Y-34184167D01*
X31686500Y-35021460D01*
X31686500Y-35021460D01*
G37*
X31686500Y-35021460D02*
X31687161Y-35273007D01*
X31689127Y-35487130D01*
X31692373Y-35662867D01*
X31696876Y-35799256D01*
X31702610Y-35895334D01*
X31709552Y-35950138D01*
X31710184Y-35952811D01*
X31755810Y-36054127D01*
X31831564Y-36130718D01*
X31930606Y-36178478D01*
X32046092Y-36193303D01*
X32102260Y-36188029D01*
X32185948Y-36160579D01*
X32278999Y-36109035D01*
X32366017Y-36043639D01*
X32431605Y-35974634D01*
X32439071Y-35963958D01*
X32467819Y-35915802D01*
X32491426Y-35863782D01*
X32510381Y-35803361D01*
X32525175Y-35730000D01*
X32536296Y-35639161D01*
X32544234Y-35526308D01*
X32549480Y-35386903D01*
X32552521Y-35216407D01*
X32553849Y-35010284D01*
X32554021Y-34898542D01*
X32554334Y-34184167D01*
X33125834Y-34184167D01*
X33125834Y-36639500D01*
X32596667Y-36639500D01*
X32596373Y-36411959D01*
X32596080Y-36184417D01*
X32548748Y-36278533D01*
X32481227Y-36383256D01*
X32390252Y-36483930D01*
X32287823Y-36569284D01*
X32185940Y-36628048D01*
X32169737Y-36634509D01*
X32018457Y-36674085D01*
X31852164Y-36690573D01*
X31692961Y-36681857D01*
X31536044Y-36637914D01*
X31394437Y-36557369D01*
X31274346Y-36444963D01*
X31181978Y-36305438D01*
X31171322Y-36283385D01*
X31160713Y-36259254D01*
X31151852Y-36234210D01*
X31144554Y-36204335D01*
X31138634Y-36165709D01*
X31133907Y-36114413D01*
X31130186Y-36046528D01*
X31127286Y-35958134D01*
X31125023Y-35845313D01*
X31123210Y-35704144D01*
X31121663Y-35530709D01*
X31120195Y-35321089D01*
X31119325Y-35184292D01*
X31113067Y-34184167D01*
X31686500Y-34184167D01*
X31686500Y-35021460D01*
G36*
X34374667Y-34184167D02*
G01*
X34882667Y-34184167D01*
X34882667Y-34628667D01*
X34370669Y-34628667D01*
X34378292Y-35300709D01*
X34380659Y-35490386D01*
X34383190Y-35642550D01*
X34386181Y-35762020D01*
X34389927Y-35853615D01*
X34394724Y-35922156D01*
X34400868Y-35972461D01*
X34408653Y-36009350D01*
X34418375Y-36037644D01*
X34424256Y-36050479D01*
X34476476Y-36118959D01*
X34556401Y-36164764D01*
X34667792Y-36189436D01*
X34777262Y-36195000D01*
X34925000Y-36195000D01*
X34925000Y-36415824D01*
X34925218Y-36517416D01*
X34921306Y-36584927D01*
X34906422Y-36626523D01*
X34873720Y-36650367D01*
X34816356Y-36664626D01*
X34727484Y-36677464D01*
X34702750Y-36680948D01*
X34600976Y-36694006D01*
X34523139Y-36698939D01*
X34451631Y-36695763D01*
X34368845Y-36684493D01*
X34349289Y-36681253D01*
X34235642Y-36648341D01*
X34120308Y-36591893D01*
X34019831Y-36521075D01*
X33969658Y-36470878D01*
X33937936Y-36430511D01*
X33911739Y-36390299D01*
X33890484Y-36345814D01*
X33873587Y-36292627D01*
X33860465Y-36226308D01*
X33850535Y-36142428D01*
X33843212Y-36036559D01*
X33837914Y-35904271D01*
X33834057Y-35741135D01*
X33831057Y-35542723D01*
X33829445Y-35406542D01*
X33820744Y-34628667D01*
X33528000Y-34628667D01*
X33528000Y-34184167D01*
X33861201Y-34184167D01*
X33875096Y-34009542D01*
X33883728Y-33903327D01*
X33893144Y-33790915D01*
X33901345Y-33696176D01*
X33901536Y-33694020D01*
X33914080Y-33553123D01*
X34086165Y-33539454D01*
X34175343Y-33531574D01*
X34254920Y-33523146D01*
X34309996Y-33515776D01*
X34316459Y-33514628D01*
X34374667Y-33503470D01*
X34374667Y-34184167D01*
X34374667Y-34184167D01*
G37*
X34374667Y-34184167D02*
X34882667Y-34184167D01*
X34882667Y-34628667D01*
X34370669Y-34628667D01*
X34378292Y-35300709D01*
X34380659Y-35490386D01*
X34383190Y-35642550D01*
X34386181Y-35762020D01*
X34389927Y-35853615D01*
X34394724Y-35922156D01*
X34400868Y-35972461D01*
X34408653Y-36009350D01*
X34418375Y-36037644D01*
X34424256Y-36050479D01*
X34476476Y-36118959D01*
X34556401Y-36164764D01*
X34667792Y-36189436D01*
X34777262Y-36195000D01*
X34925000Y-36195000D01*
X34925000Y-36415824D01*
X34925218Y-36517416D01*
X34921306Y-36584927D01*
X34906422Y-36626523D01*
X34873720Y-36650367D01*
X34816356Y-36664626D01*
X34727484Y-36677464D01*
X34702750Y-36680948D01*
X34600976Y-36694006D01*
X34523139Y-36698939D01*
X34451631Y-36695763D01*
X34368845Y-36684493D01*
X34349289Y-36681253D01*
X34235642Y-36648341D01*
X34120308Y-36591893D01*
X34019831Y-36521075D01*
X33969658Y-36470878D01*
X33937936Y-36430511D01*
X33911739Y-36390299D01*
X33890484Y-36345814D01*
X33873587Y-36292627D01*
X33860465Y-36226308D01*
X33850535Y-36142428D01*
X33843212Y-36036559D01*
X33837914Y-35904271D01*
X33834057Y-35741135D01*
X33831057Y-35542723D01*
X33829445Y-35406542D01*
X33820744Y-34628667D01*
X33528000Y-34628667D01*
X33528000Y-34184167D01*
X33861201Y-34184167D01*
X33875096Y-34009542D01*
X33883728Y-33903327D01*
X33893144Y-33790915D01*
X33901345Y-33696176D01*
X33901536Y-33694020D01*
X33914080Y-33553123D01*
X34086165Y-33539454D01*
X34175343Y-33531574D01*
X34254920Y-33523146D01*
X34309996Y-33515776D01*
X34316459Y-33514628D01*
X34374667Y-33503470D01*
X34374667Y-34184167D01*
G36*
X-27410833Y-36639500D02*
G01*
X-27982333Y-36639500D01*
X-27982333Y-34184167D01*
X-27410833Y-34184167D01*
X-27410833Y-36639500D01*
X-27410833Y-36639500D01*
G37*
X-27410833Y-36639500D02*
X-27982333Y-36639500D01*
X-27982333Y-34184167D01*
X-27410833Y-34184167D01*
X-27410833Y-36639500D01*
G36*
X-26204333Y-36639500D02*
G01*
X-26775833Y-36639500D01*
X-26775833Y-33337500D01*
X-26204333Y-33337500D01*
X-26204333Y-36639500D01*
X-26204333Y-36639500D01*
G37*
X-26204333Y-36639500D02*
X-26775833Y-36639500D01*
X-26775833Y-33337500D01*
X-26204333Y-33337500D01*
X-26204333Y-36639500D01*
G36*
X-25019000Y-35355953D02*
G01*
X-24939625Y-35262832D01*
X-24905519Y-35224055D01*
X-24846967Y-35158862D01*
X-24768234Y-35071942D01*
X-24673585Y-34967988D01*
X-24567287Y-34851691D01*
X-24453604Y-34727741D01*
X-24406898Y-34676938D01*
X-23953546Y-34184167D01*
X-23650190Y-34184167D01*
X-23542349Y-34184951D01*
X-23451400Y-34187108D01*
X-23384828Y-34190343D01*
X-23350119Y-34194360D01*
X-23346833Y-34196114D01*
X-23360491Y-34214388D01*
X-23398922Y-34259561D01*
X-23458311Y-34327314D01*
X-23534841Y-34413323D01*
X-23624699Y-34513267D01*
X-23706447Y-34603465D01*
X-23821591Y-34730950D01*
X-23910182Y-34831301D01*
X-23974946Y-34907963D01*
X-24018607Y-34964381D01*
X-24043889Y-35003998D01*
X-24053519Y-35030258D01*
X-24052833Y-35041310D01*
X-24040734Y-35068975D01*
X-24011718Y-35130231D01*
X-23967864Y-35220836D01*
X-23911251Y-35336548D01*
X-23843956Y-35473126D01*
X-23768059Y-35626329D01*
X-23685638Y-35791914D01*
X-23650829Y-35861625D01*
X-23262055Y-36639500D01*
X-23879236Y-36639500D01*
X-24481816Y-35405494D01*
X-25019000Y-36005208D01*
X-25019000Y-36639500D01*
X-25569333Y-36639500D01*
X-25569333Y-33337500D01*
X-25019000Y-33337500D01*
X-25019000Y-35355953D01*
X-25019000Y-35355953D01*
G37*
X-25019000Y-35355953D02*
X-24939625Y-35262832D01*
X-24905519Y-35224055D01*
X-24846967Y-35158862D01*
X-24768234Y-35071942D01*
X-24673585Y-34967988D01*
X-24567287Y-34851691D01*
X-24453604Y-34727741D01*
X-24406898Y-34676938D01*
X-23953546Y-34184167D01*
X-23650190Y-34184167D01*
X-23542349Y-34184951D01*
X-23451400Y-34187108D01*
X-23384828Y-34190343D01*
X-23350119Y-34194360D01*
X-23346833Y-34196114D01*
X-23360491Y-34214388D01*
X-23398922Y-34259561D01*
X-23458311Y-34327314D01*
X-23534841Y-34413323D01*
X-23624699Y-34513267D01*
X-23706447Y-34603465D01*
X-23821591Y-34730950D01*
X-23910182Y-34831301D01*
X-23974946Y-34907963D01*
X-24018607Y-34964381D01*
X-24043889Y-35003998D01*
X-24053519Y-35030258D01*
X-24052833Y-35041310D01*
X-24040734Y-35068975D01*
X-24011718Y-35130231D01*
X-23967864Y-35220836D01*
X-23911251Y-35336548D01*
X-23843956Y-35473126D01*
X-23768059Y-35626329D01*
X-23685638Y-35791914D01*
X-23650829Y-35861625D01*
X-23262055Y-36639500D01*
X-23879236Y-36639500D01*
X-24481816Y-35405494D01*
X-25019000Y-36005208D01*
X-25019000Y-36639500D01*
X-25569333Y-36639500D01*
X-25569333Y-33337500D01*
X-25019000Y-33337500D01*
X-25019000Y-35355953D01*
G36*
X-18752645Y-34184598D02*
G01*
X-18674769Y-34185768D01*
X-18623053Y-34187497D01*
X-18605756Y-34189459D01*
X-18611591Y-34210151D01*
X-18628313Y-34267932D01*
X-18654889Y-34359267D01*
X-18690289Y-34480623D01*
X-18733480Y-34628468D01*
X-18783429Y-34799269D01*
X-18839105Y-34989492D01*
X-18899475Y-35195605D01*
X-18962851Y-35411834D01*
X-19319689Y-36628917D01*
X-19842451Y-36628917D01*
X-20055101Y-35800281D01*
X-20267752Y-34971644D01*
X-20690416Y-36639344D01*
X-20956976Y-36639422D01*
X-21223535Y-36639500D01*
X-21597267Y-35425149D01*
X-21664280Y-35207193D01*
X-21727439Y-35001350D01*
X-21785666Y-34811166D01*
X-21837882Y-34640186D01*
X-21883006Y-34491957D01*
X-21919959Y-34370024D01*
X-21947662Y-34277933D01*
X-21965035Y-34219232D01*
X-21971000Y-34197482D01*
X-21951085Y-34192750D01*
X-21896346Y-34188789D01*
X-21814289Y-34185925D01*
X-21712419Y-34184484D01*
X-21669375Y-34184377D01*
X-21367750Y-34184588D01*
X-21136735Y-34978182D01*
X-21085640Y-35153046D01*
X-21038162Y-35314265D01*
X-20995598Y-35457524D01*
X-20959247Y-35578511D01*
X-20930408Y-35672912D01*
X-20910379Y-35736411D01*
X-20900458Y-35764696D01*
X-20899688Y-35765744D01*
X-20893194Y-35744565D01*
X-20877460Y-35687097D01*
X-20853729Y-35598063D01*
X-20823246Y-35482188D01*
X-20787254Y-35344196D01*
X-20746997Y-35188813D01*
X-20711569Y-35051314D01*
X-20667835Y-34881221D01*
X-20626651Y-34721153D01*
X-20589409Y-34576503D01*
X-20557496Y-34452664D01*
X-20532303Y-34355027D01*
X-20515219Y-34288986D01*
X-20508592Y-34263542D01*
X-20487701Y-34184167D01*
X-20229226Y-34184194D01*
X-19970750Y-34184222D01*
X-19782112Y-34909153D01*
X-19737412Y-35080819D01*
X-19695333Y-35242193D01*
X-19657252Y-35388015D01*
X-19624545Y-35513025D01*
X-19598587Y-35611963D01*
X-19580756Y-35679568D01*
X-19573099Y-35708167D01*
X-19566904Y-35725656D01*
X-19559609Y-35731685D01*
X-19549960Y-35722736D01*
X-19536699Y-35695290D01*
X-19518572Y-35645828D01*
X-19494324Y-35570832D01*
X-19462697Y-35466782D01*
X-19422437Y-35330161D01*
X-19372288Y-35157450D01*
X-19354047Y-35094334D01*
X-19305289Y-34925509D01*
X-19258928Y-34764989D01*
X-19216623Y-34618516D01*
X-19180034Y-34491833D01*
X-19150818Y-34390685D01*
X-19130635Y-34320815D01*
X-19123261Y-34295292D01*
X-19091151Y-34184167D01*
X-18848325Y-34184167D01*
X-18752645Y-34184598D01*
X-18752645Y-34184598D01*
G37*
X-18752645Y-34184598D02*
X-18674769Y-34185768D01*
X-18623053Y-34187497D01*
X-18605756Y-34189459D01*
X-18611591Y-34210151D01*
X-18628313Y-34267932D01*
X-18654889Y-34359267D01*
X-18690289Y-34480623D01*
X-18733480Y-34628468D01*
X-18783429Y-34799269D01*
X-18839105Y-34989492D01*
X-18899475Y-35195605D01*
X-18962851Y-35411834D01*
X-19319689Y-36628917D01*
X-19842451Y-36628917D01*
X-20055101Y-35800281D01*
X-20267752Y-34971644D01*
X-20690416Y-36639344D01*
X-20956976Y-36639422D01*
X-21223535Y-36639500D01*
X-21597267Y-35425149D01*
X-21664280Y-35207193D01*
X-21727439Y-35001350D01*
X-21785666Y-34811166D01*
X-21837882Y-34640186D01*
X-21883006Y-34491957D01*
X-21919959Y-34370024D01*
X-21947662Y-34277933D01*
X-21965035Y-34219232D01*
X-21971000Y-34197482D01*
X-21951085Y-34192750D01*
X-21896346Y-34188789D01*
X-21814289Y-34185925D01*
X-21712419Y-34184484D01*
X-21669375Y-34184377D01*
X-21367750Y-34184588D01*
X-21136735Y-34978182D01*
X-21085640Y-35153046D01*
X-21038162Y-35314265D01*
X-20995598Y-35457524D01*
X-20959247Y-35578511D01*
X-20930408Y-35672912D01*
X-20910379Y-35736411D01*
X-20900458Y-35764696D01*
X-20899688Y-35765744D01*
X-20893194Y-35744565D01*
X-20877460Y-35687097D01*
X-20853729Y-35598063D01*
X-20823246Y-35482188D01*
X-20787254Y-35344196D01*
X-20746997Y-35188813D01*
X-20711569Y-35051314D01*
X-20667835Y-34881221D01*
X-20626651Y-34721153D01*
X-20589409Y-34576503D01*
X-20557496Y-34452664D01*
X-20532303Y-34355027D01*
X-20515219Y-34288986D01*
X-20508592Y-34263542D01*
X-20487701Y-34184167D01*
X-20229226Y-34184194D01*
X-19970750Y-34184222D01*
X-19782112Y-34909153D01*
X-19737412Y-35080819D01*
X-19695333Y-35242193D01*
X-19657252Y-35388015D01*
X-19624545Y-35513025D01*
X-19598587Y-35611963D01*
X-19580756Y-35679568D01*
X-19573099Y-35708167D01*
X-19566904Y-35725656D01*
X-19559609Y-35731685D01*
X-19549960Y-35722736D01*
X-19536699Y-35695290D01*
X-19518572Y-35645828D01*
X-19494324Y-35570832D01*
X-19462697Y-35466782D01*
X-19422437Y-35330161D01*
X-19372288Y-35157450D01*
X-19354047Y-35094334D01*
X-19305289Y-34925509D01*
X-19258928Y-34764989D01*
X-19216623Y-34618516D01*
X-19180034Y-34491833D01*
X-19150818Y-34390685D01*
X-19130635Y-34320815D01*
X-19123261Y-34295292D01*
X-19091151Y-34184167D01*
X-18848325Y-34184167D01*
X-18752645Y-34184598D01*
G36*
X-17674166Y-36639500D02*
G01*
X-18245666Y-36639500D01*
X-18245666Y-34184167D01*
X-17674166Y-34184167D01*
X-17674166Y-36639500D01*
X-17674166Y-36639500D01*
G37*
X-17674166Y-36639500D02*
X-18245666Y-36639500D01*
X-18245666Y-34184167D01*
X-17674166Y-34184167D01*
X-17674166Y-36639500D01*
G36*
X-14879968Y-33946042D02*
G01*
X-14879769Y-34554584D01*
X-14818121Y-34447103D01*
X-14714340Y-34308113D01*
X-14578968Y-34196501D01*
X-14514453Y-34158984D01*
X-14427611Y-34128437D01*
X-14312789Y-34108568D01*
X-14183101Y-34099901D01*
X-14051662Y-34102956D01*
X-13931589Y-34118255D01*
X-13870879Y-34133395D01*
X-13742695Y-34194452D01*
X-13627077Y-34289231D01*
X-13532715Y-34409300D01*
X-13480571Y-34512250D01*
X-13468919Y-34542321D01*
X-13459197Y-34571190D01*
X-13451201Y-34602867D01*
X-13444732Y-34641361D01*
X-13439588Y-34690683D01*
X-13435567Y-34754843D01*
X-13432468Y-34837850D01*
X-13430090Y-34943715D01*
X-13428232Y-35076447D01*
X-13426692Y-35240057D01*
X-13425270Y-35438555D01*
X-13423991Y-35639375D01*
X-13417733Y-36639500D01*
X-13991166Y-36639500D01*
X-13991631Y-35755792D01*
X-13991860Y-35537497D01*
X-13992410Y-35357374D01*
X-13993451Y-35211262D01*
X-13995155Y-35095000D01*
X-13997693Y-35004427D01*
X-14001235Y-34935381D01*
X-14005952Y-34883702D01*
X-14012016Y-34845228D01*
X-14019597Y-34815799D01*
X-14028866Y-34791253D01*
X-14031498Y-34785323D01*
X-14096286Y-34688997D01*
X-14185462Y-34623667D01*
X-14292800Y-34591092D01*
X-14412072Y-34593031D01*
X-14537051Y-34631243D01*
X-14552019Y-34638292D01*
X-14654958Y-34702215D01*
X-14735063Y-34785732D01*
X-14800610Y-34898364D01*
X-14823191Y-34950208D01*
X-14835055Y-34981125D01*
X-14844735Y-35012841D01*
X-14852501Y-35049966D01*
X-14858621Y-35097109D01*
X-14863367Y-35158877D01*
X-14867007Y-35239880D01*
X-14869812Y-35344726D01*
X-14872052Y-35478025D01*
X-14873996Y-35644385D01*
X-14875915Y-35848415D01*
X-14875938Y-35851042D01*
X-14882945Y-36639500D01*
X-15451666Y-36639500D01*
X-15451666Y-33337500D01*
X-14880166Y-33337500D01*
X-14879968Y-33946042D01*
X-14879968Y-33946042D01*
G37*
X-14879968Y-33946042D02*
X-14879769Y-34554584D01*
X-14818121Y-34447103D01*
X-14714340Y-34308113D01*
X-14578968Y-34196501D01*
X-14514453Y-34158984D01*
X-14427611Y-34128437D01*
X-14312789Y-34108568D01*
X-14183101Y-34099901D01*
X-14051662Y-34102956D01*
X-13931589Y-34118255D01*
X-13870879Y-34133395D01*
X-13742695Y-34194452D01*
X-13627077Y-34289231D01*
X-13532715Y-34409300D01*
X-13480571Y-34512250D01*
X-13468919Y-34542321D01*
X-13459197Y-34571190D01*
X-13451201Y-34602867D01*
X-13444732Y-34641361D01*
X-13439588Y-34690683D01*
X-13435567Y-34754843D01*
X-13432468Y-34837850D01*
X-13430090Y-34943715D01*
X-13428232Y-35076447D01*
X-13426692Y-35240057D01*
X-13425270Y-35438555D01*
X-13423991Y-35639375D01*
X-13417733Y-36639500D01*
X-13991166Y-36639500D01*
X-13991631Y-35755792D01*
X-13991860Y-35537497D01*
X-13992410Y-35357374D01*
X-13993451Y-35211262D01*
X-13995155Y-35095000D01*
X-13997693Y-35004427D01*
X-14001235Y-34935381D01*
X-14005952Y-34883702D01*
X-14012016Y-34845228D01*
X-14019597Y-34815799D01*
X-14028866Y-34791253D01*
X-14031498Y-34785323D01*
X-14096286Y-34688997D01*
X-14185462Y-34623667D01*
X-14292800Y-34591092D01*
X-14412072Y-34593031D01*
X-14537051Y-34631243D01*
X-14552019Y-34638292D01*
X-14654958Y-34702215D01*
X-14735063Y-34785732D01*
X-14800610Y-34898364D01*
X-14823191Y-34950208D01*
X-14835055Y-34981125D01*
X-14844735Y-35012841D01*
X-14852501Y-35049966D01*
X-14858621Y-35097109D01*
X-14863367Y-35158877D01*
X-14867007Y-35239880D01*
X-14869812Y-35344726D01*
X-14872052Y-35478025D01*
X-14873996Y-35644385D01*
X-14875915Y-35848415D01*
X-14875938Y-35851042D01*
X-14882945Y-36639500D01*
X-15451666Y-36639500D01*
X-15451666Y-33337500D01*
X-14880166Y-33337500D01*
X-14879968Y-33946042D01*
G36*
X13864167Y-36639500D02*
G01*
X13292667Y-36639500D01*
X13292667Y-34184167D01*
X13864167Y-34184167D01*
X13864167Y-36639500D01*
X13864167Y-36639500D01*
G37*
X13864167Y-36639500D02*
X13292667Y-36639500D01*
X13292667Y-34184167D01*
X13864167Y-34184167D01*
X13864167Y-36639500D01*
G36*
X15070667Y-36639500D02*
G01*
X14499167Y-36639500D01*
X14499167Y-33337500D01*
X15070667Y-33337500D01*
X15070667Y-36639500D01*
X15070667Y-36639500D01*
G37*
X15070667Y-36639500D02*
X14499167Y-36639500D01*
X14499167Y-33337500D01*
X15070667Y-33337500D01*
X15070667Y-36639500D01*
G36*
X16256570Y-34337625D02*
G01*
X16257139Y-35337750D01*
X16314778Y-35269419D01*
X16343006Y-35237302D01*
X16395945Y-35178361D01*
X16469653Y-35096936D01*
X16560187Y-34997368D01*
X16663605Y-34883994D01*
X16775964Y-34761156D01*
X16838084Y-34693380D01*
X17303750Y-34185672D01*
X17605375Y-34184920D01*
X17712883Y-34185785D01*
X17803480Y-34188677D01*
X17869658Y-34193185D01*
X17903914Y-34198902D01*
X17907000Y-34201346D01*
X17893290Y-34221045D01*
X17854714Y-34267484D01*
X17795107Y-34336282D01*
X17718301Y-34423061D01*
X17628131Y-34523439D01*
X17546629Y-34613129D01*
X17186258Y-35007733D01*
X17588962Y-35812925D01*
X17674320Y-35983838D01*
X17753509Y-36142869D01*
X17824579Y-36286066D01*
X17885580Y-36409479D01*
X17934560Y-36509154D01*
X17969570Y-36581141D01*
X17988658Y-36621487D01*
X17991667Y-36628808D01*
X17971752Y-36632618D01*
X17917009Y-36635829D01*
X17834943Y-36638175D01*
X17733059Y-36639390D01*
X17689874Y-36639500D01*
X17388081Y-36639500D01*
X17080821Y-36024552D01*
X16773560Y-35409604D01*
X16515043Y-35701761D01*
X16256525Y-35993917D01*
X16256263Y-36316709D01*
X16256000Y-36639500D01*
X15705667Y-36639500D01*
X15705667Y-33337500D01*
X16256000Y-33337500D01*
X16256570Y-34337625D01*
X16256570Y-34337625D01*
G37*
X16256570Y-34337625D02*
X16257139Y-35337750D01*
X16314778Y-35269419D01*
X16343006Y-35237302D01*
X16395945Y-35178361D01*
X16469653Y-35096936D01*
X16560187Y-34997368D01*
X16663605Y-34883994D01*
X16775964Y-34761156D01*
X16838084Y-34693380D01*
X17303750Y-34185672D01*
X17605375Y-34184920D01*
X17712883Y-34185785D01*
X17803480Y-34188677D01*
X17869658Y-34193185D01*
X17903914Y-34198902D01*
X17907000Y-34201346D01*
X17893290Y-34221045D01*
X17854714Y-34267484D01*
X17795107Y-34336282D01*
X17718301Y-34423061D01*
X17628131Y-34523439D01*
X17546629Y-34613129D01*
X17186258Y-35007733D01*
X17588962Y-35812925D01*
X17674320Y-35983838D01*
X17753509Y-36142869D01*
X17824579Y-36286066D01*
X17885580Y-36409479D01*
X17934560Y-36509154D01*
X17969570Y-36581141D01*
X17988658Y-36621487D01*
X17991667Y-36628808D01*
X17971752Y-36632618D01*
X17917009Y-36635829D01*
X17834943Y-36638175D01*
X17733059Y-36639390D01*
X17689874Y-36639500D01*
X17388081Y-36639500D01*
X17080821Y-36024552D01*
X16773560Y-35409604D01*
X16515043Y-35701761D01*
X16256525Y-35993917D01*
X16256263Y-36316709D01*
X16256000Y-36639500D01*
X15705667Y-36639500D01*
X15705667Y-33337500D01*
X16256000Y-33337500D01*
X16256570Y-34337625D01*
G36*
X19913790Y-34252959D02*
G01*
X19944116Y-34360615D01*
X19980849Y-34488620D01*
X20022431Y-34631762D01*
X20067302Y-34784826D01*
X20113901Y-34942597D01*
X20160671Y-35099863D01*
X20206050Y-35251408D01*
X20248479Y-35392019D01*
X20286399Y-35516483D01*
X20318250Y-35619584D01*
X20342472Y-35696110D01*
X20357507Y-35740845D01*
X20361725Y-35750453D01*
X20369278Y-35730661D01*
X20385991Y-35674271D01*
X20410663Y-35585731D01*
X20442094Y-35469491D01*
X20479084Y-35329998D01*
X20520432Y-35171701D01*
X20564938Y-34999048D01*
X20573065Y-34967286D01*
X20773213Y-34184167D01*
X21291677Y-34184167D01*
X21310008Y-34252959D01*
X21319518Y-34289176D01*
X21338298Y-34361160D01*
X21364993Y-34463696D01*
X21398247Y-34591572D01*
X21436705Y-34739577D01*
X21479011Y-34902496D01*
X21516469Y-35046828D01*
X21560217Y-35213339D01*
X21601093Y-35364914D01*
X21637830Y-35497155D01*
X21669160Y-35605666D01*
X21693814Y-35686047D01*
X21710526Y-35733901D01*
X21717844Y-35745328D01*
X21726489Y-35719574D01*
X21745363Y-35657751D01*
X21773103Y-35564506D01*
X21808344Y-35444487D01*
X21849724Y-35302339D01*
X21895878Y-35142710D01*
X21945443Y-34970247D01*
X21950825Y-34951459D01*
X22170562Y-34184167D01*
X22409448Y-34184167D01*
X22504335Y-34185480D01*
X22581402Y-34189046D01*
X22632208Y-34194304D01*
X22648503Y-34200042D01*
X22642749Y-34222679D01*
X22626114Y-34282356D01*
X22599631Y-34375490D01*
X22564334Y-34498500D01*
X22521257Y-34647802D01*
X22471432Y-34819816D01*
X22415894Y-35010959D01*
X22355675Y-35217647D01*
X22294322Y-35427709D01*
X21939972Y-36639500D01*
X21422299Y-36639500D01*
X21401672Y-36560125D01*
X21391609Y-36521107D01*
X21372430Y-36446469D01*
X21345517Y-36341601D01*
X21312254Y-36211896D01*
X21274023Y-36062744D01*
X21232206Y-35899535D01*
X21199455Y-35771667D01*
X21156399Y-35604044D01*
X21116255Y-35448728D01*
X21080324Y-35310672D01*
X21049905Y-35194830D01*
X21026298Y-35106155D01*
X21010800Y-35049601D01*
X21005124Y-35030834D01*
X21000787Y-35028939D01*
X20993606Y-35040805D01*
X20982839Y-35069118D01*
X20967743Y-35116565D01*
X20947576Y-35185831D01*
X20921595Y-35279604D01*
X20889060Y-35400571D01*
X20849226Y-35551418D01*
X20801352Y-35734831D01*
X20744697Y-35953498D01*
X20678516Y-36210105D01*
X20667420Y-36253209D01*
X20567992Y-36639500D01*
X20307662Y-36639500D01*
X20207188Y-36638282D01*
X20123108Y-36634960D01*
X20063903Y-36630033D01*
X20038053Y-36624000D01*
X20037755Y-36623625D01*
X20029954Y-36601036D01*
X20010867Y-36541582D01*
X19981616Y-36448873D01*
X19943327Y-36326516D01*
X19897122Y-36178122D01*
X19844126Y-36007298D01*
X19785462Y-35817654D01*
X19722256Y-35612797D01*
X19664675Y-35425755D01*
X19598328Y-35210140D01*
X19535503Y-35006207D01*
X19477333Y-34817620D01*
X19424951Y-34648045D01*
X19379493Y-34501145D01*
X19342090Y-34380584D01*
X19313878Y-34290028D01*
X19295991Y-34233140D01*
X19289738Y-34213963D01*
X19291496Y-34202152D01*
X19311029Y-34193835D01*
X19353907Y-34188453D01*
X19425698Y-34185447D01*
X19531971Y-34184259D01*
X19586491Y-34184167D01*
X19894677Y-34184167D01*
X19913790Y-34252959D01*
X19913790Y-34252959D01*
G37*
X19913790Y-34252959D02*
X19944116Y-34360615D01*
X19980849Y-34488620D01*
X20022431Y-34631762D01*
X20067302Y-34784826D01*
X20113901Y-34942597D01*
X20160671Y-35099863D01*
X20206050Y-35251408D01*
X20248479Y-35392019D01*
X20286399Y-35516483D01*
X20318250Y-35619584D01*
X20342472Y-35696110D01*
X20357507Y-35740845D01*
X20361725Y-35750453D01*
X20369278Y-35730661D01*
X20385991Y-35674271D01*
X20410663Y-35585731D01*
X20442094Y-35469491D01*
X20479084Y-35329998D01*
X20520432Y-35171701D01*
X20564938Y-34999048D01*
X20573065Y-34967286D01*
X20773213Y-34184167D01*
X21291677Y-34184167D01*
X21310008Y-34252959D01*
X21319518Y-34289176D01*
X21338298Y-34361160D01*
X21364993Y-34463696D01*
X21398247Y-34591572D01*
X21436705Y-34739577D01*
X21479011Y-34902496D01*
X21516469Y-35046828D01*
X21560217Y-35213339D01*
X21601093Y-35364914D01*
X21637830Y-35497155D01*
X21669160Y-35605666D01*
X21693814Y-35686047D01*
X21710526Y-35733901D01*
X21717844Y-35745328D01*
X21726489Y-35719574D01*
X21745363Y-35657751D01*
X21773103Y-35564506D01*
X21808344Y-35444487D01*
X21849724Y-35302339D01*
X21895878Y-35142710D01*
X21945443Y-34970247D01*
X21950825Y-34951459D01*
X22170562Y-34184167D01*
X22409448Y-34184167D01*
X22504335Y-34185480D01*
X22581402Y-34189046D01*
X22632208Y-34194304D01*
X22648503Y-34200042D01*
X22642749Y-34222679D01*
X22626114Y-34282356D01*
X22599631Y-34375490D01*
X22564334Y-34498500D01*
X22521257Y-34647802D01*
X22471432Y-34819816D01*
X22415894Y-35010959D01*
X22355675Y-35217647D01*
X22294322Y-35427709D01*
X21939972Y-36639500D01*
X21422299Y-36639500D01*
X21401672Y-36560125D01*
X21391609Y-36521107D01*
X21372430Y-36446469D01*
X21345517Y-36341601D01*
X21312254Y-36211896D01*
X21274023Y-36062744D01*
X21232206Y-35899535D01*
X21199455Y-35771667D01*
X21156399Y-35604044D01*
X21116255Y-35448728D01*
X21080324Y-35310672D01*
X21049905Y-35194830D01*
X21026298Y-35106155D01*
X21010800Y-35049601D01*
X21005124Y-35030834D01*
X21000787Y-35028939D01*
X20993606Y-35040805D01*
X20982839Y-35069118D01*
X20967743Y-35116565D01*
X20947576Y-35185831D01*
X20921595Y-35279604D01*
X20889060Y-35400571D01*
X20849226Y-35551418D01*
X20801352Y-35734831D01*
X20744697Y-35953498D01*
X20678516Y-36210105D01*
X20667420Y-36253209D01*
X20567992Y-36639500D01*
X20307662Y-36639500D01*
X20207188Y-36638282D01*
X20123108Y-36634960D01*
X20063903Y-36630033D01*
X20038053Y-36624000D01*
X20037755Y-36623625D01*
X20029954Y-36601036D01*
X20010867Y-36541582D01*
X19981616Y-36448873D01*
X19943327Y-36326516D01*
X19897122Y-36178122D01*
X19844126Y-36007298D01*
X19785462Y-35817654D01*
X19722256Y-35612797D01*
X19664675Y-35425755D01*
X19598328Y-35210140D01*
X19535503Y-35006207D01*
X19477333Y-34817620D01*
X19424951Y-34648045D01*
X19379493Y-34501145D01*
X19342090Y-34380584D01*
X19313878Y-34290028D01*
X19295991Y-34233140D01*
X19289738Y-34213963D01*
X19291496Y-34202152D01*
X19311029Y-34193835D01*
X19353907Y-34188453D01*
X19425698Y-34185447D01*
X19531971Y-34184259D01*
X19586491Y-34184167D01*
X19894677Y-34184167D01*
X19913790Y-34252959D01*
G36*
X23579667Y-36639500D02*
G01*
X23008167Y-36639500D01*
X23008167Y-34184167D01*
X23579667Y-34184167D01*
X23579667Y-36639500D01*
X23579667Y-36639500D01*
G37*
X23579667Y-36639500D02*
X23008167Y-36639500D01*
X23008167Y-34184167D01*
X23579667Y-34184167D01*
X23579667Y-36639500D01*
G36*
X26374652Y-33956625D02*
G01*
X26375638Y-34575750D01*
X26429164Y-34472869D01*
X26515260Y-34345358D01*
X26627073Y-34236906D01*
X26753512Y-34157642D01*
X26792323Y-34141187D01*
X26899223Y-34114282D01*
X27029784Y-34101236D01*
X27169483Y-34101713D01*
X27303791Y-34115373D01*
X27418185Y-34141881D01*
X27456476Y-34156619D01*
X27587108Y-34238273D01*
X27691639Y-34353235D01*
X27770040Y-34501462D01*
X27822287Y-34682914D01*
X27834067Y-34752023D01*
X27838545Y-34804090D01*
X27842705Y-34893075D01*
X27846434Y-35013562D01*
X27849623Y-35160136D01*
X27852159Y-35327383D01*
X27853932Y-35509887D01*
X27854829Y-35702233D01*
X27854914Y-35766375D01*
X27855334Y-36639500D01*
X27283834Y-36639500D01*
X27283834Y-35815042D01*
X27283197Y-35584039D01*
X27281335Y-35380443D01*
X27278316Y-35207050D01*
X27274210Y-35066658D01*
X27269085Y-34962062D01*
X27263010Y-34896060D01*
X27260780Y-34883091D01*
X27216322Y-34762296D01*
X27142943Y-34670712D01*
X27044151Y-34611245D01*
X26923450Y-34586800D01*
X26902834Y-34586334D01*
X26781660Y-34606397D01*
X26665547Y-34662470D01*
X26563095Y-34748379D01*
X26482907Y-34857949D01*
X26460287Y-34903984D01*
X26438144Y-34962461D01*
X26420009Y-35028130D01*
X26405514Y-35105601D01*
X26394290Y-35199485D01*
X26385967Y-35314391D01*
X26380176Y-35454931D01*
X26376549Y-35625714D01*
X26374717Y-35831351D01*
X26374320Y-35978042D01*
X26373667Y-36639500D01*
X25802167Y-36639500D01*
X25802167Y-33337500D01*
X26373667Y-33337500D01*
X26374652Y-33956625D01*
X26374652Y-33956625D01*
G37*
X26374652Y-33956625D02*
X26375638Y-34575750D01*
X26429164Y-34472869D01*
X26515260Y-34345358D01*
X26627073Y-34236906D01*
X26753512Y-34157642D01*
X26792323Y-34141187D01*
X26899223Y-34114282D01*
X27029784Y-34101236D01*
X27169483Y-34101713D01*
X27303791Y-34115373D01*
X27418185Y-34141881D01*
X27456476Y-34156619D01*
X27587108Y-34238273D01*
X27691639Y-34353235D01*
X27770040Y-34501462D01*
X27822287Y-34682914D01*
X27834067Y-34752023D01*
X27838545Y-34804090D01*
X27842705Y-34893075D01*
X27846434Y-35013562D01*
X27849623Y-35160136D01*
X27852159Y-35327383D01*
X27853932Y-35509887D01*
X27854829Y-35702233D01*
X27854914Y-35766375D01*
X27855334Y-36639500D01*
X27283834Y-36639500D01*
X27283834Y-35815042D01*
X27283197Y-35584039D01*
X27281335Y-35380443D01*
X27278316Y-35207050D01*
X27274210Y-35066658D01*
X27269085Y-34962062D01*
X27263010Y-34896060D01*
X27260780Y-34883091D01*
X27216322Y-34762296D01*
X27142943Y-34670712D01*
X27044151Y-34611245D01*
X26923450Y-34586800D01*
X26902834Y-34586334D01*
X26781660Y-34606397D01*
X26665547Y-34662470D01*
X26563095Y-34748379D01*
X26482907Y-34857949D01*
X26460287Y-34903984D01*
X26438144Y-34962461D01*
X26420009Y-35028130D01*
X26405514Y-35105601D01*
X26394290Y-35199485D01*
X26385967Y-35314391D01*
X26380176Y-35454931D01*
X26376549Y-35625714D01*
X26374717Y-35831351D01*
X26374320Y-35978042D01*
X26373667Y-36639500D01*
X25802167Y-36639500D01*
X25802167Y-33337500D01*
X26373667Y-33337500D01*
X26374652Y-33956625D01*
G36*
X-27410833Y-33930167D02*
G01*
X-27982333Y-33930167D01*
X-27982333Y-33337500D01*
X-27410833Y-33337500D01*
X-27410833Y-33930167D01*
X-27410833Y-33930167D01*
G37*
X-27410833Y-33930167D02*
X-27982333Y-33930167D01*
X-27982333Y-33337500D01*
X-27410833Y-33337500D01*
X-27410833Y-33930167D01*
G36*
X-17674166Y-33930167D02*
G01*
X-18245666Y-33930167D01*
X-18245666Y-33337500D01*
X-17674166Y-33337500D01*
X-17674166Y-33930167D01*
X-17674166Y-33930167D01*
G37*
X-17674166Y-33930167D02*
X-18245666Y-33930167D01*
X-18245666Y-33337500D01*
X-17674166Y-33337500D01*
X-17674166Y-33930167D01*
G36*
X13864167Y-33930167D02*
G01*
X13292667Y-33930167D01*
X13292667Y-33337500D01*
X13864167Y-33337500D01*
X13864167Y-33930167D01*
X13864167Y-33930167D01*
G37*
X13864167Y-33930167D02*
X13292667Y-33930167D01*
X13292667Y-33337500D01*
X13864167Y-33337500D01*
X13864167Y-33930167D01*
G36*
X23579667Y-33930167D02*
G01*
X23008167Y-33930167D01*
X23008167Y-33337500D01*
X23579667Y-33337500D01*
X23579667Y-33930167D01*
X23579667Y-33930167D01*
G37*
X23579667Y-33930167D02*
X23008167Y-33930167D01*
X23008167Y-33337500D01*
X23579667Y-33337500D01*
X23579667Y-33930167D01*
M02*
