G04 #@! TF.GenerationSoftware,KiCad,Pcbnew,(5.1.2)-1*
G04 #@! TF.CreationDate,2019-07-16T23:08:18-05:00*
G04 #@! TF.ProjectId,color-swatches,636f6c6f-722d-4737-9761-74636865732e,rev?*
G04 #@! TF.SameCoordinates,Original*
G04 #@! TF.FileFunction,Copper,L1,Top*
G04 #@! TF.FilePolarity,Positive*
%FSLAX46Y46*%
G04 Gerber Fmt 4.6, Leading zero omitted, Abs format (unit mm)*
G04 Created by KiCad (PCBNEW (5.1.2)-1) date 2019-07-16 23:08:18*
%MOMM*%
%LPD*%
G04 APERTURE LIST*
%ADD10C,0.010000*%
G04 APERTURE END LIST*
D10*
G36*
X-21544226Y-28956005D02*
G01*
X-20565582Y-28956022D01*
X-19612050Y-28956051D01*
X-18683484Y-28956092D01*
X-17779739Y-28956144D01*
X-16900672Y-28956208D01*
X-16046137Y-28956284D01*
X-15215990Y-28956372D01*
X-14410086Y-28956472D01*
X-13628282Y-28956584D01*
X-12870431Y-28956709D01*
X-12136391Y-28956846D01*
X-11426015Y-28956995D01*
X-10739160Y-28957157D01*
X-10075680Y-28957332D01*
X-9435432Y-28957519D01*
X-8818271Y-28957719D01*
X-8224052Y-28957932D01*
X-7652631Y-28958158D01*
X-7103863Y-28958397D01*
X-6577603Y-28958650D01*
X-6073707Y-28958915D01*
X-5592030Y-28959194D01*
X-5132428Y-28959486D01*
X-4694757Y-28959792D01*
X-4278871Y-28960111D01*
X-3884626Y-28960444D01*
X-3511877Y-28960791D01*
X-3160480Y-28961152D01*
X-2830291Y-28961526D01*
X-2521164Y-28961915D01*
X-2232955Y-28962317D01*
X-1965520Y-28962734D01*
X-1718714Y-28963165D01*
X-1492392Y-28963611D01*
X-1286410Y-28964071D01*
X-1100624Y-28964546D01*
X-934888Y-28965035D01*
X-789058Y-28965539D01*
X-662989Y-28966058D01*
X-556538Y-28966591D01*
X-469559Y-28967140D01*
X-401908Y-28967704D01*
X-353440Y-28968283D01*
X-324010Y-28968877D01*
X-313599Y-28969444D01*
X-240470Y-28999840D01*
X-174221Y-29049586D01*
X-122291Y-29112639D01*
X-109634Y-29135195D01*
X-76200Y-29202287D01*
X-76200Y-47520499D01*
X-111668Y-47588392D01*
X-156421Y-47653102D01*
X-214762Y-47706944D01*
X-279547Y-47743799D01*
X-301946Y-47751420D01*
X-316295Y-47751897D01*
X-355543Y-47752364D01*
X-419193Y-47752822D01*
X-506746Y-47753271D01*
X-617704Y-47753710D01*
X-751569Y-47754140D01*
X-907844Y-47754561D01*
X-1086029Y-47754972D01*
X-1285628Y-47755374D01*
X-1506142Y-47755766D01*
X-1747072Y-47756150D01*
X-2007922Y-47756524D01*
X-2288192Y-47756888D01*
X-2587385Y-47757243D01*
X-2905002Y-47757589D01*
X-3240546Y-47757925D01*
X-3593519Y-47758253D01*
X-3963422Y-47758570D01*
X-4349758Y-47758879D01*
X-4752028Y-47759178D01*
X-5169734Y-47759467D01*
X-5602378Y-47759747D01*
X-6049463Y-47760018D01*
X-6510490Y-47760280D01*
X-6984960Y-47760532D01*
X-7472377Y-47760775D01*
X-7972242Y-47761008D01*
X-8484056Y-47761232D01*
X-9007322Y-47761446D01*
X-9541542Y-47761652D01*
X-10086218Y-47761847D01*
X-10640852Y-47762034D01*
X-11204944Y-47762211D01*
X-11777999Y-47762378D01*
X-12359517Y-47762537D01*
X-12949000Y-47762685D01*
X-13545950Y-47762825D01*
X-14149870Y-47762955D01*
X-14760261Y-47763075D01*
X-15376625Y-47763186D01*
X-15998464Y-47763288D01*
X-16625280Y-47763380D01*
X-17256575Y-47763463D01*
X-17891851Y-47763537D01*
X-18530610Y-47763601D01*
X-19172353Y-47763656D01*
X-19816583Y-47763701D01*
X-20462802Y-47763737D01*
X-21110511Y-47763763D01*
X-21759213Y-47763780D01*
X-22408409Y-47763787D01*
X-23057602Y-47763785D01*
X-23706293Y-47763774D01*
X-24353984Y-47763753D01*
X-25000178Y-47763723D01*
X-25644375Y-47763683D01*
X-26286079Y-47763634D01*
X-26924791Y-47763575D01*
X-27560012Y-47763507D01*
X-28191246Y-47763430D01*
X-28817993Y-47763343D01*
X-29439757Y-47763246D01*
X-30056037Y-47763140D01*
X-30666338Y-47763025D01*
X-31270160Y-47762900D01*
X-31867006Y-47762766D01*
X-32456377Y-47762622D01*
X-33037775Y-47762469D01*
X-33610703Y-47762306D01*
X-34174662Y-47762134D01*
X-34729154Y-47761952D01*
X-35273682Y-47761761D01*
X-35807746Y-47761560D01*
X-36330850Y-47761350D01*
X-36842494Y-47761130D01*
X-37342182Y-47760901D01*
X-37829414Y-47760663D01*
X-38303693Y-47760415D01*
X-38764521Y-47760157D01*
X-39211400Y-47759890D01*
X-39643831Y-47759613D01*
X-40061316Y-47759327D01*
X-40463358Y-47759032D01*
X-40849459Y-47758726D01*
X-41219120Y-47758412D01*
X-41571843Y-47758088D01*
X-41907130Y-47757754D01*
X-42224484Y-47757411D01*
X-42523406Y-47757058D01*
X-42803397Y-47756696D01*
X-43063961Y-47756324D01*
X-43304599Y-47755943D01*
X-43524812Y-47755552D01*
X-43724103Y-47755152D01*
X-43901975Y-47754742D01*
X-44057927Y-47754323D01*
X-44191464Y-47753894D01*
X-44302085Y-47753456D01*
X-44389295Y-47753008D01*
X-44452594Y-47752550D01*
X-44491484Y-47752083D01*
X-44505453Y-47751611D01*
X-44575960Y-47718126D01*
X-44638693Y-47664774D01*
X-44688207Y-47596981D01*
X-44711081Y-47546729D01*
X-44712245Y-47541055D01*
X-44713360Y-47530425D01*
X-44714427Y-47514316D01*
X-44715446Y-47492205D01*
X-44716419Y-47463570D01*
X-44717347Y-47427887D01*
X-44718232Y-47384634D01*
X-44719073Y-47333288D01*
X-44719872Y-47273327D01*
X-44720630Y-47204227D01*
X-44721348Y-47125465D01*
X-44722027Y-47036520D01*
X-44722668Y-46936868D01*
X-44723272Y-46825986D01*
X-44723841Y-46703352D01*
X-44724374Y-46568442D01*
X-44724874Y-46420735D01*
X-44725341Y-46259707D01*
X-44725776Y-46084835D01*
X-44726181Y-45895597D01*
X-44726556Y-45691470D01*
X-44726902Y-45471931D01*
X-44727220Y-45236458D01*
X-44727512Y-44984527D01*
X-44727778Y-44715615D01*
X-44728020Y-44429201D01*
X-44728238Y-44124761D01*
X-44728434Y-43801772D01*
X-44728608Y-43459712D01*
X-44728762Y-43098058D01*
X-44728896Y-42716287D01*
X-44729012Y-42313876D01*
X-44729111Y-41890302D01*
X-44729193Y-41445044D01*
X-44729260Y-40977577D01*
X-44729312Y-40487379D01*
X-44729352Y-39973928D01*
X-44729379Y-39436701D01*
X-44729395Y-38875174D01*
X-44729400Y-38288825D01*
X-44729400Y-28956000D01*
X-22548124Y-28956000D01*
X-21544226Y-28956005D01*
X-21544226Y-28956005D01*
G37*
X-21544226Y-28956005D02*
X-20565582Y-28956022D01*
X-19612050Y-28956051D01*
X-18683484Y-28956092D01*
X-17779739Y-28956144D01*
X-16900672Y-28956208D01*
X-16046137Y-28956284D01*
X-15215990Y-28956372D01*
X-14410086Y-28956472D01*
X-13628282Y-28956584D01*
X-12870431Y-28956709D01*
X-12136391Y-28956846D01*
X-11426015Y-28956995D01*
X-10739160Y-28957157D01*
X-10075680Y-28957332D01*
X-9435432Y-28957519D01*
X-8818271Y-28957719D01*
X-8224052Y-28957932D01*
X-7652631Y-28958158D01*
X-7103863Y-28958397D01*
X-6577603Y-28958650D01*
X-6073707Y-28958915D01*
X-5592030Y-28959194D01*
X-5132428Y-28959486D01*
X-4694757Y-28959792D01*
X-4278871Y-28960111D01*
X-3884626Y-28960444D01*
X-3511877Y-28960791D01*
X-3160480Y-28961152D01*
X-2830291Y-28961526D01*
X-2521164Y-28961915D01*
X-2232955Y-28962317D01*
X-1965520Y-28962734D01*
X-1718714Y-28963165D01*
X-1492392Y-28963611D01*
X-1286410Y-28964071D01*
X-1100624Y-28964546D01*
X-934888Y-28965035D01*
X-789058Y-28965539D01*
X-662989Y-28966058D01*
X-556538Y-28966591D01*
X-469559Y-28967140D01*
X-401908Y-28967704D01*
X-353440Y-28968283D01*
X-324010Y-28968877D01*
X-313599Y-28969444D01*
X-240470Y-28999840D01*
X-174221Y-29049586D01*
X-122291Y-29112639D01*
X-109634Y-29135195D01*
X-76200Y-29202287D01*
X-76200Y-47520499D01*
X-111668Y-47588392D01*
X-156421Y-47653102D01*
X-214762Y-47706944D01*
X-279547Y-47743799D01*
X-301946Y-47751420D01*
X-316295Y-47751897D01*
X-355543Y-47752364D01*
X-419193Y-47752822D01*
X-506746Y-47753271D01*
X-617704Y-47753710D01*
X-751569Y-47754140D01*
X-907844Y-47754561D01*
X-1086029Y-47754972D01*
X-1285628Y-47755374D01*
X-1506142Y-47755766D01*
X-1747072Y-47756150D01*
X-2007922Y-47756524D01*
X-2288192Y-47756888D01*
X-2587385Y-47757243D01*
X-2905002Y-47757589D01*
X-3240546Y-47757925D01*
X-3593519Y-47758253D01*
X-3963422Y-47758570D01*
X-4349758Y-47758879D01*
X-4752028Y-47759178D01*
X-5169734Y-47759467D01*
X-5602378Y-47759747D01*
X-6049463Y-47760018D01*
X-6510490Y-47760280D01*
X-6984960Y-47760532D01*
X-7472377Y-47760775D01*
X-7972242Y-47761008D01*
X-8484056Y-47761232D01*
X-9007322Y-47761446D01*
X-9541542Y-47761652D01*
X-10086218Y-47761847D01*
X-10640852Y-47762034D01*
X-11204944Y-47762211D01*
X-11777999Y-47762378D01*
X-12359517Y-47762537D01*
X-12949000Y-47762685D01*
X-13545950Y-47762825D01*
X-14149870Y-47762955D01*
X-14760261Y-47763075D01*
X-15376625Y-47763186D01*
X-15998464Y-47763288D01*
X-16625280Y-47763380D01*
X-17256575Y-47763463D01*
X-17891851Y-47763537D01*
X-18530610Y-47763601D01*
X-19172353Y-47763656D01*
X-19816583Y-47763701D01*
X-20462802Y-47763737D01*
X-21110511Y-47763763D01*
X-21759213Y-47763780D01*
X-22408409Y-47763787D01*
X-23057602Y-47763785D01*
X-23706293Y-47763774D01*
X-24353984Y-47763753D01*
X-25000178Y-47763723D01*
X-25644375Y-47763683D01*
X-26286079Y-47763634D01*
X-26924791Y-47763575D01*
X-27560012Y-47763507D01*
X-28191246Y-47763430D01*
X-28817993Y-47763343D01*
X-29439757Y-47763246D01*
X-30056037Y-47763140D01*
X-30666338Y-47763025D01*
X-31270160Y-47762900D01*
X-31867006Y-47762766D01*
X-32456377Y-47762622D01*
X-33037775Y-47762469D01*
X-33610703Y-47762306D01*
X-34174662Y-47762134D01*
X-34729154Y-47761952D01*
X-35273682Y-47761761D01*
X-35807746Y-47761560D01*
X-36330850Y-47761350D01*
X-36842494Y-47761130D01*
X-37342182Y-47760901D01*
X-37829414Y-47760663D01*
X-38303693Y-47760415D01*
X-38764521Y-47760157D01*
X-39211400Y-47759890D01*
X-39643831Y-47759613D01*
X-40061316Y-47759327D01*
X-40463358Y-47759032D01*
X-40849459Y-47758726D01*
X-41219120Y-47758412D01*
X-41571843Y-47758088D01*
X-41907130Y-47757754D01*
X-42224484Y-47757411D01*
X-42523406Y-47757058D01*
X-42803397Y-47756696D01*
X-43063961Y-47756324D01*
X-43304599Y-47755943D01*
X-43524812Y-47755552D01*
X-43724103Y-47755152D01*
X-43901975Y-47754742D01*
X-44057927Y-47754323D01*
X-44191464Y-47753894D01*
X-44302085Y-47753456D01*
X-44389295Y-47753008D01*
X-44452594Y-47752550D01*
X-44491484Y-47752083D01*
X-44505453Y-47751611D01*
X-44575960Y-47718126D01*
X-44638693Y-47664774D01*
X-44688207Y-47596981D01*
X-44711081Y-47546729D01*
X-44712245Y-47541055D01*
X-44713360Y-47530425D01*
X-44714427Y-47514316D01*
X-44715446Y-47492205D01*
X-44716419Y-47463570D01*
X-44717347Y-47427887D01*
X-44718232Y-47384634D01*
X-44719073Y-47333288D01*
X-44719872Y-47273327D01*
X-44720630Y-47204227D01*
X-44721348Y-47125465D01*
X-44722027Y-47036520D01*
X-44722668Y-46936868D01*
X-44723272Y-46825986D01*
X-44723841Y-46703352D01*
X-44724374Y-46568442D01*
X-44724874Y-46420735D01*
X-44725341Y-46259707D01*
X-44725776Y-46084835D01*
X-44726181Y-45895597D01*
X-44726556Y-45691470D01*
X-44726902Y-45471931D01*
X-44727220Y-45236458D01*
X-44727512Y-44984527D01*
X-44727778Y-44715615D01*
X-44728020Y-44429201D01*
X-44728238Y-44124761D01*
X-44728434Y-43801772D01*
X-44728608Y-43459712D01*
X-44728762Y-43098058D01*
X-44728896Y-42716287D01*
X-44729012Y-42313876D01*
X-44729111Y-41890302D01*
X-44729193Y-41445044D01*
X-44729260Y-40977577D01*
X-44729312Y-40487379D01*
X-44729352Y-39973928D01*
X-44729379Y-39436701D01*
X-44729395Y-38875174D01*
X-44729400Y-38288825D01*
X-44729400Y-28956000D01*
X-22548124Y-28956000D01*
X-21544226Y-28956005D01*
G36*
X44862576Y9052968D02*
G01*
X44892646Y9020939D01*
X44915088Y8983526D01*
X44916201Y8977970D01*
X44917267Y8966401D01*
X44918288Y8948312D01*
X44919263Y8923195D01*
X44920195Y8890540D01*
X44921084Y8849840D01*
X44921932Y8800587D01*
X44922738Y8742272D01*
X44923504Y8674388D01*
X44924231Y8596425D01*
X44924920Y8507876D01*
X44925572Y8408232D01*
X44926188Y8296985D01*
X44926768Y8173627D01*
X44927314Y8037650D01*
X44927827Y7888545D01*
X44928307Y7725804D01*
X44928756Y7548919D01*
X44929174Y7357382D01*
X44929563Y7150684D01*
X44929923Y6928317D01*
X44930255Y6689773D01*
X44930561Y6434544D01*
X44930840Y6162121D01*
X44931095Y5871997D01*
X44931326Y5563662D01*
X44931534Y5236609D01*
X44931720Y4890330D01*
X44931885Y4524316D01*
X44932029Y4138058D01*
X44932155Y3731050D01*
X44932262Y3302782D01*
X44932352Y2852746D01*
X44932425Y2380434D01*
X44932483Y1885338D01*
X44932527Y1366949D01*
X44932557Y824760D01*
X44932574Y258261D01*
X44932580Y-333054D01*
X44932580Y-421867D01*
X44932577Y-1007471D01*
X44932569Y-1568216D01*
X44932555Y-2104641D01*
X44932534Y-2617287D01*
X44932505Y-3106694D01*
X44932466Y-3573403D01*
X44932416Y-4017954D01*
X44932354Y-4440887D01*
X44932278Y-4842743D01*
X44932187Y-5224061D01*
X44932081Y-5585382D01*
X44931956Y-5927247D01*
X44931814Y-6250195D01*
X44931651Y-6554768D01*
X44931467Y-6841505D01*
X44931260Y-7110946D01*
X44931030Y-7363633D01*
X44930775Y-7600104D01*
X44930493Y-7820901D01*
X44930184Y-8026565D01*
X44929846Y-8217634D01*
X44929478Y-8394650D01*
X44929078Y-8558152D01*
X44928646Y-8708682D01*
X44928180Y-8846779D01*
X44927678Y-8972984D01*
X44927140Y-9087837D01*
X44926564Y-9191878D01*
X44925949Y-9285648D01*
X44925294Y-9369687D01*
X44924597Y-9444535D01*
X44923857Y-9510733D01*
X44923073Y-9568821D01*
X44922244Y-9619338D01*
X44921367Y-9662827D01*
X44920443Y-9699826D01*
X44919469Y-9730876D01*
X44918445Y-9756518D01*
X44917369Y-9777292D01*
X44916240Y-9793737D01*
X44915056Y-9806395D01*
X44913817Y-9815806D01*
X44912521Y-9822510D01*
X44911167Y-9827047D01*
X44910355Y-9828897D01*
X44885200Y-9866094D01*
X44854309Y-9897227D01*
X44852293Y-9898747D01*
X44816437Y-9925050D01*
X294343Y-9927137D01*
X-784286Y-9927184D01*
X-1856453Y-9927225D01*
X-2921878Y-9927260D01*
X-3980278Y-9927288D01*
X-5031375Y-9927310D01*
X-6074886Y-9927326D01*
X-7110532Y-9927336D01*
X-8138031Y-9927339D01*
X-9157102Y-9927337D01*
X-10167466Y-9927328D01*
X-11168840Y-9927314D01*
X-12160945Y-9927293D01*
X-13143499Y-9927267D01*
X-14116223Y-9927235D01*
X-15078834Y-9927197D01*
X-16031052Y-9927154D01*
X-16972597Y-9927105D01*
X-17903187Y-9927051D01*
X-18822543Y-9926991D01*
X-19730383Y-9926925D01*
X-20626426Y-9926854D01*
X-21510391Y-9926778D01*
X-22381999Y-9926697D01*
X-23240968Y-9926610D01*
X-24087017Y-9926518D01*
X-24919865Y-9926421D01*
X-25739233Y-9926319D01*
X-26544838Y-9926212D01*
X-27336401Y-9926100D01*
X-28113640Y-9925983D01*
X-28876276Y-9925861D01*
X-29624026Y-9925735D01*
X-30356610Y-9925604D01*
X-31073748Y-9925468D01*
X-31775158Y-9925327D01*
X-32460560Y-9925182D01*
X-33129674Y-9925033D01*
X-33782218Y-9924879D01*
X-34417911Y-9924720D01*
X-35036474Y-9924557D01*
X-35637624Y-9924390D01*
X-36221082Y-9924219D01*
X-36786566Y-9924044D01*
X-37333796Y-9923864D01*
X-37862491Y-9923680D01*
X-38372371Y-9923493D01*
X-38863154Y-9923301D01*
X-39334559Y-9923106D01*
X-39786307Y-9922906D01*
X-40218115Y-9922703D01*
X-40629705Y-9922497D01*
X-41020793Y-9922286D01*
X-41391101Y-9922072D01*
X-41740347Y-9921854D01*
X-42068250Y-9921633D01*
X-42374530Y-9921409D01*
X-42658906Y-9921181D01*
X-42921096Y-9920949D01*
X-43160821Y-9920714D01*
X-43377800Y-9920477D01*
X-43571751Y-9920236D01*
X-43742394Y-9919991D01*
X-43889449Y-9919744D01*
X-44012634Y-9919494D01*
X-44111669Y-9919241D01*
X-44186272Y-9918985D01*
X-44236164Y-9918726D01*
X-44261063Y-9918464D01*
X-44264040Y-9918345D01*
X-44319549Y-9889109D01*
X-44360000Y-9839705D01*
X-44369203Y-9820682D01*
X-44370300Y-9815039D01*
X-44371352Y-9803065D01*
X-44372358Y-9784260D01*
X-44373321Y-9758121D01*
X-44374241Y-9724145D01*
X-44375118Y-9681829D01*
X-44375955Y-9630672D01*
X-44376751Y-9570170D01*
X-44377508Y-9499820D01*
X-44378227Y-9419121D01*
X-44378908Y-9327570D01*
X-44379553Y-9224664D01*
X-44380162Y-9109901D01*
X-44380736Y-8982778D01*
X-44381277Y-8842793D01*
X-44381785Y-8689442D01*
X-44382260Y-8522224D01*
X-44382705Y-8340636D01*
X-44383120Y-8144176D01*
X-44383505Y-7932340D01*
X-44383862Y-7704627D01*
X-44384192Y-7460533D01*
X-44384495Y-7199556D01*
X-44384773Y-6921194D01*
X-44385026Y-6624945D01*
X-44385256Y-6310304D01*
X-44385462Y-5976771D01*
X-44385647Y-5623842D01*
X-44385811Y-5251015D01*
X-44385955Y-4857787D01*
X-44386080Y-4443656D01*
X-44386186Y-4008119D01*
X-44386276Y-3550674D01*
X-44386349Y-3070818D01*
X-44386406Y-2568049D01*
X-44386449Y-2041863D01*
X-44386479Y-1491759D01*
X-44386495Y-917234D01*
X-44386500Y-349657D01*
X-44386500Y9080500D01*
X44827574Y9080500D01*
X44862576Y9052968D01*
X44862576Y9052968D01*
G37*
X44862576Y9052968D02*
X44892646Y9020939D01*
X44915088Y8983526D01*
X44916201Y8977970D01*
X44917267Y8966401D01*
X44918288Y8948312D01*
X44919263Y8923195D01*
X44920195Y8890540D01*
X44921084Y8849840D01*
X44921932Y8800587D01*
X44922738Y8742272D01*
X44923504Y8674388D01*
X44924231Y8596425D01*
X44924920Y8507876D01*
X44925572Y8408232D01*
X44926188Y8296985D01*
X44926768Y8173627D01*
X44927314Y8037650D01*
X44927827Y7888545D01*
X44928307Y7725804D01*
X44928756Y7548919D01*
X44929174Y7357382D01*
X44929563Y7150684D01*
X44929923Y6928317D01*
X44930255Y6689773D01*
X44930561Y6434544D01*
X44930840Y6162121D01*
X44931095Y5871997D01*
X44931326Y5563662D01*
X44931534Y5236609D01*
X44931720Y4890330D01*
X44931885Y4524316D01*
X44932029Y4138058D01*
X44932155Y3731050D01*
X44932262Y3302782D01*
X44932352Y2852746D01*
X44932425Y2380434D01*
X44932483Y1885338D01*
X44932527Y1366949D01*
X44932557Y824760D01*
X44932574Y258261D01*
X44932580Y-333054D01*
X44932580Y-421867D01*
X44932577Y-1007471D01*
X44932569Y-1568216D01*
X44932555Y-2104641D01*
X44932534Y-2617287D01*
X44932505Y-3106694D01*
X44932466Y-3573403D01*
X44932416Y-4017954D01*
X44932354Y-4440887D01*
X44932278Y-4842743D01*
X44932187Y-5224061D01*
X44932081Y-5585382D01*
X44931956Y-5927247D01*
X44931814Y-6250195D01*
X44931651Y-6554768D01*
X44931467Y-6841505D01*
X44931260Y-7110946D01*
X44931030Y-7363633D01*
X44930775Y-7600104D01*
X44930493Y-7820901D01*
X44930184Y-8026565D01*
X44929846Y-8217634D01*
X44929478Y-8394650D01*
X44929078Y-8558152D01*
X44928646Y-8708682D01*
X44928180Y-8846779D01*
X44927678Y-8972984D01*
X44927140Y-9087837D01*
X44926564Y-9191878D01*
X44925949Y-9285648D01*
X44925294Y-9369687D01*
X44924597Y-9444535D01*
X44923857Y-9510733D01*
X44923073Y-9568821D01*
X44922244Y-9619338D01*
X44921367Y-9662827D01*
X44920443Y-9699826D01*
X44919469Y-9730876D01*
X44918445Y-9756518D01*
X44917369Y-9777292D01*
X44916240Y-9793737D01*
X44915056Y-9806395D01*
X44913817Y-9815806D01*
X44912521Y-9822510D01*
X44911167Y-9827047D01*
X44910355Y-9828897D01*
X44885200Y-9866094D01*
X44854309Y-9897227D01*
X44852293Y-9898747D01*
X44816437Y-9925050D01*
X294343Y-9927137D01*
X-784286Y-9927184D01*
X-1856453Y-9927225D01*
X-2921878Y-9927260D01*
X-3980278Y-9927288D01*
X-5031375Y-9927310D01*
X-6074886Y-9927326D01*
X-7110532Y-9927336D01*
X-8138031Y-9927339D01*
X-9157102Y-9927337D01*
X-10167466Y-9927328D01*
X-11168840Y-9927314D01*
X-12160945Y-9927293D01*
X-13143499Y-9927267D01*
X-14116223Y-9927235D01*
X-15078834Y-9927197D01*
X-16031052Y-9927154D01*
X-16972597Y-9927105D01*
X-17903187Y-9927051D01*
X-18822543Y-9926991D01*
X-19730383Y-9926925D01*
X-20626426Y-9926854D01*
X-21510391Y-9926778D01*
X-22381999Y-9926697D01*
X-23240968Y-9926610D01*
X-24087017Y-9926518D01*
X-24919865Y-9926421D01*
X-25739233Y-9926319D01*
X-26544838Y-9926212D01*
X-27336401Y-9926100D01*
X-28113640Y-9925983D01*
X-28876276Y-9925861D01*
X-29624026Y-9925735D01*
X-30356610Y-9925604D01*
X-31073748Y-9925468D01*
X-31775158Y-9925327D01*
X-32460560Y-9925182D01*
X-33129674Y-9925033D01*
X-33782218Y-9924879D01*
X-34417911Y-9924720D01*
X-35036474Y-9924557D01*
X-35637624Y-9924390D01*
X-36221082Y-9924219D01*
X-36786566Y-9924044D01*
X-37333796Y-9923864D01*
X-37862491Y-9923680D01*
X-38372371Y-9923493D01*
X-38863154Y-9923301D01*
X-39334559Y-9923106D01*
X-39786307Y-9922906D01*
X-40218115Y-9922703D01*
X-40629705Y-9922497D01*
X-41020793Y-9922286D01*
X-41391101Y-9922072D01*
X-41740347Y-9921854D01*
X-42068250Y-9921633D01*
X-42374530Y-9921409D01*
X-42658906Y-9921181D01*
X-42921096Y-9920949D01*
X-43160821Y-9920714D01*
X-43377800Y-9920477D01*
X-43571751Y-9920236D01*
X-43742394Y-9919991D01*
X-43889449Y-9919744D01*
X-44012634Y-9919494D01*
X-44111669Y-9919241D01*
X-44186272Y-9918985D01*
X-44236164Y-9918726D01*
X-44261063Y-9918464D01*
X-44264040Y-9918345D01*
X-44319549Y-9889109D01*
X-44360000Y-9839705D01*
X-44369203Y-9820682D01*
X-44370300Y-9815039D01*
X-44371352Y-9803065D01*
X-44372358Y-9784260D01*
X-44373321Y-9758121D01*
X-44374241Y-9724145D01*
X-44375118Y-9681829D01*
X-44375955Y-9630672D01*
X-44376751Y-9570170D01*
X-44377508Y-9499820D01*
X-44378227Y-9419121D01*
X-44378908Y-9327570D01*
X-44379553Y-9224664D01*
X-44380162Y-9109901D01*
X-44380736Y-8982778D01*
X-44381277Y-8842793D01*
X-44381785Y-8689442D01*
X-44382260Y-8522224D01*
X-44382705Y-8340636D01*
X-44383120Y-8144176D01*
X-44383505Y-7932340D01*
X-44383862Y-7704627D01*
X-44384192Y-7460533D01*
X-44384495Y-7199556D01*
X-44384773Y-6921194D01*
X-44385026Y-6624945D01*
X-44385256Y-6310304D01*
X-44385462Y-5976771D01*
X-44385647Y-5623842D01*
X-44385811Y-5251015D01*
X-44385955Y-4857787D01*
X-44386080Y-4443656D01*
X-44386186Y-4008119D01*
X-44386276Y-3550674D01*
X-44386349Y-3070818D01*
X-44386406Y-2568049D01*
X-44386449Y-2041863D01*
X-44386479Y-1491759D01*
X-44386495Y-917234D01*
X-44386500Y-349657D01*
X-44386500Y9080500D01*
X44827574Y9080500D01*
X44862576Y9052968D01*
G36*
X44862576Y46924368D02*
G01*
X44892646Y46892339D01*
X44915088Y46854926D01*
X44916201Y46849370D01*
X44917267Y46837801D01*
X44918288Y46819712D01*
X44919263Y46794595D01*
X44920195Y46761940D01*
X44921084Y46721240D01*
X44921932Y46671987D01*
X44922738Y46613672D01*
X44923504Y46545788D01*
X44924231Y46467825D01*
X44924920Y46379276D01*
X44925572Y46279632D01*
X44926188Y46168385D01*
X44926768Y46045027D01*
X44927314Y45909050D01*
X44927827Y45759945D01*
X44928307Y45597204D01*
X44928756Y45420319D01*
X44929174Y45228782D01*
X44929563Y45022084D01*
X44929923Y44799717D01*
X44930255Y44561173D01*
X44930561Y44305944D01*
X44930840Y44033521D01*
X44931095Y43743397D01*
X44931326Y43435062D01*
X44931534Y43108009D01*
X44931720Y42761730D01*
X44931885Y42395716D01*
X44932029Y42009458D01*
X44932155Y41602450D01*
X44932262Y41174182D01*
X44932352Y40724146D01*
X44932425Y40251834D01*
X44932483Y39756738D01*
X44932527Y39238349D01*
X44932557Y38696160D01*
X44932574Y38129661D01*
X44932580Y37538346D01*
X44932580Y37449533D01*
X44932577Y36863929D01*
X44932569Y36303184D01*
X44932555Y35766759D01*
X44932534Y35254113D01*
X44932505Y34764706D01*
X44932466Y34297997D01*
X44932416Y33853446D01*
X44932354Y33430513D01*
X44932278Y33028657D01*
X44932187Y32647339D01*
X44932081Y32286018D01*
X44931956Y31944153D01*
X44931814Y31621205D01*
X44931651Y31316632D01*
X44931467Y31029895D01*
X44931260Y30760454D01*
X44931030Y30507767D01*
X44930775Y30271296D01*
X44930493Y30050499D01*
X44930184Y29844835D01*
X44929846Y29653766D01*
X44929478Y29476750D01*
X44929078Y29313248D01*
X44928646Y29162718D01*
X44928180Y29024621D01*
X44927678Y28898416D01*
X44927140Y28783563D01*
X44926564Y28679522D01*
X44925949Y28585752D01*
X44925294Y28501713D01*
X44924597Y28426865D01*
X44923857Y28360667D01*
X44923073Y28302579D01*
X44922244Y28252062D01*
X44921367Y28208573D01*
X44920443Y28171574D01*
X44919469Y28140524D01*
X44918445Y28114882D01*
X44917369Y28094108D01*
X44916240Y28077663D01*
X44915056Y28065005D01*
X44913817Y28055594D01*
X44912521Y28048890D01*
X44911167Y28044353D01*
X44910355Y28042503D01*
X44885200Y28005306D01*
X44854309Y27974173D01*
X44852293Y27972653D01*
X44816437Y27946350D01*
X294343Y27944263D01*
X-784286Y27944216D01*
X-1856453Y27944175D01*
X-2921878Y27944140D01*
X-3980278Y27944112D01*
X-5031375Y27944090D01*
X-6074886Y27944074D01*
X-7110532Y27944064D01*
X-8138031Y27944061D01*
X-9157102Y27944063D01*
X-10167466Y27944072D01*
X-11168840Y27944086D01*
X-12160945Y27944107D01*
X-13143499Y27944133D01*
X-14116223Y27944165D01*
X-15078834Y27944203D01*
X-16031052Y27944246D01*
X-16972597Y27944295D01*
X-17903187Y27944349D01*
X-18822543Y27944409D01*
X-19730383Y27944475D01*
X-20626426Y27944546D01*
X-21510391Y27944622D01*
X-22381999Y27944703D01*
X-23240968Y27944790D01*
X-24087017Y27944882D01*
X-24919865Y27944979D01*
X-25739233Y27945081D01*
X-26544838Y27945188D01*
X-27336401Y27945300D01*
X-28113640Y27945417D01*
X-28876276Y27945539D01*
X-29624026Y27945665D01*
X-30356610Y27945796D01*
X-31073748Y27945932D01*
X-31775158Y27946073D01*
X-32460560Y27946218D01*
X-33129674Y27946367D01*
X-33782218Y27946521D01*
X-34417911Y27946680D01*
X-35036474Y27946843D01*
X-35637624Y27947010D01*
X-36221082Y27947181D01*
X-36786566Y27947356D01*
X-37333796Y27947536D01*
X-37862491Y27947720D01*
X-38372371Y27947907D01*
X-38863154Y27948099D01*
X-39334559Y27948294D01*
X-39786307Y27948494D01*
X-40218115Y27948697D01*
X-40629705Y27948903D01*
X-41020793Y27949114D01*
X-41391101Y27949328D01*
X-41740347Y27949546D01*
X-42068250Y27949767D01*
X-42374530Y27949991D01*
X-42658906Y27950219D01*
X-42921096Y27950451D01*
X-43160821Y27950686D01*
X-43377800Y27950923D01*
X-43571751Y27951164D01*
X-43742394Y27951409D01*
X-43889449Y27951656D01*
X-44012634Y27951906D01*
X-44111669Y27952159D01*
X-44186272Y27952415D01*
X-44236164Y27952674D01*
X-44261063Y27952936D01*
X-44264040Y27953055D01*
X-44319549Y27982291D01*
X-44360000Y28031695D01*
X-44369203Y28050718D01*
X-44370300Y28056361D01*
X-44371352Y28068335D01*
X-44372358Y28087140D01*
X-44373321Y28113279D01*
X-44374241Y28147255D01*
X-44375118Y28189571D01*
X-44375955Y28240728D01*
X-44376751Y28301230D01*
X-44377508Y28371580D01*
X-44378227Y28452279D01*
X-44378908Y28543830D01*
X-44379553Y28646736D01*
X-44380162Y28761499D01*
X-44380736Y28888622D01*
X-44381277Y29028607D01*
X-44381785Y29181958D01*
X-44382260Y29349176D01*
X-44382705Y29530764D01*
X-44383120Y29727224D01*
X-44383505Y29939060D01*
X-44383862Y30166773D01*
X-44384192Y30410867D01*
X-44384495Y30671844D01*
X-44384773Y30950206D01*
X-44385026Y31246455D01*
X-44385256Y31561096D01*
X-44385462Y31894629D01*
X-44385647Y32247558D01*
X-44385811Y32620385D01*
X-44385955Y33013613D01*
X-44386080Y33427744D01*
X-44386186Y33863281D01*
X-44386276Y34320726D01*
X-44386349Y34800582D01*
X-44386406Y35303351D01*
X-44386449Y35829537D01*
X-44386479Y36379641D01*
X-44386495Y36954166D01*
X-44386500Y37521743D01*
X-44386500Y46951900D01*
X44827574Y46951900D01*
X44862576Y46924368D01*
X44862576Y46924368D01*
G37*
X44862576Y46924368D02*
X44892646Y46892339D01*
X44915088Y46854926D01*
X44916201Y46849370D01*
X44917267Y46837801D01*
X44918288Y46819712D01*
X44919263Y46794595D01*
X44920195Y46761940D01*
X44921084Y46721240D01*
X44921932Y46671987D01*
X44922738Y46613672D01*
X44923504Y46545788D01*
X44924231Y46467825D01*
X44924920Y46379276D01*
X44925572Y46279632D01*
X44926188Y46168385D01*
X44926768Y46045027D01*
X44927314Y45909050D01*
X44927827Y45759945D01*
X44928307Y45597204D01*
X44928756Y45420319D01*
X44929174Y45228782D01*
X44929563Y45022084D01*
X44929923Y44799717D01*
X44930255Y44561173D01*
X44930561Y44305944D01*
X44930840Y44033521D01*
X44931095Y43743397D01*
X44931326Y43435062D01*
X44931534Y43108009D01*
X44931720Y42761730D01*
X44931885Y42395716D01*
X44932029Y42009458D01*
X44932155Y41602450D01*
X44932262Y41174182D01*
X44932352Y40724146D01*
X44932425Y40251834D01*
X44932483Y39756738D01*
X44932527Y39238349D01*
X44932557Y38696160D01*
X44932574Y38129661D01*
X44932580Y37538346D01*
X44932580Y37449533D01*
X44932577Y36863929D01*
X44932569Y36303184D01*
X44932555Y35766759D01*
X44932534Y35254113D01*
X44932505Y34764706D01*
X44932466Y34297997D01*
X44932416Y33853446D01*
X44932354Y33430513D01*
X44932278Y33028657D01*
X44932187Y32647339D01*
X44932081Y32286018D01*
X44931956Y31944153D01*
X44931814Y31621205D01*
X44931651Y31316632D01*
X44931467Y31029895D01*
X44931260Y30760454D01*
X44931030Y30507767D01*
X44930775Y30271296D01*
X44930493Y30050499D01*
X44930184Y29844835D01*
X44929846Y29653766D01*
X44929478Y29476750D01*
X44929078Y29313248D01*
X44928646Y29162718D01*
X44928180Y29024621D01*
X44927678Y28898416D01*
X44927140Y28783563D01*
X44926564Y28679522D01*
X44925949Y28585752D01*
X44925294Y28501713D01*
X44924597Y28426865D01*
X44923857Y28360667D01*
X44923073Y28302579D01*
X44922244Y28252062D01*
X44921367Y28208573D01*
X44920443Y28171574D01*
X44919469Y28140524D01*
X44918445Y28114882D01*
X44917369Y28094108D01*
X44916240Y28077663D01*
X44915056Y28065005D01*
X44913817Y28055594D01*
X44912521Y28048890D01*
X44911167Y28044353D01*
X44910355Y28042503D01*
X44885200Y28005306D01*
X44854309Y27974173D01*
X44852293Y27972653D01*
X44816437Y27946350D01*
X294343Y27944263D01*
X-784286Y27944216D01*
X-1856453Y27944175D01*
X-2921878Y27944140D01*
X-3980278Y27944112D01*
X-5031375Y27944090D01*
X-6074886Y27944074D01*
X-7110532Y27944064D01*
X-8138031Y27944061D01*
X-9157102Y27944063D01*
X-10167466Y27944072D01*
X-11168840Y27944086D01*
X-12160945Y27944107D01*
X-13143499Y27944133D01*
X-14116223Y27944165D01*
X-15078834Y27944203D01*
X-16031052Y27944246D01*
X-16972597Y27944295D01*
X-17903187Y27944349D01*
X-18822543Y27944409D01*
X-19730383Y27944475D01*
X-20626426Y27944546D01*
X-21510391Y27944622D01*
X-22381999Y27944703D01*
X-23240968Y27944790D01*
X-24087017Y27944882D01*
X-24919865Y27944979D01*
X-25739233Y27945081D01*
X-26544838Y27945188D01*
X-27336401Y27945300D01*
X-28113640Y27945417D01*
X-28876276Y27945539D01*
X-29624026Y27945665D01*
X-30356610Y27945796D01*
X-31073748Y27945932D01*
X-31775158Y27946073D01*
X-32460560Y27946218D01*
X-33129674Y27946367D01*
X-33782218Y27946521D01*
X-34417911Y27946680D01*
X-35036474Y27946843D01*
X-35637624Y27947010D01*
X-36221082Y27947181D01*
X-36786566Y27947356D01*
X-37333796Y27947536D01*
X-37862491Y27947720D01*
X-38372371Y27947907D01*
X-38863154Y27948099D01*
X-39334559Y27948294D01*
X-39786307Y27948494D01*
X-40218115Y27948697D01*
X-40629705Y27948903D01*
X-41020793Y27949114D01*
X-41391101Y27949328D01*
X-41740347Y27949546D01*
X-42068250Y27949767D01*
X-42374530Y27949991D01*
X-42658906Y27950219D01*
X-42921096Y27950451D01*
X-43160821Y27950686D01*
X-43377800Y27950923D01*
X-43571751Y27951164D01*
X-43742394Y27951409D01*
X-43889449Y27951656D01*
X-44012634Y27951906D01*
X-44111669Y27952159D01*
X-44186272Y27952415D01*
X-44236164Y27952674D01*
X-44261063Y27952936D01*
X-44264040Y27953055D01*
X-44319549Y27982291D01*
X-44360000Y28031695D01*
X-44369203Y28050718D01*
X-44370300Y28056361D01*
X-44371352Y28068335D01*
X-44372358Y28087140D01*
X-44373321Y28113279D01*
X-44374241Y28147255D01*
X-44375118Y28189571D01*
X-44375955Y28240728D01*
X-44376751Y28301230D01*
X-44377508Y28371580D01*
X-44378227Y28452279D01*
X-44378908Y28543830D01*
X-44379553Y28646736D01*
X-44380162Y28761499D01*
X-44380736Y28888622D01*
X-44381277Y29028607D01*
X-44381785Y29181958D01*
X-44382260Y29349176D01*
X-44382705Y29530764D01*
X-44383120Y29727224D01*
X-44383505Y29939060D01*
X-44383862Y30166773D01*
X-44384192Y30410867D01*
X-44384495Y30671844D01*
X-44384773Y30950206D01*
X-44385026Y31246455D01*
X-44385256Y31561096D01*
X-44385462Y31894629D01*
X-44385647Y32247558D01*
X-44385811Y32620385D01*
X-44385955Y33013613D01*
X-44386080Y33427744D01*
X-44386186Y33863281D01*
X-44386276Y34320726D01*
X-44386349Y34800582D01*
X-44386406Y35303351D01*
X-44386449Y35829537D01*
X-44386479Y36379641D01*
X-44386495Y36954166D01*
X-44386500Y37521743D01*
X-44386500Y46951900D01*
X44827574Y46951900D01*
X44862576Y46924368D01*
M02*
