G04 #@! TF.GenerationSoftware,KiCad,Pcbnew,(5.1.2)-1*
G04 #@! TF.CreationDate,2019-05-30T21:03:25-05:00*
G04 #@! TF.ProjectId,color-swatches,636f6c6f-722d-4737-9761-74636865732e,rev?*
G04 #@! TF.SameCoordinates,Original*
G04 #@! TF.FileFunction,Copper,L1,Top*
G04 #@! TF.FilePolarity,Positive*
%FSLAX46Y46*%
G04 Gerber Fmt 4.6, Leading zero omitted, Abs format (unit mm)*
G04 Created by KiCad (PCBNEW (5.1.2)-1) date 2019-05-30 21:03:25*
%MOMM*%
%LPD*%
G04 APERTURE LIST*
%ADD10C,0.010000*%
G04 APERTURE END LIST*
D10*
G36*
X-22494875Y-28961262D02*
G01*
X-21327794Y-28961541D01*
X-20202289Y-28961813D01*
X-19117606Y-28962077D01*
X-18072988Y-28962337D01*
X-17067679Y-28962593D01*
X-16100922Y-28962847D01*
X-15171961Y-28963100D01*
X-14280041Y-28963355D01*
X-13424405Y-28963613D01*
X-12604297Y-28963876D01*
X-11818961Y-28964144D01*
X-11067641Y-28964421D01*
X-10349580Y-28964707D01*
X-9664023Y-28965003D01*
X-9010213Y-28965313D01*
X-8387394Y-28965637D01*
X-7794810Y-28965976D01*
X-7231705Y-28966333D01*
X-6697322Y-28966710D01*
X-6190906Y-28967106D01*
X-5711701Y-28967526D01*
X-5258950Y-28967969D01*
X-4831896Y-28968438D01*
X-4429785Y-28968934D01*
X-4051860Y-28969458D01*
X-3697364Y-28970014D01*
X-3365542Y-28970601D01*
X-3055637Y-28971222D01*
X-2766893Y-28971878D01*
X-2498555Y-28972571D01*
X-2249865Y-28973303D01*
X-2020068Y-28974074D01*
X-1808408Y-28974888D01*
X-1614128Y-28975744D01*
X-1436473Y-28976646D01*
X-1274685Y-28977595D01*
X-1128010Y-28978591D01*
X-995691Y-28979637D01*
X-876971Y-28980735D01*
X-771096Y-28981886D01*
X-677307Y-28983092D01*
X-594850Y-28984353D01*
X-522968Y-28985673D01*
X-460905Y-28987052D01*
X-407905Y-28988493D01*
X-363211Y-28989996D01*
X-326069Y-28991564D01*
X-295720Y-28993197D01*
X-271410Y-28994898D01*
X-252382Y-28996668D01*
X-237880Y-28998510D01*
X-227148Y-29000423D01*
X-219430Y-29002411D01*
X-213969Y-29004474D01*
X-210009Y-29006615D01*
X-206795Y-29008835D01*
X-206682Y-29008917D01*
X-160231Y-29055407D01*
X-116031Y-29118909D01*
X-106141Y-29137308D01*
X-102683Y-29144530D01*
X-99418Y-29152638D01*
X-96339Y-29162818D01*
X-93441Y-29176258D01*
X-90719Y-29194147D01*
X-88167Y-29217672D01*
X-85780Y-29248020D01*
X-83552Y-29286380D01*
X-81478Y-29333939D01*
X-79552Y-29391885D01*
X-77768Y-29461406D01*
X-76122Y-29543689D01*
X-74608Y-29639922D01*
X-73220Y-29751294D01*
X-71952Y-29878991D01*
X-70800Y-30024202D01*
X-69758Y-30188114D01*
X-68820Y-30371916D01*
X-67981Y-30576794D01*
X-67234Y-30803937D01*
X-66576Y-31054532D01*
X-66000Y-31329767D01*
X-65501Y-31630830D01*
X-65073Y-31958909D01*
X-64711Y-32315191D01*
X-64409Y-32700864D01*
X-64162Y-33117117D01*
X-63965Y-33565136D01*
X-63811Y-34046109D01*
X-63695Y-34561224D01*
X-63613Y-35111670D01*
X-63557Y-35698633D01*
X-63524Y-36323302D01*
X-63507Y-36986864D01*
X-63501Y-37690507D01*
X-63500Y-38356198D01*
X-63500Y-47489030D01*
X-111125Y-47583474D01*
X-166352Y-47664302D01*
X-244174Y-47720880D01*
X-253193Y-47725542D01*
X-347636Y-47773167D01*
X-22393526Y-47771348D01*
X-23379473Y-47771249D01*
X-24353714Y-47771117D01*
X-25315402Y-47770952D01*
X-26263690Y-47770755D01*
X-27197733Y-47770527D01*
X-28116683Y-47770269D01*
X-29019694Y-47769981D01*
X-29905919Y-47769665D01*
X-30774513Y-47769320D01*
X-31624627Y-47768949D01*
X-32455416Y-47768550D01*
X-33266032Y-47768126D01*
X-34055630Y-47767677D01*
X-34823363Y-47767204D01*
X-35568384Y-47766708D01*
X-36289847Y-47766189D01*
X-36986904Y-47765648D01*
X-37658710Y-47765085D01*
X-38304418Y-47764503D01*
X-38923180Y-47763901D01*
X-39514152Y-47763280D01*
X-40076485Y-47762641D01*
X-40609334Y-47761985D01*
X-41111852Y-47761312D01*
X-41583192Y-47760624D01*
X-42022507Y-47759921D01*
X-42428952Y-47759203D01*
X-42801679Y-47758472D01*
X-43139842Y-47757729D01*
X-43442594Y-47756973D01*
X-43709089Y-47756207D01*
X-43938479Y-47755430D01*
X-44129920Y-47754643D01*
X-44282563Y-47753848D01*
X-44395562Y-47753044D01*
X-44468071Y-47752234D01*
X-44499244Y-47751417D01*
X-44500391Y-47751272D01*
X-44582390Y-47708431D01*
X-44656582Y-47637249D01*
X-44695428Y-47578426D01*
X-44697858Y-47569217D01*
X-44700156Y-47550451D01*
X-44702326Y-47521017D01*
X-44704370Y-47479805D01*
X-44706293Y-47425705D01*
X-44708097Y-47357606D01*
X-44709787Y-47274398D01*
X-44711366Y-47174971D01*
X-44712837Y-47058213D01*
X-44714205Y-46923016D01*
X-44715472Y-46768267D01*
X-44716642Y-46592858D01*
X-44717718Y-46395677D01*
X-44718705Y-46175614D01*
X-44719606Y-45931559D01*
X-44720424Y-45662401D01*
X-44721162Y-45367031D01*
X-44721825Y-45044337D01*
X-44722416Y-44693209D01*
X-44722938Y-44312537D01*
X-44723395Y-43901210D01*
X-44723790Y-43458119D01*
X-44724128Y-42982152D01*
X-44724411Y-42472199D01*
X-44724643Y-41927150D01*
X-44724827Y-41345895D01*
X-44724968Y-40727323D01*
X-44725069Y-40070324D01*
X-44725132Y-39373787D01*
X-44725163Y-38636602D01*
X-44725166Y-38238605D01*
X-44725166Y-28955940D01*
X-22494875Y-28961262D01*
X-22494875Y-28961262D01*
G37*
X-22494875Y-28961262D02*
X-21327794Y-28961541D01*
X-20202289Y-28961813D01*
X-19117606Y-28962077D01*
X-18072988Y-28962337D01*
X-17067679Y-28962593D01*
X-16100922Y-28962847D01*
X-15171961Y-28963100D01*
X-14280041Y-28963355D01*
X-13424405Y-28963613D01*
X-12604297Y-28963876D01*
X-11818961Y-28964144D01*
X-11067641Y-28964421D01*
X-10349580Y-28964707D01*
X-9664023Y-28965003D01*
X-9010213Y-28965313D01*
X-8387394Y-28965637D01*
X-7794810Y-28965976D01*
X-7231705Y-28966333D01*
X-6697322Y-28966710D01*
X-6190906Y-28967106D01*
X-5711701Y-28967526D01*
X-5258950Y-28967969D01*
X-4831896Y-28968438D01*
X-4429785Y-28968934D01*
X-4051860Y-28969458D01*
X-3697364Y-28970014D01*
X-3365542Y-28970601D01*
X-3055637Y-28971222D01*
X-2766893Y-28971878D01*
X-2498555Y-28972571D01*
X-2249865Y-28973303D01*
X-2020068Y-28974074D01*
X-1808408Y-28974888D01*
X-1614128Y-28975744D01*
X-1436473Y-28976646D01*
X-1274685Y-28977595D01*
X-1128010Y-28978591D01*
X-995691Y-28979637D01*
X-876971Y-28980735D01*
X-771096Y-28981886D01*
X-677307Y-28983092D01*
X-594850Y-28984353D01*
X-522968Y-28985673D01*
X-460905Y-28987052D01*
X-407905Y-28988493D01*
X-363211Y-28989996D01*
X-326069Y-28991564D01*
X-295720Y-28993197D01*
X-271410Y-28994898D01*
X-252382Y-28996668D01*
X-237880Y-28998510D01*
X-227148Y-29000423D01*
X-219430Y-29002411D01*
X-213969Y-29004474D01*
X-210009Y-29006615D01*
X-206795Y-29008835D01*
X-206682Y-29008917D01*
X-160231Y-29055407D01*
X-116031Y-29118909D01*
X-106141Y-29137308D01*
X-102683Y-29144530D01*
X-99418Y-29152638D01*
X-96339Y-29162818D01*
X-93441Y-29176258D01*
X-90719Y-29194147D01*
X-88167Y-29217672D01*
X-85780Y-29248020D01*
X-83552Y-29286380D01*
X-81478Y-29333939D01*
X-79552Y-29391885D01*
X-77768Y-29461406D01*
X-76122Y-29543689D01*
X-74608Y-29639922D01*
X-73220Y-29751294D01*
X-71952Y-29878991D01*
X-70800Y-30024202D01*
X-69758Y-30188114D01*
X-68820Y-30371916D01*
X-67981Y-30576794D01*
X-67234Y-30803937D01*
X-66576Y-31054532D01*
X-66000Y-31329767D01*
X-65501Y-31630830D01*
X-65073Y-31958909D01*
X-64711Y-32315191D01*
X-64409Y-32700864D01*
X-64162Y-33117117D01*
X-63965Y-33565136D01*
X-63811Y-34046109D01*
X-63695Y-34561224D01*
X-63613Y-35111670D01*
X-63557Y-35698633D01*
X-63524Y-36323302D01*
X-63507Y-36986864D01*
X-63501Y-37690507D01*
X-63500Y-38356198D01*
X-63500Y-47489030D01*
X-111125Y-47583474D01*
X-166352Y-47664302D01*
X-244174Y-47720880D01*
X-253193Y-47725542D01*
X-347636Y-47773167D01*
X-22393526Y-47771348D01*
X-23379473Y-47771249D01*
X-24353714Y-47771117D01*
X-25315402Y-47770952D01*
X-26263690Y-47770755D01*
X-27197733Y-47770527D01*
X-28116683Y-47770269D01*
X-29019694Y-47769981D01*
X-29905919Y-47769665D01*
X-30774513Y-47769320D01*
X-31624627Y-47768949D01*
X-32455416Y-47768550D01*
X-33266032Y-47768126D01*
X-34055630Y-47767677D01*
X-34823363Y-47767204D01*
X-35568384Y-47766708D01*
X-36289847Y-47766189D01*
X-36986904Y-47765648D01*
X-37658710Y-47765085D01*
X-38304418Y-47764503D01*
X-38923180Y-47763901D01*
X-39514152Y-47763280D01*
X-40076485Y-47762641D01*
X-40609334Y-47761985D01*
X-41111852Y-47761312D01*
X-41583192Y-47760624D01*
X-42022507Y-47759921D01*
X-42428952Y-47759203D01*
X-42801679Y-47758472D01*
X-43139842Y-47757729D01*
X-43442594Y-47756973D01*
X-43709089Y-47756207D01*
X-43938479Y-47755430D01*
X-44129920Y-47754643D01*
X-44282563Y-47753848D01*
X-44395562Y-47753044D01*
X-44468071Y-47752234D01*
X-44499244Y-47751417D01*
X-44500391Y-47751272D01*
X-44582390Y-47708431D01*
X-44656582Y-47637249D01*
X-44695428Y-47578426D01*
X-44697858Y-47569217D01*
X-44700156Y-47550451D01*
X-44702326Y-47521017D01*
X-44704370Y-47479805D01*
X-44706293Y-47425705D01*
X-44708097Y-47357606D01*
X-44709787Y-47274398D01*
X-44711366Y-47174971D01*
X-44712837Y-47058213D01*
X-44714205Y-46923016D01*
X-44715472Y-46768267D01*
X-44716642Y-46592858D01*
X-44717718Y-46395677D01*
X-44718705Y-46175614D01*
X-44719606Y-45931559D01*
X-44720424Y-45662401D01*
X-44721162Y-45367031D01*
X-44721825Y-45044337D01*
X-44722416Y-44693209D01*
X-44722938Y-44312537D01*
X-44723395Y-43901210D01*
X-44723790Y-43458119D01*
X-44724128Y-42982152D01*
X-44724411Y-42472199D01*
X-44724643Y-41927150D01*
X-44724827Y-41345895D01*
X-44724968Y-40727323D01*
X-44725069Y-40070324D01*
X-44725132Y-39373787D01*
X-44725163Y-38636602D01*
X-44725166Y-38238605D01*
X-44725166Y-28955940D01*
X-22494875Y-28961262D01*
G36*
X44885928Y9035945D02*
G01*
X44889158Y9031735D01*
X44892213Y9025666D01*
X44895097Y9016572D01*
X44897817Y9003286D01*
X44900378Y8984640D01*
X44902786Y8959469D01*
X44905047Y8926606D01*
X44907166Y8884885D01*
X44909149Y8833137D01*
X44911002Y8770198D01*
X44912730Y8694900D01*
X44914340Y8606077D01*
X44915836Y8502562D01*
X44917226Y8383188D01*
X44918513Y8246789D01*
X44919705Y8092198D01*
X44920806Y7918249D01*
X44921823Y7723775D01*
X44922761Y7507609D01*
X44923626Y7268585D01*
X44924424Y7005535D01*
X44925160Y6717295D01*
X44925840Y6402696D01*
X44926470Y6060572D01*
X44927055Y5689756D01*
X44927602Y5289082D01*
X44928116Y4857384D01*
X44928602Y4393494D01*
X44929067Y3896247D01*
X44929516Y3364474D01*
X44929954Y2797010D01*
X44930388Y2192689D01*
X44930824Y1550343D01*
X44931266Y868805D01*
X44931721Y146910D01*
X44932047Y-377930D01*
X44932409Y-1005874D01*
X44932714Y-1623260D01*
X44932962Y-2228734D01*
X44933154Y-2820940D01*
X44933292Y-3398520D01*
X44933375Y-3960119D01*
X44933404Y-4504381D01*
X44933381Y-5029949D01*
X44933306Y-5535468D01*
X44933181Y-6019581D01*
X44933005Y-6480931D01*
X44932780Y-6918164D01*
X44932507Y-7329922D01*
X44932187Y-7714850D01*
X44931819Y-8071591D01*
X44931406Y-8398789D01*
X44930948Y-8695088D01*
X44930446Y-8959132D01*
X44929900Y-9189565D01*
X44929312Y-9385030D01*
X44928682Y-9544171D01*
X44928012Y-9665633D01*
X44927302Y-9748058D01*
X44926552Y-9790091D01*
X44926217Y-9795414D01*
X44902172Y-9847526D01*
X44872795Y-9885372D01*
X44871043Y-9886930D01*
X44868587Y-9888449D01*
X44864893Y-9889929D01*
X44859429Y-9891371D01*
X44851661Y-9892775D01*
X44841056Y-9894142D01*
X44827081Y-9895472D01*
X44809203Y-9896766D01*
X44786888Y-9898025D01*
X44759603Y-9899248D01*
X44726816Y-9900436D01*
X44687992Y-9901591D01*
X44642599Y-9902711D01*
X44590104Y-9903798D01*
X44529973Y-9904853D01*
X44461673Y-9905875D01*
X44384671Y-9906866D01*
X44298434Y-9907826D01*
X44202429Y-9908754D01*
X44096121Y-9909653D01*
X43978979Y-9910522D01*
X43850469Y-9911361D01*
X43710058Y-9912172D01*
X43557212Y-9912955D01*
X43391399Y-9913710D01*
X43212084Y-9914437D01*
X43018736Y-9915138D01*
X42810821Y-9915813D01*
X42587805Y-9916462D01*
X42349156Y-9917086D01*
X42094340Y-9917685D01*
X41822823Y-9918260D01*
X41534074Y-9918811D01*
X41227559Y-9919339D01*
X40902743Y-9919844D01*
X40559095Y-9920327D01*
X40196082Y-9920789D01*
X39813168Y-9921229D01*
X39409823Y-9921648D01*
X38985512Y-9922047D01*
X38539703Y-9922427D01*
X38071861Y-9922787D01*
X37581454Y-9923128D01*
X37067950Y-9923452D01*
X36530813Y-9923757D01*
X35969512Y-9924045D01*
X35383513Y-9924317D01*
X34772283Y-9924572D01*
X34135289Y-9924812D01*
X33471997Y-9925036D01*
X32781874Y-9925246D01*
X32064388Y-9925442D01*
X31319005Y-9925623D01*
X30545191Y-9925792D01*
X29742414Y-9925947D01*
X28910140Y-9926091D01*
X28047837Y-9926223D01*
X27154970Y-9926343D01*
X26231008Y-9926453D01*
X25275416Y-9926553D01*
X24287661Y-9926643D01*
X23267210Y-9926723D01*
X22213531Y-9926795D01*
X21126089Y-9926859D01*
X20004352Y-9926915D01*
X18847787Y-9926964D01*
X17655859Y-9927006D01*
X16428037Y-9927042D01*
X15163786Y-9927072D01*
X13862575Y-9927096D01*
X12523868Y-9927117D01*
X11147134Y-9927132D01*
X9731839Y-9927145D01*
X8277450Y-9927153D01*
X6783434Y-9927160D01*
X5249257Y-9927163D01*
X3674386Y-9927166D01*
X2058288Y-9927167D01*
X-44282591Y-9927167D01*
X-44334545Y-9875212D01*
X-44386500Y-9823258D01*
X-44386500Y9080500D01*
X44845606Y9080500D01*
X44885928Y9035945D01*
X44885928Y9035945D01*
G37*
X44885928Y9035945D02*
X44889158Y9031735D01*
X44892213Y9025666D01*
X44895097Y9016572D01*
X44897817Y9003286D01*
X44900378Y8984640D01*
X44902786Y8959469D01*
X44905047Y8926606D01*
X44907166Y8884885D01*
X44909149Y8833137D01*
X44911002Y8770198D01*
X44912730Y8694900D01*
X44914340Y8606077D01*
X44915836Y8502562D01*
X44917226Y8383188D01*
X44918513Y8246789D01*
X44919705Y8092198D01*
X44920806Y7918249D01*
X44921823Y7723775D01*
X44922761Y7507609D01*
X44923626Y7268585D01*
X44924424Y7005535D01*
X44925160Y6717295D01*
X44925840Y6402696D01*
X44926470Y6060572D01*
X44927055Y5689756D01*
X44927602Y5289082D01*
X44928116Y4857384D01*
X44928602Y4393494D01*
X44929067Y3896247D01*
X44929516Y3364474D01*
X44929954Y2797010D01*
X44930388Y2192689D01*
X44930824Y1550343D01*
X44931266Y868805D01*
X44931721Y146910D01*
X44932047Y-377930D01*
X44932409Y-1005874D01*
X44932714Y-1623260D01*
X44932962Y-2228734D01*
X44933154Y-2820940D01*
X44933292Y-3398520D01*
X44933375Y-3960119D01*
X44933404Y-4504381D01*
X44933381Y-5029949D01*
X44933306Y-5535468D01*
X44933181Y-6019581D01*
X44933005Y-6480931D01*
X44932780Y-6918164D01*
X44932507Y-7329922D01*
X44932187Y-7714850D01*
X44931819Y-8071591D01*
X44931406Y-8398789D01*
X44930948Y-8695088D01*
X44930446Y-8959132D01*
X44929900Y-9189565D01*
X44929312Y-9385030D01*
X44928682Y-9544171D01*
X44928012Y-9665633D01*
X44927302Y-9748058D01*
X44926552Y-9790091D01*
X44926217Y-9795414D01*
X44902172Y-9847526D01*
X44872795Y-9885372D01*
X44871043Y-9886930D01*
X44868587Y-9888449D01*
X44864893Y-9889929D01*
X44859429Y-9891371D01*
X44851661Y-9892775D01*
X44841056Y-9894142D01*
X44827081Y-9895472D01*
X44809203Y-9896766D01*
X44786888Y-9898025D01*
X44759603Y-9899248D01*
X44726816Y-9900436D01*
X44687992Y-9901591D01*
X44642599Y-9902711D01*
X44590104Y-9903798D01*
X44529973Y-9904853D01*
X44461673Y-9905875D01*
X44384671Y-9906866D01*
X44298434Y-9907826D01*
X44202429Y-9908754D01*
X44096121Y-9909653D01*
X43978979Y-9910522D01*
X43850469Y-9911361D01*
X43710058Y-9912172D01*
X43557212Y-9912955D01*
X43391399Y-9913710D01*
X43212084Y-9914437D01*
X43018736Y-9915138D01*
X42810821Y-9915813D01*
X42587805Y-9916462D01*
X42349156Y-9917086D01*
X42094340Y-9917685D01*
X41822823Y-9918260D01*
X41534074Y-9918811D01*
X41227559Y-9919339D01*
X40902743Y-9919844D01*
X40559095Y-9920327D01*
X40196082Y-9920789D01*
X39813168Y-9921229D01*
X39409823Y-9921648D01*
X38985512Y-9922047D01*
X38539703Y-9922427D01*
X38071861Y-9922787D01*
X37581454Y-9923128D01*
X37067950Y-9923452D01*
X36530813Y-9923757D01*
X35969512Y-9924045D01*
X35383513Y-9924317D01*
X34772283Y-9924572D01*
X34135289Y-9924812D01*
X33471997Y-9925036D01*
X32781874Y-9925246D01*
X32064388Y-9925442D01*
X31319005Y-9925623D01*
X30545191Y-9925792D01*
X29742414Y-9925947D01*
X28910140Y-9926091D01*
X28047837Y-9926223D01*
X27154970Y-9926343D01*
X26231008Y-9926453D01*
X25275416Y-9926553D01*
X24287661Y-9926643D01*
X23267210Y-9926723D01*
X22213531Y-9926795D01*
X21126089Y-9926859D01*
X20004352Y-9926915D01*
X18847787Y-9926964D01*
X17655859Y-9927006D01*
X16428037Y-9927042D01*
X15163786Y-9927072D01*
X13862575Y-9927096D01*
X12523868Y-9927117D01*
X11147134Y-9927132D01*
X9731839Y-9927145D01*
X8277450Y-9927153D01*
X6783434Y-9927160D01*
X5249257Y-9927163D01*
X3674386Y-9927166D01*
X2058288Y-9927167D01*
X-44282591Y-9927167D01*
X-44334545Y-9875212D01*
X-44386500Y-9823258D01*
X-44386500Y9080500D01*
X44845606Y9080500D01*
X44885928Y9035945D01*
G36*
X44885928Y46903111D02*
G01*
X44889158Y46898902D01*
X44892213Y46892833D01*
X44895097Y46883739D01*
X44897817Y46870452D01*
X44900378Y46851807D01*
X44902786Y46826636D01*
X44905047Y46793773D01*
X44907166Y46752051D01*
X44909149Y46700304D01*
X44911002Y46637365D01*
X44912730Y46562067D01*
X44914340Y46473244D01*
X44915836Y46369728D01*
X44917226Y46250355D01*
X44918513Y46113956D01*
X44919705Y45959365D01*
X44920806Y45785416D01*
X44921823Y45590942D01*
X44922761Y45374776D01*
X44923626Y45135751D01*
X44924424Y44872702D01*
X44925160Y44584461D01*
X44925840Y44269862D01*
X44926470Y43927738D01*
X44927055Y43556923D01*
X44927602Y43156249D01*
X44928116Y42724551D01*
X44928602Y42260661D01*
X44929067Y41763413D01*
X44929516Y41231641D01*
X44929954Y40664177D01*
X44930388Y40059856D01*
X44930824Y39417509D01*
X44931266Y38735972D01*
X44931721Y38014077D01*
X44932047Y37489236D01*
X44932409Y36861293D01*
X44932714Y36243906D01*
X44932962Y35638432D01*
X44933154Y35046227D01*
X44933292Y34468647D01*
X44933375Y33907048D01*
X44933404Y33362786D01*
X44933381Y32837217D01*
X44933306Y32331699D01*
X44933181Y31847586D01*
X44933005Y31386235D01*
X44932780Y30949003D01*
X44932507Y30537244D01*
X44932187Y30152317D01*
X44931819Y29795576D01*
X44931406Y29468377D01*
X44930948Y29172078D01*
X44930446Y28908034D01*
X44929900Y28677602D01*
X44929312Y28482137D01*
X44928682Y28322995D01*
X44928012Y28201534D01*
X44927302Y28119108D01*
X44926552Y28077075D01*
X44926217Y28071753D01*
X44902172Y28019641D01*
X44872795Y27981795D01*
X44871043Y27980237D01*
X44868586Y27978718D01*
X44864893Y27977238D01*
X44859428Y27975796D01*
X44851660Y27974391D01*
X44841055Y27973024D01*
X44827079Y27971694D01*
X44809200Y27970400D01*
X44786885Y27969141D01*
X44759599Y27967918D01*
X44726811Y27966730D01*
X44687986Y27965575D01*
X44642591Y27964455D01*
X44590094Y27963368D01*
X44529961Y27962313D01*
X44461659Y27961291D01*
X44384654Y27960300D01*
X44298414Y27959340D01*
X44202405Y27958412D01*
X44096094Y27957513D01*
X43978948Y27956644D01*
X43850433Y27955805D01*
X43710017Y27954994D01*
X43557165Y27954211D01*
X43391346Y27953456D01*
X43212025Y27952729D01*
X43018670Y27952028D01*
X42810747Y27951353D01*
X42587723Y27950704D01*
X42349065Y27950080D01*
X42094240Y27949481D01*
X41822714Y27948906D01*
X41533954Y27948355D01*
X41227427Y27947827D01*
X40902600Y27947322D01*
X40558940Y27946839D01*
X40195913Y27946377D01*
X39812986Y27945937D01*
X39409626Y27945518D01*
X38985299Y27945119D01*
X38539473Y27944739D01*
X38071615Y27944379D01*
X37581190Y27944038D01*
X37067666Y27943715D01*
X36530510Y27943409D01*
X35969189Y27943121D01*
X35383168Y27942849D01*
X34771916Y27942594D01*
X34134898Y27942354D01*
X33471582Y27942130D01*
X32781434Y27941920D01*
X32063922Y27941725D01*
X31318511Y27941543D01*
X30544669Y27941375D01*
X29741863Y27941219D01*
X28909558Y27941075D01*
X28047223Y27940944D01*
X27154324Y27940823D01*
X26230327Y27940713D01*
X25274700Y27940614D01*
X24286909Y27940524D01*
X23266421Y27940443D01*
X22212703Y27940371D01*
X21125221Y27940307D01*
X20003443Y27940251D01*
X18846835Y27940203D01*
X17654864Y27940161D01*
X16426996Y27940125D01*
X15162699Y27940095D01*
X13861439Y27940070D01*
X12522684Y27940050D01*
X11145899Y27940034D01*
X9730552Y27940022D01*
X8276109Y27940013D01*
X6782038Y27940007D01*
X5247804Y27940003D01*
X3672876Y27940001D01*
X2056719Y27940000D01*
X-1383659Y27940000D01*
X-3003029Y27940002D01*
X-4581132Y27940005D01*
X-6118501Y27940010D01*
X-7615669Y27940018D01*
X-9073169Y27940029D01*
X-10491535Y27940043D01*
X-11871299Y27940062D01*
X-13212995Y27940085D01*
X-14517156Y27940112D01*
X-15784315Y27940146D01*
X-17015005Y27940185D01*
X-18209759Y27940231D01*
X-19369110Y27940284D01*
X-20493591Y27940344D01*
X-21583736Y27940412D01*
X-22640078Y27940488D01*
X-23663149Y27940574D01*
X-24653484Y27940668D01*
X-25611614Y27940773D01*
X-26538073Y27940887D01*
X-27433395Y27941013D01*
X-28298112Y27941150D01*
X-29132758Y27941299D01*
X-29937865Y27941459D01*
X-30713967Y27941633D01*
X-31461597Y27941820D01*
X-32181288Y27942020D01*
X-32873572Y27942235D01*
X-33538985Y27942464D01*
X-34178057Y27942709D01*
X-34791323Y27942969D01*
X-35379316Y27943245D01*
X-35942568Y27943538D01*
X-36481613Y27943848D01*
X-36996984Y27944175D01*
X-37489215Y27944521D01*
X-37958837Y27944885D01*
X-38406385Y27945268D01*
X-38832391Y27945671D01*
X-39237389Y27946093D01*
X-39621912Y27946536D01*
X-39986492Y27947000D01*
X-40331663Y27947486D01*
X-40657959Y27947993D01*
X-40965911Y27948523D01*
X-41256054Y27949076D01*
X-41528921Y27949652D01*
X-41785044Y27950252D01*
X-42024957Y27950876D01*
X-42249192Y27951525D01*
X-42458284Y27952199D01*
X-42652764Y27952899D01*
X-42833167Y27953626D01*
X-43000025Y27954379D01*
X-43153871Y27955159D01*
X-43295240Y27955968D01*
X-43424662Y27956804D01*
X-43542673Y27957669D01*
X-43649804Y27958563D01*
X-43746590Y27959487D01*
X-43833562Y27960441D01*
X-43911255Y27961426D01*
X-43980202Y27962441D01*
X-44040935Y27963489D01*
X-44093987Y27964568D01*
X-44139893Y27965680D01*
X-44179184Y27966825D01*
X-44212395Y27968004D01*
X-44240057Y27969216D01*
X-44262705Y27970463D01*
X-44280871Y27971745D01*
X-44295089Y27973063D01*
X-44305891Y27974416D01*
X-44313811Y27975806D01*
X-44319382Y27977233D01*
X-44323138Y27978697D01*
X-44325610Y27980199D01*
X-44325947Y27980463D01*
X-44375916Y28020926D01*
X-44386640Y46947666D01*
X44845606Y46947666D01*
X44885928Y46903111D01*
X44885928Y46903111D01*
G37*
X44885928Y46903111D02*
X44889158Y46898902D01*
X44892213Y46892833D01*
X44895097Y46883739D01*
X44897817Y46870452D01*
X44900378Y46851807D01*
X44902786Y46826636D01*
X44905047Y46793773D01*
X44907166Y46752051D01*
X44909149Y46700304D01*
X44911002Y46637365D01*
X44912730Y46562067D01*
X44914340Y46473244D01*
X44915836Y46369728D01*
X44917226Y46250355D01*
X44918513Y46113956D01*
X44919705Y45959365D01*
X44920806Y45785416D01*
X44921823Y45590942D01*
X44922761Y45374776D01*
X44923626Y45135751D01*
X44924424Y44872702D01*
X44925160Y44584461D01*
X44925840Y44269862D01*
X44926470Y43927738D01*
X44927055Y43556923D01*
X44927602Y43156249D01*
X44928116Y42724551D01*
X44928602Y42260661D01*
X44929067Y41763413D01*
X44929516Y41231641D01*
X44929954Y40664177D01*
X44930388Y40059856D01*
X44930824Y39417509D01*
X44931266Y38735972D01*
X44931721Y38014077D01*
X44932047Y37489236D01*
X44932409Y36861293D01*
X44932714Y36243906D01*
X44932962Y35638432D01*
X44933154Y35046227D01*
X44933292Y34468647D01*
X44933375Y33907048D01*
X44933404Y33362786D01*
X44933381Y32837217D01*
X44933306Y32331699D01*
X44933181Y31847586D01*
X44933005Y31386235D01*
X44932780Y30949003D01*
X44932507Y30537244D01*
X44932187Y30152317D01*
X44931819Y29795576D01*
X44931406Y29468377D01*
X44930948Y29172078D01*
X44930446Y28908034D01*
X44929900Y28677602D01*
X44929312Y28482137D01*
X44928682Y28322995D01*
X44928012Y28201534D01*
X44927302Y28119108D01*
X44926552Y28077075D01*
X44926217Y28071753D01*
X44902172Y28019641D01*
X44872795Y27981795D01*
X44871043Y27980237D01*
X44868586Y27978718D01*
X44864893Y27977238D01*
X44859428Y27975796D01*
X44851660Y27974391D01*
X44841055Y27973024D01*
X44827079Y27971694D01*
X44809200Y27970400D01*
X44786885Y27969141D01*
X44759599Y27967918D01*
X44726811Y27966730D01*
X44687986Y27965575D01*
X44642591Y27964455D01*
X44590094Y27963368D01*
X44529961Y27962313D01*
X44461659Y27961291D01*
X44384654Y27960300D01*
X44298414Y27959340D01*
X44202405Y27958412D01*
X44096094Y27957513D01*
X43978948Y27956644D01*
X43850433Y27955805D01*
X43710017Y27954994D01*
X43557165Y27954211D01*
X43391346Y27953456D01*
X43212025Y27952729D01*
X43018670Y27952028D01*
X42810747Y27951353D01*
X42587723Y27950704D01*
X42349065Y27950080D01*
X42094240Y27949481D01*
X41822714Y27948906D01*
X41533954Y27948355D01*
X41227427Y27947827D01*
X40902600Y27947322D01*
X40558940Y27946839D01*
X40195913Y27946377D01*
X39812986Y27945937D01*
X39409626Y27945518D01*
X38985299Y27945119D01*
X38539473Y27944739D01*
X38071615Y27944379D01*
X37581190Y27944038D01*
X37067666Y27943715D01*
X36530510Y27943409D01*
X35969189Y27943121D01*
X35383168Y27942849D01*
X34771916Y27942594D01*
X34134898Y27942354D01*
X33471582Y27942130D01*
X32781434Y27941920D01*
X32063922Y27941725D01*
X31318511Y27941543D01*
X30544669Y27941375D01*
X29741863Y27941219D01*
X28909558Y27941075D01*
X28047223Y27940944D01*
X27154324Y27940823D01*
X26230327Y27940713D01*
X25274700Y27940614D01*
X24286909Y27940524D01*
X23266421Y27940443D01*
X22212703Y27940371D01*
X21125221Y27940307D01*
X20003443Y27940251D01*
X18846835Y27940203D01*
X17654864Y27940161D01*
X16426996Y27940125D01*
X15162699Y27940095D01*
X13861439Y27940070D01*
X12522684Y27940050D01*
X11145899Y27940034D01*
X9730552Y27940022D01*
X8276109Y27940013D01*
X6782038Y27940007D01*
X5247804Y27940003D01*
X3672876Y27940001D01*
X2056719Y27940000D01*
X-1383659Y27940000D01*
X-3003029Y27940002D01*
X-4581132Y27940005D01*
X-6118501Y27940010D01*
X-7615669Y27940018D01*
X-9073169Y27940029D01*
X-10491535Y27940043D01*
X-11871299Y27940062D01*
X-13212995Y27940085D01*
X-14517156Y27940112D01*
X-15784315Y27940146D01*
X-17015005Y27940185D01*
X-18209759Y27940231D01*
X-19369110Y27940284D01*
X-20493591Y27940344D01*
X-21583736Y27940412D01*
X-22640078Y27940488D01*
X-23663149Y27940574D01*
X-24653484Y27940668D01*
X-25611614Y27940773D01*
X-26538073Y27940887D01*
X-27433395Y27941013D01*
X-28298112Y27941150D01*
X-29132758Y27941299D01*
X-29937865Y27941459D01*
X-30713967Y27941633D01*
X-31461597Y27941820D01*
X-32181288Y27942020D01*
X-32873572Y27942235D01*
X-33538985Y27942464D01*
X-34178057Y27942709D01*
X-34791323Y27942969D01*
X-35379316Y27943245D01*
X-35942568Y27943538D01*
X-36481613Y27943848D01*
X-36996984Y27944175D01*
X-37489215Y27944521D01*
X-37958837Y27944885D01*
X-38406385Y27945268D01*
X-38832391Y27945671D01*
X-39237389Y27946093D01*
X-39621912Y27946536D01*
X-39986492Y27947000D01*
X-40331663Y27947486D01*
X-40657959Y27947993D01*
X-40965911Y27948523D01*
X-41256054Y27949076D01*
X-41528921Y27949652D01*
X-41785044Y27950252D01*
X-42024957Y27950876D01*
X-42249192Y27951525D01*
X-42458284Y27952199D01*
X-42652764Y27952899D01*
X-42833167Y27953626D01*
X-43000025Y27954379D01*
X-43153871Y27955159D01*
X-43295240Y27955968D01*
X-43424662Y27956804D01*
X-43542673Y27957669D01*
X-43649804Y27958563D01*
X-43746590Y27959487D01*
X-43833562Y27960441D01*
X-43911255Y27961426D01*
X-43980202Y27962441D01*
X-44040935Y27963489D01*
X-44093987Y27964568D01*
X-44139893Y27965680D01*
X-44179184Y27966825D01*
X-44212395Y27968004D01*
X-44240057Y27969216D01*
X-44262705Y27970463D01*
X-44280871Y27971745D01*
X-44295089Y27973063D01*
X-44305891Y27974416D01*
X-44313811Y27975806D01*
X-44319382Y27977233D01*
X-44323138Y27978697D01*
X-44325610Y27980199D01*
X-44325947Y27980463D01*
X-44375916Y28020926D01*
X-44386640Y46947666D01*
X44845606Y46947666D01*
X44885928Y46903111D01*
M02*
