G04 #@! TF.GenerationSoftware,KiCad,Pcbnew,(5.1.2)-1*
G04 #@! TF.CreationDate,2019-07-16T23:08:18-05:00*
G04 #@! TF.ProjectId,color-swatches,636f6c6f-722d-4737-9761-74636865732e,rev?*
G04 #@! TF.SameCoordinates,Original*
G04 #@! TF.FileFunction,Legend,Top*
G04 #@! TF.FilePolarity,Positive*
%FSLAX46Y46*%
G04 Gerber Fmt 4.6, Leading zero omitted, Abs format (unit mm)*
G04 Created by KiCad (PCBNEW (5.1.2)-1) date 2019-07-16 23:08:18*
%MOMM*%
%LPD*%
G04 APERTURE LIST*
%ADD10C,0.010000*%
G04 APERTURE END LIST*
D10*
G36*
X-22700334Y-40329403D02*
G01*
X-22586399Y-40351391D01*
X-22484682Y-40390375D01*
X-22390436Y-40448271D01*
X-22298909Y-40526991D01*
X-22282150Y-40543730D01*
X-22186077Y-40654801D01*
X-22107237Y-40775877D01*
X-22043614Y-40910831D01*
X-21993188Y-41063536D01*
X-21976109Y-41131108D01*
X-21962787Y-41193646D01*
X-21952919Y-41254801D01*
X-21945788Y-41321260D01*
X-21940676Y-41399712D01*
X-21936866Y-41496844D01*
X-21936854Y-41497250D01*
X-21936736Y-41686011D01*
X-21949376Y-41856849D01*
X-21975611Y-42014273D01*
X-22016279Y-42162788D01*
X-22072217Y-42306902D01*
X-22097360Y-42360850D01*
X-22167640Y-42489839D01*
X-22242981Y-42596253D01*
X-22326256Y-42682824D01*
X-22420339Y-42752282D01*
X-22528104Y-42807357D01*
X-22593300Y-42832183D01*
X-22646598Y-42844573D01*
X-22718029Y-42852979D01*
X-22800649Y-42857402D01*
X-22887511Y-42857842D01*
X-22971669Y-42854299D01*
X-23046176Y-42846773D01*
X-23104087Y-42835266D01*
X-23114000Y-42832168D01*
X-23236913Y-42778630D01*
X-23345957Y-42708091D01*
X-23437736Y-42623094D01*
X-23496897Y-42545688D01*
X-23533100Y-42489227D01*
X-23533100Y-43637200D01*
X-24104600Y-43637200D01*
X-24104600Y-41636950D01*
X-23525782Y-41636950D01*
X-23525688Y-41733941D01*
X-23525115Y-41809421D01*
X-23523771Y-41867278D01*
X-23521364Y-41911398D01*
X-23517602Y-41945670D01*
X-23512193Y-41973981D01*
X-23504845Y-42000219D01*
X-23496677Y-42024300D01*
X-23464384Y-42104245D01*
X-23427516Y-42169752D01*
X-23379618Y-42231713D01*
X-23362261Y-42251099D01*
X-23282947Y-42325647D01*
X-23202090Y-42376603D01*
X-23115874Y-42405674D01*
X-23020483Y-42414566D01*
X-22997939Y-42413986D01*
X-22930157Y-42407735D01*
X-22875041Y-42394052D01*
X-22830533Y-42375222D01*
X-22770684Y-42339481D01*
X-22720727Y-42293714D01*
X-22675868Y-42232663D01*
X-22637382Y-42163267D01*
X-22600342Y-42079733D01*
X-22572520Y-41992427D01*
X-22552780Y-41895928D01*
X-22539988Y-41784816D01*
X-22533444Y-41666916D01*
X-22534365Y-41487952D01*
X-22550083Y-41327127D01*
X-22580423Y-41185070D01*
X-22625211Y-41062407D01*
X-22684271Y-40959770D01*
X-22751756Y-40882927D01*
X-22818476Y-40831869D01*
X-22889919Y-40800213D01*
X-22974693Y-40784005D01*
X-23056397Y-40785684D01*
X-23142657Y-40804770D01*
X-23222487Y-40838577D01*
X-23239842Y-40848818D01*
X-23290744Y-40888568D01*
X-23345233Y-40943402D01*
X-23396336Y-41005304D01*
X-23437082Y-41066258D01*
X-23449643Y-41090094D01*
X-23472269Y-41141148D01*
X-23490020Y-41190257D01*
X-23503461Y-41241476D01*
X-23513156Y-41298857D01*
X-23519669Y-41366453D01*
X-23523565Y-41448317D01*
X-23525408Y-41548503D01*
X-23525782Y-41636950D01*
X-24104600Y-41636950D01*
X-24104600Y-40373300D01*
X-23558500Y-40373300D01*
X-23558500Y-40758283D01*
X-23496023Y-40669319D01*
X-23402321Y-40555350D01*
X-23297180Y-40464058D01*
X-23180522Y-40395402D01*
X-23052266Y-40349340D01*
X-22912334Y-40325831D01*
X-22831239Y-40322500D01*
X-22700334Y-40329403D01*
X-22700334Y-40329403D01*
G37*
X-22700334Y-40329403D02*
X-22586399Y-40351391D01*
X-22484682Y-40390375D01*
X-22390436Y-40448271D01*
X-22298909Y-40526991D01*
X-22282150Y-40543730D01*
X-22186077Y-40654801D01*
X-22107237Y-40775877D01*
X-22043614Y-40910831D01*
X-21993188Y-41063536D01*
X-21976109Y-41131108D01*
X-21962787Y-41193646D01*
X-21952919Y-41254801D01*
X-21945788Y-41321260D01*
X-21940676Y-41399712D01*
X-21936866Y-41496844D01*
X-21936854Y-41497250D01*
X-21936736Y-41686011D01*
X-21949376Y-41856849D01*
X-21975611Y-42014273D01*
X-22016279Y-42162788D01*
X-22072217Y-42306902D01*
X-22097360Y-42360850D01*
X-22167640Y-42489839D01*
X-22242981Y-42596253D01*
X-22326256Y-42682824D01*
X-22420339Y-42752282D01*
X-22528104Y-42807357D01*
X-22593300Y-42832183D01*
X-22646598Y-42844573D01*
X-22718029Y-42852979D01*
X-22800649Y-42857402D01*
X-22887511Y-42857842D01*
X-22971669Y-42854299D01*
X-23046176Y-42846773D01*
X-23104087Y-42835266D01*
X-23114000Y-42832168D01*
X-23236913Y-42778630D01*
X-23345957Y-42708091D01*
X-23437736Y-42623094D01*
X-23496897Y-42545688D01*
X-23533100Y-42489227D01*
X-23533100Y-43637200D01*
X-24104600Y-43637200D01*
X-24104600Y-41636950D01*
X-23525782Y-41636950D01*
X-23525688Y-41733941D01*
X-23525115Y-41809421D01*
X-23523771Y-41867278D01*
X-23521364Y-41911398D01*
X-23517602Y-41945670D01*
X-23512193Y-41973981D01*
X-23504845Y-42000219D01*
X-23496677Y-42024300D01*
X-23464384Y-42104245D01*
X-23427516Y-42169752D01*
X-23379618Y-42231713D01*
X-23362261Y-42251099D01*
X-23282947Y-42325647D01*
X-23202090Y-42376603D01*
X-23115874Y-42405674D01*
X-23020483Y-42414566D01*
X-22997939Y-42413986D01*
X-22930157Y-42407735D01*
X-22875041Y-42394052D01*
X-22830533Y-42375222D01*
X-22770684Y-42339481D01*
X-22720727Y-42293714D01*
X-22675868Y-42232663D01*
X-22637382Y-42163267D01*
X-22600342Y-42079733D01*
X-22572520Y-41992427D01*
X-22552780Y-41895928D01*
X-22539988Y-41784816D01*
X-22533444Y-41666916D01*
X-22534365Y-41487952D01*
X-22550083Y-41327127D01*
X-22580423Y-41185070D01*
X-22625211Y-41062407D01*
X-22684271Y-40959770D01*
X-22751756Y-40882927D01*
X-22818476Y-40831869D01*
X-22889919Y-40800213D01*
X-22974693Y-40784005D01*
X-23056397Y-40785684D01*
X-23142657Y-40804770D01*
X-23222487Y-40838577D01*
X-23239842Y-40848818D01*
X-23290744Y-40888568D01*
X-23345233Y-40943402D01*
X-23396336Y-41005304D01*
X-23437082Y-41066258D01*
X-23449643Y-41090094D01*
X-23472269Y-41141148D01*
X-23490020Y-41190257D01*
X-23503461Y-41241476D01*
X-23513156Y-41298857D01*
X-23519669Y-41366453D01*
X-23523565Y-41448317D01*
X-23525408Y-41548503D01*
X-23525782Y-41636950D01*
X-24104600Y-41636950D01*
X-24104600Y-40373300D01*
X-23558500Y-40373300D01*
X-23558500Y-40758283D01*
X-23496023Y-40669319D01*
X-23402321Y-40555350D01*
X-23297180Y-40464058D01*
X-23180522Y-40395402D01*
X-23052266Y-40349340D01*
X-22912334Y-40325831D01*
X-22831239Y-40322500D01*
X-22700334Y-40329403D01*
G36*
X-20081178Y-40326542D02*
G01*
X-19986024Y-40338347D01*
X-19904346Y-40357704D01*
X-19883407Y-40365042D01*
X-19762030Y-40425464D01*
X-19651987Y-40508448D01*
X-19553624Y-40613655D01*
X-19467285Y-40740747D01*
X-19430699Y-40808461D01*
X-19378226Y-40922774D01*
X-19337706Y-41034864D01*
X-19308046Y-41150050D01*
X-19288149Y-41273654D01*
X-19276920Y-41410995D01*
X-19273266Y-41567394D01*
X-19273262Y-41573450D01*
X-19277318Y-41738773D01*
X-19290326Y-41885635D01*
X-19313545Y-42019781D01*
X-19348232Y-42146958D01*
X-19395648Y-42272909D01*
X-19453572Y-42396553D01*
X-19490610Y-42466447D01*
X-19524255Y-42521168D01*
X-19560495Y-42569148D01*
X-19605314Y-42618819D01*
X-19627551Y-42641622D01*
X-19718537Y-42722787D01*
X-19812580Y-42783655D01*
X-19914096Y-42825950D01*
X-20027504Y-42851393D01*
X-20157219Y-42861708D01*
X-20193000Y-42862124D01*
X-20341156Y-42852316D01*
X-20473766Y-42822669D01*
X-20591554Y-42772853D01*
X-20695241Y-42702535D01*
X-20785550Y-42611385D01*
X-20811178Y-42578527D01*
X-20866100Y-42504105D01*
X-20866100Y-43637200D01*
X-21437600Y-43637200D01*
X-21437600Y-41595836D01*
X-20866218Y-41595836D01*
X-20865939Y-41692320D01*
X-20863627Y-41784305D01*
X-20859277Y-41866056D01*
X-20852883Y-41931836D01*
X-20847809Y-41962464D01*
X-20811658Y-42078631D01*
X-20756113Y-42182819D01*
X-20683455Y-42272194D01*
X-20595971Y-42343922D01*
X-20500564Y-42393389D01*
X-20426788Y-42411838D01*
X-20342376Y-42416366D01*
X-20258012Y-42406857D01*
X-20218177Y-42396477D01*
X-20137921Y-42357491D01*
X-20066414Y-42296313D01*
X-20004441Y-42214872D01*
X-19952782Y-42115095D01*
X-19912220Y-41998908D01*
X-19883536Y-41868238D01*
X-19867514Y-41725013D01*
X-19864934Y-41571159D01*
X-19866541Y-41530070D01*
X-19881810Y-41366013D01*
X-19909955Y-41220578D01*
X-19950631Y-41094563D01*
X-20003491Y-40988764D01*
X-20068187Y-40903976D01*
X-20144374Y-40840996D01*
X-20173826Y-40824183D01*
X-20216797Y-40804059D01*
X-20254231Y-40792519D01*
X-20296587Y-40787319D01*
X-20350948Y-40786210D01*
X-20409042Y-40787814D01*
X-20452689Y-40793922D01*
X-20492744Y-40806804D01*
X-20529610Y-40823569D01*
X-20622262Y-40882663D01*
X-20702530Y-40962166D01*
X-20768516Y-41059353D01*
X-20818324Y-41171501D01*
X-20847124Y-41279652D01*
X-20854917Y-41336763D01*
X-20860702Y-41412322D01*
X-20864470Y-41500592D01*
X-20866218Y-41595836D01*
X-21437600Y-41595836D01*
X-21437600Y-40373300D01*
X-20904200Y-40373300D01*
X-20904200Y-40773078D01*
X-20848861Y-40690664D01*
X-20759662Y-40577995D01*
X-20656437Y-40483330D01*
X-20542025Y-40408715D01*
X-20419262Y-40356197D01*
X-20363630Y-40340687D01*
X-20278367Y-40327287D01*
X-20181421Y-40322714D01*
X-20081178Y-40326542D01*
X-20081178Y-40326542D01*
G37*
X-20081178Y-40326542D02*
X-19986024Y-40338347D01*
X-19904346Y-40357704D01*
X-19883407Y-40365042D01*
X-19762030Y-40425464D01*
X-19651987Y-40508448D01*
X-19553624Y-40613655D01*
X-19467285Y-40740747D01*
X-19430699Y-40808461D01*
X-19378226Y-40922774D01*
X-19337706Y-41034864D01*
X-19308046Y-41150050D01*
X-19288149Y-41273654D01*
X-19276920Y-41410995D01*
X-19273266Y-41567394D01*
X-19273262Y-41573450D01*
X-19277318Y-41738773D01*
X-19290326Y-41885635D01*
X-19313545Y-42019781D01*
X-19348232Y-42146958D01*
X-19395648Y-42272909D01*
X-19453572Y-42396553D01*
X-19490610Y-42466447D01*
X-19524255Y-42521168D01*
X-19560495Y-42569148D01*
X-19605314Y-42618819D01*
X-19627551Y-42641622D01*
X-19718537Y-42722787D01*
X-19812580Y-42783655D01*
X-19914096Y-42825950D01*
X-20027504Y-42851393D01*
X-20157219Y-42861708D01*
X-20193000Y-42862124D01*
X-20341156Y-42852316D01*
X-20473766Y-42822669D01*
X-20591554Y-42772853D01*
X-20695241Y-42702535D01*
X-20785550Y-42611385D01*
X-20811178Y-42578527D01*
X-20866100Y-42504105D01*
X-20866100Y-43637200D01*
X-21437600Y-43637200D01*
X-21437600Y-41595836D01*
X-20866218Y-41595836D01*
X-20865939Y-41692320D01*
X-20863627Y-41784305D01*
X-20859277Y-41866056D01*
X-20852883Y-41931836D01*
X-20847809Y-41962464D01*
X-20811658Y-42078631D01*
X-20756113Y-42182819D01*
X-20683455Y-42272194D01*
X-20595971Y-42343922D01*
X-20500564Y-42393389D01*
X-20426788Y-42411838D01*
X-20342376Y-42416366D01*
X-20258012Y-42406857D01*
X-20218177Y-42396477D01*
X-20137921Y-42357491D01*
X-20066414Y-42296313D01*
X-20004441Y-42214872D01*
X-19952782Y-42115095D01*
X-19912220Y-41998908D01*
X-19883536Y-41868238D01*
X-19867514Y-41725013D01*
X-19864934Y-41571159D01*
X-19866541Y-41530070D01*
X-19881810Y-41366013D01*
X-19909955Y-41220578D01*
X-19950631Y-41094563D01*
X-20003491Y-40988764D01*
X-20068187Y-40903976D01*
X-20144374Y-40840996D01*
X-20173826Y-40824183D01*
X-20216797Y-40804059D01*
X-20254231Y-40792519D01*
X-20296587Y-40787319D01*
X-20350948Y-40786210D01*
X-20409042Y-40787814D01*
X-20452689Y-40793922D01*
X-20492744Y-40806804D01*
X-20529610Y-40823569D01*
X-20622262Y-40882663D01*
X-20702530Y-40962166D01*
X-20768516Y-41059353D01*
X-20818324Y-41171501D01*
X-20847124Y-41279652D01*
X-20854917Y-41336763D01*
X-20860702Y-41412322D01*
X-20864470Y-41500592D01*
X-20866218Y-41595836D01*
X-21437600Y-41595836D01*
X-21437600Y-40373300D01*
X-20904200Y-40373300D01*
X-20904200Y-40773078D01*
X-20848861Y-40690664D01*
X-20759662Y-40577995D01*
X-20656437Y-40483330D01*
X-20542025Y-40408715D01*
X-20419262Y-40356197D01*
X-20363630Y-40340687D01*
X-20278367Y-40327287D01*
X-20181421Y-40322714D01*
X-20081178Y-40326542D01*
G36*
X22289605Y-40330628D02*
G01*
X22407777Y-40355979D01*
X22514327Y-40400403D01*
X22613406Y-40465563D01*
X22694900Y-40538541D01*
X22795705Y-40657347D01*
X22881055Y-40795574D01*
X22950358Y-40952048D01*
X23003026Y-41125596D01*
X23013928Y-41173400D01*
X23024353Y-41226166D01*
X23031972Y-41276074D01*
X23037205Y-41328766D01*
X23040474Y-41389881D01*
X23042199Y-41465063D01*
X23042800Y-41559951D01*
X23042801Y-41560750D01*
X23039702Y-41721586D01*
X23029038Y-41863370D01*
X23009597Y-41991639D01*
X22980165Y-42111932D01*
X22939533Y-42229789D01*
X22886486Y-42350749D01*
X22856925Y-42410241D01*
X22818220Y-42481085D01*
X22780358Y-42538207D01*
X22735851Y-42591879D01*
X22688999Y-42640669D01*
X22640367Y-42686447D01*
X22590203Y-42728933D01*
X22545478Y-42762442D01*
X22521221Y-42777471D01*
X22420025Y-42819310D01*
X22304769Y-42847266D01*
X22181645Y-42861219D01*
X22056844Y-42861047D01*
X21936561Y-42846630D01*
X21826987Y-42817847D01*
X21766135Y-42792229D01*
X21649647Y-42721099D01*
X21552137Y-42634117D01*
X21509224Y-42582769D01*
X21450300Y-42504383D01*
X21450300Y-43637200D01*
X20878800Y-43637200D01*
X20878800Y-41677685D01*
X21451321Y-41677685D01*
X21451811Y-41765632D01*
X21454258Y-41843222D01*
X21458798Y-41905348D01*
X21462349Y-41931730D01*
X21493181Y-42046905D01*
X21543064Y-42152390D01*
X21609448Y-42244913D01*
X21689783Y-42321203D01*
X21781518Y-42377987D01*
X21823974Y-42395642D01*
X21895998Y-42411842D01*
X21977921Y-42415258D01*
X22059398Y-42406359D01*
X22130087Y-42385615D01*
X22139480Y-42381337D01*
X22218898Y-42328828D01*
X22288082Y-42253279D01*
X22346841Y-42154979D01*
X22394990Y-42034215D01*
X22417995Y-41953936D01*
X22428430Y-41909510D01*
X22435984Y-41867978D01*
X22441078Y-41823948D01*
X22444132Y-41772027D01*
X22445568Y-41706825D01*
X22445808Y-41622948D01*
X22445732Y-41598850D01*
X22445076Y-41510849D01*
X22443556Y-41442781D01*
X22440669Y-41389179D01*
X22435914Y-41344576D01*
X22428789Y-41303509D01*
X22418790Y-41260510D01*
X22412378Y-41235909D01*
X22370226Y-41106103D01*
X22318897Y-40997988D01*
X22258853Y-40912261D01*
X22190552Y-40849615D01*
X22136184Y-40819047D01*
X22038380Y-40789609D01*
X21941182Y-40784186D01*
X21846778Y-40801443D01*
X21757358Y-40840045D01*
X21675109Y-40898655D01*
X21602220Y-40975939D01*
X21540881Y-41070560D01*
X21493280Y-41181184D01*
X21481689Y-41218398D01*
X21473354Y-41261276D01*
X21466143Y-41324429D01*
X21460197Y-41402752D01*
X21455652Y-41491139D01*
X21452647Y-41584485D01*
X21451321Y-41677685D01*
X20878800Y-41677685D01*
X20878800Y-40373300D01*
X21412200Y-40373300D01*
X21412200Y-40773078D01*
X21467539Y-40690664D01*
X21503883Y-40642200D01*
X21550763Y-40587404D01*
X21599385Y-40536420D01*
X21610526Y-40525700D01*
X21710282Y-40445019D01*
X21816869Y-40385725D01*
X21933632Y-40346572D01*
X22063917Y-40326313D01*
X22155656Y-40322687D01*
X22289605Y-40330628D01*
X22289605Y-40330628D01*
G37*
X22289605Y-40330628D02*
X22407777Y-40355979D01*
X22514327Y-40400403D01*
X22613406Y-40465563D01*
X22694900Y-40538541D01*
X22795705Y-40657347D01*
X22881055Y-40795574D01*
X22950358Y-40952048D01*
X23003026Y-41125596D01*
X23013928Y-41173400D01*
X23024353Y-41226166D01*
X23031972Y-41276074D01*
X23037205Y-41328766D01*
X23040474Y-41389881D01*
X23042199Y-41465063D01*
X23042800Y-41559951D01*
X23042801Y-41560750D01*
X23039702Y-41721586D01*
X23029038Y-41863370D01*
X23009597Y-41991639D01*
X22980165Y-42111932D01*
X22939533Y-42229789D01*
X22886486Y-42350749D01*
X22856925Y-42410241D01*
X22818220Y-42481085D01*
X22780358Y-42538207D01*
X22735851Y-42591879D01*
X22688999Y-42640669D01*
X22640367Y-42686447D01*
X22590203Y-42728933D01*
X22545478Y-42762442D01*
X22521221Y-42777471D01*
X22420025Y-42819310D01*
X22304769Y-42847266D01*
X22181645Y-42861219D01*
X22056844Y-42861047D01*
X21936561Y-42846630D01*
X21826987Y-42817847D01*
X21766135Y-42792229D01*
X21649647Y-42721099D01*
X21552137Y-42634117D01*
X21509224Y-42582769D01*
X21450300Y-42504383D01*
X21450300Y-43637200D01*
X20878800Y-43637200D01*
X20878800Y-41677685D01*
X21451321Y-41677685D01*
X21451811Y-41765632D01*
X21454258Y-41843222D01*
X21458798Y-41905348D01*
X21462349Y-41931730D01*
X21493181Y-42046905D01*
X21543064Y-42152390D01*
X21609448Y-42244913D01*
X21689783Y-42321203D01*
X21781518Y-42377987D01*
X21823974Y-42395642D01*
X21895998Y-42411842D01*
X21977921Y-42415258D01*
X22059398Y-42406359D01*
X22130087Y-42385615D01*
X22139480Y-42381337D01*
X22218898Y-42328828D01*
X22288082Y-42253279D01*
X22346841Y-42154979D01*
X22394990Y-42034215D01*
X22417995Y-41953936D01*
X22428430Y-41909510D01*
X22435984Y-41867978D01*
X22441078Y-41823948D01*
X22444132Y-41772027D01*
X22445568Y-41706825D01*
X22445808Y-41622948D01*
X22445732Y-41598850D01*
X22445076Y-41510849D01*
X22443556Y-41442781D01*
X22440669Y-41389179D01*
X22435914Y-41344576D01*
X22428789Y-41303509D01*
X22418790Y-41260510D01*
X22412378Y-41235909D01*
X22370226Y-41106103D01*
X22318897Y-40997988D01*
X22258853Y-40912261D01*
X22190552Y-40849615D01*
X22136184Y-40819047D01*
X22038380Y-40789609D01*
X21941182Y-40784186D01*
X21846778Y-40801443D01*
X21757358Y-40840045D01*
X21675109Y-40898655D01*
X21602220Y-40975939D01*
X21540881Y-41070560D01*
X21493280Y-41181184D01*
X21481689Y-41218398D01*
X21473354Y-41261276D01*
X21466143Y-41324429D01*
X21460197Y-41402752D01*
X21455652Y-41491139D01*
X21452647Y-41584485D01*
X21451321Y-41677685D01*
X20878800Y-41677685D01*
X20878800Y-40373300D01*
X21412200Y-40373300D01*
X21412200Y-40773078D01*
X21467539Y-40690664D01*
X21503883Y-40642200D01*
X21550763Y-40587404D01*
X21599385Y-40536420D01*
X21610526Y-40525700D01*
X21710282Y-40445019D01*
X21816869Y-40385725D01*
X21933632Y-40346572D01*
X22063917Y-40326313D01*
X22155656Y-40322687D01*
X22289605Y-40330628D01*
G36*
X24899682Y-40325345D02*
G01*
X24981810Y-40333674D01*
X25019000Y-40341328D01*
X25145006Y-40386928D01*
X25260856Y-40455073D01*
X25365698Y-40544678D01*
X25458684Y-40654654D01*
X25538962Y-40783914D01*
X25605682Y-40931371D01*
X25657994Y-41095937D01*
X25678599Y-41184871D01*
X25697776Y-41311145D01*
X25707971Y-41453386D01*
X25709348Y-41603865D01*
X25702068Y-41754851D01*
X25686292Y-41898613D01*
X25662184Y-42027422D01*
X25660827Y-42033068D01*
X25609051Y-42209041D01*
X25544290Y-42365453D01*
X25467038Y-42501696D01*
X25377790Y-42617159D01*
X25277041Y-42711233D01*
X25165286Y-42783309D01*
X25043019Y-42832776D01*
X25003170Y-42843399D01*
X24896976Y-42859910D01*
X24781184Y-42863274D01*
X24662944Y-42854268D01*
X24549404Y-42833667D01*
X24447714Y-42802250D01*
X24392578Y-42777052D01*
X24346406Y-42746852D01*
X24291660Y-42702857D01*
X24235269Y-42651393D01*
X24184164Y-42598783D01*
X24145275Y-42551354D01*
X24145272Y-42551350D01*
X24118104Y-42513250D01*
X24117300Y-43637200D01*
X23545800Y-43637200D01*
X23545800Y-41644962D01*
X24116445Y-41644962D01*
X24117544Y-41738778D01*
X24120341Y-41826162D01*
X24124834Y-41902071D01*
X24131021Y-41961460D01*
X24136767Y-41992105D01*
X24177556Y-42103182D01*
X24237798Y-42203213D01*
X24314545Y-42288851D01*
X24404849Y-42356750D01*
X24496321Y-42400300D01*
X24564136Y-42414735D01*
X24643187Y-42416338D01*
X24723004Y-42405464D01*
X24773017Y-42390885D01*
X24825025Y-42365811D01*
X24877376Y-42331898D01*
X24901252Y-42312368D01*
X24943743Y-42262882D01*
X24986351Y-42195044D01*
X25025600Y-42115647D01*
X25058013Y-42031485D01*
X25074851Y-41973062D01*
X25101239Y-41833307D01*
X25114436Y-41689543D01*
X25115008Y-41545402D01*
X25103518Y-41404519D01*
X25080531Y-41270525D01*
X25046612Y-41147053D01*
X25002324Y-41037737D01*
X24948233Y-40946209D01*
X24907751Y-40897634D01*
X24844560Y-40842853D01*
X24777997Y-40807924D01*
X24701245Y-40790106D01*
X24631046Y-40786321D01*
X24574208Y-40787734D01*
X24531473Y-40793559D01*
X24491613Y-40806296D01*
X24444716Y-40827796D01*
X24353792Y-40886298D01*
X24274459Y-40965129D01*
X24209132Y-41060934D01*
X24160229Y-41170357D01*
X24136488Y-41255950D01*
X24129068Y-41306263D01*
X24123355Y-41375365D01*
X24119349Y-41458212D01*
X24117046Y-41549759D01*
X24116445Y-41644962D01*
X23545800Y-41644962D01*
X23545800Y-40373300D01*
X24079200Y-40373300D01*
X24079200Y-40771972D01*
X24118781Y-40709161D01*
X24200005Y-40599619D01*
X24295104Y-40504736D01*
X24400120Y-40427749D01*
X24511095Y-40371897D01*
X24546484Y-40359253D01*
X24621381Y-40341341D01*
X24710915Y-40329503D01*
X24806533Y-40324062D01*
X24899682Y-40325345D01*
X24899682Y-40325345D01*
G37*
X24899682Y-40325345D02*
X24981810Y-40333674D01*
X25019000Y-40341328D01*
X25145006Y-40386928D01*
X25260856Y-40455073D01*
X25365698Y-40544678D01*
X25458684Y-40654654D01*
X25538962Y-40783914D01*
X25605682Y-40931371D01*
X25657994Y-41095937D01*
X25678599Y-41184871D01*
X25697776Y-41311145D01*
X25707971Y-41453386D01*
X25709348Y-41603865D01*
X25702068Y-41754851D01*
X25686292Y-41898613D01*
X25662184Y-42027422D01*
X25660827Y-42033068D01*
X25609051Y-42209041D01*
X25544290Y-42365453D01*
X25467038Y-42501696D01*
X25377790Y-42617159D01*
X25277041Y-42711233D01*
X25165286Y-42783309D01*
X25043019Y-42832776D01*
X25003170Y-42843399D01*
X24896976Y-42859910D01*
X24781184Y-42863274D01*
X24662944Y-42854268D01*
X24549404Y-42833667D01*
X24447714Y-42802250D01*
X24392578Y-42777052D01*
X24346406Y-42746852D01*
X24291660Y-42702857D01*
X24235269Y-42651393D01*
X24184164Y-42598783D01*
X24145275Y-42551354D01*
X24145272Y-42551350D01*
X24118104Y-42513250D01*
X24117300Y-43637200D01*
X23545800Y-43637200D01*
X23545800Y-41644962D01*
X24116445Y-41644962D01*
X24117544Y-41738778D01*
X24120341Y-41826162D01*
X24124834Y-41902071D01*
X24131021Y-41961460D01*
X24136767Y-41992105D01*
X24177556Y-42103182D01*
X24237798Y-42203213D01*
X24314545Y-42288851D01*
X24404849Y-42356750D01*
X24496321Y-42400300D01*
X24564136Y-42414735D01*
X24643187Y-42416338D01*
X24723004Y-42405464D01*
X24773017Y-42390885D01*
X24825025Y-42365811D01*
X24877376Y-42331898D01*
X24901252Y-42312368D01*
X24943743Y-42262882D01*
X24986351Y-42195044D01*
X25025600Y-42115647D01*
X25058013Y-42031485D01*
X25074851Y-41973062D01*
X25101239Y-41833307D01*
X25114436Y-41689543D01*
X25115008Y-41545402D01*
X25103518Y-41404519D01*
X25080531Y-41270525D01*
X25046612Y-41147053D01*
X25002324Y-41037737D01*
X24948233Y-40946209D01*
X24907751Y-40897634D01*
X24844560Y-40842853D01*
X24777997Y-40807924D01*
X24701245Y-40790106D01*
X24631046Y-40786321D01*
X24574208Y-40787734D01*
X24531473Y-40793559D01*
X24491613Y-40806296D01*
X24444716Y-40827796D01*
X24353792Y-40886298D01*
X24274459Y-40965129D01*
X24209132Y-41060934D01*
X24160229Y-41170357D01*
X24136488Y-41255950D01*
X24129068Y-41306263D01*
X24123355Y-41375365D01*
X24119349Y-41458212D01*
X24117046Y-41549759D01*
X24116445Y-41644962D01*
X23545800Y-41644962D01*
X23545800Y-40373300D01*
X24079200Y-40373300D01*
X24079200Y-40771972D01*
X24118781Y-40709161D01*
X24200005Y-40599619D01*
X24295104Y-40504736D01*
X24400120Y-40427749D01*
X24511095Y-40371897D01*
X24546484Y-40359253D01*
X24621381Y-40341341D01*
X24710915Y-40329503D01*
X24806533Y-40324062D01*
X24899682Y-40325345D01*
G36*
X-27944153Y-40327261D02*
G01*
X-27857997Y-40337157D01*
X-27837049Y-40340989D01*
X-27706214Y-40378000D01*
X-27583608Y-40433369D01*
X-27473700Y-40504465D01*
X-27380958Y-40588659D01*
X-27346038Y-40630087D01*
X-27291702Y-40712191D01*
X-27239812Y-40811536D01*
X-27193847Y-40919987D01*
X-27157285Y-41029406D01*
X-27134975Y-41123759D01*
X-27126806Y-41169369D01*
X-27346078Y-41199062D01*
X-27419368Y-41208855D01*
X-27485112Y-41217394D01*
X-27538663Y-41224093D01*
X-27575375Y-41228370D01*
X-27589424Y-41229652D01*
X-27604071Y-41225377D01*
X-27615178Y-41207879D01*
X-27625400Y-41172088D01*
X-27629509Y-41153102D01*
X-27662368Y-41044635D01*
X-27712144Y-40952316D01*
X-27777526Y-40878021D01*
X-27857198Y-40823628D01*
X-27861494Y-40821484D01*
X-27899516Y-40804284D01*
X-27933534Y-40793739D01*
X-27972018Y-40788306D01*
X-28023439Y-40786442D01*
X-28054300Y-40786360D01*
X-28140378Y-40790606D01*
X-28209560Y-40804604D01*
X-28269333Y-40830991D01*
X-28327184Y-40872405D01*
X-28346580Y-40889323D01*
X-28409065Y-40957801D01*
X-28461285Y-41042064D01*
X-28504496Y-41144753D01*
X-28539956Y-41268508D01*
X-28551215Y-41319450D01*
X-28561329Y-41372517D01*
X-28568162Y-41420878D01*
X-28572090Y-41470968D01*
X-28573488Y-41529223D01*
X-28572732Y-41602079D01*
X-28571203Y-41662350D01*
X-28563582Y-41800437D01*
X-28548633Y-41917361D01*
X-28525281Y-42016576D01*
X-28492452Y-42101537D01*
X-28449071Y-42175697D01*
X-28394063Y-42242513D01*
X-28389142Y-42247629D01*
X-28317894Y-42307522D01*
X-28238700Y-42346343D01*
X-28160609Y-42365369D01*
X-28053926Y-42371004D01*
X-27955613Y-42353005D01*
X-27866632Y-42312036D01*
X-27787944Y-42248760D01*
X-27720508Y-42163837D01*
X-27665287Y-42057931D01*
X-27647450Y-42011600D01*
X-27631644Y-41968672D01*
X-27618117Y-41935422D01*
X-27609793Y-41919034D01*
X-27609783Y-41919022D01*
X-27595531Y-41917443D01*
X-27560954Y-41918140D01*
X-27510989Y-41920719D01*
X-27450571Y-41924787D01*
X-27384635Y-41929950D01*
X-27318116Y-41935813D01*
X-27255950Y-41941983D01*
X-27203072Y-41948065D01*
X-27164418Y-41953666D01*
X-27156124Y-41955237D01*
X-27142343Y-41960552D01*
X-27134954Y-41971918D01*
X-27134315Y-41992992D01*
X-27140779Y-42027427D01*
X-27154704Y-42078878D01*
X-27174583Y-42144950D01*
X-27234016Y-42303815D01*
X-27308743Y-42442578D01*
X-27399313Y-42561815D01*
X-27506273Y-42662104D01*
X-27630173Y-42744022D01*
X-27771558Y-42808148D01*
X-27819350Y-42824610D01*
X-27861896Y-42836744D01*
X-27905621Y-42845363D01*
X-27956686Y-42851185D01*
X-28021255Y-42854929D01*
X-28098750Y-42857174D01*
X-28170924Y-42857829D01*
X-28238787Y-42856877D01*
X-28296053Y-42854514D01*
X-28336433Y-42850939D01*
X-28345446Y-42849430D01*
X-28494538Y-42805880D01*
X-28630894Y-42740666D01*
X-28753930Y-42654431D01*
X-28863059Y-42547818D01*
X-28957695Y-42421468D01*
X-29037253Y-42276025D01*
X-29101147Y-42112131D01*
X-29137703Y-41980604D01*
X-29147123Y-41937297D01*
X-29154134Y-41895255D01*
X-29159078Y-41849621D01*
X-29162296Y-41795542D01*
X-29164132Y-41728162D01*
X-29164926Y-41642627D01*
X-29165039Y-41592500D01*
X-29164841Y-41498172D01*
X-29163847Y-41424483D01*
X-29161708Y-41366676D01*
X-29158075Y-41319993D01*
X-29152601Y-41279679D01*
X-29144937Y-41240975D01*
X-29136824Y-41207307D01*
X-29089048Y-41049027D01*
X-29029844Y-40909732D01*
X-28956566Y-40784573D01*
X-28866570Y-40668699D01*
X-28809950Y-40608142D01*
X-28712721Y-40519830D01*
X-28612991Y-40450811D01*
X-28502776Y-40396214D01*
X-28403550Y-40360238D01*
X-28332302Y-40343479D01*
X-28243404Y-40331553D01*
X-28144191Y-40324708D01*
X-28041996Y-40323195D01*
X-27944153Y-40327261D01*
X-27944153Y-40327261D01*
G37*
X-27944153Y-40327261D02*
X-27857997Y-40337157D01*
X-27837049Y-40340989D01*
X-27706214Y-40378000D01*
X-27583608Y-40433369D01*
X-27473700Y-40504465D01*
X-27380958Y-40588659D01*
X-27346038Y-40630087D01*
X-27291702Y-40712191D01*
X-27239812Y-40811536D01*
X-27193847Y-40919987D01*
X-27157285Y-41029406D01*
X-27134975Y-41123759D01*
X-27126806Y-41169369D01*
X-27346078Y-41199062D01*
X-27419368Y-41208855D01*
X-27485112Y-41217394D01*
X-27538663Y-41224093D01*
X-27575375Y-41228370D01*
X-27589424Y-41229652D01*
X-27604071Y-41225377D01*
X-27615178Y-41207879D01*
X-27625400Y-41172088D01*
X-27629509Y-41153102D01*
X-27662368Y-41044635D01*
X-27712144Y-40952316D01*
X-27777526Y-40878021D01*
X-27857198Y-40823628D01*
X-27861494Y-40821484D01*
X-27899516Y-40804284D01*
X-27933534Y-40793739D01*
X-27972018Y-40788306D01*
X-28023439Y-40786442D01*
X-28054300Y-40786360D01*
X-28140378Y-40790606D01*
X-28209560Y-40804604D01*
X-28269333Y-40830991D01*
X-28327184Y-40872405D01*
X-28346580Y-40889323D01*
X-28409065Y-40957801D01*
X-28461285Y-41042064D01*
X-28504496Y-41144753D01*
X-28539956Y-41268508D01*
X-28551215Y-41319450D01*
X-28561329Y-41372517D01*
X-28568162Y-41420878D01*
X-28572090Y-41470968D01*
X-28573488Y-41529223D01*
X-28572732Y-41602079D01*
X-28571203Y-41662350D01*
X-28563582Y-41800437D01*
X-28548633Y-41917361D01*
X-28525281Y-42016576D01*
X-28492452Y-42101537D01*
X-28449071Y-42175697D01*
X-28394063Y-42242513D01*
X-28389142Y-42247629D01*
X-28317894Y-42307522D01*
X-28238700Y-42346343D01*
X-28160609Y-42365369D01*
X-28053926Y-42371004D01*
X-27955613Y-42353005D01*
X-27866632Y-42312036D01*
X-27787944Y-42248760D01*
X-27720508Y-42163837D01*
X-27665287Y-42057931D01*
X-27647450Y-42011600D01*
X-27631644Y-41968672D01*
X-27618117Y-41935422D01*
X-27609793Y-41919034D01*
X-27609783Y-41919022D01*
X-27595531Y-41917443D01*
X-27560954Y-41918140D01*
X-27510989Y-41920719D01*
X-27450571Y-41924787D01*
X-27384635Y-41929950D01*
X-27318116Y-41935813D01*
X-27255950Y-41941983D01*
X-27203072Y-41948065D01*
X-27164418Y-41953666D01*
X-27156124Y-41955237D01*
X-27142343Y-41960552D01*
X-27134954Y-41971918D01*
X-27134315Y-41992992D01*
X-27140779Y-42027427D01*
X-27154704Y-42078878D01*
X-27174583Y-42144950D01*
X-27234016Y-42303815D01*
X-27308743Y-42442578D01*
X-27399313Y-42561815D01*
X-27506273Y-42662104D01*
X-27630173Y-42744022D01*
X-27771558Y-42808148D01*
X-27819350Y-42824610D01*
X-27861896Y-42836744D01*
X-27905621Y-42845363D01*
X-27956686Y-42851185D01*
X-28021255Y-42854929D01*
X-28098750Y-42857174D01*
X-28170924Y-42857829D01*
X-28238787Y-42856877D01*
X-28296053Y-42854514D01*
X-28336433Y-42850939D01*
X-28345446Y-42849430D01*
X-28494538Y-42805880D01*
X-28630894Y-42740666D01*
X-28753930Y-42654431D01*
X-28863059Y-42547818D01*
X-28957695Y-42421468D01*
X-29037253Y-42276025D01*
X-29101147Y-42112131D01*
X-29137703Y-41980604D01*
X-29147123Y-41937297D01*
X-29154134Y-41895255D01*
X-29159078Y-41849621D01*
X-29162296Y-41795542D01*
X-29164132Y-41728162D01*
X-29164926Y-41642627D01*
X-29165039Y-41592500D01*
X-29164841Y-41498172D01*
X-29163847Y-41424483D01*
X-29161708Y-41366676D01*
X-29158075Y-41319993D01*
X-29152601Y-41279679D01*
X-29144937Y-41240975D01*
X-29136824Y-41207307D01*
X-29089048Y-41049027D01*
X-29029844Y-40909732D01*
X-28956566Y-40784573D01*
X-28866570Y-40668699D01*
X-28809950Y-40608142D01*
X-28712721Y-40519830D01*
X-28612991Y-40450811D01*
X-28502776Y-40396214D01*
X-28403550Y-40360238D01*
X-28332302Y-40343479D01*
X-28243404Y-40331553D01*
X-28144191Y-40324708D01*
X-28041996Y-40323195D01*
X-27944153Y-40327261D01*
G36*
X-25563841Y-40330184D02*
G01*
X-25422401Y-40354011D01*
X-25292868Y-40395515D01*
X-25170925Y-40456065D01*
X-25057100Y-40533299D01*
X-24932782Y-40644118D01*
X-24827574Y-40771486D01*
X-24741403Y-40915526D01*
X-24674199Y-41076364D01*
X-24625889Y-41254121D01*
X-24618058Y-41294050D01*
X-24606350Y-41385274D01*
X-24600574Y-41493292D01*
X-24600467Y-41610611D01*
X-24605766Y-41729741D01*
X-24616210Y-41843188D01*
X-24631534Y-41943461D01*
X-24642535Y-41992550D01*
X-24698019Y-42159668D01*
X-24773003Y-42312310D01*
X-24866201Y-42449207D01*
X-24976323Y-42569093D01*
X-25102082Y-42670702D01*
X-25242191Y-42752769D01*
X-25395360Y-42814025D01*
X-25507950Y-42843489D01*
X-25554666Y-42850197D01*
X-25619241Y-42855429D01*
X-25694491Y-42859021D01*
X-25773234Y-42860811D01*
X-25848287Y-42860635D01*
X-25912467Y-42858332D01*
X-25958593Y-42853738D01*
X-25958800Y-42853703D01*
X-26114896Y-42815444D01*
X-26258001Y-42755414D01*
X-26387944Y-42673771D01*
X-26504553Y-42570673D01*
X-26607655Y-42446279D01*
X-26697080Y-42300745D01*
X-26772654Y-42134231D01*
X-26788326Y-42092239D01*
X-26833925Y-41932964D01*
X-26861243Y-41763632D01*
X-26870465Y-41589236D01*
X-26870093Y-41581757D01*
X-26274486Y-41581757D01*
X-26271862Y-41670624D01*
X-26255156Y-41831816D01*
X-26224217Y-41974079D01*
X-26179369Y-42096881D01*
X-26120936Y-42199694D01*
X-26049242Y-42281988D01*
X-25964610Y-42343233D01*
X-25867364Y-42382899D01*
X-25831225Y-42391426D01*
X-25783859Y-42399794D01*
X-25746238Y-42403038D01*
X-25707631Y-42401189D01*
X-25657306Y-42394281D01*
X-25643054Y-42391997D01*
X-25539401Y-42364469D01*
X-25449643Y-42317508D01*
X-25373488Y-42250660D01*
X-25310646Y-42163474D01*
X-25260828Y-42055496D01*
X-25223742Y-41926274D01*
X-25199099Y-41775356D01*
X-25191054Y-41687416D01*
X-25188343Y-41585713D01*
X-25192795Y-41474279D01*
X-25203587Y-41363086D01*
X-25219899Y-41262107D01*
X-25229579Y-41219685D01*
X-25270104Y-41099460D01*
X-25324865Y-40996143D01*
X-25392483Y-40911638D01*
X-25471579Y-40847845D01*
X-25516834Y-40823468D01*
X-25557763Y-40806120D01*
X-25593580Y-40795295D01*
X-25632741Y-40789505D01*
X-25683703Y-40787259D01*
X-25723850Y-40786993D01*
X-25786165Y-40787827D01*
X-25831531Y-40791314D01*
X-25868372Y-40798925D01*
X-25905112Y-40812134D01*
X-25929875Y-40823023D01*
X-26017412Y-40876652D01*
X-26093366Y-40951473D01*
X-26157026Y-41045723D01*
X-26207678Y-41157640D01*
X-26244614Y-41285460D01*
X-26267120Y-41427420D01*
X-26274486Y-41581757D01*
X-26870093Y-41581757D01*
X-26861775Y-41414773D01*
X-26835360Y-41245236D01*
X-26791404Y-41085620D01*
X-26746859Y-40975040D01*
X-26661793Y-40818990D01*
X-26562588Y-40684035D01*
X-26449411Y-40570280D01*
X-26322425Y-40477829D01*
X-26181796Y-40406789D01*
X-26027688Y-40357263D01*
X-25860267Y-40329357D01*
X-25721506Y-40322666D01*
X-25563841Y-40330184D01*
X-25563841Y-40330184D01*
G37*
X-25563841Y-40330184D02*
X-25422401Y-40354011D01*
X-25292868Y-40395515D01*
X-25170925Y-40456065D01*
X-25057100Y-40533299D01*
X-24932782Y-40644118D01*
X-24827574Y-40771486D01*
X-24741403Y-40915526D01*
X-24674199Y-41076364D01*
X-24625889Y-41254121D01*
X-24618058Y-41294050D01*
X-24606350Y-41385274D01*
X-24600574Y-41493292D01*
X-24600467Y-41610611D01*
X-24605766Y-41729741D01*
X-24616210Y-41843188D01*
X-24631534Y-41943461D01*
X-24642535Y-41992550D01*
X-24698019Y-42159668D01*
X-24773003Y-42312310D01*
X-24866201Y-42449207D01*
X-24976323Y-42569093D01*
X-25102082Y-42670702D01*
X-25242191Y-42752769D01*
X-25395360Y-42814025D01*
X-25507950Y-42843489D01*
X-25554666Y-42850197D01*
X-25619241Y-42855429D01*
X-25694491Y-42859021D01*
X-25773234Y-42860811D01*
X-25848287Y-42860635D01*
X-25912467Y-42858332D01*
X-25958593Y-42853738D01*
X-25958800Y-42853703D01*
X-26114896Y-42815444D01*
X-26258001Y-42755414D01*
X-26387944Y-42673771D01*
X-26504553Y-42570673D01*
X-26607655Y-42446279D01*
X-26697080Y-42300745D01*
X-26772654Y-42134231D01*
X-26788326Y-42092239D01*
X-26833925Y-41932964D01*
X-26861243Y-41763632D01*
X-26870465Y-41589236D01*
X-26870093Y-41581757D01*
X-26274486Y-41581757D01*
X-26271862Y-41670624D01*
X-26255156Y-41831816D01*
X-26224217Y-41974079D01*
X-26179369Y-42096881D01*
X-26120936Y-42199694D01*
X-26049242Y-42281988D01*
X-25964610Y-42343233D01*
X-25867364Y-42382899D01*
X-25831225Y-42391426D01*
X-25783859Y-42399794D01*
X-25746238Y-42403038D01*
X-25707631Y-42401189D01*
X-25657306Y-42394281D01*
X-25643054Y-42391997D01*
X-25539401Y-42364469D01*
X-25449643Y-42317508D01*
X-25373488Y-42250660D01*
X-25310646Y-42163474D01*
X-25260828Y-42055496D01*
X-25223742Y-41926274D01*
X-25199099Y-41775356D01*
X-25191054Y-41687416D01*
X-25188343Y-41585713D01*
X-25192795Y-41474279D01*
X-25203587Y-41363086D01*
X-25219899Y-41262107D01*
X-25229579Y-41219685D01*
X-25270104Y-41099460D01*
X-25324865Y-40996143D01*
X-25392483Y-40911638D01*
X-25471579Y-40847845D01*
X-25516834Y-40823468D01*
X-25557763Y-40806120D01*
X-25593580Y-40795295D01*
X-25632741Y-40789505D01*
X-25683703Y-40787259D01*
X-25723850Y-40786993D01*
X-25786165Y-40787827D01*
X-25831531Y-40791314D01*
X-25868372Y-40798925D01*
X-25905112Y-40812134D01*
X-25929875Y-40823023D01*
X-26017412Y-40876652D01*
X-26093366Y-40951473D01*
X-26157026Y-41045723D01*
X-26207678Y-41157640D01*
X-26244614Y-41285460D01*
X-26267120Y-41427420D01*
X-26274486Y-41581757D01*
X-26870093Y-41581757D01*
X-26861775Y-41414773D01*
X-26835360Y-41245236D01*
X-26791404Y-41085620D01*
X-26746859Y-40975040D01*
X-26661793Y-40818990D01*
X-26562588Y-40684035D01*
X-26449411Y-40570280D01*
X-26322425Y-40477829D01*
X-26181796Y-40406789D01*
X-26027688Y-40357263D01*
X-25860267Y-40329357D01*
X-25721506Y-40322666D01*
X-25563841Y-40330184D01*
G36*
X-17714072Y-40325895D02*
G01*
X-17599097Y-40332928D01*
X-17501957Y-40345945D01*
X-17415447Y-40366672D01*
X-17332363Y-40396830D01*
X-17246049Y-40437859D01*
X-17126214Y-40514243D01*
X-17018112Y-40611556D01*
X-16922818Y-40727671D01*
X-16841401Y-40860463D01*
X-16774934Y-41007808D01*
X-16724489Y-41167578D01*
X-16691138Y-41337649D01*
X-16675953Y-41515895D01*
X-16675100Y-41569941D01*
X-16675100Y-41668700D01*
X-18353781Y-41668700D01*
X-18345150Y-41779825D01*
X-18328126Y-41920682D01*
X-18299866Y-42040390D01*
X-18259126Y-42141149D01*
X-18204665Y-42225159D01*
X-18135241Y-42294623D01*
X-18049612Y-42351740D01*
X-18011437Y-42371200D01*
X-17974436Y-42388114D01*
X-17943633Y-42399510D01*
X-17912456Y-42406476D01*
X-17874332Y-42410096D01*
X-17822690Y-42411457D01*
X-17766621Y-42411650D01*
X-17700183Y-42411427D01*
X-17652463Y-42409927D01*
X-17616780Y-42405898D01*
X-17586453Y-42398092D01*
X-17554800Y-42385257D01*
X-17515141Y-42366145D01*
X-17510112Y-42363660D01*
X-17414588Y-42304223D01*
X-17337863Y-42228799D01*
X-17277642Y-42134981D01*
X-17263407Y-42105050D01*
X-17243470Y-42062514D01*
X-17228534Y-42038956D01*
X-17214369Y-42029690D01*
X-17196744Y-42030033D01*
X-17195800Y-42030200D01*
X-17172946Y-42033684D01*
X-17129808Y-42039707D01*
X-17071297Y-42047602D01*
X-17002326Y-42056704D01*
X-16948150Y-42063735D01*
X-16876732Y-42073305D01*
X-16814215Y-42082381D01*
X-16764908Y-42090281D01*
X-16733119Y-42096324D01*
X-16723237Y-42099324D01*
X-16722130Y-42115668D01*
X-16731692Y-42149167D01*
X-16749752Y-42195064D01*
X-16774135Y-42248601D01*
X-16802670Y-42305020D01*
X-16833184Y-42359562D01*
X-16863504Y-42407469D01*
X-16864813Y-42409370D01*
X-16967490Y-42536278D01*
X-17085868Y-42643464D01*
X-17218744Y-42730161D01*
X-17364910Y-42795602D01*
X-17523162Y-42839020D01*
X-17546932Y-42843423D01*
X-17622990Y-42853116D01*
X-17712667Y-42858937D01*
X-17808336Y-42860895D01*
X-17902370Y-42858999D01*
X-17987143Y-42853261D01*
X-18055029Y-42843688D01*
X-18059400Y-42842778D01*
X-18218581Y-42796346D01*
X-18364519Y-42728798D01*
X-18496108Y-42641331D01*
X-18612244Y-42535142D01*
X-18711821Y-42411427D01*
X-18793733Y-42271383D01*
X-18856875Y-42116207D01*
X-18900142Y-41947096D01*
X-18903405Y-41929050D01*
X-18927501Y-41733680D01*
X-18931358Y-41544537D01*
X-18915713Y-41363187D01*
X-18903151Y-41300400D01*
X-18347655Y-41300400D01*
X-17256917Y-41300400D01*
X-17265974Y-41233725D01*
X-17291685Y-41114539D01*
X-17333900Y-41008237D01*
X-17377787Y-40936487D01*
X-17436271Y-40866768D01*
X-17499754Y-40812841D01*
X-17577331Y-40767321D01*
X-17599210Y-40756755D01*
X-17637190Y-40740480D01*
X-17671879Y-40730335D01*
X-17711420Y-40724933D01*
X-17763958Y-40722886D01*
X-17799050Y-40722686D01*
X-17861260Y-40723511D01*
X-17906326Y-40726942D01*
X-17942476Y-40734410D01*
X-17977939Y-40747348D01*
X-18001363Y-40757887D01*
X-18105463Y-40819709D01*
X-18191452Y-40899236D01*
X-18259078Y-40996109D01*
X-18308087Y-41109970D01*
X-18337127Y-41233262D01*
X-18347655Y-41300400D01*
X-18903151Y-41300400D01*
X-18881301Y-41191194D01*
X-18828859Y-41030123D01*
X-18759124Y-40881539D01*
X-18672831Y-40747008D01*
X-18570718Y-40628095D01*
X-18453520Y-40526365D01*
X-18321975Y-40443382D01*
X-18176817Y-40380712D01*
X-18174570Y-40379945D01*
X-18083184Y-40353080D01*
X-17990972Y-40335378D01*
X-17891116Y-40326041D01*
X-17776799Y-40324268D01*
X-17714072Y-40325895D01*
X-17714072Y-40325895D01*
G37*
X-17714072Y-40325895D02*
X-17599097Y-40332928D01*
X-17501957Y-40345945D01*
X-17415447Y-40366672D01*
X-17332363Y-40396830D01*
X-17246049Y-40437859D01*
X-17126214Y-40514243D01*
X-17018112Y-40611556D01*
X-16922818Y-40727671D01*
X-16841401Y-40860463D01*
X-16774934Y-41007808D01*
X-16724489Y-41167578D01*
X-16691138Y-41337649D01*
X-16675953Y-41515895D01*
X-16675100Y-41569941D01*
X-16675100Y-41668700D01*
X-18353781Y-41668700D01*
X-18345150Y-41779825D01*
X-18328126Y-41920682D01*
X-18299866Y-42040390D01*
X-18259126Y-42141149D01*
X-18204665Y-42225159D01*
X-18135241Y-42294623D01*
X-18049612Y-42351740D01*
X-18011437Y-42371200D01*
X-17974436Y-42388114D01*
X-17943633Y-42399510D01*
X-17912456Y-42406476D01*
X-17874332Y-42410096D01*
X-17822690Y-42411457D01*
X-17766621Y-42411650D01*
X-17700183Y-42411427D01*
X-17652463Y-42409927D01*
X-17616780Y-42405898D01*
X-17586453Y-42398092D01*
X-17554800Y-42385257D01*
X-17515141Y-42366145D01*
X-17510112Y-42363660D01*
X-17414588Y-42304223D01*
X-17337863Y-42228799D01*
X-17277642Y-42134981D01*
X-17263407Y-42105050D01*
X-17243470Y-42062514D01*
X-17228534Y-42038956D01*
X-17214369Y-42029690D01*
X-17196744Y-42030033D01*
X-17195800Y-42030200D01*
X-17172946Y-42033684D01*
X-17129808Y-42039707D01*
X-17071297Y-42047602D01*
X-17002326Y-42056704D01*
X-16948150Y-42063735D01*
X-16876732Y-42073305D01*
X-16814215Y-42082381D01*
X-16764908Y-42090281D01*
X-16733119Y-42096324D01*
X-16723237Y-42099324D01*
X-16722130Y-42115668D01*
X-16731692Y-42149167D01*
X-16749752Y-42195064D01*
X-16774135Y-42248601D01*
X-16802670Y-42305020D01*
X-16833184Y-42359562D01*
X-16863504Y-42407469D01*
X-16864813Y-42409370D01*
X-16967490Y-42536278D01*
X-17085868Y-42643464D01*
X-17218744Y-42730161D01*
X-17364910Y-42795602D01*
X-17523162Y-42839020D01*
X-17546932Y-42843423D01*
X-17622990Y-42853116D01*
X-17712667Y-42858937D01*
X-17808336Y-42860895D01*
X-17902370Y-42858999D01*
X-17987143Y-42853261D01*
X-18055029Y-42843688D01*
X-18059400Y-42842778D01*
X-18218581Y-42796346D01*
X-18364519Y-42728798D01*
X-18496108Y-42641331D01*
X-18612244Y-42535142D01*
X-18711821Y-42411427D01*
X-18793733Y-42271383D01*
X-18856875Y-42116207D01*
X-18900142Y-41947096D01*
X-18903405Y-41929050D01*
X-18927501Y-41733680D01*
X-18931358Y-41544537D01*
X-18915713Y-41363187D01*
X-18903151Y-41300400D01*
X-18347655Y-41300400D01*
X-17256917Y-41300400D01*
X-17265974Y-41233725D01*
X-17291685Y-41114539D01*
X-17333900Y-41008237D01*
X-17377787Y-40936487D01*
X-17436271Y-40866768D01*
X-17499754Y-40812841D01*
X-17577331Y-40767321D01*
X-17599210Y-40756755D01*
X-17637190Y-40740480D01*
X-17671879Y-40730335D01*
X-17711420Y-40724933D01*
X-17763958Y-40722886D01*
X-17799050Y-40722686D01*
X-17861260Y-40723511D01*
X-17906326Y-40726942D01*
X-17942476Y-40734410D01*
X-17977939Y-40747348D01*
X-18001363Y-40757887D01*
X-18105463Y-40819709D01*
X-18191452Y-40899236D01*
X-18259078Y-40996109D01*
X-18308087Y-41109970D01*
X-18337127Y-41233262D01*
X-18347655Y-41300400D01*
X-18903151Y-41300400D01*
X-18881301Y-41191194D01*
X-18828859Y-41030123D01*
X-18759124Y-40881539D01*
X-18672831Y-40747008D01*
X-18570718Y-40628095D01*
X-18453520Y-40526365D01*
X-18321975Y-40443382D01*
X-18176817Y-40380712D01*
X-18174570Y-40379945D01*
X-18083184Y-40353080D01*
X-17990972Y-40335378D01*
X-17891116Y-40326041D01*
X-17776799Y-40324268D01*
X-17714072Y-40325895D01*
G36*
X16695400Y-39468954D02*
G01*
X16777578Y-39472913D01*
X16843679Y-39480110D01*
X16887729Y-39488334D01*
X17055143Y-39538804D01*
X17208740Y-39610298D01*
X17347707Y-39702024D01*
X17471233Y-39813189D01*
X17578507Y-39942999D01*
X17668717Y-40090662D01*
X17741052Y-40255386D01*
X17773005Y-40353254D01*
X17790791Y-40418397D01*
X17806450Y-40482727D01*
X17818996Y-40541330D01*
X17827446Y-40589294D01*
X17830814Y-40621708D01*
X17829130Y-40633202D01*
X17814710Y-40636780D01*
X17779654Y-40642013D01*
X17728467Y-40648449D01*
X17665656Y-40655634D01*
X17595726Y-40663117D01*
X17523184Y-40670443D01*
X17452535Y-40677161D01*
X17388287Y-40682818D01*
X17334944Y-40686960D01*
X17297014Y-40689135D01*
X17279001Y-40688891D01*
X17278225Y-40688559D01*
X17272076Y-40673909D01*
X17261398Y-40640379D01*
X17247953Y-40593696D01*
X17239425Y-40562264D01*
X17208472Y-40464924D01*
X17168050Y-40366481D01*
X17121612Y-40274000D01*
X17072611Y-40194550D01*
X17037744Y-40149452D01*
X16949462Y-40067215D01*
X16848597Y-40006672D01*
X16737166Y-39968734D01*
X16617189Y-39954313D01*
X16605250Y-39954200D01*
X16485365Y-39965764D01*
X16376001Y-40000296D01*
X16277357Y-40057555D01*
X16189634Y-40137299D01*
X16113029Y-40239290D01*
X16047745Y-40363284D01*
X15993979Y-40509042D01*
X15951933Y-40676322D01*
X15936546Y-40760650D01*
X15930298Y-40815150D01*
X15925463Y-40891609D01*
X15922181Y-40986620D01*
X15920590Y-41096773D01*
X15920469Y-41154350D01*
X15921839Y-41286534D01*
X15925868Y-41398414D01*
X15933149Y-41495003D01*
X15944278Y-41581312D01*
X15959848Y-41662354D01*
X15980455Y-41743140D01*
X15996767Y-41797680D01*
X16049566Y-41934957D01*
X16116058Y-42055451D01*
X16194834Y-42157586D01*
X16284482Y-42239788D01*
X16383595Y-42300484D01*
X16477743Y-42334912D01*
X16594354Y-42352657D01*
X16711166Y-42346819D01*
X16823540Y-42318040D01*
X16914503Y-42274587D01*
X17004116Y-42207446D01*
X17085687Y-42120245D01*
X17155976Y-42017868D01*
X17211737Y-41905199D01*
X17249729Y-41787120D01*
X17255270Y-41761465D01*
X17265636Y-41710754D01*
X17273898Y-41680306D01*
X17282614Y-41665417D01*
X17294341Y-41661383D01*
X17308792Y-41663009D01*
X17331559Y-41666135D01*
X17374974Y-41671439D01*
X17434430Y-41678385D01*
X17505320Y-41686433D01*
X17583038Y-41695045D01*
X17583073Y-41695049D01*
X17658477Y-41703558D01*
X17724844Y-41711528D01*
X17778181Y-41718440D01*
X17814498Y-41723775D01*
X17829801Y-41727015D01*
X17829972Y-41727139D01*
X17831944Y-41743718D01*
X17828111Y-41779473D01*
X17819551Y-41829128D01*
X17807344Y-41887409D01*
X17792569Y-41949043D01*
X17776304Y-42008754D01*
X17764670Y-42046397D01*
X17699393Y-42206312D01*
X17613990Y-42352715D01*
X17510210Y-42483932D01*
X17389802Y-42598290D01*
X17254515Y-42694115D01*
X17106096Y-42769734D01*
X16955307Y-42821125D01*
X16903393Y-42833876D01*
X16854785Y-42843094D01*
X16803119Y-42849465D01*
X16742026Y-42853673D01*
X16665142Y-42856405D01*
X16617950Y-42857448D01*
X16505327Y-42858175D01*
X16414488Y-42855450D01*
X16342033Y-42849119D01*
X16305290Y-42843399D01*
X16148433Y-42802900D01*
X16006252Y-42742584D01*
X15875847Y-42660967D01*
X15765904Y-42567835D01*
X15644955Y-42434459D01*
X15539540Y-42282241D01*
X15450173Y-42112822D01*
X15377365Y-41927842D01*
X15321628Y-41728941D01*
X15283476Y-41517759D01*
X15263421Y-41295936D01*
X15261975Y-41065113D01*
X15266750Y-40970200D01*
X15291636Y-40744076D01*
X15335159Y-40532547D01*
X15396992Y-40336432D01*
X15476810Y-40156554D01*
X15574287Y-39993735D01*
X15689095Y-39848794D01*
X15728675Y-39807096D01*
X15844538Y-39703094D01*
X15966639Y-39620091D01*
X16100278Y-39555060D01*
X16250760Y-39504969D01*
X16263352Y-39501604D01*
X16316441Y-39488458D01*
X16363536Y-39479242D01*
X16411384Y-39473265D01*
X16466732Y-39469836D01*
X16536326Y-39468266D01*
X16592550Y-39467914D01*
X16695400Y-39468954D01*
X16695400Y-39468954D01*
G37*
X16695400Y-39468954D02*
X16777578Y-39472913D01*
X16843679Y-39480110D01*
X16887729Y-39488334D01*
X17055143Y-39538804D01*
X17208740Y-39610298D01*
X17347707Y-39702024D01*
X17471233Y-39813189D01*
X17578507Y-39942999D01*
X17668717Y-40090662D01*
X17741052Y-40255386D01*
X17773005Y-40353254D01*
X17790791Y-40418397D01*
X17806450Y-40482727D01*
X17818996Y-40541330D01*
X17827446Y-40589294D01*
X17830814Y-40621708D01*
X17829130Y-40633202D01*
X17814710Y-40636780D01*
X17779654Y-40642013D01*
X17728467Y-40648449D01*
X17665656Y-40655634D01*
X17595726Y-40663117D01*
X17523184Y-40670443D01*
X17452535Y-40677161D01*
X17388287Y-40682818D01*
X17334944Y-40686960D01*
X17297014Y-40689135D01*
X17279001Y-40688891D01*
X17278225Y-40688559D01*
X17272076Y-40673909D01*
X17261398Y-40640379D01*
X17247953Y-40593696D01*
X17239425Y-40562264D01*
X17208472Y-40464924D01*
X17168050Y-40366481D01*
X17121612Y-40274000D01*
X17072611Y-40194550D01*
X17037744Y-40149452D01*
X16949462Y-40067215D01*
X16848597Y-40006672D01*
X16737166Y-39968734D01*
X16617189Y-39954313D01*
X16605250Y-39954200D01*
X16485365Y-39965764D01*
X16376001Y-40000296D01*
X16277357Y-40057555D01*
X16189634Y-40137299D01*
X16113029Y-40239290D01*
X16047745Y-40363284D01*
X15993979Y-40509042D01*
X15951933Y-40676322D01*
X15936546Y-40760650D01*
X15930298Y-40815150D01*
X15925463Y-40891609D01*
X15922181Y-40986620D01*
X15920590Y-41096773D01*
X15920469Y-41154350D01*
X15921839Y-41286534D01*
X15925868Y-41398414D01*
X15933149Y-41495003D01*
X15944278Y-41581312D01*
X15959848Y-41662354D01*
X15980455Y-41743140D01*
X15996767Y-41797680D01*
X16049566Y-41934957D01*
X16116058Y-42055451D01*
X16194834Y-42157586D01*
X16284482Y-42239788D01*
X16383595Y-42300484D01*
X16477743Y-42334912D01*
X16594354Y-42352657D01*
X16711166Y-42346819D01*
X16823540Y-42318040D01*
X16914503Y-42274587D01*
X17004116Y-42207446D01*
X17085687Y-42120245D01*
X17155976Y-42017868D01*
X17211737Y-41905199D01*
X17249729Y-41787120D01*
X17255270Y-41761465D01*
X17265636Y-41710754D01*
X17273898Y-41680306D01*
X17282614Y-41665417D01*
X17294341Y-41661383D01*
X17308792Y-41663009D01*
X17331559Y-41666135D01*
X17374974Y-41671439D01*
X17434430Y-41678385D01*
X17505320Y-41686433D01*
X17583038Y-41695045D01*
X17583073Y-41695049D01*
X17658477Y-41703558D01*
X17724844Y-41711528D01*
X17778181Y-41718440D01*
X17814498Y-41723775D01*
X17829801Y-41727015D01*
X17829972Y-41727139D01*
X17831944Y-41743718D01*
X17828111Y-41779473D01*
X17819551Y-41829128D01*
X17807344Y-41887409D01*
X17792569Y-41949043D01*
X17776304Y-42008754D01*
X17764670Y-42046397D01*
X17699393Y-42206312D01*
X17613990Y-42352715D01*
X17510210Y-42483932D01*
X17389802Y-42598290D01*
X17254515Y-42694115D01*
X17106096Y-42769734D01*
X16955307Y-42821125D01*
X16903393Y-42833876D01*
X16854785Y-42843094D01*
X16803119Y-42849465D01*
X16742026Y-42853673D01*
X16665142Y-42856405D01*
X16617950Y-42857448D01*
X16505327Y-42858175D01*
X16414488Y-42855450D01*
X16342033Y-42849119D01*
X16305290Y-42843399D01*
X16148433Y-42802900D01*
X16006252Y-42742584D01*
X15875847Y-42660967D01*
X15765904Y-42567835D01*
X15644955Y-42434459D01*
X15539540Y-42282241D01*
X15450173Y-42112822D01*
X15377365Y-41927842D01*
X15321628Y-41728941D01*
X15283476Y-41517759D01*
X15263421Y-41295936D01*
X15261975Y-41065113D01*
X15266750Y-40970200D01*
X15291636Y-40744076D01*
X15335159Y-40532547D01*
X15396992Y-40336432D01*
X15476810Y-40156554D01*
X15574287Y-39993735D01*
X15689095Y-39848794D01*
X15728675Y-39807096D01*
X15844538Y-39703094D01*
X15966639Y-39620091D01*
X16100278Y-39555060D01*
X16250760Y-39504969D01*
X16263352Y-39501604D01*
X16316441Y-39488458D01*
X16363536Y-39479242D01*
X16411384Y-39473265D01*
X16466732Y-39469836D01*
X16536326Y-39468266D01*
X16592550Y-39467914D01*
X16695400Y-39468954D01*
G36*
X19338185Y-40329238D02*
G01*
X19403297Y-40330735D01*
X19454056Y-40333840D01*
X19495980Y-40339052D01*
X19534590Y-40346869D01*
X19575404Y-40357792D01*
X19576331Y-40358060D01*
X19726045Y-40414373D01*
X19864820Y-40492592D01*
X19990735Y-40590877D01*
X20101870Y-40707388D01*
X20196303Y-40840285D01*
X20272115Y-40987729D01*
X20295553Y-41046947D01*
X20328335Y-41145680D01*
X20351811Y-41239584D01*
X20367573Y-41337298D01*
X20377214Y-41447462D01*
X20380064Y-41505488D01*
X20377981Y-41707548D01*
X20355296Y-41896458D01*
X20312234Y-42071650D01*
X20249018Y-42232557D01*
X20165873Y-42378612D01*
X20063022Y-42509247D01*
X19940690Y-42623894D01*
X19937344Y-42626583D01*
X19855437Y-42684238D01*
X19758752Y-42739809D01*
X19657192Y-42788221D01*
X19560658Y-42824398D01*
X19538950Y-42830803D01*
X19485854Y-42841175D01*
X19414019Y-42849227D01*
X19330013Y-42854803D01*
X19240402Y-42857744D01*
X19151754Y-42857896D01*
X19070639Y-42855100D01*
X19003623Y-42849200D01*
X18973800Y-42844294D01*
X18823090Y-42800772D01*
X18685793Y-42736386D01*
X18561404Y-42650719D01*
X18449416Y-42543356D01*
X18349322Y-42413880D01*
X18260616Y-42261876D01*
X18257595Y-42255911D01*
X18197007Y-42111235D01*
X18152028Y-41951442D01*
X18123175Y-41781846D01*
X18110966Y-41607760D01*
X18111402Y-41592500D01*
X18715098Y-41592500D01*
X18716522Y-41708413D01*
X18721378Y-41804155D01*
X18730548Y-41884826D01*
X18744912Y-41955526D01*
X18765349Y-42021354D01*
X18792739Y-42087410D01*
X18804943Y-42113200D01*
X18841249Y-42173614D01*
X18889951Y-42235300D01*
X18944433Y-42291048D01*
X18998083Y-42333651D01*
X19018163Y-42345572D01*
X19112918Y-42381461D01*
X19217461Y-42397404D01*
X19325517Y-42393130D01*
X19430811Y-42368369D01*
X19443321Y-42363874D01*
X19526630Y-42319469D01*
X19601309Y-42252920D01*
X19665576Y-42166545D01*
X19717650Y-42062658D01*
X19750336Y-41964787D01*
X19765810Y-41887797D01*
X19776957Y-41792617D01*
X19783650Y-41686106D01*
X19785758Y-41575123D01*
X19783155Y-41466529D01*
X19775710Y-41367183D01*
X19763297Y-41283945D01*
X19763115Y-41283060D01*
X19727160Y-41148256D01*
X19679289Y-41035526D01*
X19618962Y-40944235D01*
X19545638Y-40873747D01*
X19458777Y-40823428D01*
X19357839Y-40792642D01*
X19344133Y-40790123D01*
X19228366Y-40781681D01*
X19121139Y-40796914D01*
X19023798Y-40835137D01*
X18937687Y-40895667D01*
X18864151Y-40977817D01*
X18814819Y-41059557D01*
X18782154Y-41128448D01*
X18757268Y-41192147D01*
X18739179Y-41255903D01*
X18726903Y-41324970D01*
X18719459Y-41404597D01*
X18715864Y-41500037D01*
X18715098Y-41592500D01*
X18111402Y-41592500D01*
X18115918Y-41434498D01*
X18138548Y-41267374D01*
X18154421Y-41196434D01*
X18205058Y-41040741D01*
X18274652Y-40893943D01*
X18360965Y-40759029D01*
X18461758Y-40638989D01*
X18574791Y-40536815D01*
X18697826Y-40455495D01*
X18716797Y-40445388D01*
X18798836Y-40405235D01*
X18872287Y-40375203D01*
X18943405Y-40353931D01*
X19018444Y-40340063D01*
X19103658Y-40332238D01*
X19205300Y-40329098D01*
X19253200Y-40328850D01*
X19338185Y-40329238D01*
X19338185Y-40329238D01*
G37*
X19338185Y-40329238D02*
X19403297Y-40330735D01*
X19454056Y-40333840D01*
X19495980Y-40339052D01*
X19534590Y-40346869D01*
X19575404Y-40357792D01*
X19576331Y-40358060D01*
X19726045Y-40414373D01*
X19864820Y-40492592D01*
X19990735Y-40590877D01*
X20101870Y-40707388D01*
X20196303Y-40840285D01*
X20272115Y-40987729D01*
X20295553Y-41046947D01*
X20328335Y-41145680D01*
X20351811Y-41239584D01*
X20367573Y-41337298D01*
X20377214Y-41447462D01*
X20380064Y-41505488D01*
X20377981Y-41707548D01*
X20355296Y-41896458D01*
X20312234Y-42071650D01*
X20249018Y-42232557D01*
X20165873Y-42378612D01*
X20063022Y-42509247D01*
X19940690Y-42623894D01*
X19937344Y-42626583D01*
X19855437Y-42684238D01*
X19758752Y-42739809D01*
X19657192Y-42788221D01*
X19560658Y-42824398D01*
X19538950Y-42830803D01*
X19485854Y-42841175D01*
X19414019Y-42849227D01*
X19330013Y-42854803D01*
X19240402Y-42857744D01*
X19151754Y-42857896D01*
X19070639Y-42855100D01*
X19003623Y-42849200D01*
X18973800Y-42844294D01*
X18823090Y-42800772D01*
X18685793Y-42736386D01*
X18561404Y-42650719D01*
X18449416Y-42543356D01*
X18349322Y-42413880D01*
X18260616Y-42261876D01*
X18257595Y-42255911D01*
X18197007Y-42111235D01*
X18152028Y-41951442D01*
X18123175Y-41781846D01*
X18110966Y-41607760D01*
X18111402Y-41592500D01*
X18715098Y-41592500D01*
X18716522Y-41708413D01*
X18721378Y-41804155D01*
X18730548Y-41884826D01*
X18744912Y-41955526D01*
X18765349Y-42021354D01*
X18792739Y-42087410D01*
X18804943Y-42113200D01*
X18841249Y-42173614D01*
X18889951Y-42235300D01*
X18944433Y-42291048D01*
X18998083Y-42333651D01*
X19018163Y-42345572D01*
X19112918Y-42381461D01*
X19217461Y-42397404D01*
X19325517Y-42393130D01*
X19430811Y-42368369D01*
X19443321Y-42363874D01*
X19526630Y-42319469D01*
X19601309Y-42252920D01*
X19665576Y-42166545D01*
X19717650Y-42062658D01*
X19750336Y-41964787D01*
X19765810Y-41887797D01*
X19776957Y-41792617D01*
X19783650Y-41686106D01*
X19785758Y-41575123D01*
X19783155Y-41466529D01*
X19775710Y-41367183D01*
X19763297Y-41283945D01*
X19763115Y-41283060D01*
X19727160Y-41148256D01*
X19679289Y-41035526D01*
X19618962Y-40944235D01*
X19545638Y-40873747D01*
X19458777Y-40823428D01*
X19357839Y-40792642D01*
X19344133Y-40790123D01*
X19228366Y-40781681D01*
X19121139Y-40796914D01*
X19023798Y-40835137D01*
X18937687Y-40895667D01*
X18864151Y-40977817D01*
X18814819Y-41059557D01*
X18782154Y-41128448D01*
X18757268Y-41192147D01*
X18739179Y-41255903D01*
X18726903Y-41324970D01*
X18719459Y-41404597D01*
X18715864Y-41500037D01*
X18715098Y-41592500D01*
X18111402Y-41592500D01*
X18115918Y-41434498D01*
X18138548Y-41267374D01*
X18154421Y-41196434D01*
X18205058Y-41040741D01*
X18274652Y-40893943D01*
X18360965Y-40759029D01*
X18461758Y-40638989D01*
X18574791Y-40536815D01*
X18697826Y-40455495D01*
X18716797Y-40445388D01*
X18798836Y-40405235D01*
X18872287Y-40375203D01*
X18943405Y-40353931D01*
X19018444Y-40340063D01*
X19103658Y-40332238D01*
X19205300Y-40329098D01*
X19253200Y-40328850D01*
X19338185Y-40329238D01*
G36*
X27235330Y-40325841D02*
G01*
X27254200Y-40326420D01*
X27394177Y-40335640D01*
X27515395Y-40354780D01*
X27623120Y-40385515D01*
X27722616Y-40429518D01*
X27819148Y-40488465D01*
X27862370Y-40519817D01*
X27963705Y-40611651D01*
X28054310Y-40724169D01*
X28133008Y-40854518D01*
X28198621Y-40999846D01*
X28249973Y-41157302D01*
X28285886Y-41324032D01*
X28305184Y-41497187D01*
X28308300Y-41600195D01*
X28308300Y-41668700D01*
X26628150Y-41668700D01*
X26636844Y-41792525D01*
X26648515Y-41909688D01*
X26666492Y-42006477D01*
X26692370Y-42087473D01*
X26727744Y-42157261D01*
X26774210Y-42220424D01*
X26793077Y-42241481D01*
X26878874Y-42318737D01*
X26971487Y-42372917D01*
X27074226Y-42405428D01*
X27190404Y-42417673D01*
X27208880Y-42417849D01*
X27334022Y-42407023D01*
X27445360Y-42375131D01*
X27542401Y-42322473D01*
X27624655Y-42249348D01*
X27691629Y-42156054D01*
X27715611Y-42109805D01*
X27738018Y-42064759D01*
X27754851Y-42039306D01*
X27769514Y-42029279D01*
X27781250Y-42029399D01*
X27801715Y-42032784D01*
X27842768Y-42038747D01*
X27899799Y-42046646D01*
X27968201Y-42055843D01*
X28032075Y-42064233D01*
X28115297Y-42075445D01*
X28176238Y-42084728D01*
X28217885Y-42092727D01*
X28243227Y-42100087D01*
X28255251Y-42107454D01*
X28257344Y-42112888D01*
X28251352Y-42139025D01*
X28235497Y-42181181D01*
X28212581Y-42233355D01*
X28185400Y-42289548D01*
X28156756Y-42343759D01*
X28129446Y-42389988D01*
X28124644Y-42397367D01*
X28043281Y-42501692D01*
X27943766Y-42599838D01*
X27832829Y-42686127D01*
X27717200Y-42754885D01*
X27679835Y-42772465D01*
X27603200Y-42802852D01*
X27527645Y-42825302D01*
X27446968Y-42840947D01*
X27354968Y-42850919D01*
X27245442Y-42856350D01*
X27216100Y-42857098D01*
X27111307Y-42858126D01*
X27028309Y-42855996D01*
X26963680Y-42850557D01*
X26924000Y-42843956D01*
X26765149Y-42799450D01*
X26623652Y-42737199D01*
X26497376Y-42655744D01*
X26384190Y-42553625D01*
X26281961Y-42429384D01*
X26249784Y-42382548D01*
X26174403Y-42246832D01*
X26117080Y-42095793D01*
X26077513Y-41928371D01*
X26055401Y-41743500D01*
X26052265Y-41687750D01*
X26051214Y-41511002D01*
X26064838Y-41350600D01*
X26078010Y-41283381D01*
X26631900Y-41283381D01*
X26635799Y-41287611D01*
X26648839Y-41291109D01*
X26673035Y-41293938D01*
X26710401Y-41296161D01*
X26762951Y-41297842D01*
X26832699Y-41299043D01*
X26921660Y-41299828D01*
X27031847Y-41300259D01*
X27165276Y-41300399D01*
X27175729Y-41300400D01*
X27719559Y-41300400D01*
X27709919Y-41220322D01*
X27685638Y-41102083D01*
X27642232Y-40998765D01*
X27578027Y-40906835D01*
X27544403Y-40870717D01*
X27456607Y-40799665D01*
X27360658Y-40750835D01*
X27259710Y-40723703D01*
X27156916Y-40717746D01*
X27055432Y-40732441D01*
X26958409Y-40767266D01*
X26869003Y-40821697D01*
X26790368Y-40895211D01*
X26725656Y-40987285D01*
X26714413Y-41008372D01*
X26697116Y-41048317D01*
X26678217Y-41100982D01*
X26659992Y-41158787D01*
X26644714Y-41214152D01*
X26634657Y-41259497D01*
X26631900Y-41283381D01*
X26078010Y-41283381D01*
X26094048Y-41201544D01*
X26139752Y-41058834D01*
X26186267Y-40951150D01*
X26270991Y-40800386D01*
X26371219Y-40669050D01*
X26486188Y-40557761D01*
X26615137Y-40467138D01*
X26757302Y-40397798D01*
X26911922Y-40350360D01*
X26932141Y-40345990D01*
X26988054Y-40335449D01*
X27039158Y-40328599D01*
X27092625Y-40325005D01*
X27155625Y-40324231D01*
X27235330Y-40325841D01*
X27235330Y-40325841D01*
G37*
X27235330Y-40325841D02*
X27254200Y-40326420D01*
X27394177Y-40335640D01*
X27515395Y-40354780D01*
X27623120Y-40385515D01*
X27722616Y-40429518D01*
X27819148Y-40488465D01*
X27862370Y-40519817D01*
X27963705Y-40611651D01*
X28054310Y-40724169D01*
X28133008Y-40854518D01*
X28198621Y-40999846D01*
X28249973Y-41157302D01*
X28285886Y-41324032D01*
X28305184Y-41497187D01*
X28308300Y-41600195D01*
X28308300Y-41668700D01*
X26628150Y-41668700D01*
X26636844Y-41792525D01*
X26648515Y-41909688D01*
X26666492Y-42006477D01*
X26692370Y-42087473D01*
X26727744Y-42157261D01*
X26774210Y-42220424D01*
X26793077Y-42241481D01*
X26878874Y-42318737D01*
X26971487Y-42372917D01*
X27074226Y-42405428D01*
X27190404Y-42417673D01*
X27208880Y-42417849D01*
X27334022Y-42407023D01*
X27445360Y-42375131D01*
X27542401Y-42322473D01*
X27624655Y-42249348D01*
X27691629Y-42156054D01*
X27715611Y-42109805D01*
X27738018Y-42064759D01*
X27754851Y-42039306D01*
X27769514Y-42029279D01*
X27781250Y-42029399D01*
X27801715Y-42032784D01*
X27842768Y-42038747D01*
X27899799Y-42046646D01*
X27968201Y-42055843D01*
X28032075Y-42064233D01*
X28115297Y-42075445D01*
X28176238Y-42084728D01*
X28217885Y-42092727D01*
X28243227Y-42100087D01*
X28255251Y-42107454D01*
X28257344Y-42112888D01*
X28251352Y-42139025D01*
X28235497Y-42181181D01*
X28212581Y-42233355D01*
X28185400Y-42289548D01*
X28156756Y-42343759D01*
X28129446Y-42389988D01*
X28124644Y-42397367D01*
X28043281Y-42501692D01*
X27943766Y-42599838D01*
X27832829Y-42686127D01*
X27717200Y-42754885D01*
X27679835Y-42772465D01*
X27603200Y-42802852D01*
X27527645Y-42825302D01*
X27446968Y-42840947D01*
X27354968Y-42850919D01*
X27245442Y-42856350D01*
X27216100Y-42857098D01*
X27111307Y-42858126D01*
X27028309Y-42855996D01*
X26963680Y-42850557D01*
X26924000Y-42843956D01*
X26765149Y-42799450D01*
X26623652Y-42737199D01*
X26497376Y-42655744D01*
X26384190Y-42553625D01*
X26281961Y-42429384D01*
X26249784Y-42382548D01*
X26174403Y-42246832D01*
X26117080Y-42095793D01*
X26077513Y-41928371D01*
X26055401Y-41743500D01*
X26052265Y-41687750D01*
X26051214Y-41511002D01*
X26064838Y-41350600D01*
X26078010Y-41283381D01*
X26631900Y-41283381D01*
X26635799Y-41287611D01*
X26648839Y-41291109D01*
X26673035Y-41293938D01*
X26710401Y-41296161D01*
X26762951Y-41297842D01*
X26832699Y-41299043D01*
X26921660Y-41299828D01*
X27031847Y-41300259D01*
X27165276Y-41300399D01*
X27175729Y-41300400D01*
X27719559Y-41300400D01*
X27709919Y-41220322D01*
X27685638Y-41102083D01*
X27642232Y-40998765D01*
X27578027Y-40906835D01*
X27544403Y-40870717D01*
X27456607Y-40799665D01*
X27360658Y-40750835D01*
X27259710Y-40723703D01*
X27156916Y-40717746D01*
X27055432Y-40732441D01*
X26958409Y-40767266D01*
X26869003Y-40821697D01*
X26790368Y-40895211D01*
X26725656Y-40987285D01*
X26714413Y-41008372D01*
X26697116Y-41048317D01*
X26678217Y-41100982D01*
X26659992Y-41158787D01*
X26644714Y-41214152D01*
X26634657Y-41259497D01*
X26631900Y-41283381D01*
X26078010Y-41283381D01*
X26094048Y-41201544D01*
X26139752Y-41058834D01*
X26186267Y-40951150D01*
X26270991Y-40800386D01*
X26371219Y-40669050D01*
X26486188Y-40557761D01*
X26615137Y-40467138D01*
X26757302Y-40397798D01*
X26911922Y-40350360D01*
X26932141Y-40345990D01*
X26988054Y-40335449D01*
X27039158Y-40328599D01*
X27092625Y-40325005D01*
X27155625Y-40324231D01*
X27235330Y-40325841D01*
G36*
X-14922500Y-40906700D02*
G01*
X-14995525Y-40906887D01*
X-15120053Y-40918274D01*
X-15232179Y-40951267D01*
X-15330745Y-41005120D01*
X-15414597Y-41079088D01*
X-15482579Y-41172425D01*
X-15518079Y-41244006D01*
X-15538488Y-41292839D01*
X-15555755Y-41335896D01*
X-15570157Y-41375770D01*
X-15581974Y-41415054D01*
X-15591484Y-41456340D01*
X-15598966Y-41502223D01*
X-15604699Y-41555295D01*
X-15608961Y-41618151D01*
X-15612032Y-41693382D01*
X-15614190Y-41783582D01*
X-15615714Y-41891344D01*
X-15616883Y-42019262D01*
X-15617975Y-42169929D01*
X-15618001Y-42173525D01*
X-15622495Y-42811700D01*
X-16179800Y-42811700D01*
X-16179800Y-40373300D01*
X-15671800Y-40373300D01*
X-15671490Y-40900350D01*
X-15628854Y-40802696D01*
X-15589455Y-40717280D01*
X-15552184Y-40648889D01*
X-15512174Y-40590129D01*
X-15464556Y-40533608D01*
X-15423556Y-40490879D01*
X-15332381Y-40410621D01*
X-15240302Y-40353520D01*
X-15143135Y-40317546D01*
X-15036694Y-40300671D01*
X-15030462Y-40300255D01*
X-14922500Y-40293519D01*
X-14922500Y-40906700D01*
X-14922500Y-40906700D01*
G37*
X-14922500Y-40906700D02*
X-14995525Y-40906887D01*
X-15120053Y-40918274D01*
X-15232179Y-40951267D01*
X-15330745Y-41005120D01*
X-15414597Y-41079088D01*
X-15482579Y-41172425D01*
X-15518079Y-41244006D01*
X-15538488Y-41292839D01*
X-15555755Y-41335896D01*
X-15570157Y-41375770D01*
X-15581974Y-41415054D01*
X-15591484Y-41456340D01*
X-15598966Y-41502223D01*
X-15604699Y-41555295D01*
X-15608961Y-41618151D01*
X-15612032Y-41693382D01*
X-15614190Y-41783582D01*
X-15615714Y-41891344D01*
X-15616883Y-42019262D01*
X-15617975Y-42169929D01*
X-15618001Y-42173525D01*
X-15622495Y-42811700D01*
X-16179800Y-42811700D01*
X-16179800Y-40373300D01*
X-15671800Y-40373300D01*
X-15671490Y-40900350D01*
X-15628854Y-40802696D01*
X-15589455Y-40717280D01*
X-15552184Y-40648889D01*
X-15512174Y-40590129D01*
X-15464556Y-40533608D01*
X-15423556Y-40490879D01*
X-15332381Y-40410621D01*
X-15240302Y-40353520D01*
X-15143135Y-40317546D01*
X-15036694Y-40300671D01*
X-15030462Y-40300255D01*
X-14922500Y-40293519D01*
X-14922500Y-40906700D01*
G36*
X30048200Y-40906700D02*
G01*
X29986433Y-40906700D01*
X29889601Y-40914854D01*
X29793019Y-40937722D01*
X29702696Y-40972911D01*
X29624640Y-41018026D01*
X29564860Y-41070674D01*
X29559806Y-41076641D01*
X29521008Y-41133121D01*
X29480680Y-41207860D01*
X29442007Y-41294161D01*
X29408179Y-41385325D01*
X29398555Y-41415554D01*
X29392132Y-41437358D01*
X29386725Y-41458552D01*
X29382229Y-41481493D01*
X29378540Y-41508540D01*
X29375553Y-41542048D01*
X29373163Y-41584375D01*
X29371267Y-41637880D01*
X29369758Y-41704918D01*
X29368533Y-41787848D01*
X29367487Y-41889027D01*
X29366515Y-42010811D01*
X29365513Y-42155560D01*
X29365478Y-42160825D01*
X29361120Y-42811700D01*
X28803600Y-42811700D01*
X28803600Y-40373300D01*
X29311600Y-40373300D01*
X29312459Y-40630475D01*
X29313062Y-40719308D01*
X29314283Y-40784783D01*
X29316256Y-40828939D01*
X29319113Y-40853812D01*
X29322988Y-40861441D01*
X29327176Y-40855900D01*
X29379716Y-40742001D01*
X29429577Y-40648801D01*
X29479603Y-40572209D01*
X29532635Y-40508129D01*
X29591515Y-40452468D01*
X29626648Y-40424542D01*
X29717743Y-40364811D01*
X29807299Y-40325820D01*
X29902955Y-40304628D01*
X29949775Y-40300130D01*
X30048200Y-40293836D01*
X30048200Y-40906700D01*
X30048200Y-40906700D01*
G37*
X30048200Y-40906700D02*
X29986433Y-40906700D01*
X29889601Y-40914854D01*
X29793019Y-40937722D01*
X29702696Y-40972911D01*
X29624640Y-41018026D01*
X29564860Y-41070674D01*
X29559806Y-41076641D01*
X29521008Y-41133121D01*
X29480680Y-41207860D01*
X29442007Y-41294161D01*
X29408179Y-41385325D01*
X29398555Y-41415554D01*
X29392132Y-41437358D01*
X29386725Y-41458552D01*
X29382229Y-41481493D01*
X29378540Y-41508540D01*
X29375553Y-41542048D01*
X29373163Y-41584375D01*
X29371267Y-41637880D01*
X29369758Y-41704918D01*
X29368533Y-41787848D01*
X29367487Y-41889027D01*
X29366515Y-42010811D01*
X29365513Y-42155560D01*
X29365478Y-42160825D01*
X29361120Y-42811700D01*
X28803600Y-42811700D01*
X28803600Y-40373300D01*
X29311600Y-40373300D01*
X29312459Y-40630475D01*
X29313062Y-40719308D01*
X29314283Y-40784783D01*
X29316256Y-40828939D01*
X29319113Y-40853812D01*
X29322988Y-40861441D01*
X29327176Y-40855900D01*
X29379716Y-40742001D01*
X29429577Y-40648801D01*
X29479603Y-40572209D01*
X29532635Y-40508129D01*
X29591515Y-40452468D01*
X29626648Y-40424542D01*
X29717743Y-40364811D01*
X29807299Y-40325820D01*
X29902955Y-40304628D01*
X29949775Y-40300130D01*
X30048200Y-40293836D01*
X30048200Y-40906700D01*
G36*
X-29605787Y-33296663D02*
G01*
X-29443074Y-33318430D01*
X-29295618Y-33353117D01*
X-29155690Y-33402835D01*
X-29063950Y-33444790D01*
X-28948243Y-33507662D01*
X-28853598Y-33571824D01*
X-28775749Y-33640480D01*
X-28722365Y-33701213D01*
X-28683374Y-33756199D01*
X-28646767Y-33817255D01*
X-28615737Y-33878053D01*
X-28593477Y-33932265D01*
X-28583180Y-33973562D01*
X-28582887Y-33977660D01*
X-28581350Y-34014733D01*
X-28854400Y-34081942D01*
X-28934065Y-34101490D01*
X-29005298Y-34118854D01*
X-29064454Y-34133153D01*
X-29107886Y-34143509D01*
X-29131948Y-34149043D01*
X-29135485Y-34149726D01*
X-29144752Y-34139540D01*
X-29161041Y-34112383D01*
X-29179168Y-34077437D01*
X-29238766Y-33982885D01*
X-29316103Y-33906437D01*
X-29411016Y-33848178D01*
X-29523344Y-33808190D01*
X-29652925Y-33786558D01*
X-29749750Y-33782375D01*
X-29882969Y-33789715D01*
X-29997006Y-33812119D01*
X-30093543Y-33850163D01*
X-30174263Y-33904421D01*
X-30211604Y-33940380D01*
X-30261458Y-34003120D01*
X-30291445Y-34064908D01*
X-30305141Y-34134568D01*
X-30307004Y-34175700D01*
X-30299829Y-34253721D01*
X-30274839Y-34320116D01*
X-30229104Y-34381278D01*
X-30199573Y-34410067D01*
X-30165873Y-34437687D01*
X-30127403Y-34463007D01*
X-30081475Y-34487018D01*
X-30025403Y-34510712D01*
X-29956497Y-34535079D01*
X-29872070Y-34561113D01*
X-29769435Y-34589804D01*
X-29645903Y-34622143D01*
X-29578169Y-34639311D01*
X-29414145Y-34681580D01*
X-29272717Y-34720489D01*
X-29151456Y-34757032D01*
X-29047934Y-34792209D01*
X-28959722Y-34827015D01*
X-28884393Y-34862448D01*
X-28819519Y-34899505D01*
X-28762671Y-34939183D01*
X-28711421Y-34982478D01*
X-28688197Y-35004737D01*
X-28602794Y-35107026D01*
X-28534704Y-35224741D01*
X-28484426Y-35354272D01*
X-28452460Y-35492006D01*
X-28439303Y-35634333D01*
X-28445457Y-35777641D01*
X-28471418Y-35918319D01*
X-28517686Y-36052756D01*
X-28537540Y-36095222D01*
X-28612786Y-36217447D01*
X-28709382Y-36328253D01*
X-28825447Y-36426493D01*
X-28959102Y-36511023D01*
X-29108467Y-36580696D01*
X-29271661Y-36634366D01*
X-29446804Y-36670887D01*
X-29492376Y-36677220D01*
X-29546766Y-36681970D01*
X-29619122Y-36685410D01*
X-29702043Y-36687474D01*
X-29788126Y-36688101D01*
X-29869969Y-36687224D01*
X-29940169Y-36684781D01*
X-29984700Y-36681474D01*
X-30080705Y-36667623D01*
X-30186625Y-36646515D01*
X-30289543Y-36620954D01*
X-30355686Y-36600983D01*
X-30521670Y-36535920D01*
X-30666297Y-36458072D01*
X-30790708Y-36366435D01*
X-30896046Y-36260010D01*
X-30983456Y-36137793D01*
X-31054078Y-35998785D01*
X-31060505Y-35983324D01*
X-31079469Y-35933567D01*
X-31093271Y-35891043D01*
X-31099873Y-35862335D01*
X-31099974Y-35855783D01*
X-31093269Y-35847550D01*
X-31074548Y-35838329D01*
X-31041280Y-35827391D01*
X-30990936Y-35814012D01*
X-30920987Y-35797464D01*
X-30828905Y-35777020D01*
X-30816550Y-35774336D01*
X-30735745Y-35756851D01*
X-30663466Y-35741284D01*
X-30603336Y-35728407D01*
X-30558978Y-35718997D01*
X-30534015Y-35713827D01*
X-30529945Y-35713074D01*
X-30522572Y-35723735D01*
X-30510967Y-35752007D01*
X-30501005Y-35781349D01*
X-30458198Y-35878087D01*
X-30394904Y-35968246D01*
X-30316021Y-36046115D01*
X-30226447Y-36105982D01*
X-30219650Y-36109478D01*
X-30135752Y-36143120D01*
X-30033947Y-36170166D01*
X-29921097Y-36189652D01*
X-29804062Y-36200617D01*
X-29689703Y-36202097D01*
X-29604596Y-36195787D01*
X-29468694Y-36171396D01*
X-29353806Y-36133586D01*
X-29259098Y-36081893D01*
X-29183738Y-36015854D01*
X-29126892Y-35935007D01*
X-29123334Y-35928300D01*
X-29101017Y-35883089D01*
X-29088737Y-35848331D01*
X-29084199Y-35813101D01*
X-29085108Y-35766474D01*
X-29085991Y-35750500D01*
X-29102505Y-35649654D01*
X-29139231Y-35563393D01*
X-29195798Y-35492567D01*
X-29199341Y-35489262D01*
X-29224282Y-35467082D01*
X-29248756Y-35447792D01*
X-29275368Y-35430445D01*
X-29306721Y-35414093D01*
X-29345418Y-35397790D01*
X-29394063Y-35380589D01*
X-29455259Y-35361542D01*
X-29531611Y-35339702D01*
X-29625720Y-35314123D01*
X-29740192Y-35283857D01*
X-29824850Y-35261718D01*
X-29979213Y-35220892D01*
X-30111217Y-35184595D01*
X-30223305Y-35151878D01*
X-30317920Y-35121790D01*
X-30397506Y-35093381D01*
X-30464505Y-35065704D01*
X-30521360Y-35037807D01*
X-30570515Y-35008741D01*
X-30614413Y-34977556D01*
X-30655496Y-34943304D01*
X-30664157Y-34935484D01*
X-30748830Y-34841805D01*
X-30819481Y-34730258D01*
X-30874583Y-34605086D01*
X-30912613Y-34470534D01*
X-30932043Y-34330845D01*
X-30931469Y-34191756D01*
X-30908421Y-34037988D01*
X-30864400Y-33898316D01*
X-30798893Y-33771788D01*
X-30711390Y-33657453D01*
X-30601380Y-33554357D01*
X-30580211Y-33537734D01*
X-30442931Y-33448377D01*
X-30290499Y-33378367D01*
X-30124737Y-33328154D01*
X-29947465Y-33298190D01*
X-29760505Y-33288925D01*
X-29605787Y-33296663D01*
X-29605787Y-33296663D01*
G37*
X-29605787Y-33296663D02*
X-29443074Y-33318430D01*
X-29295618Y-33353117D01*
X-29155690Y-33402835D01*
X-29063950Y-33444790D01*
X-28948243Y-33507662D01*
X-28853598Y-33571824D01*
X-28775749Y-33640480D01*
X-28722365Y-33701213D01*
X-28683374Y-33756199D01*
X-28646767Y-33817255D01*
X-28615737Y-33878053D01*
X-28593477Y-33932265D01*
X-28583180Y-33973562D01*
X-28582887Y-33977660D01*
X-28581350Y-34014733D01*
X-28854400Y-34081942D01*
X-28934065Y-34101490D01*
X-29005298Y-34118854D01*
X-29064454Y-34133153D01*
X-29107886Y-34143509D01*
X-29131948Y-34149043D01*
X-29135485Y-34149726D01*
X-29144752Y-34139540D01*
X-29161041Y-34112383D01*
X-29179168Y-34077437D01*
X-29238766Y-33982885D01*
X-29316103Y-33906437D01*
X-29411016Y-33848178D01*
X-29523344Y-33808190D01*
X-29652925Y-33786558D01*
X-29749750Y-33782375D01*
X-29882969Y-33789715D01*
X-29997006Y-33812119D01*
X-30093543Y-33850163D01*
X-30174263Y-33904421D01*
X-30211604Y-33940380D01*
X-30261458Y-34003120D01*
X-30291445Y-34064908D01*
X-30305141Y-34134568D01*
X-30307004Y-34175700D01*
X-30299829Y-34253721D01*
X-30274839Y-34320116D01*
X-30229104Y-34381278D01*
X-30199573Y-34410067D01*
X-30165873Y-34437687D01*
X-30127403Y-34463007D01*
X-30081475Y-34487018D01*
X-30025403Y-34510712D01*
X-29956497Y-34535079D01*
X-29872070Y-34561113D01*
X-29769435Y-34589804D01*
X-29645903Y-34622143D01*
X-29578169Y-34639311D01*
X-29414145Y-34681580D01*
X-29272717Y-34720489D01*
X-29151456Y-34757032D01*
X-29047934Y-34792209D01*
X-28959722Y-34827015D01*
X-28884393Y-34862448D01*
X-28819519Y-34899505D01*
X-28762671Y-34939183D01*
X-28711421Y-34982478D01*
X-28688197Y-35004737D01*
X-28602794Y-35107026D01*
X-28534704Y-35224741D01*
X-28484426Y-35354272D01*
X-28452460Y-35492006D01*
X-28439303Y-35634333D01*
X-28445457Y-35777641D01*
X-28471418Y-35918319D01*
X-28517686Y-36052756D01*
X-28537540Y-36095222D01*
X-28612786Y-36217447D01*
X-28709382Y-36328253D01*
X-28825447Y-36426493D01*
X-28959102Y-36511023D01*
X-29108467Y-36580696D01*
X-29271661Y-36634366D01*
X-29446804Y-36670887D01*
X-29492376Y-36677220D01*
X-29546766Y-36681970D01*
X-29619122Y-36685410D01*
X-29702043Y-36687474D01*
X-29788126Y-36688101D01*
X-29869969Y-36687224D01*
X-29940169Y-36684781D01*
X-29984700Y-36681474D01*
X-30080705Y-36667623D01*
X-30186625Y-36646515D01*
X-30289543Y-36620954D01*
X-30355686Y-36600983D01*
X-30521670Y-36535920D01*
X-30666297Y-36458072D01*
X-30790708Y-36366435D01*
X-30896046Y-36260010D01*
X-30983456Y-36137793D01*
X-31054078Y-35998785D01*
X-31060505Y-35983324D01*
X-31079469Y-35933567D01*
X-31093271Y-35891043D01*
X-31099873Y-35862335D01*
X-31099974Y-35855783D01*
X-31093269Y-35847550D01*
X-31074548Y-35838329D01*
X-31041280Y-35827391D01*
X-30990936Y-35814012D01*
X-30920987Y-35797464D01*
X-30828905Y-35777020D01*
X-30816550Y-35774336D01*
X-30735745Y-35756851D01*
X-30663466Y-35741284D01*
X-30603336Y-35728407D01*
X-30558978Y-35718997D01*
X-30534015Y-35713827D01*
X-30529945Y-35713074D01*
X-30522572Y-35723735D01*
X-30510967Y-35752007D01*
X-30501005Y-35781349D01*
X-30458198Y-35878087D01*
X-30394904Y-35968246D01*
X-30316021Y-36046115D01*
X-30226447Y-36105982D01*
X-30219650Y-36109478D01*
X-30135752Y-36143120D01*
X-30033947Y-36170166D01*
X-29921097Y-36189652D01*
X-29804062Y-36200617D01*
X-29689703Y-36202097D01*
X-29604596Y-36195787D01*
X-29468694Y-36171396D01*
X-29353806Y-36133586D01*
X-29259098Y-36081893D01*
X-29183738Y-36015854D01*
X-29126892Y-35935007D01*
X-29123334Y-35928300D01*
X-29101017Y-35883089D01*
X-29088737Y-35848331D01*
X-29084199Y-35813101D01*
X-29085108Y-35766474D01*
X-29085991Y-35750500D01*
X-29102505Y-35649654D01*
X-29139231Y-35563393D01*
X-29195798Y-35492567D01*
X-29199341Y-35489262D01*
X-29224282Y-35467082D01*
X-29248756Y-35447792D01*
X-29275368Y-35430445D01*
X-29306721Y-35414093D01*
X-29345418Y-35397790D01*
X-29394063Y-35380589D01*
X-29455259Y-35361542D01*
X-29531611Y-35339702D01*
X-29625720Y-35314123D01*
X-29740192Y-35283857D01*
X-29824850Y-35261718D01*
X-29979213Y-35220892D01*
X-30111217Y-35184595D01*
X-30223305Y-35151878D01*
X-30317920Y-35121790D01*
X-30397506Y-35093381D01*
X-30464505Y-35065704D01*
X-30521360Y-35037807D01*
X-30570515Y-35008741D01*
X-30614413Y-34977556D01*
X-30655496Y-34943304D01*
X-30664157Y-34935484D01*
X-30748830Y-34841805D01*
X-30819481Y-34730258D01*
X-30874583Y-34605086D01*
X-30912613Y-34470534D01*
X-30932043Y-34330845D01*
X-30931469Y-34191756D01*
X-30908421Y-34037988D01*
X-30864400Y-33898316D01*
X-30798893Y-33771788D01*
X-30711390Y-33657453D01*
X-30601380Y-33554357D01*
X-30580211Y-33537734D01*
X-30442931Y-33448377D01*
X-30290499Y-33378367D01*
X-30124737Y-33328154D01*
X-29947465Y-33298190D01*
X-29760505Y-33288925D01*
X-29605787Y-33296663D01*
G36*
X-16433800Y-34201100D02*
G01*
X-15938500Y-34201100D01*
X-15938500Y-34632900D01*
X-16434855Y-34632900D01*
X-16430632Y-35302825D01*
X-16429618Y-35457298D01*
X-16428549Y-35588519D01*
X-16427228Y-35698636D01*
X-16425456Y-35789796D01*
X-16423038Y-35864146D01*
X-16419775Y-35923834D01*
X-16415471Y-35971007D01*
X-16409928Y-36007814D01*
X-16402949Y-36036401D01*
X-16394337Y-36058915D01*
X-16383894Y-36077505D01*
X-16371424Y-36094319D01*
X-16356729Y-36111502D01*
X-16356316Y-36111973D01*
X-16315560Y-36148014D01*
X-16263697Y-36173858D01*
X-16197051Y-36190548D01*
X-16111946Y-36199127D01*
X-16043054Y-36200854D01*
X-15899957Y-36201350D01*
X-15903354Y-36423600D01*
X-15906750Y-36645850D01*
X-16027400Y-36667429D01*
X-16111164Y-36678980D01*
X-16203321Y-36685968D01*
X-16296971Y-36688360D01*
X-16385211Y-36686119D01*
X-16461143Y-36679212D01*
X-16510000Y-36669875D01*
X-16621167Y-36631381D01*
X-16715000Y-36579217D01*
X-16784305Y-36522890D01*
X-16842279Y-36462327D01*
X-16884992Y-36402166D01*
X-16917554Y-36333724D01*
X-16944319Y-36251055D01*
X-16950144Y-36229385D01*
X-16955117Y-36208099D01*
X-16959318Y-36185037D01*
X-16962831Y-36158040D01*
X-16965737Y-36124949D01*
X-16968117Y-36083605D01*
X-16970055Y-36031849D01*
X-16971631Y-35967522D01*
X-16972927Y-35888465D01*
X-16974025Y-35792519D01*
X-16975007Y-35677524D01*
X-16975955Y-35541322D01*
X-16976891Y-35391725D01*
X-16981517Y-34632900D01*
X-17284700Y-34632900D01*
X-17284700Y-34201100D01*
X-16946347Y-34201100D01*
X-16921849Y-33880645D01*
X-16897350Y-33560191D01*
X-16725900Y-33545103D01*
X-16656401Y-33538878D01*
X-16590372Y-33532770D01*
X-16534843Y-33527442D01*
X-16496845Y-33523556D01*
X-16494125Y-33523255D01*
X-16433800Y-33516496D01*
X-16433800Y-34201100D01*
X-16433800Y-34201100D01*
G37*
X-16433800Y-34201100D02*
X-15938500Y-34201100D01*
X-15938500Y-34632900D01*
X-16434855Y-34632900D01*
X-16430632Y-35302825D01*
X-16429618Y-35457298D01*
X-16428549Y-35588519D01*
X-16427228Y-35698636D01*
X-16425456Y-35789796D01*
X-16423038Y-35864146D01*
X-16419775Y-35923834D01*
X-16415471Y-35971007D01*
X-16409928Y-36007814D01*
X-16402949Y-36036401D01*
X-16394337Y-36058915D01*
X-16383894Y-36077505D01*
X-16371424Y-36094319D01*
X-16356729Y-36111502D01*
X-16356316Y-36111973D01*
X-16315560Y-36148014D01*
X-16263697Y-36173858D01*
X-16197051Y-36190548D01*
X-16111946Y-36199127D01*
X-16043054Y-36200854D01*
X-15899957Y-36201350D01*
X-15903354Y-36423600D01*
X-15906750Y-36645850D01*
X-16027400Y-36667429D01*
X-16111164Y-36678980D01*
X-16203321Y-36685968D01*
X-16296971Y-36688360D01*
X-16385211Y-36686119D01*
X-16461143Y-36679212D01*
X-16510000Y-36669875D01*
X-16621167Y-36631381D01*
X-16715000Y-36579217D01*
X-16784305Y-36522890D01*
X-16842279Y-36462327D01*
X-16884992Y-36402166D01*
X-16917554Y-36333724D01*
X-16944319Y-36251055D01*
X-16950144Y-36229385D01*
X-16955117Y-36208099D01*
X-16959318Y-36185037D01*
X-16962831Y-36158040D01*
X-16965737Y-36124949D01*
X-16968117Y-36083605D01*
X-16970055Y-36031849D01*
X-16971631Y-35967522D01*
X-16972927Y-35888465D01*
X-16974025Y-35792519D01*
X-16975007Y-35677524D01*
X-16975955Y-35541322D01*
X-16976891Y-35391725D01*
X-16981517Y-34632900D01*
X-17284700Y-34632900D01*
X-17284700Y-34201100D01*
X-16946347Y-34201100D01*
X-16921849Y-33880645D01*
X-16897350Y-33560191D01*
X-16725900Y-33545103D01*
X-16656401Y-33538878D01*
X-16590372Y-33532770D01*
X-16534843Y-33527442D01*
X-16496845Y-33523556D01*
X-16494125Y-33523255D01*
X-16433800Y-33516496D01*
X-16433800Y-34201100D01*
G36*
X11647599Y-33292800D02*
G01*
X11813720Y-33314746D01*
X11972462Y-33352452D01*
X12121465Y-33404950D01*
X12258369Y-33471267D01*
X12380811Y-33550434D01*
X12486433Y-33641482D01*
X12572871Y-33743439D01*
X12633952Y-33847151D01*
X12663576Y-33910550D01*
X12682322Y-33955045D01*
X12690569Y-33984501D01*
X12688695Y-34002785D01*
X12677080Y-34013761D01*
X12656101Y-34021296D01*
X12651144Y-34022642D01*
X12616029Y-34031741D01*
X12565361Y-34044534D01*
X12503556Y-34059941D01*
X12435030Y-34076882D01*
X12364200Y-34094276D01*
X12295480Y-34111043D01*
X12233286Y-34126101D01*
X12182035Y-34138370D01*
X12146141Y-34146771D01*
X12130021Y-34150221D01*
X12129659Y-34150253D01*
X12120610Y-34139800D01*
X12103717Y-34112281D01*
X12082437Y-34073375D01*
X12079826Y-34068354D01*
X12019385Y-33978415D01*
X11939875Y-33902706D01*
X11844738Y-33843692D01*
X11737414Y-33803838D01*
X11698086Y-33794962D01*
X11603145Y-33783309D01*
X11500386Y-33781529D01*
X11396848Y-33788937D01*
X11299567Y-33804845D01*
X11215582Y-33828567D01*
X11175027Y-33845995D01*
X11095448Y-33898240D01*
X11033332Y-33962759D01*
X10989355Y-34036042D01*
X10964194Y-34114581D01*
X10958525Y-34194865D01*
X10973025Y-34273384D01*
X11008370Y-34346629D01*
X11065237Y-34411091D01*
X11065991Y-34411744D01*
X11097999Y-34437897D01*
X11131046Y-34461113D01*
X11167824Y-34482362D01*
X11211023Y-34502616D01*
X11263334Y-34522844D01*
X11327446Y-34544017D01*
X11406051Y-34567106D01*
X11501839Y-34593081D01*
X11617501Y-34622913D01*
X11729023Y-34650925D01*
X11880901Y-34689681D01*
X12010645Y-34724976D01*
X12121106Y-34757912D01*
X12215138Y-34789594D01*
X12295591Y-34821124D01*
X12365317Y-34853607D01*
X12427170Y-34888145D01*
X12484000Y-34925842D01*
X12530021Y-34960819D01*
X12615673Y-35044691D01*
X12689277Y-35147595D01*
X12748994Y-35265303D01*
X12792984Y-35393589D01*
X12819408Y-35528224D01*
X12826683Y-35642550D01*
X12817542Y-35799698D01*
X12789030Y-35941853D01*
X12740120Y-36071587D01*
X12669787Y-36191475D01*
X12577004Y-36304090D01*
X12553271Y-36328350D01*
X12426544Y-36436364D01*
X12282839Y-36525555D01*
X12122302Y-36595856D01*
X11945080Y-36647202D01*
X11773233Y-36676929D01*
X11717472Y-36681798D01*
X11643932Y-36685329D01*
X11560041Y-36687454D01*
X11473228Y-36688103D01*
X11390919Y-36687211D01*
X11320542Y-36684707D01*
X11277600Y-36681474D01*
X11108468Y-36654544D01*
X10943037Y-36611248D01*
X10786127Y-36553412D01*
X10642554Y-36482861D01*
X10517136Y-36401422D01*
X10496595Y-36385536D01*
X10431969Y-36326283D01*
X10365526Y-36252020D01*
X10304349Y-36171527D01*
X10255522Y-36093583D01*
X10245492Y-36074350D01*
X10221050Y-36021469D01*
X10198794Y-35967080D01*
X10180592Y-35916583D01*
X10168313Y-35875380D01*
X10163823Y-35848873D01*
X10165329Y-35842537D01*
X10180328Y-35836968D01*
X10215749Y-35827566D01*
X10267282Y-35815237D01*
X10330618Y-35800888D01*
X10401445Y-35785425D01*
X10475455Y-35769754D01*
X10548335Y-35754781D01*
X10615777Y-35741412D01*
X10673471Y-35730554D01*
X10717105Y-35723113D01*
X10742370Y-35719994D01*
X10746715Y-35720304D01*
X10755442Y-35736850D01*
X10756900Y-35749543D01*
X10762367Y-35771412D01*
X10776836Y-35808439D01*
X10797405Y-35853343D01*
X10801793Y-35862225D01*
X10862944Y-35958523D01*
X10941986Y-36038052D01*
X11039696Y-36101367D01*
X11156850Y-36149025D01*
X11229367Y-36168653D01*
X11376821Y-36194645D01*
X11518897Y-36204258D01*
X11653315Y-36198137D01*
X11777793Y-36176931D01*
X11890052Y-36141288D01*
X11987812Y-36091856D01*
X12068793Y-36029281D01*
X12130716Y-35954211D01*
X12157008Y-35905181D01*
X12171084Y-35865288D01*
X12177613Y-35821761D01*
X12177894Y-35764835D01*
X12177368Y-35752136D01*
X12162661Y-35650285D01*
X12128239Y-35564013D01*
X12073396Y-35492365D01*
X11997426Y-35434386D01*
X11912600Y-35393937D01*
X11882869Y-35384049D01*
X11832220Y-35368880D01*
X11764334Y-35349463D01*
X11682895Y-35326829D01*
X11591586Y-35302010D01*
X11494092Y-35276037D01*
X11455400Y-35265873D01*
X11323105Y-35231070D01*
X11212420Y-35201425D01*
X11120299Y-35175977D01*
X11043701Y-35153767D01*
X10979581Y-35133836D01*
X10924896Y-35115222D01*
X10876602Y-35096968D01*
X10831656Y-35078112D01*
X10787015Y-35057695D01*
X10770917Y-35050011D01*
X10663470Y-34984564D01*
X10567414Y-34898480D01*
X10485041Y-34794835D01*
X10418641Y-34676704D01*
X10370503Y-34547163D01*
X10357214Y-34494397D01*
X10343027Y-34401599D01*
X10336990Y-34296542D01*
X10339000Y-34188867D01*
X10348957Y-34088217D01*
X10362168Y-34020816D01*
X10410454Y-33881766D01*
X10480283Y-33754908D01*
X10570419Y-33641186D01*
X10679631Y-33541545D01*
X10806684Y-33456930D01*
X10950347Y-33388287D01*
X11109385Y-33336560D01*
X11282566Y-33302694D01*
X11302666Y-33300070D01*
X11476461Y-33287584D01*
X11647599Y-33292800D01*
X11647599Y-33292800D01*
G37*
X11647599Y-33292800D02*
X11813720Y-33314746D01*
X11972462Y-33352452D01*
X12121465Y-33404950D01*
X12258369Y-33471267D01*
X12380811Y-33550434D01*
X12486433Y-33641482D01*
X12572871Y-33743439D01*
X12633952Y-33847151D01*
X12663576Y-33910550D01*
X12682322Y-33955045D01*
X12690569Y-33984501D01*
X12688695Y-34002785D01*
X12677080Y-34013761D01*
X12656101Y-34021296D01*
X12651144Y-34022642D01*
X12616029Y-34031741D01*
X12565361Y-34044534D01*
X12503556Y-34059941D01*
X12435030Y-34076882D01*
X12364200Y-34094276D01*
X12295480Y-34111043D01*
X12233286Y-34126101D01*
X12182035Y-34138370D01*
X12146141Y-34146771D01*
X12130021Y-34150221D01*
X12129659Y-34150253D01*
X12120610Y-34139800D01*
X12103717Y-34112281D01*
X12082437Y-34073375D01*
X12079826Y-34068354D01*
X12019385Y-33978415D01*
X11939875Y-33902706D01*
X11844738Y-33843692D01*
X11737414Y-33803838D01*
X11698086Y-33794962D01*
X11603145Y-33783309D01*
X11500386Y-33781529D01*
X11396848Y-33788937D01*
X11299567Y-33804845D01*
X11215582Y-33828567D01*
X11175027Y-33845995D01*
X11095448Y-33898240D01*
X11033332Y-33962759D01*
X10989355Y-34036042D01*
X10964194Y-34114581D01*
X10958525Y-34194865D01*
X10973025Y-34273384D01*
X11008370Y-34346629D01*
X11065237Y-34411091D01*
X11065991Y-34411744D01*
X11097999Y-34437897D01*
X11131046Y-34461113D01*
X11167824Y-34482362D01*
X11211023Y-34502616D01*
X11263334Y-34522844D01*
X11327446Y-34544017D01*
X11406051Y-34567106D01*
X11501839Y-34593081D01*
X11617501Y-34622913D01*
X11729023Y-34650925D01*
X11880901Y-34689681D01*
X12010645Y-34724976D01*
X12121106Y-34757912D01*
X12215138Y-34789594D01*
X12295591Y-34821124D01*
X12365317Y-34853607D01*
X12427170Y-34888145D01*
X12484000Y-34925842D01*
X12530021Y-34960819D01*
X12615673Y-35044691D01*
X12689277Y-35147595D01*
X12748994Y-35265303D01*
X12792984Y-35393589D01*
X12819408Y-35528224D01*
X12826683Y-35642550D01*
X12817542Y-35799698D01*
X12789030Y-35941853D01*
X12740120Y-36071587D01*
X12669787Y-36191475D01*
X12577004Y-36304090D01*
X12553271Y-36328350D01*
X12426544Y-36436364D01*
X12282839Y-36525555D01*
X12122302Y-36595856D01*
X11945080Y-36647202D01*
X11773233Y-36676929D01*
X11717472Y-36681798D01*
X11643932Y-36685329D01*
X11560041Y-36687454D01*
X11473228Y-36688103D01*
X11390919Y-36687211D01*
X11320542Y-36684707D01*
X11277600Y-36681474D01*
X11108468Y-36654544D01*
X10943037Y-36611248D01*
X10786127Y-36553412D01*
X10642554Y-36482861D01*
X10517136Y-36401422D01*
X10496595Y-36385536D01*
X10431969Y-36326283D01*
X10365526Y-36252020D01*
X10304349Y-36171527D01*
X10255522Y-36093583D01*
X10245492Y-36074350D01*
X10221050Y-36021469D01*
X10198794Y-35967080D01*
X10180592Y-35916583D01*
X10168313Y-35875380D01*
X10163823Y-35848873D01*
X10165329Y-35842537D01*
X10180328Y-35836968D01*
X10215749Y-35827566D01*
X10267282Y-35815237D01*
X10330618Y-35800888D01*
X10401445Y-35785425D01*
X10475455Y-35769754D01*
X10548335Y-35754781D01*
X10615777Y-35741412D01*
X10673471Y-35730554D01*
X10717105Y-35723113D01*
X10742370Y-35719994D01*
X10746715Y-35720304D01*
X10755442Y-35736850D01*
X10756900Y-35749543D01*
X10762367Y-35771412D01*
X10776836Y-35808439D01*
X10797405Y-35853343D01*
X10801793Y-35862225D01*
X10862944Y-35958523D01*
X10941986Y-36038052D01*
X11039696Y-36101367D01*
X11156850Y-36149025D01*
X11229367Y-36168653D01*
X11376821Y-36194645D01*
X11518897Y-36204258D01*
X11653315Y-36198137D01*
X11777793Y-36176931D01*
X11890052Y-36141288D01*
X11987812Y-36091856D01*
X12068793Y-36029281D01*
X12130716Y-35954211D01*
X12157008Y-35905181D01*
X12171084Y-35865288D01*
X12177613Y-35821761D01*
X12177894Y-35764835D01*
X12177368Y-35752136D01*
X12162661Y-35650285D01*
X12128239Y-35564013D01*
X12073396Y-35492365D01*
X11997426Y-35434386D01*
X11912600Y-35393937D01*
X11882869Y-35384049D01*
X11832220Y-35368880D01*
X11764334Y-35349463D01*
X11682895Y-35326829D01*
X11591586Y-35302010D01*
X11494092Y-35276037D01*
X11455400Y-35265873D01*
X11323105Y-35231070D01*
X11212420Y-35201425D01*
X11120299Y-35175977D01*
X11043701Y-35153767D01*
X10979581Y-35133836D01*
X10924896Y-35115222D01*
X10876602Y-35096968D01*
X10831656Y-35078112D01*
X10787015Y-35057695D01*
X10770917Y-35050011D01*
X10663470Y-34984564D01*
X10567414Y-34898480D01*
X10485041Y-34794835D01*
X10418641Y-34676704D01*
X10370503Y-34547163D01*
X10357214Y-34494397D01*
X10343027Y-34401599D01*
X10336990Y-34296542D01*
X10339000Y-34188867D01*
X10348957Y-34088217D01*
X10362168Y-34020816D01*
X10410454Y-33881766D01*
X10480283Y-33754908D01*
X10570419Y-33641186D01*
X10679631Y-33541545D01*
X10806684Y-33456930D01*
X10950347Y-33388287D01*
X11109385Y-33336560D01*
X11282566Y-33302694D01*
X11302666Y-33300070D01*
X11476461Y-33287584D01*
X11647599Y-33292800D01*
G36*
X24818060Y-33524038D02*
G01*
X24821943Y-33536558D01*
X24824728Y-33559664D01*
X24826594Y-33596094D01*
X24827723Y-33648588D01*
X24828294Y-33719887D01*
X24828487Y-33812730D01*
X24828500Y-33857344D01*
X24828500Y-34201100D01*
X25323800Y-34201100D01*
X25323800Y-34632900D01*
X24828500Y-34632900D01*
X24828751Y-35239325D01*
X24829063Y-35364428D01*
X24829858Y-35484485D01*
X24831082Y-35596547D01*
X24832681Y-35697664D01*
X24834600Y-35784887D01*
X24836785Y-35855266D01*
X24839182Y-35905851D01*
X24841479Y-35932035D01*
X24858908Y-36015400D01*
X24886006Y-36080735D01*
X24925322Y-36129851D01*
X24979407Y-36164560D01*
X25050810Y-36186675D01*
X25142082Y-36198008D01*
X25219226Y-36200496D01*
X25362302Y-36201350D01*
X25358926Y-36423090D01*
X25355550Y-36644831D01*
X25279350Y-36661712D01*
X25220647Y-36671357D01*
X25146610Y-36678555D01*
X25063697Y-36683186D01*
X24978368Y-36685132D01*
X24897082Y-36684274D01*
X24826299Y-36680494D01*
X24772478Y-36673671D01*
X24761509Y-36671245D01*
X24638972Y-36628844D01*
X24534284Y-36568504D01*
X24447811Y-36490593D01*
X24379918Y-36395482D01*
X24330971Y-36283536D01*
X24313495Y-36220400D01*
X24308787Y-36197298D01*
X24304735Y-36170650D01*
X24301269Y-36138321D01*
X24298317Y-36098177D01*
X24295812Y-36048081D01*
X24293681Y-35985898D01*
X24291856Y-35909495D01*
X24290266Y-35816734D01*
X24288841Y-35705482D01*
X24287511Y-35573602D01*
X24286207Y-35418960D01*
X24285896Y-35379025D01*
X24280158Y-34632900D01*
X23977600Y-34632900D01*
X23977600Y-34201100D01*
X24149050Y-34201100D01*
X24217846Y-34200961D01*
X24265240Y-34200101D01*
X24295230Y-34197855D01*
X24311812Y-34193557D01*
X24318986Y-34186544D01*
X24320748Y-34176149D01*
X24320816Y-34172525D01*
X24322260Y-34136269D01*
X24325727Y-34083451D01*
X24330806Y-34018338D01*
X24337082Y-33945193D01*
X24344143Y-33868283D01*
X24351577Y-33791872D01*
X24358970Y-33720227D01*
X24365910Y-33657612D01*
X24371984Y-33608294D01*
X24376779Y-33576537D01*
X24379463Y-33566595D01*
X24395309Y-33562259D01*
X24431871Y-33556766D01*
X24484520Y-33550678D01*
X24548630Y-33544557D01*
X24587200Y-33541372D01*
X24656767Y-33535660D01*
X24718522Y-33530070D01*
X24767489Y-33525092D01*
X24798695Y-33521215D01*
X24806275Y-33519792D01*
X24812897Y-33519362D01*
X24818060Y-33524038D01*
X24818060Y-33524038D01*
G37*
X24818060Y-33524038D02*
X24821943Y-33536558D01*
X24824728Y-33559664D01*
X24826594Y-33596094D01*
X24827723Y-33648588D01*
X24828294Y-33719887D01*
X24828487Y-33812730D01*
X24828500Y-33857344D01*
X24828500Y-34201100D01*
X25323800Y-34201100D01*
X25323800Y-34632900D01*
X24828500Y-34632900D01*
X24828751Y-35239325D01*
X24829063Y-35364428D01*
X24829858Y-35484485D01*
X24831082Y-35596547D01*
X24832681Y-35697664D01*
X24834600Y-35784887D01*
X24836785Y-35855266D01*
X24839182Y-35905851D01*
X24841479Y-35932035D01*
X24858908Y-36015400D01*
X24886006Y-36080735D01*
X24925322Y-36129851D01*
X24979407Y-36164560D01*
X25050810Y-36186675D01*
X25142082Y-36198008D01*
X25219226Y-36200496D01*
X25362302Y-36201350D01*
X25358926Y-36423090D01*
X25355550Y-36644831D01*
X25279350Y-36661712D01*
X25220647Y-36671357D01*
X25146610Y-36678555D01*
X25063697Y-36683186D01*
X24978368Y-36685132D01*
X24897082Y-36684274D01*
X24826299Y-36680494D01*
X24772478Y-36673671D01*
X24761509Y-36671245D01*
X24638972Y-36628844D01*
X24534284Y-36568504D01*
X24447811Y-36490593D01*
X24379918Y-36395482D01*
X24330971Y-36283536D01*
X24313495Y-36220400D01*
X24308787Y-36197298D01*
X24304735Y-36170650D01*
X24301269Y-36138321D01*
X24298317Y-36098177D01*
X24295812Y-36048081D01*
X24293681Y-35985898D01*
X24291856Y-35909495D01*
X24290266Y-35816734D01*
X24288841Y-35705482D01*
X24287511Y-35573602D01*
X24286207Y-35418960D01*
X24285896Y-35379025D01*
X24280158Y-34632900D01*
X23977600Y-34632900D01*
X23977600Y-34201100D01*
X24149050Y-34201100D01*
X24217846Y-34200961D01*
X24265240Y-34200101D01*
X24295230Y-34197855D01*
X24311812Y-34193557D01*
X24318986Y-34186544D01*
X24320748Y-34176149D01*
X24320816Y-34172525D01*
X24322260Y-34136269D01*
X24325727Y-34083451D01*
X24330806Y-34018338D01*
X24337082Y-33945193D01*
X24344143Y-33868283D01*
X24351577Y-33791872D01*
X24358970Y-33720227D01*
X24365910Y-33657612D01*
X24371984Y-33608294D01*
X24376779Y-33576537D01*
X24379463Y-33566595D01*
X24395309Y-33562259D01*
X24431871Y-33556766D01*
X24484520Y-33550678D01*
X24548630Y-33544557D01*
X24587200Y-33541372D01*
X24656767Y-33535660D01*
X24718522Y-33530070D01*
X24767489Y-33525092D01*
X24798695Y-33521215D01*
X24806275Y-33519792D01*
X24812897Y-33519362D01*
X24818060Y-33524038D01*
G36*
X29519322Y-34151433D02*
G01*
X29614352Y-34156146D01*
X29703461Y-34164611D01*
X29779708Y-34176515D01*
X29825950Y-34188038D01*
X29978899Y-34249717D01*
X30118990Y-34332581D01*
X30244671Y-34435072D01*
X30354389Y-34555630D01*
X30446593Y-34692695D01*
X30519731Y-34844709D01*
X30542997Y-34908445D01*
X30587185Y-35076283D01*
X30612640Y-35255632D01*
X30619205Y-35440681D01*
X30606724Y-35625618D01*
X30575039Y-35804629D01*
X30567992Y-35833050D01*
X30515365Y-35988779D01*
X30441329Y-36135940D01*
X30348246Y-36271550D01*
X30238480Y-36392627D01*
X30114394Y-36496186D01*
X29978351Y-36579245D01*
X29975904Y-36580485D01*
X29877869Y-36623379D01*
X29775709Y-36653953D01*
X29663320Y-36673533D01*
X29534593Y-36683442D01*
X29495750Y-36684643D01*
X29422273Y-36685378D01*
X29351844Y-36684430D01*
X29291189Y-36682002D01*
X29247032Y-36678295D01*
X29237481Y-36676871D01*
X29189889Y-36666342D01*
X29131464Y-36650575D01*
X29077507Y-36633841D01*
X28942958Y-36575438D01*
X28818940Y-36494621D01*
X28706340Y-36392475D01*
X28606044Y-36270083D01*
X28518939Y-36128530D01*
X28445912Y-35968899D01*
X28387848Y-35792275D01*
X28387105Y-35789536D01*
X28375805Y-35745998D01*
X28367424Y-35707431D01*
X28361531Y-35668823D01*
X28357695Y-35625164D01*
X28355484Y-35571445D01*
X28354466Y-35502653D01*
X28354210Y-35413950D01*
X28950452Y-35413950D01*
X28950602Y-35507736D01*
X28951846Y-35580786D01*
X28954496Y-35637752D01*
X28958866Y-35683287D01*
X28965268Y-35722043D01*
X28973527Y-35756850D01*
X29014741Y-35881357D01*
X29066488Y-35984630D01*
X29129986Y-36069061D01*
X29134716Y-36074131D01*
X29217583Y-36145918D01*
X29308870Y-36194427D01*
X29409555Y-36219918D01*
X29520620Y-36222653D01*
X29629100Y-36206137D01*
X29720437Y-36172940D01*
X29801287Y-36116919D01*
X29871233Y-36038568D01*
X29929856Y-35938380D01*
X29976741Y-35816851D01*
X29986839Y-35782250D01*
X29996623Y-35743771D01*
X30003886Y-35706467D01*
X30009009Y-35665542D01*
X30012372Y-35616201D01*
X30014358Y-35553648D01*
X30015347Y-35473088D01*
X30015600Y-35420300D01*
X30015641Y-35329300D01*
X30014841Y-35258847D01*
X30012823Y-35204088D01*
X30009210Y-35160173D01*
X30003626Y-35122253D01*
X29995694Y-35085476D01*
X29987000Y-35052136D01*
X29943239Y-34923954D01*
X29887918Y-34818201D01*
X29820645Y-34734491D01*
X29741026Y-34672440D01*
X29648669Y-34631661D01*
X29543182Y-34611770D01*
X29537478Y-34611311D01*
X29421122Y-34612352D01*
X29317781Y-34634357D01*
X29226935Y-34677739D01*
X29148060Y-34742910D01*
X29080634Y-34830281D01*
X29024136Y-34940263D01*
X28986110Y-35045928D01*
X28974072Y-35086558D01*
X28965147Y-35122006D01*
X28958859Y-35157202D01*
X28954728Y-35197074D01*
X28952279Y-35246551D01*
X28951033Y-35310562D01*
X28950512Y-35394036D01*
X28950452Y-35413950D01*
X28354210Y-35413950D01*
X28354209Y-35413780D01*
X28354209Y-35407600D01*
X28354428Y-35317448D01*
X28355375Y-35247668D01*
X28357489Y-35193234D01*
X28361205Y-35149120D01*
X28366959Y-35110300D01*
X28375189Y-35071747D01*
X28386330Y-35028435D01*
X28387530Y-35023986D01*
X28444920Y-34852759D01*
X28520195Y-34698790D01*
X28614333Y-34560380D01*
X28723115Y-34440801D01*
X28848006Y-34336529D01*
X28982309Y-34255565D01*
X29127859Y-34196972D01*
X29268092Y-34162927D01*
X29339252Y-34154511D01*
X29425309Y-34150784D01*
X29519322Y-34151433D01*
X29519322Y-34151433D01*
G37*
X29519322Y-34151433D02*
X29614352Y-34156146D01*
X29703461Y-34164611D01*
X29779708Y-34176515D01*
X29825950Y-34188038D01*
X29978899Y-34249717D01*
X30118990Y-34332581D01*
X30244671Y-34435072D01*
X30354389Y-34555630D01*
X30446593Y-34692695D01*
X30519731Y-34844709D01*
X30542997Y-34908445D01*
X30587185Y-35076283D01*
X30612640Y-35255632D01*
X30619205Y-35440681D01*
X30606724Y-35625618D01*
X30575039Y-35804629D01*
X30567992Y-35833050D01*
X30515365Y-35988779D01*
X30441329Y-36135940D01*
X30348246Y-36271550D01*
X30238480Y-36392627D01*
X30114394Y-36496186D01*
X29978351Y-36579245D01*
X29975904Y-36580485D01*
X29877869Y-36623379D01*
X29775709Y-36653953D01*
X29663320Y-36673533D01*
X29534593Y-36683442D01*
X29495750Y-36684643D01*
X29422273Y-36685378D01*
X29351844Y-36684430D01*
X29291189Y-36682002D01*
X29247032Y-36678295D01*
X29237481Y-36676871D01*
X29189889Y-36666342D01*
X29131464Y-36650575D01*
X29077507Y-36633841D01*
X28942958Y-36575438D01*
X28818940Y-36494621D01*
X28706340Y-36392475D01*
X28606044Y-36270083D01*
X28518939Y-36128530D01*
X28445912Y-35968899D01*
X28387848Y-35792275D01*
X28387105Y-35789536D01*
X28375805Y-35745998D01*
X28367424Y-35707431D01*
X28361531Y-35668823D01*
X28357695Y-35625164D01*
X28355484Y-35571445D01*
X28354466Y-35502653D01*
X28354210Y-35413950D01*
X28950452Y-35413950D01*
X28950602Y-35507736D01*
X28951846Y-35580786D01*
X28954496Y-35637752D01*
X28958866Y-35683287D01*
X28965268Y-35722043D01*
X28973527Y-35756850D01*
X29014741Y-35881357D01*
X29066488Y-35984630D01*
X29129986Y-36069061D01*
X29134716Y-36074131D01*
X29217583Y-36145918D01*
X29308870Y-36194427D01*
X29409555Y-36219918D01*
X29520620Y-36222653D01*
X29629100Y-36206137D01*
X29720437Y-36172940D01*
X29801287Y-36116919D01*
X29871233Y-36038568D01*
X29929856Y-35938380D01*
X29976741Y-35816851D01*
X29986839Y-35782250D01*
X29996623Y-35743771D01*
X30003886Y-35706467D01*
X30009009Y-35665542D01*
X30012372Y-35616201D01*
X30014358Y-35553648D01*
X30015347Y-35473088D01*
X30015600Y-35420300D01*
X30015641Y-35329300D01*
X30014841Y-35258847D01*
X30012823Y-35204088D01*
X30009210Y-35160173D01*
X30003626Y-35122253D01*
X29995694Y-35085476D01*
X29987000Y-35052136D01*
X29943239Y-34923954D01*
X29887918Y-34818201D01*
X29820645Y-34734491D01*
X29741026Y-34672440D01*
X29648669Y-34631661D01*
X29543182Y-34611770D01*
X29537478Y-34611311D01*
X29421122Y-34612352D01*
X29317781Y-34634357D01*
X29226935Y-34677739D01*
X29148060Y-34742910D01*
X29080634Y-34830281D01*
X29024136Y-34940263D01*
X28986110Y-35045928D01*
X28974072Y-35086558D01*
X28965147Y-35122006D01*
X28958859Y-35157202D01*
X28954728Y-35197074D01*
X28952279Y-35246551D01*
X28951033Y-35310562D01*
X28950512Y-35394036D01*
X28950452Y-35413950D01*
X28354210Y-35413950D01*
X28354209Y-35413780D01*
X28354209Y-35407600D01*
X28354428Y-35317448D01*
X28355375Y-35247668D01*
X28357489Y-35193234D01*
X28361205Y-35149120D01*
X28366959Y-35110300D01*
X28375189Y-35071747D01*
X28386330Y-35028435D01*
X28387530Y-35023986D01*
X28444920Y-34852759D01*
X28520195Y-34698790D01*
X28614333Y-34560380D01*
X28723115Y-34440801D01*
X28848006Y-34336529D01*
X28982309Y-34255565D01*
X29127859Y-34196972D01*
X29268092Y-34162927D01*
X29339252Y-34154511D01*
X29425309Y-34150784D01*
X29519322Y-34151433D01*
G36*
X31686500Y-35022384D02*
G01*
X31686584Y-35199607D01*
X31686905Y-35353333D01*
X31687565Y-35485465D01*
X31688666Y-35597907D01*
X31690310Y-35692562D01*
X31692599Y-35771332D01*
X31695636Y-35836120D01*
X31699522Y-35888831D01*
X31704360Y-35931366D01*
X31710252Y-35965628D01*
X31717299Y-35993522D01*
X31725604Y-36016949D01*
X31735270Y-36037814D01*
X31741623Y-36049640D01*
X31777847Y-36095649D01*
X31830763Y-36139785D01*
X31892006Y-36176017D01*
X31944851Y-36196225D01*
X32021229Y-36204921D01*
X32106379Y-36194237D01*
X32195056Y-36165979D01*
X32282016Y-36121949D01*
X32362016Y-36063952D01*
X32382075Y-36045816D01*
X32429599Y-35994782D01*
X32466766Y-35939616D01*
X32497289Y-35873513D01*
X32524884Y-35789666D01*
X32528186Y-35778047D01*
X32533954Y-35756652D01*
X32538867Y-35735373D01*
X32543008Y-35712024D01*
X32546460Y-35684417D01*
X32549305Y-35650365D01*
X32551627Y-35607682D01*
X32553507Y-35554181D01*
X32555028Y-35487675D01*
X32556274Y-35405978D01*
X32557325Y-35306902D01*
X32558266Y-35188260D01*
X32559178Y-35047867D01*
X32559813Y-34940875D01*
X32564119Y-34201100D01*
X33134300Y-34201100D01*
X33134300Y-36639500D01*
X32600900Y-36639500D01*
X32600504Y-36407725D01*
X32600109Y-36175950D01*
X32546733Y-36277550D01*
X32473563Y-36392166D01*
X32383813Y-36491259D01*
X32280496Y-36572460D01*
X32166624Y-36633399D01*
X32045743Y-36671594D01*
X31966877Y-36682971D01*
X31874248Y-36688081D01*
X31778312Y-36686936D01*
X31689530Y-36679550D01*
X31639201Y-36671104D01*
X31524789Y-36633657D01*
X31418488Y-36574365D01*
X31324315Y-36496453D01*
X31246286Y-36403143D01*
X31196353Y-36315650D01*
X31181664Y-36283246D01*
X31168857Y-36252600D01*
X31157804Y-36221794D01*
X31148376Y-36188914D01*
X31140444Y-36152043D01*
X31133878Y-36109267D01*
X31128550Y-36058669D01*
X31124331Y-35998334D01*
X31121091Y-35926346D01*
X31118702Y-35840790D01*
X31117035Y-35739750D01*
X31115960Y-35621311D01*
X31115348Y-35483557D01*
X31115072Y-35324572D01*
X31115000Y-35142440D01*
X31115000Y-34201100D01*
X31686500Y-34201100D01*
X31686500Y-35022384D01*
X31686500Y-35022384D01*
G37*
X31686500Y-35022384D02*
X31686584Y-35199607D01*
X31686905Y-35353333D01*
X31687565Y-35485465D01*
X31688666Y-35597907D01*
X31690310Y-35692562D01*
X31692599Y-35771332D01*
X31695636Y-35836120D01*
X31699522Y-35888831D01*
X31704360Y-35931366D01*
X31710252Y-35965628D01*
X31717299Y-35993522D01*
X31725604Y-36016949D01*
X31735270Y-36037814D01*
X31741623Y-36049640D01*
X31777847Y-36095649D01*
X31830763Y-36139785D01*
X31892006Y-36176017D01*
X31944851Y-36196225D01*
X32021229Y-36204921D01*
X32106379Y-36194237D01*
X32195056Y-36165979D01*
X32282016Y-36121949D01*
X32362016Y-36063952D01*
X32382075Y-36045816D01*
X32429599Y-35994782D01*
X32466766Y-35939616D01*
X32497289Y-35873513D01*
X32524884Y-35789666D01*
X32528186Y-35778047D01*
X32533954Y-35756652D01*
X32538867Y-35735373D01*
X32543008Y-35712024D01*
X32546460Y-35684417D01*
X32549305Y-35650365D01*
X32551627Y-35607682D01*
X32553507Y-35554181D01*
X32555028Y-35487675D01*
X32556274Y-35405978D01*
X32557325Y-35306902D01*
X32558266Y-35188260D01*
X32559178Y-35047867D01*
X32559813Y-34940875D01*
X32564119Y-34201100D01*
X33134300Y-34201100D01*
X33134300Y-36639500D01*
X32600900Y-36639500D01*
X32600504Y-36407725D01*
X32600109Y-36175950D01*
X32546733Y-36277550D01*
X32473563Y-36392166D01*
X32383813Y-36491259D01*
X32280496Y-36572460D01*
X32166624Y-36633399D01*
X32045743Y-36671594D01*
X31966877Y-36682971D01*
X31874248Y-36688081D01*
X31778312Y-36686936D01*
X31689530Y-36679550D01*
X31639201Y-36671104D01*
X31524789Y-36633657D01*
X31418488Y-36574365D01*
X31324315Y-36496453D01*
X31246286Y-36403143D01*
X31196353Y-36315650D01*
X31181664Y-36283246D01*
X31168857Y-36252600D01*
X31157804Y-36221794D01*
X31148376Y-36188914D01*
X31140444Y-36152043D01*
X31133878Y-36109267D01*
X31128550Y-36058669D01*
X31124331Y-35998334D01*
X31121091Y-35926346D01*
X31118702Y-35840790D01*
X31117035Y-35739750D01*
X31115960Y-35621311D01*
X31115348Y-35483557D01*
X31115072Y-35324572D01*
X31115000Y-35142440D01*
X31115000Y-34201100D01*
X31686500Y-34201100D01*
X31686500Y-35022384D01*
G36*
X34368460Y-33524038D02*
G01*
X34372343Y-33536558D01*
X34375128Y-33559664D01*
X34376994Y-33596094D01*
X34378123Y-33648588D01*
X34378694Y-33719887D01*
X34378887Y-33812730D01*
X34378900Y-33857344D01*
X34378900Y-34201100D01*
X34874200Y-34201100D01*
X34874200Y-34632900D01*
X34378900Y-34632900D01*
X34378995Y-35245675D01*
X34379298Y-35385659D01*
X34380132Y-35515280D01*
X34381453Y-35632220D01*
X34383216Y-35734167D01*
X34385379Y-35818803D01*
X34387895Y-35883815D01*
X34390722Y-35926887D01*
X34392220Y-35939358D01*
X34410856Y-36021044D01*
X34438913Y-36084902D01*
X34479016Y-36132747D01*
X34533788Y-36166393D01*
X34605851Y-36187656D01*
X34697829Y-36198351D01*
X34769626Y-36200496D01*
X34912702Y-36201350D01*
X34905950Y-36645850D01*
X34785300Y-36667429D01*
X34713525Y-36677314D01*
X34630505Y-36684073D01*
X34543571Y-36687550D01*
X34460053Y-36687587D01*
X34387282Y-36684028D01*
X34334450Y-36677103D01*
X34215544Y-36641229D01*
X34109289Y-36585874D01*
X34018341Y-36512965D01*
X33945354Y-36424432D01*
X33915255Y-36372612D01*
X33900938Y-36343390D01*
X33888618Y-36314982D01*
X33878128Y-36285279D01*
X33869301Y-36252169D01*
X33861968Y-36213541D01*
X33855963Y-36167284D01*
X33851118Y-36111287D01*
X33847266Y-36043440D01*
X33844239Y-35961629D01*
X33841870Y-35863746D01*
X33839992Y-35747679D01*
X33838437Y-35611316D01*
X33837037Y-35452548D01*
X33836458Y-35379025D01*
X33830701Y-34632900D01*
X33528000Y-34632900D01*
X33528000Y-34201100D01*
X33870900Y-34201100D01*
X33871496Y-34166175D01*
X33873159Y-34125453D01*
X33876794Y-34069183D01*
X33881990Y-34001641D01*
X33888334Y-33927102D01*
X33895414Y-33849844D01*
X33902817Y-33774142D01*
X33910132Y-33704273D01*
X33916946Y-33644512D01*
X33922847Y-33599136D01*
X33927422Y-33572422D01*
X33929245Y-33567212D01*
X33945315Y-33562662D01*
X33982081Y-33556986D01*
X34034898Y-33550759D01*
X34099120Y-33544560D01*
X34137600Y-33541372D01*
X34207167Y-33535660D01*
X34268922Y-33530070D01*
X34317889Y-33525092D01*
X34349095Y-33521215D01*
X34356675Y-33519792D01*
X34363297Y-33519362D01*
X34368460Y-33524038D01*
X34368460Y-33524038D01*
G37*
X34368460Y-33524038D02*
X34372343Y-33536558D01*
X34375128Y-33559664D01*
X34376994Y-33596094D01*
X34378123Y-33648588D01*
X34378694Y-33719887D01*
X34378887Y-33812730D01*
X34378900Y-33857344D01*
X34378900Y-34201100D01*
X34874200Y-34201100D01*
X34874200Y-34632900D01*
X34378900Y-34632900D01*
X34378995Y-35245675D01*
X34379298Y-35385659D01*
X34380132Y-35515280D01*
X34381453Y-35632220D01*
X34383216Y-35734167D01*
X34385379Y-35818803D01*
X34387895Y-35883815D01*
X34390722Y-35926887D01*
X34392220Y-35939358D01*
X34410856Y-36021044D01*
X34438913Y-36084902D01*
X34479016Y-36132747D01*
X34533788Y-36166393D01*
X34605851Y-36187656D01*
X34697829Y-36198351D01*
X34769626Y-36200496D01*
X34912702Y-36201350D01*
X34905950Y-36645850D01*
X34785300Y-36667429D01*
X34713525Y-36677314D01*
X34630505Y-36684073D01*
X34543571Y-36687550D01*
X34460053Y-36687587D01*
X34387282Y-36684028D01*
X34334450Y-36677103D01*
X34215544Y-36641229D01*
X34109289Y-36585874D01*
X34018341Y-36512965D01*
X33945354Y-36424432D01*
X33915255Y-36372612D01*
X33900938Y-36343390D01*
X33888618Y-36314982D01*
X33878128Y-36285279D01*
X33869301Y-36252169D01*
X33861968Y-36213541D01*
X33855963Y-36167284D01*
X33851118Y-36111287D01*
X33847266Y-36043440D01*
X33844239Y-35961629D01*
X33841870Y-35863746D01*
X33839992Y-35747679D01*
X33838437Y-35611316D01*
X33837037Y-35452548D01*
X33836458Y-35379025D01*
X33830701Y-34632900D01*
X33528000Y-34632900D01*
X33528000Y-34201100D01*
X33870900Y-34201100D01*
X33871496Y-34166175D01*
X33873159Y-34125453D01*
X33876794Y-34069183D01*
X33881990Y-34001641D01*
X33888334Y-33927102D01*
X33895414Y-33849844D01*
X33902817Y-33774142D01*
X33910132Y-33704273D01*
X33916946Y-33644512D01*
X33922847Y-33599136D01*
X33927422Y-33572422D01*
X33929245Y-33567212D01*
X33945315Y-33562662D01*
X33982081Y-33556986D01*
X34034898Y-33550759D01*
X34099120Y-33544560D01*
X34137600Y-33541372D01*
X34207167Y-33535660D01*
X34268922Y-33530070D01*
X34317889Y-33525092D01*
X34349095Y-33521215D01*
X34356675Y-33519792D01*
X34363297Y-33519362D01*
X34368460Y-33524038D01*
G36*
X-27406600Y-36639500D02*
G01*
X-27965400Y-36639500D01*
X-27965400Y-34201100D01*
X-27406600Y-34201100D01*
X-27406600Y-36639500D01*
X-27406600Y-36639500D01*
G37*
X-27406600Y-36639500D02*
X-27965400Y-36639500D01*
X-27965400Y-34201100D01*
X-27406600Y-34201100D01*
X-27406600Y-36639500D01*
G36*
X-26200100Y-36639500D02*
G01*
X-26758900Y-36639500D01*
X-26758900Y-33337500D01*
X-26200100Y-33337500D01*
X-26200100Y-36639500D01*
X-26200100Y-36639500D01*
G37*
X-26200100Y-36639500D02*
X-26758900Y-36639500D01*
X-26758900Y-33337500D01*
X-26200100Y-33337500D01*
X-26200100Y-36639500D01*
G36*
X-25018575Y-34350325D02*
G01*
X-25018149Y-35363150D01*
X-24977300Y-35312769D01*
X-24961200Y-35294148D01*
X-24929596Y-35258722D01*
X-24884193Y-35208366D01*
X-24826698Y-35144957D01*
X-24758817Y-35070370D01*
X-24682255Y-34986480D01*
X-24598719Y-34895163D01*
X-24509915Y-34798295D01*
X-24448798Y-34731744D01*
X-23961146Y-34201100D01*
X-23351364Y-34201100D01*
X-23375557Y-34229304D01*
X-23389432Y-34244948D01*
X-23418313Y-34277106D01*
X-23460130Y-34323487D01*
X-23512814Y-34381800D01*
X-23574295Y-34449755D01*
X-23642503Y-34525060D01*
X-23715370Y-34605426D01*
X-23717250Y-34607500D01*
X-23790116Y-34687862D01*
X-23858296Y-34763134D01*
X-23919736Y-34831041D01*
X-23972382Y-34889310D01*
X-24014177Y-34935665D01*
X-24043068Y-34967832D01*
X-24057000Y-34983537D01*
X-24057163Y-34983728D01*
X-24061182Y-34989322D01*
X-24063542Y-34996397D01*
X-24063517Y-35006559D01*
X-24060380Y-35021418D01*
X-24053404Y-35042583D01*
X-24041863Y-35071661D01*
X-24025029Y-35110262D01*
X-24002176Y-35159994D01*
X-23972576Y-35222465D01*
X-23935504Y-35299285D01*
X-23890231Y-35392061D01*
X-23836032Y-35502403D01*
X-23772179Y-35631918D01*
X-23697945Y-35782215D01*
X-23679338Y-35819869D01*
X-23613313Y-35953542D01*
X-23550685Y-36080465D01*
X-23492350Y-36198818D01*
X-23439202Y-36306778D01*
X-23392136Y-36402524D01*
X-23352046Y-36484237D01*
X-23319827Y-36550094D01*
X-23296373Y-36598274D01*
X-23282579Y-36626957D01*
X-23279100Y-36634637D01*
X-23291213Y-36636012D01*
X-23325199Y-36637237D01*
X-23377533Y-36638253D01*
X-23444690Y-36639002D01*
X-23523144Y-36639426D01*
X-23574436Y-36639500D01*
X-23869772Y-36639500D01*
X-24178522Y-36021845D01*
X-24239602Y-35900247D01*
X-24296483Y-35788169D01*
X-24348219Y-35687410D01*
X-24393862Y-35599763D01*
X-24432465Y-35527027D01*
X-24463080Y-35470998D01*
X-24484760Y-35433472D01*
X-24496558Y-35416247D01*
X-24498277Y-35415420D01*
X-24509219Y-35427417D01*
X-24534872Y-35455949D01*
X-24573056Y-35498579D01*
X-24621591Y-35552870D01*
X-24678300Y-35616386D01*
X-24741001Y-35686690D01*
X-24763914Y-35712400D01*
X-25018545Y-35998150D01*
X-25018773Y-36318825D01*
X-25019000Y-36639500D01*
X-25552400Y-36639500D01*
X-25552400Y-33337500D01*
X-25019000Y-33337500D01*
X-25018575Y-34350325D01*
X-25018575Y-34350325D01*
G37*
X-25018575Y-34350325D02*
X-25018149Y-35363150D01*
X-24977300Y-35312769D01*
X-24961200Y-35294148D01*
X-24929596Y-35258722D01*
X-24884193Y-35208366D01*
X-24826698Y-35144957D01*
X-24758817Y-35070370D01*
X-24682255Y-34986480D01*
X-24598719Y-34895163D01*
X-24509915Y-34798295D01*
X-24448798Y-34731744D01*
X-23961146Y-34201100D01*
X-23351364Y-34201100D01*
X-23375557Y-34229304D01*
X-23389432Y-34244948D01*
X-23418313Y-34277106D01*
X-23460130Y-34323487D01*
X-23512814Y-34381800D01*
X-23574295Y-34449755D01*
X-23642503Y-34525060D01*
X-23715370Y-34605426D01*
X-23717250Y-34607500D01*
X-23790116Y-34687862D01*
X-23858296Y-34763134D01*
X-23919736Y-34831041D01*
X-23972382Y-34889310D01*
X-24014177Y-34935665D01*
X-24043068Y-34967832D01*
X-24057000Y-34983537D01*
X-24057163Y-34983728D01*
X-24061182Y-34989322D01*
X-24063542Y-34996397D01*
X-24063517Y-35006559D01*
X-24060380Y-35021418D01*
X-24053404Y-35042583D01*
X-24041863Y-35071661D01*
X-24025029Y-35110262D01*
X-24002176Y-35159994D01*
X-23972576Y-35222465D01*
X-23935504Y-35299285D01*
X-23890231Y-35392061D01*
X-23836032Y-35502403D01*
X-23772179Y-35631918D01*
X-23697945Y-35782215D01*
X-23679338Y-35819869D01*
X-23613313Y-35953542D01*
X-23550685Y-36080465D01*
X-23492350Y-36198818D01*
X-23439202Y-36306778D01*
X-23392136Y-36402524D01*
X-23352046Y-36484237D01*
X-23319827Y-36550094D01*
X-23296373Y-36598274D01*
X-23282579Y-36626957D01*
X-23279100Y-36634637D01*
X-23291213Y-36636012D01*
X-23325199Y-36637237D01*
X-23377533Y-36638253D01*
X-23444690Y-36639002D01*
X-23523144Y-36639426D01*
X-23574436Y-36639500D01*
X-23869772Y-36639500D01*
X-24178522Y-36021845D01*
X-24239602Y-35900247D01*
X-24296483Y-35788169D01*
X-24348219Y-35687410D01*
X-24393862Y-35599763D01*
X-24432465Y-35527027D01*
X-24463080Y-35470998D01*
X-24484760Y-35433472D01*
X-24496558Y-35416247D01*
X-24498277Y-35415420D01*
X-24509219Y-35427417D01*
X-24534872Y-35455949D01*
X-24573056Y-35498579D01*
X-24621591Y-35552870D01*
X-24678300Y-35616386D01*
X-24741001Y-35686690D01*
X-24763914Y-35712400D01*
X-25018545Y-35998150D01*
X-25018773Y-36318825D01*
X-25019000Y-36639500D01*
X-25552400Y-36639500D01*
X-25552400Y-33337500D01*
X-25019000Y-33337500D01*
X-25018575Y-34350325D01*
G36*
X-18781708Y-34201537D02*
G01*
X-18716662Y-34202421D01*
X-18665113Y-34203797D01*
X-18630988Y-34205561D01*
X-18618213Y-34207606D01*
X-18618200Y-34207674D01*
X-18621680Y-34220579D01*
X-18631722Y-34255829D01*
X-18647733Y-34311395D01*
X-18669122Y-34385251D01*
X-18695294Y-34475370D01*
X-18725657Y-34579723D01*
X-18759617Y-34696285D01*
X-18796582Y-34823027D01*
X-18835959Y-34957923D01*
X-18877154Y-35098945D01*
X-18919574Y-35244067D01*
X-18962627Y-35391260D01*
X-19005719Y-35538499D01*
X-19048257Y-35683755D01*
X-19089648Y-35825001D01*
X-19129300Y-35960211D01*
X-19166618Y-36087356D01*
X-19201011Y-36204410D01*
X-19231884Y-36309347D01*
X-19258645Y-36400137D01*
X-19280702Y-36474755D01*
X-19297459Y-36531173D01*
X-19308326Y-36567363D01*
X-19311980Y-36579175D01*
X-19331442Y-36639500D01*
X-19836207Y-36639500D01*
X-19847393Y-36598225D01*
X-19852454Y-36578906D01*
X-19863256Y-36537194D01*
X-19879230Y-36475298D01*
X-19899807Y-36395429D01*
X-19924418Y-36299795D01*
X-19952495Y-36190608D01*
X-19983470Y-36070077D01*
X-20016772Y-35940412D01*
X-20051834Y-35803824D01*
X-20059815Y-35772725D01*
X-20094949Y-35636284D01*
X-20128380Y-35507379D01*
X-20159558Y-35388073D01*
X-20187931Y-35280430D01*
X-20212950Y-35186515D01*
X-20234062Y-35108392D01*
X-20250718Y-35048125D01*
X-20262366Y-35007780D01*
X-20268455Y-34989420D01*
X-20269081Y-34988500D01*
X-20273505Y-35000475D01*
X-20283629Y-35035056D01*
X-20298918Y-35090227D01*
X-20318837Y-35163970D01*
X-20342853Y-35254269D01*
X-20370429Y-35359107D01*
X-20401032Y-35476468D01*
X-20434126Y-35604333D01*
X-20469177Y-35740687D01*
X-20487118Y-35810825D01*
X-20697123Y-36633150D01*
X-20958779Y-36636580D01*
X-21220434Y-36640011D01*
X-21251486Y-36541330D01*
X-21259787Y-36514672D01*
X-21274959Y-36465647D01*
X-21296413Y-36396166D01*
X-21323561Y-36308144D01*
X-21355812Y-36203491D01*
X-21392578Y-36084121D01*
X-21433271Y-35951946D01*
X-21477300Y-35808878D01*
X-21524077Y-35656830D01*
X-21573013Y-35497715D01*
X-21622195Y-35337750D01*
X-21671982Y-35175830D01*
X-21719702Y-35020705D01*
X-21764820Y-34874112D01*
X-21806800Y-34737788D01*
X-21845106Y-34613470D01*
X-21879202Y-34502895D01*
X-21908554Y-34407800D01*
X-21932625Y-34329921D01*
X-21950879Y-34270996D01*
X-21962782Y-34232762D01*
X-21967798Y-34216955D01*
X-21967874Y-34216741D01*
X-21964996Y-34211539D01*
X-21950297Y-34207678D01*
X-21921307Y-34205051D01*
X-21875556Y-34203554D01*
X-21810574Y-34203078D01*
X-21723890Y-34203519D01*
X-21672421Y-34204041D01*
X-21370946Y-34207450D01*
X-21156846Y-34937700D01*
X-21117717Y-35071143D01*
X-21080202Y-35199049D01*
X-21045000Y-35319032D01*
X-21012812Y-35428709D01*
X-20984338Y-35525692D01*
X-20960278Y-35607597D01*
X-20941334Y-35672040D01*
X-20928204Y-35716634D01*
X-20921946Y-35737800D01*
X-20901145Y-35807650D01*
X-20695949Y-35007550D01*
X-20490754Y-34207450D01*
X-19972719Y-34207450D01*
X-19766503Y-34998998D01*
X-19730723Y-35136151D01*
X-19696781Y-35265901D01*
X-19665222Y-35386184D01*
X-19636594Y-35494934D01*
X-19611442Y-35590085D01*
X-19590313Y-35669571D01*
X-19573755Y-35731327D01*
X-19562312Y-35773286D01*
X-19556531Y-35793382D01*
X-19555968Y-35794857D01*
X-19551832Y-35783733D01*
X-19541332Y-35750187D01*
X-19525055Y-35696227D01*
X-19503591Y-35623859D01*
X-19477529Y-35535092D01*
X-19447455Y-35431933D01*
X-19413960Y-35316391D01*
X-19377632Y-35190471D01*
X-19339059Y-35056184D01*
X-19323050Y-35000287D01*
X-19094450Y-34201406D01*
X-18856325Y-34201253D01*
X-18781708Y-34201537D01*
X-18781708Y-34201537D01*
G37*
X-18781708Y-34201537D02*
X-18716662Y-34202421D01*
X-18665113Y-34203797D01*
X-18630988Y-34205561D01*
X-18618213Y-34207606D01*
X-18618200Y-34207674D01*
X-18621680Y-34220579D01*
X-18631722Y-34255829D01*
X-18647733Y-34311395D01*
X-18669122Y-34385251D01*
X-18695294Y-34475370D01*
X-18725657Y-34579723D01*
X-18759617Y-34696285D01*
X-18796582Y-34823027D01*
X-18835959Y-34957923D01*
X-18877154Y-35098945D01*
X-18919574Y-35244067D01*
X-18962627Y-35391260D01*
X-19005719Y-35538499D01*
X-19048257Y-35683755D01*
X-19089648Y-35825001D01*
X-19129300Y-35960211D01*
X-19166618Y-36087356D01*
X-19201011Y-36204410D01*
X-19231884Y-36309347D01*
X-19258645Y-36400137D01*
X-19280702Y-36474755D01*
X-19297459Y-36531173D01*
X-19308326Y-36567363D01*
X-19311980Y-36579175D01*
X-19331442Y-36639500D01*
X-19836207Y-36639500D01*
X-19847393Y-36598225D01*
X-19852454Y-36578906D01*
X-19863256Y-36537194D01*
X-19879230Y-36475298D01*
X-19899807Y-36395429D01*
X-19924418Y-36299795D01*
X-19952495Y-36190608D01*
X-19983470Y-36070077D01*
X-20016772Y-35940412D01*
X-20051834Y-35803824D01*
X-20059815Y-35772725D01*
X-20094949Y-35636284D01*
X-20128380Y-35507379D01*
X-20159558Y-35388073D01*
X-20187931Y-35280430D01*
X-20212950Y-35186515D01*
X-20234062Y-35108392D01*
X-20250718Y-35048125D01*
X-20262366Y-35007780D01*
X-20268455Y-34989420D01*
X-20269081Y-34988500D01*
X-20273505Y-35000475D01*
X-20283629Y-35035056D01*
X-20298918Y-35090227D01*
X-20318837Y-35163970D01*
X-20342853Y-35254269D01*
X-20370429Y-35359107D01*
X-20401032Y-35476468D01*
X-20434126Y-35604333D01*
X-20469177Y-35740687D01*
X-20487118Y-35810825D01*
X-20697123Y-36633150D01*
X-20958779Y-36636580D01*
X-21220434Y-36640011D01*
X-21251486Y-36541330D01*
X-21259787Y-36514672D01*
X-21274959Y-36465647D01*
X-21296413Y-36396166D01*
X-21323561Y-36308144D01*
X-21355812Y-36203491D01*
X-21392578Y-36084121D01*
X-21433271Y-35951946D01*
X-21477300Y-35808878D01*
X-21524077Y-35656830D01*
X-21573013Y-35497715D01*
X-21622195Y-35337750D01*
X-21671982Y-35175830D01*
X-21719702Y-35020705D01*
X-21764820Y-34874112D01*
X-21806800Y-34737788D01*
X-21845106Y-34613470D01*
X-21879202Y-34502895D01*
X-21908554Y-34407800D01*
X-21932625Y-34329921D01*
X-21950879Y-34270996D01*
X-21962782Y-34232762D01*
X-21967798Y-34216955D01*
X-21967874Y-34216741D01*
X-21964996Y-34211539D01*
X-21950297Y-34207678D01*
X-21921307Y-34205051D01*
X-21875556Y-34203554D01*
X-21810574Y-34203078D01*
X-21723890Y-34203519D01*
X-21672421Y-34204041D01*
X-21370946Y-34207450D01*
X-21156846Y-34937700D01*
X-21117717Y-35071143D01*
X-21080202Y-35199049D01*
X-21045000Y-35319032D01*
X-21012812Y-35428709D01*
X-20984338Y-35525692D01*
X-20960278Y-35607597D01*
X-20941334Y-35672040D01*
X-20928204Y-35716634D01*
X-20921946Y-35737800D01*
X-20901145Y-35807650D01*
X-20695949Y-35007550D01*
X-20490754Y-34207450D01*
X-19972719Y-34207450D01*
X-19766503Y-34998998D01*
X-19730723Y-35136151D01*
X-19696781Y-35265901D01*
X-19665222Y-35386184D01*
X-19636594Y-35494934D01*
X-19611442Y-35590085D01*
X-19590313Y-35669571D01*
X-19573755Y-35731327D01*
X-19562312Y-35773286D01*
X-19556531Y-35793382D01*
X-19555968Y-35794857D01*
X-19551832Y-35783733D01*
X-19541332Y-35750187D01*
X-19525055Y-35696227D01*
X-19503591Y-35623859D01*
X-19477529Y-35535092D01*
X-19447455Y-35431933D01*
X-19413960Y-35316391D01*
X-19377632Y-35190471D01*
X-19339059Y-35056184D01*
X-19323050Y-35000287D01*
X-19094450Y-34201406D01*
X-18856325Y-34201253D01*
X-18781708Y-34201537D01*
G36*
X-17691100Y-36639500D02*
G01*
X-18249900Y-36639500D01*
X-18249900Y-34201100D01*
X-17691100Y-34201100D01*
X-17691100Y-36639500D01*
X-17691100Y-36639500D01*
G37*
X-17691100Y-36639500D02*
X-18249900Y-36639500D01*
X-18249900Y-34201100D01*
X-17691100Y-34201100D01*
X-17691100Y-36639500D01*
G36*
X-14883664Y-34575750D02*
G01*
X-14837659Y-34489493D01*
X-14765521Y-34378399D01*
X-14677003Y-34282588D01*
X-14575355Y-34204663D01*
X-14463825Y-34147225D01*
X-14375091Y-34119025D01*
X-14303068Y-34107418D01*
X-14215700Y-34101468D01*
X-14122409Y-34101196D01*
X-14032614Y-34106622D01*
X-13955740Y-34117768D01*
X-13954180Y-34118095D01*
X-13830049Y-34155977D01*
X-13721964Y-34213494D01*
X-13630129Y-34290425D01*
X-13554750Y-34386549D01*
X-13496034Y-34501646D01*
X-13454185Y-34635493D01*
X-13448398Y-34661855D01*
X-13443794Y-34685509D01*
X-13439811Y-34709985D01*
X-13436404Y-34737225D01*
X-13433528Y-34769167D01*
X-13431138Y-34807754D01*
X-13429189Y-34854925D01*
X-13427635Y-34912622D01*
X-13426433Y-34982784D01*
X-13425536Y-35067352D01*
X-13424900Y-35168267D01*
X-13424479Y-35287470D01*
X-13424228Y-35426900D01*
X-13424103Y-35588500D01*
X-13424067Y-35709225D01*
X-13423900Y-36639500D01*
X-13982700Y-36639500D01*
X-13982899Y-35791775D01*
X-13982981Y-35615245D01*
X-13983222Y-35462190D01*
X-13983744Y-35330684D01*
X-13984671Y-35218803D01*
X-13986124Y-35124620D01*
X-13988228Y-35046211D01*
X-13991105Y-34981649D01*
X-13994878Y-34929010D01*
X-13999670Y-34886369D01*
X-14005604Y-34851800D01*
X-14012803Y-34823378D01*
X-14021390Y-34799177D01*
X-14031487Y-34777272D01*
X-14043218Y-34755738D01*
X-14049777Y-34744436D01*
X-14102810Y-34677603D01*
X-14171080Y-34628307D01*
X-14250944Y-34597096D01*
X-14338754Y-34584522D01*
X-14430864Y-34591134D01*
X-14523629Y-34617482D01*
X-14607505Y-34660314D01*
X-14682754Y-34718309D01*
X-14744904Y-34789764D01*
X-14796336Y-34878192D01*
X-14839432Y-34987106D01*
X-14848575Y-35015949D01*
X-14854462Y-35035855D01*
X-14859489Y-35055334D01*
X-14863735Y-35076511D01*
X-14867284Y-35101513D01*
X-14870215Y-35132466D01*
X-14872611Y-35171496D01*
X-14874551Y-35220730D01*
X-14876117Y-35282294D01*
X-14877391Y-35358313D01*
X-14878453Y-35450916D01*
X-14879385Y-35562226D01*
X-14880267Y-35694372D01*
X-14881181Y-35849479D01*
X-14881322Y-35874325D01*
X-14885682Y-36639500D01*
X-15455900Y-36639500D01*
X-15455900Y-33337500D01*
X-14884400Y-33337500D01*
X-14883664Y-34575750D01*
X-14883664Y-34575750D01*
G37*
X-14883664Y-34575750D02*
X-14837659Y-34489493D01*
X-14765521Y-34378399D01*
X-14677003Y-34282588D01*
X-14575355Y-34204663D01*
X-14463825Y-34147225D01*
X-14375091Y-34119025D01*
X-14303068Y-34107418D01*
X-14215700Y-34101468D01*
X-14122409Y-34101196D01*
X-14032614Y-34106622D01*
X-13955740Y-34117768D01*
X-13954180Y-34118095D01*
X-13830049Y-34155977D01*
X-13721964Y-34213494D01*
X-13630129Y-34290425D01*
X-13554750Y-34386549D01*
X-13496034Y-34501646D01*
X-13454185Y-34635493D01*
X-13448398Y-34661855D01*
X-13443794Y-34685509D01*
X-13439811Y-34709985D01*
X-13436404Y-34737225D01*
X-13433528Y-34769167D01*
X-13431138Y-34807754D01*
X-13429189Y-34854925D01*
X-13427635Y-34912622D01*
X-13426433Y-34982784D01*
X-13425536Y-35067352D01*
X-13424900Y-35168267D01*
X-13424479Y-35287470D01*
X-13424228Y-35426900D01*
X-13424103Y-35588500D01*
X-13424067Y-35709225D01*
X-13423900Y-36639500D01*
X-13982700Y-36639500D01*
X-13982899Y-35791775D01*
X-13982981Y-35615245D01*
X-13983222Y-35462190D01*
X-13983744Y-35330684D01*
X-13984671Y-35218803D01*
X-13986124Y-35124620D01*
X-13988228Y-35046211D01*
X-13991105Y-34981649D01*
X-13994878Y-34929010D01*
X-13999670Y-34886369D01*
X-14005604Y-34851800D01*
X-14012803Y-34823378D01*
X-14021390Y-34799177D01*
X-14031487Y-34777272D01*
X-14043218Y-34755738D01*
X-14049777Y-34744436D01*
X-14102810Y-34677603D01*
X-14171080Y-34628307D01*
X-14250944Y-34597096D01*
X-14338754Y-34584522D01*
X-14430864Y-34591134D01*
X-14523629Y-34617482D01*
X-14607505Y-34660314D01*
X-14682754Y-34718309D01*
X-14744904Y-34789764D01*
X-14796336Y-34878192D01*
X-14839432Y-34987106D01*
X-14848575Y-35015949D01*
X-14854462Y-35035855D01*
X-14859489Y-35055334D01*
X-14863735Y-35076511D01*
X-14867284Y-35101513D01*
X-14870215Y-35132466D01*
X-14872611Y-35171496D01*
X-14874551Y-35220730D01*
X-14876117Y-35282294D01*
X-14877391Y-35358313D01*
X-14878453Y-35450916D01*
X-14879385Y-35562226D01*
X-14880267Y-35694372D01*
X-14881181Y-35849479D01*
X-14881322Y-35874325D01*
X-14885682Y-36639500D01*
X-15455900Y-36639500D01*
X-15455900Y-33337500D01*
X-14884400Y-33337500D01*
X-14883664Y-34575750D01*
G36*
X13855700Y-36639500D02*
G01*
X13296900Y-36639500D01*
X13296900Y-34201100D01*
X13855700Y-34201100D01*
X13855700Y-36639500D01*
X13855700Y-36639500D01*
G37*
X13855700Y-36639500D02*
X13296900Y-36639500D01*
X13296900Y-34201100D01*
X13855700Y-34201100D01*
X13855700Y-36639500D01*
G36*
X15062200Y-36639500D02*
G01*
X14503400Y-36639500D01*
X14503400Y-33337500D01*
X15062200Y-33337500D01*
X15062200Y-36639500D01*
X15062200Y-36639500D01*
G37*
X15062200Y-36639500D02*
X14503400Y-36639500D01*
X14503400Y-33337500D01*
X15062200Y-33337500D01*
X15062200Y-36639500D01*
G36*
X16244102Y-35363150D02*
G01*
X16276541Y-35325050D01*
X16290949Y-35308831D01*
X16320884Y-35275699D01*
X16364702Y-35227455D01*
X16420758Y-35165903D01*
X16487408Y-35092845D01*
X16563008Y-35010083D01*
X16645913Y-34919421D01*
X16734479Y-34822661D01*
X16806365Y-34744190D01*
X17303750Y-34201431D01*
X17605375Y-34201265D01*
X17689863Y-34201508D01*
X17765218Y-34202277D01*
X17827951Y-34203493D01*
X17874573Y-34205074D01*
X17901596Y-34206938D01*
X17907000Y-34208289D01*
X17898796Y-34218539D01*
X17875603Y-34245203D01*
X17839545Y-34285927D01*
X17792749Y-34338358D01*
X17737338Y-34400142D01*
X17675439Y-34468925D01*
X17609177Y-34542354D01*
X17540677Y-34618074D01*
X17472064Y-34693733D01*
X17405464Y-34766975D01*
X17343003Y-34835449D01*
X17286805Y-34896799D01*
X17238996Y-34948672D01*
X17219242Y-34969954D01*
X17183294Y-35008558D01*
X17583247Y-35812586D01*
X17649466Y-35945864D01*
X17712261Y-36072557D01*
X17770727Y-36190822D01*
X17823961Y-36298815D01*
X17871059Y-36394694D01*
X17911117Y-36476614D01*
X17943230Y-36542734D01*
X17966495Y-36591209D01*
X17980008Y-36620197D01*
X17983200Y-36628057D01*
X17971044Y-36631422D01*
X17936752Y-36634366D01*
X17883585Y-36636760D01*
X17814805Y-36638476D01*
X17733674Y-36639386D01*
X17691082Y-36639500D01*
X17398965Y-36639500D01*
X17091060Y-36023532D01*
X17032976Y-35907659D01*
X16978201Y-35799009D01*
X16927791Y-35699636D01*
X16882803Y-35611595D01*
X16844296Y-35536943D01*
X16813327Y-35477733D01*
X16790953Y-35436021D01*
X16778232Y-35413862D01*
X16775726Y-35410757D01*
X16765740Y-35420677D01*
X16740980Y-35447264D01*
X16703548Y-35488201D01*
X16655547Y-35541172D01*
X16599080Y-35603861D01*
X16536249Y-35673954D01*
X16505799Y-35708034D01*
X16243300Y-36002118D01*
X16243300Y-36639500D01*
X15709900Y-36639500D01*
X15709900Y-33337500D01*
X16243300Y-33337500D01*
X16244102Y-35363150D01*
X16244102Y-35363150D01*
G37*
X16244102Y-35363150D02*
X16276541Y-35325050D01*
X16290949Y-35308831D01*
X16320884Y-35275699D01*
X16364702Y-35227455D01*
X16420758Y-35165903D01*
X16487408Y-35092845D01*
X16563008Y-35010083D01*
X16645913Y-34919421D01*
X16734479Y-34822661D01*
X16806365Y-34744190D01*
X17303750Y-34201431D01*
X17605375Y-34201265D01*
X17689863Y-34201508D01*
X17765218Y-34202277D01*
X17827951Y-34203493D01*
X17874573Y-34205074D01*
X17901596Y-34206938D01*
X17907000Y-34208289D01*
X17898796Y-34218539D01*
X17875603Y-34245203D01*
X17839545Y-34285927D01*
X17792749Y-34338358D01*
X17737338Y-34400142D01*
X17675439Y-34468925D01*
X17609177Y-34542354D01*
X17540677Y-34618074D01*
X17472064Y-34693733D01*
X17405464Y-34766975D01*
X17343003Y-34835449D01*
X17286805Y-34896799D01*
X17238996Y-34948672D01*
X17219242Y-34969954D01*
X17183294Y-35008558D01*
X17583247Y-35812586D01*
X17649466Y-35945864D01*
X17712261Y-36072557D01*
X17770727Y-36190822D01*
X17823961Y-36298815D01*
X17871059Y-36394694D01*
X17911117Y-36476614D01*
X17943230Y-36542734D01*
X17966495Y-36591209D01*
X17980008Y-36620197D01*
X17983200Y-36628057D01*
X17971044Y-36631422D01*
X17936752Y-36634366D01*
X17883585Y-36636760D01*
X17814805Y-36638476D01*
X17733674Y-36639386D01*
X17691082Y-36639500D01*
X17398965Y-36639500D01*
X17091060Y-36023532D01*
X17032976Y-35907659D01*
X16978201Y-35799009D01*
X16927791Y-35699636D01*
X16882803Y-35611595D01*
X16844296Y-35536943D01*
X16813327Y-35477733D01*
X16790953Y-35436021D01*
X16778232Y-35413862D01*
X16775726Y-35410757D01*
X16765740Y-35420677D01*
X16740980Y-35447264D01*
X16703548Y-35488201D01*
X16655547Y-35541172D01*
X16599080Y-35603861D01*
X16536249Y-35673954D01*
X16505799Y-35708034D01*
X16243300Y-36002118D01*
X16243300Y-36639500D01*
X15709900Y-36639500D01*
X15709900Y-33337500D01*
X16243300Y-33337500D01*
X16244102Y-35363150D01*
G36*
X19697415Y-34201399D02*
G01*
X19774714Y-34202379D01*
X19831341Y-34204163D01*
X19869656Y-34206875D01*
X19892021Y-34210638D01*
X19900795Y-34215574D01*
X19901142Y-34216975D01*
X19904677Y-34231617D01*
X19914797Y-34268541D01*
X19930902Y-34325664D01*
X19952393Y-34400905D01*
X19978669Y-34492182D01*
X20009130Y-34597415D01*
X20043177Y-34714521D01*
X20080210Y-34841419D01*
X20119629Y-34976027D01*
X20132982Y-35021523D01*
X20364580Y-35810197D01*
X20559732Y-35048218D01*
X20594555Y-34912303D01*
X20627766Y-34782786D01*
X20658784Y-34661917D01*
X20687031Y-34551948D01*
X20711928Y-34455132D01*
X20732895Y-34373721D01*
X20749354Y-34309966D01*
X20760726Y-34266119D01*
X20766431Y-34244432D01*
X20766639Y-34243669D01*
X20778393Y-34201100D01*
X21034971Y-34201109D01*
X21291550Y-34201119D01*
X21501190Y-35005698D01*
X21710830Y-35810278D01*
X21940918Y-35008864D01*
X22171005Y-34207450D01*
X22407552Y-34203994D01*
X22494110Y-34203097D01*
X22558052Y-34203388D01*
X22602142Y-34205018D01*
X22629141Y-34208135D01*
X22641814Y-34212887D01*
X22643688Y-34216694D01*
X22640124Y-34230914D01*
X22629872Y-34267826D01*
X22613419Y-34325759D01*
X22591248Y-34403039D01*
X22563845Y-34497993D01*
X22531696Y-34608949D01*
X22495286Y-34734233D01*
X22455099Y-34872172D01*
X22411621Y-35021093D01*
X22365337Y-35179323D01*
X22316732Y-35345190D01*
X22290966Y-35433000D01*
X21938656Y-36633150D01*
X21683841Y-36636581D01*
X21429027Y-36640012D01*
X21273022Y-36033331D01*
X21239639Y-35903460D01*
X21206102Y-35772907D01*
X21173366Y-35645387D01*
X21142383Y-35524618D01*
X21114106Y-35414314D01*
X21089489Y-35318194D01*
X21069485Y-35239971D01*
X21057407Y-35192640D01*
X20997797Y-34958631D01*
X20946842Y-35154540D01*
X20933497Y-35206115D01*
X20914737Y-35279008D01*
X20891407Y-35369922D01*
X20864349Y-35475559D01*
X20834408Y-35592621D01*
X20802428Y-35717809D01*
X20769254Y-35847826D01*
X20735729Y-35979374D01*
X20731768Y-35994924D01*
X20567650Y-36639398D01*
X20044656Y-36639500D01*
X19699468Y-35518725D01*
X19648558Y-35353433D01*
X19599252Y-35193364D01*
X19552135Y-35040412D01*
X19507789Y-34896472D01*
X19466800Y-34763438D01*
X19429751Y-34643206D01*
X19397225Y-34537669D01*
X19369807Y-34448724D01*
X19348081Y-34378263D01*
X19332629Y-34328183D01*
X19324038Y-34300378D01*
X19323773Y-34299525D01*
X19293266Y-34201100D01*
X19597083Y-34201100D01*
X19697415Y-34201399D01*
X19697415Y-34201399D01*
G37*
X19697415Y-34201399D02*
X19774714Y-34202379D01*
X19831341Y-34204163D01*
X19869656Y-34206875D01*
X19892021Y-34210638D01*
X19900795Y-34215574D01*
X19901142Y-34216975D01*
X19904677Y-34231617D01*
X19914797Y-34268541D01*
X19930902Y-34325664D01*
X19952393Y-34400905D01*
X19978669Y-34492182D01*
X20009130Y-34597415D01*
X20043177Y-34714521D01*
X20080210Y-34841419D01*
X20119629Y-34976027D01*
X20132982Y-35021523D01*
X20364580Y-35810197D01*
X20559732Y-35048218D01*
X20594555Y-34912303D01*
X20627766Y-34782786D01*
X20658784Y-34661917D01*
X20687031Y-34551948D01*
X20711928Y-34455132D01*
X20732895Y-34373721D01*
X20749354Y-34309966D01*
X20760726Y-34266119D01*
X20766431Y-34244432D01*
X20766639Y-34243669D01*
X20778393Y-34201100D01*
X21034971Y-34201109D01*
X21291550Y-34201119D01*
X21501190Y-35005698D01*
X21710830Y-35810278D01*
X21940918Y-35008864D01*
X22171005Y-34207450D01*
X22407552Y-34203994D01*
X22494110Y-34203097D01*
X22558052Y-34203388D01*
X22602142Y-34205018D01*
X22629141Y-34208135D01*
X22641814Y-34212887D01*
X22643688Y-34216694D01*
X22640124Y-34230914D01*
X22629872Y-34267826D01*
X22613419Y-34325759D01*
X22591248Y-34403039D01*
X22563845Y-34497993D01*
X22531696Y-34608949D01*
X22495286Y-34734233D01*
X22455099Y-34872172D01*
X22411621Y-35021093D01*
X22365337Y-35179323D01*
X22316732Y-35345190D01*
X22290966Y-35433000D01*
X21938656Y-36633150D01*
X21683841Y-36636581D01*
X21429027Y-36640012D01*
X21273022Y-36033331D01*
X21239639Y-35903460D01*
X21206102Y-35772907D01*
X21173366Y-35645387D01*
X21142383Y-35524618D01*
X21114106Y-35414314D01*
X21089489Y-35318194D01*
X21069485Y-35239971D01*
X21057407Y-35192640D01*
X20997797Y-34958631D01*
X20946842Y-35154540D01*
X20933497Y-35206115D01*
X20914737Y-35279008D01*
X20891407Y-35369922D01*
X20864349Y-35475559D01*
X20834408Y-35592621D01*
X20802428Y-35717809D01*
X20769254Y-35847826D01*
X20735729Y-35979374D01*
X20731768Y-35994924D01*
X20567650Y-36639398D01*
X20044656Y-36639500D01*
X19699468Y-35518725D01*
X19648558Y-35353433D01*
X19599252Y-35193364D01*
X19552135Y-35040412D01*
X19507789Y-34896472D01*
X19466800Y-34763438D01*
X19429751Y-34643206D01*
X19397225Y-34537669D01*
X19369807Y-34448724D01*
X19348081Y-34378263D01*
X19332629Y-34328183D01*
X19324038Y-34300378D01*
X19323773Y-34299525D01*
X19293266Y-34201100D01*
X19597083Y-34201100D01*
X19697415Y-34201399D01*
G36*
X23583900Y-36639500D02*
G01*
X23012400Y-36639500D01*
X23012400Y-34201100D01*
X23583900Y-34201100D01*
X23583900Y-36639500D01*
X23583900Y-36639500D01*
G37*
X23583900Y-36639500D02*
X23012400Y-36639500D01*
X23012400Y-34201100D01*
X23583900Y-34201100D01*
X23583900Y-36639500D01*
G36*
X26377900Y-34584679D02*
G01*
X26416341Y-34511601D01*
X26488580Y-34393182D01*
X26569934Y-34296650D01*
X26662888Y-34219370D01*
X26730943Y-34178087D01*
X26826939Y-34136955D01*
X26933237Y-34111450D01*
X27054792Y-34100509D01*
X27095450Y-34099908D01*
X27244407Y-34108898D01*
X27375775Y-34135981D01*
X27490080Y-34181443D01*
X27587850Y-34245575D01*
X27669611Y-34328663D01*
X27735891Y-34430997D01*
X27749247Y-34457807D01*
X27765873Y-34493020D01*
X27780392Y-34525040D01*
X27792957Y-34555783D01*
X27803721Y-34587163D01*
X27812835Y-34621096D01*
X27820452Y-34659497D01*
X27826724Y-34704281D01*
X27831803Y-34757364D01*
X27835841Y-34820659D01*
X27838990Y-34896083D01*
X27841403Y-34985550D01*
X27843231Y-35090975D01*
X27844628Y-35214275D01*
X27845744Y-35357362D01*
X27846732Y-35522154D01*
X27847670Y-35696525D01*
X27852708Y-36639500D01*
X27279600Y-36639500D01*
X27279449Y-35779075D01*
X27279385Y-35601888D01*
X27279179Y-35448208D01*
X27278706Y-35316141D01*
X27277841Y-35203796D01*
X27276461Y-35109277D01*
X27274442Y-35030693D01*
X27271659Y-34966150D01*
X27267989Y-34913755D01*
X27263308Y-34871615D01*
X27257490Y-34837837D01*
X27250413Y-34810527D01*
X27241952Y-34787793D01*
X27231983Y-34767741D01*
X27220382Y-34748478D01*
X27210953Y-34734040D01*
X27165843Y-34682666D01*
X27104980Y-34636099D01*
X27037918Y-34601316D01*
X27020628Y-34595057D01*
X26952811Y-34583366D01*
X26873294Y-34586237D01*
X26790488Y-34602717D01*
X26718098Y-34629328D01*
X26622018Y-34687962D01*
X26541395Y-34766717D01*
X26476213Y-34865615D01*
X26426456Y-34984680D01*
X26408889Y-35045650D01*
X26404100Y-35066705D01*
X26399990Y-35090599D01*
X26396489Y-35119454D01*
X26393526Y-35155392D01*
X26391034Y-35200536D01*
X26388941Y-35257009D01*
X26387179Y-35326933D01*
X26385678Y-35412431D01*
X26384368Y-35515625D01*
X26383180Y-35638638D01*
X26382045Y-35783592D01*
X26381326Y-35887025D01*
X26376271Y-36639500D01*
X25819100Y-36639500D01*
X25819100Y-33337500D01*
X26377900Y-33337500D01*
X26377900Y-34584679D01*
X26377900Y-34584679D01*
G37*
X26377900Y-34584679D02*
X26416341Y-34511601D01*
X26488580Y-34393182D01*
X26569934Y-34296650D01*
X26662888Y-34219370D01*
X26730943Y-34178087D01*
X26826939Y-34136955D01*
X26933237Y-34111450D01*
X27054792Y-34100509D01*
X27095450Y-34099908D01*
X27244407Y-34108898D01*
X27375775Y-34135981D01*
X27490080Y-34181443D01*
X27587850Y-34245575D01*
X27669611Y-34328663D01*
X27735891Y-34430997D01*
X27749247Y-34457807D01*
X27765873Y-34493020D01*
X27780392Y-34525040D01*
X27792957Y-34555783D01*
X27803721Y-34587163D01*
X27812835Y-34621096D01*
X27820452Y-34659497D01*
X27826724Y-34704281D01*
X27831803Y-34757364D01*
X27835841Y-34820659D01*
X27838990Y-34896083D01*
X27841403Y-34985550D01*
X27843231Y-35090975D01*
X27844628Y-35214275D01*
X27845744Y-35357362D01*
X27846732Y-35522154D01*
X27847670Y-35696525D01*
X27852708Y-36639500D01*
X27279600Y-36639500D01*
X27279449Y-35779075D01*
X27279385Y-35601888D01*
X27279179Y-35448208D01*
X27278706Y-35316141D01*
X27277841Y-35203796D01*
X27276461Y-35109277D01*
X27274442Y-35030693D01*
X27271659Y-34966150D01*
X27267989Y-34913755D01*
X27263308Y-34871615D01*
X27257490Y-34837837D01*
X27250413Y-34810527D01*
X27241952Y-34787793D01*
X27231983Y-34767741D01*
X27220382Y-34748478D01*
X27210953Y-34734040D01*
X27165843Y-34682666D01*
X27104980Y-34636099D01*
X27037918Y-34601316D01*
X27020628Y-34595057D01*
X26952811Y-34583366D01*
X26873294Y-34586237D01*
X26790488Y-34602717D01*
X26718098Y-34629328D01*
X26622018Y-34687962D01*
X26541395Y-34766717D01*
X26476213Y-34865615D01*
X26426456Y-34984680D01*
X26408889Y-35045650D01*
X26404100Y-35066705D01*
X26399990Y-35090599D01*
X26396489Y-35119454D01*
X26393526Y-35155392D01*
X26391034Y-35200536D01*
X26388941Y-35257009D01*
X26387179Y-35326933D01*
X26385678Y-35412431D01*
X26384368Y-35515625D01*
X26383180Y-35638638D01*
X26382045Y-35783592D01*
X26381326Y-35887025D01*
X26376271Y-36639500D01*
X25819100Y-36639500D01*
X25819100Y-33337500D01*
X26377900Y-33337500D01*
X26377900Y-34584679D01*
G36*
X-27406600Y-33921700D02*
G01*
X-27965400Y-33921700D01*
X-27965400Y-33337500D01*
X-27406600Y-33337500D01*
X-27406600Y-33921700D01*
X-27406600Y-33921700D01*
G37*
X-27406600Y-33921700D02*
X-27965400Y-33921700D01*
X-27965400Y-33337500D01*
X-27406600Y-33337500D01*
X-27406600Y-33921700D01*
G36*
X-17691100Y-33921700D02*
G01*
X-18249900Y-33921700D01*
X-18249900Y-33337500D01*
X-17691100Y-33337500D01*
X-17691100Y-33921700D01*
X-17691100Y-33921700D01*
G37*
X-17691100Y-33921700D02*
X-18249900Y-33921700D01*
X-18249900Y-33337500D01*
X-17691100Y-33337500D01*
X-17691100Y-33921700D01*
G36*
X13855700Y-33921700D02*
G01*
X13296900Y-33921700D01*
X13296900Y-33337500D01*
X13855700Y-33337500D01*
X13855700Y-33921700D01*
X13855700Y-33921700D01*
G37*
X13855700Y-33921700D02*
X13296900Y-33921700D01*
X13296900Y-33337500D01*
X13855700Y-33337500D01*
X13855700Y-33921700D01*
G36*
X23583900Y-33921700D02*
G01*
X23012400Y-33921700D01*
X23012400Y-33337500D01*
X23583900Y-33337500D01*
X23583900Y-33921700D01*
X23583900Y-33921700D01*
G37*
X23583900Y-33921700D02*
X23012400Y-33921700D01*
X23012400Y-33337500D01*
X23583900Y-33337500D01*
X23583900Y-33921700D01*
M02*
